<?xml version="1.0" encoding="utf-8"?>
<!-- Generator: Adobe Illustrator 16.0.0, SVG Export Plug-In . SVG Version: 6.00 Build 0)  -->
<!DOCTYPE svg PUBLIC "-//W3C//DTD SVG 1.1//EN" "http://www.w3.org/Graphics/SVG/1.1/DTD/svg11.dtd">
<svg version="1.1" id="Layer_1" xmlns="http://www.w3.org/2000/svg" xmlns:xlink="http://www.w3.org/1999/xlink" x="0px" y="0px"
	 width="225px" height="59px" viewBox="0 0 225 59" enable-background="new 0 0 225 59" xml:space="preserve">
<g>
	<g>
		<path fill="#FFFFFF" d="M6.322,39.928l-2.939,6.058c-0.083,0.175-0.201,0.348-0.354,0.513c-0.354,0.342-0.773,0.513-1.257,0.513
			c-0.496,0-0.916-0.174-1.258-0.521C0.171,46.141,0,45.724,0,45.242c0-0.343,0.088-0.651,0.266-0.922l10.502-21.642
			c0.082-0.188,0.207-0.365,0.372-0.531c0.342-0.354,0.762-0.531,1.258-0.531c0.483,0,0.902,0.178,1.257,0.531
			c0.142,0.142,0.254,0.295,0.336,0.46l10.503,21.642c0.199,0.283,0.301,0.614,0.301,0.993c0,0.482-0.175,0.899-0.523,1.248
			c-0.348,0.348-0.765,0.521-1.248,0.521c-0.496,0-0.915-0.171-1.257-0.513c-0.153-0.165-0.272-0.338-0.354-0.513h-0.018
			l-2.94-6.058H6.322z M16.735,36.386l-4.338-8.943l-4.356,8.943H16.735z"/>
		<path fill="#FFFFFF" d="M31.47,24.626c0.354,0.354,0.531,0.78,0.531,1.275v19.304c0,0.496-0.177,0.921-0.531,1.274
			c-0.354,0.354-0.778,0.531-1.275,0.531c-0.495,0-0.92-0.178-1.274-0.531s-0.531-0.778-0.531-1.274V25.902
			c0-0.495,0.177-0.922,0.531-1.275s0.779-0.532,1.274-0.532C30.691,24.094,31.116,24.273,31.47,24.626z"/>
		<path fill="#FFFFFF" d="M48.759,39.928l-2.94,6.058c-0.082,0.175-0.201,0.348-0.354,0.513c-0.354,0.342-0.774,0.513-1.258,0.513
			c-0.496,0-0.915-0.174-1.258-0.521c-0.343-0.349-0.513-0.766-0.513-1.248c0-0.343,0.088-0.651,0.265-0.922l10.502-21.642
			c0.083-0.188,0.207-0.365,0.372-0.531c0.343-0.354,0.762-0.531,1.258-0.531c0.483,0,0.903,0.178,1.257,0.531
			c0.142,0.142,0.254,0.295,0.337,0.46l10.501,21.642c0.201,0.283,0.302,0.614,0.302,0.993c0,0.482-0.175,0.899-0.522,1.248
			c-0.349,0.348-0.765,0.521-1.248,0.521c-0.496,0-0.915-0.171-1.258-0.513c-0.153-0.165-0.272-0.338-0.354-0.513h-0.018
			l-2.939-6.058H48.759z M59.172,36.386l-4.339-8.943l-4.356,8.943H59.172z"/>
		<path fill="#FFFFFF" d="M79.679,29.302c0.496,0,0.921,0.178,1.276,0.532c0.354,0.354,0.53,0.777,0.53,1.274
			c0,0.495-0.177,0.92-0.53,1.275c-0.355,0.354-0.78,0.529-1.276,0.529h-0.018c-1.452,0-2.691,0.515-3.719,1.541
			c-0.944,0.934-1.451,2.05-1.522,3.348c0.011,0.107,0.018,0.212,0.018,0.319v6.836c0,0.662-0.178,1.169-0.531,1.522
			c-0.354,0.354-0.779,0.531-1.275,0.531s-0.921-0.178-1.275-0.531c-0.354-0.354-0.531-0.873-0.531-1.559v-6.836
			c0.023-2.408,0.886-4.463,2.586-6.163C75.039,30.293,77.129,29.419,79.679,29.302z"/>
		<path fill="#FFFFFF" d="M93.157,33.358c-0.651-0.296-1.364-0.444-2.144-0.444c-1.453,0-2.691,0.513-3.719,1.533
			c-1.028,1.021-1.541,2.258-1.541,3.709c0,1.453,0.513,2.694,1.541,3.721c1.027,1.026,2.266,1.541,3.719,1.541
			c1.44,0,2.674-0.508,3.7-1.524c0.013-0.012,0.024-0.023,0.036-0.034c0.342-0.343,0.762-0.514,1.257-0.514
			c0.497,0,0.921,0.174,1.276,0.521c0.354,0.349,0.531,0.771,0.531,1.267s-0.178,0.92-0.531,1.274
			c-0.013,0.014-0.024,0.024-0.036,0.036c-1.712,1.712-3.79,2.567-6.233,2.567c-2.444,0-4.527-0.861-6.251-2.584
			c-1.725-1.725-2.586-3.809-2.586-6.252s0.861-4.528,2.586-6.253c1.724-1.723,3.807-2.586,6.251-2.586
			c2.443,0,4.521,0.856,6.233,2.568l-0.018,0.018c0,0.014,0.006,0.019,0.018,0.019c0.343,0.342,0.514,0.762,0.514,1.258
			c0,0.482-0.171,0.897-0.514,1.238l-5.065,5.03c-0.354,0.342-0.778,0.515-1.274,0.515c-0.508,0-0.939-0.173-1.293-0.515
			c-0.342-0.354-0.514-0.785-0.514-1.292c0-0.497,0.172-0.922,0.514-1.275L93.157,33.358z"/>
		<path fill="#FFFFFF" d="M111.202,33.358c-0.649-0.296-1.363-0.444-2.143-0.444c-1.452,0-2.691,0.513-3.72,1.533
			c-1.026,1.021-1.54,2.258-1.54,3.709c0,1.453,0.514,2.694,1.54,3.721c1.028,1.026,2.268,1.541,3.72,1.541
			c1.44,0,2.674-0.508,3.701-1.524c0.012-0.012,0.023-0.023,0.035-0.034c0.343-0.343,0.762-0.514,1.258-0.514
			c0.495,0,0.921,0.174,1.274,0.521c0.355,0.349,0.532,0.771,0.532,1.267s-0.177,0.92-0.532,1.274
			c-0.012,0.014-0.023,0.024-0.035,0.036c-1.712,1.712-3.79,2.567-6.233,2.567s-4.527-0.861-6.252-2.584
			c-1.724-1.725-2.586-3.809-2.586-6.252s0.862-4.528,2.586-6.253c1.725-1.723,3.809-2.586,6.252-2.586s4.521,0.856,6.233,2.568
			l-0.018,0.018c0,0.014,0.006,0.019,0.018,0.019c0.343,0.342,0.515,0.762,0.515,1.258c0,0.482-0.172,0.897-0.515,1.238l-5.064,5.03
			c-0.354,0.342-0.779,0.515-1.275,0.515c-0.508,0-0.938-0.173-1.293-0.515c-0.343-0.354-0.513-0.785-0.513-1.292
			c0-0.497,0.17-0.922,0.513-1.275L111.202,33.358z"/>
		<path fill="#FFFFFF" d="M114.585,50.5c1.37-0.047,2.55-0.561,3.543-1.541c1.014-1.026,1.521-2.266,1.521-3.718V31.039
			c0-0.497,0.178-0.922,0.532-1.275c0.354-0.355,0.779-0.533,1.274-0.533c0.496,0,0.921,0.178,1.275,0.533
			c0.354,0.354,0.531,0.778,0.531,1.275v14.167c0,0.094-0.005,0.188-0.018,0.282c-0.06,2.351-0.921,4.356-2.586,6.022
			c-1.724,1.724-3.807,2.586-6.252,2.586h-0.07c-0.496,0-0.921-0.177-1.274-0.531c-0.355-0.355-0.532-0.78-0.532-1.275
			s0.177-0.921,0.532-1.274c0.354-0.354,0.778-0.532,1.274-0.532C114.42,50.483,114.502,50.488,114.585,50.5z"/>
	</g>
	<g>
		<path fill="#FFFFFF" d="M124.006,24.841c-0.678,0.679-1.504,1.017-2.483,1.017c-0.979,0-1.807-0.338-2.483-1.017
			c-0.678-0.676-1.017-1.505-1.017-2.482c0-0.979,0.339-1.807,1.017-2.484c0.677-0.678,1.505-1.017,2.483-1.017
			c0.979,0,1.806,0.339,2.483,1.017c0.677,0.678,1.016,1.505,1.016,2.484C125.021,23.336,124.683,24.166,124.006,24.841z"/>
		<path fill="#00AEEF" d="M76.075,22.105c0.151-0.319,0.339-0.611,0.564-0.875L90.355,2.885c0.641-0.865,1.468-1.543,2.483-2.031
			c1.017-0.489,2.088-0.735,3.218-0.735c1.205,0,2.334,0.275,3.387,0.819c1.054,0.546,1.901,1.251,2.539,2.117l0.619,0.832
			l-3.447,4.609l-0.952-1.265c-0.227-0.301-0.537-0.629-0.933-0.988c-0.395-0.357-0.799-0.537-1.213-0.537
			c-0.413,0-0.818,0.18-1.214,0.537c-0.396,0.359-0.724,0.688-0.987,0.988L80.704,24.786c-0.527,0.716-1.242,1.072-2.146,1.072
			c-0.752,0-1.391-0.263-1.918-0.79c-0.527-0.526-0.79-1.165-0.79-1.919C75.85,22.774,75.925,22.425,76.075,22.105z"/>
		<path fill="#FFF200" d="M89.07,22.105c0.151-0.319,0.339-0.611,0.564-0.875l9.52-12.733l3.447-4.609l0.75-1.002
			c0.64-0.865,1.467-1.543,2.483-2.031c1.016-0.489,2.088-0.735,3.217-0.735c1.205,0,2.334,0.275,3.387,0.819
			c1.054,0.546,1.901,1.251,2.54,2.117l0.91,1.225c-0.085,0.1-0.174,0.194-0.253,0.301l-3.206,4.288l-1.232-1.637
			c-0.226-0.301-0.536-0.629-0.932-0.988c-0.396-0.357-0.8-0.537-1.214-0.537c-0.413,0-0.818,0.18-1.213,0.537
			c-0.396,0.359-0.725,0.688-0.988,0.988l-0.885,1.182l-3.428,4.575l-8.84,11.797c-0.525,0.716-1.241,1.072-2.145,1.072
			c-0.752,0-1.392-0.263-1.919-0.79c-0.526-0.526-0.79-1.165-0.79-1.919C88.845,22.774,88.92,22.425,89.07,22.105z"/>
		<path fill="#ED1C24" d="M101.355,22.105c0.15-0.319,0.338-0.611,0.564-0.875l4.036-5.398l3.401-4.549l3.072-4.109l3.206-4.288
			c0.079-0.107,0.168-0.201,0.253-0.301c0.602-0.719,1.34-1.303,2.23-1.731c1.017-0.488,2.089-0.734,3.218-0.734
			c1.204,0,2.333,0.275,3.387,0.818c1.054,0.546,1.899,1.252,2.54,2.117l13.717,18.458c0.376,0.413,0.563,0.959,0.563,1.637
			c0,0.754-0.263,1.393-0.79,1.919c-0.526,0.527-1.165,0.79-1.919,0.79c-0.828,0-1.523-0.338-2.09-1.017L123.481,7.232
			c-0.226-0.302-0.536-0.631-0.931-0.988c-0.396-0.357-0.799-0.537-1.214-0.537c-0.414,0-0.818,0.18-1.214,0.537
			c-0.342,0.311-0.63,0.597-0.873,0.862c-0.039,0.042-0.079,0.085-0.114,0.126l-3.322,4.433l-3.098,4.136l-3.383,4.516l-3.35,4.469
			c-0.526,0.717-1.241,1.073-2.145,1.073c-0.753,0-1.393-0.263-1.919-0.79c-0.526-0.526-0.79-1.165-0.79-1.919
			C101.13,22.773,101.205,22.425,101.355,22.105z"/>
	</g>
	<g>
		<path fill="#FFFFFF" d="M1.334,53.25L0.87,54.568H0.273l1.566-4.389h0.723l1.541,4.389H3.478L3.025,53.25H1.334z M2.194,50.781
			L1.472,52.78h1.397L2.194,50.781z"/>
		<path fill="#FFFFFF" d="M9.296,54.568H8.85v-0.415c-0.271,0.392-0.572,0.554-1.006,0.554c-0.854,0-1.373-0.655-1.373-1.722
			c0-1.006,0.536-1.663,1.354-1.663c0.422,0,0.76,0.17,0.971,0.488v-1.631h0.5V54.568z M6.995,53.014
			c0,0.736,0.367,1.224,0.921,1.224c0.53,0,0.88-0.482,0.88-1.211c0-0.759-0.344-1.234-0.886-1.234
			C7.362,51.792,6.995,52.281,6.995,53.014z"/>
		<path fill="#FFFFFF" d="M13.023,54.568l-1.108-3.155h0.566l0.843,2.561l0.892-2.561h0.566l-1.211,3.155H13.023z"/>
		<path fill="#FFFFFF" d="M17.679,53.16c0.007,0.313,0.048,0.493,0.169,0.674c0.169,0.267,0.44,0.409,0.76,0.409
			c0.403,0,0.686-0.215,0.824-0.631h0.506c-0.126,0.685-0.626,1.095-1.349,1.095c-0.892,0-1.434-0.631-1.434-1.673
			c0-1.044,0.565-1.712,1.445-1.712c0.59,0,1.072,0.314,1.276,0.832c0.091,0.235,0.127,0.523,0.127,1.006H17.679z M19.461,52.75
			c0-0.565-0.354-0.964-0.866-0.964c-0.506,0-0.861,0.38-0.903,0.964H19.461z"/>
		<path fill="#FFFFFF" d="M23.311,51.413v0.572c0.289-0.47,0.536-0.663,0.861-0.663c0.06,0,0.107,0.007,0.192,0.018v0.514
			c-0.692-0.019-1.006,0.319-1.012,1.076v1.639h-0.506v-3.155H23.311z"/>
		<path fill="#FFFFFF" d="M28.297,51.824h-0.519v2.161c0,0.222,0.061,0.282,0.277,0.282c0.103,0,0.169-0.006,0.241-0.024v0.423
			c-0.169,0.029-0.277,0.041-0.409,0.041c-0.392,0-0.609-0.174-0.609-0.5v-2.383h-0.427v-0.411h0.427v-0.867h0.5v0.867h0.519V51.824
			z"/>
		<path fill="#FFFFFF" d="M31.483,50.81h-0.507v-0.631h0.507V50.81z M31.483,54.568h-0.5v-3.155h0.5V54.568z"/>
		<path fill="#FFFFFF" d="M36.192,52.292c-0.013-0.332-0.229-0.507-0.632-0.507c-0.41,0-0.669,0.182-0.669,0.477
			c0,0.223,0.175,0.355,0.584,0.451l0.482,0.114c0.626,0.15,0.891,0.411,0.891,0.879c0,0.609-0.506,1-1.301,1
			c-0.825,0-1.234-0.349-1.259-1.078h0.53c0.03,0.225,0.066,0.314,0.145,0.405c0.126,0.131,0.355,0.209,0.627,0.209
			c0.439,0,0.734-0.197,0.734-0.499c0-0.223-0.139-0.35-0.488-0.434l-0.47-0.115c-0.746-0.181-0.999-0.415-0.999-0.909
			c0-0.583,0.476-0.964,1.21-0.964c0.729,0,1.138,0.35,1.145,0.971H36.192z"/>
		<path fill="#FFFFFF" d="M40.167,50.81h-0.506v-0.631h0.506V50.81z M40.167,54.568h-0.499v-3.155h0.499V54.568z"/>
		<path fill="#FFFFFF" d="M43.654,51.413v0.53c0.277-0.44,0.578-0.621,1.049-0.621c0.607,0,0.999,0.337,0.999,0.862v2.384h-0.5
			v-2.185c0-0.381-0.253-0.62-0.65-0.62c-0.518,0-0.855,0.421-0.855,1.064v1.74H43.19v-3.155H43.654z"/>
		<path fill="#FFFFFF" d="M51.183,51.413v2.639c0,0.741-0.091,1.131-0.331,1.428c-0.205,0.251-0.59,0.402-1.054,0.402
			c-0.687,0-1.15-0.367-1.199-0.951h0.513c0.048,0.361,0.271,0.53,0.698,0.53c0.627,0,0.861-0.313,0.861-1.157V54.14
			c-0.266,0.398-0.536,0.566-0.915,0.566c-0.325,0-0.627-0.149-0.861-0.427c-0.271-0.319-0.398-0.705-0.398-1.234
			c0-1.014,0.53-1.724,1.296-1.724c0.397,0,0.674,0.17,0.927,0.55v-0.459H51.183z M49.021,53.014c0,0.778,0.301,1.229,0.819,1.229
			c0.524,0,0.831-0.445,0.831-1.209c0-0.802-0.301-1.248-0.831-1.248C49.321,51.786,49.021,52.244,49.021,53.014z"/>
		<path fill="#FFFFFF" d="M61.096,52.558c0,0.36-0.126,0.759-0.349,1.102l0.734,0.908h-0.656L60.452,54.1
			c-0.235,0.228-0.338,0.312-0.464,0.396c-0.217,0.139-0.495,0.21-0.796,0.21c-0.74,0-1.234-0.476-1.234-1.197
			c0-0.555,0.223-0.85,0.976-1.283c-0.379-0.477-0.487-0.699-0.487-0.982c0-0.529,0.451-0.945,1.029-0.945
			c0.573,0,0.982,0.392,0.982,0.945c0,0.435-0.205,0.692-0.831,1.049l0.801,0.982c0.121-0.212,0.192-0.502,0.187-0.717H61.096z
			 M59.198,52.54c-0.548,0.348-0.734,0.59-0.734,0.926c0,0.43,0.355,0.772,0.789,0.772c0.313,0,0.572-0.138,0.91-0.494L59.198,52.54
			z M59.981,51.232c0-0.295-0.223-0.512-0.523-0.512c-0.313,0-0.518,0.205-0.518,0.518c0,0.218,0.054,0.313,0.421,0.735
			C59.819,51.691,59.981,51.498,59.981,51.232z"/>
		<path fill="#FFFFFF" d="M68.78,54.568h-0.56v-4.389h1.813c0.867,0,1.354,0.463,1.354,1.287c0,0.405-0.115,0.688-0.38,0.929
			c-0.234,0.21-0.506,0.312-0.849,0.312h-1.38V54.568z M69.949,52.214c0.535,0,0.855-0.29,0.855-0.771s-0.32-0.771-0.855-0.771
			H68.78v1.542H69.949z"/>
		<path fill="#FFFFFF" d="M76.31,54.568v-0.439c-0.296,0.416-0.591,0.578-1.055,0.578c-0.614,0-1.006-0.337-1.006-0.86v-2.434h0.501
			v2.234c0,0.381,0.252,0.62,0.649,0.62c0.524,0,0.861-0.421,0.861-1.064v-1.79h0.5v3.155H76.31z"/>
		<path fill="#FFFFFF" d="M80.2,50.179v1.662c0.234-0.355,0.542-0.52,0.975-0.52c0.838,0,1.35,0.632,1.35,1.656
			c0,1.05-0.542,1.729-1.373,1.729c-0.439,0-0.759-0.174-1-0.542v0.403H79.7v-4.389H80.2z M80.2,53.014
			c0,0.741,0.343,1.224,0.879,1.224c0.548,0,0.922-0.487,0.922-1.204c0-0.753-0.362-1.241-0.922-1.241
			C80.543,51.792,80.2,52.275,80.2,53.014z"/>
		<path fill="#FFFFFF" d="M85.807,54.568h-0.506v-4.389h0.506V54.568z"/>
		<path fill="#FFFFFF" d="M89.301,50.81h-0.506v-0.631h0.506V50.81z M89.301,54.568h-0.5v-3.155h0.5V54.568z"/>
		<path fill="#FFFFFF" d="M94.232,52.473c-0.06-0.441-0.325-0.688-0.747-0.688c-0.548,0-0.873,0.471-0.873,1.26
			c0,0.747,0.331,1.197,0.885,1.197c0.429,0,0.688-0.253,0.771-0.758h0.505c-0.06,0.771-0.535,1.222-1.288,1.222
			c-0.854,0-1.396-0.644-1.396-1.661c0-1.048,0.548-1.724,1.402-1.724c0.439,0,0.819,0.176,1.036,0.471
			c0.121,0.175,0.187,0.373,0.211,0.681H94.232z"/>
		<path fill="#FFFFFF" d="M97.984,50.81h-0.506v-0.631h0.506V50.81z M97.984,54.568h-0.5v-3.155h0.5V54.568z"/>
		<path fill="#FFFFFF" d="M102.116,51.824h-0.519v2.161c0,0.222,0.061,0.282,0.277,0.282c0.103,0,0.168-0.006,0.241-0.024v0.423
			c-0.168,0.029-0.277,0.041-0.409,0.041c-0.393,0-0.608-0.174-0.608-0.5v-2.383h-0.428v-0.411h0.428v-0.867h0.499v0.867h0.519
			V51.824z"/>
		<path fill="#FFFFFF" d="M107.403,51.413L106,55.231c-0.096,0.254-0.186,0.386-0.343,0.499c-0.133,0.098-0.308,0.151-0.47,0.151
			c-0.133,0-0.234-0.024-0.337-0.078v-0.451c0.108,0.022,0.181,0.035,0.265,0.035c0.212,0,0.318-0.083,0.403-0.307l0.192-0.499
			l-1.066-3.169h0.537l0.807,2.458l0.873-2.458H107.403z"/>
	</g>
	<linearGradient id="SVGID_1_" gradientUnits="userSpaceOnUse" x1="0.1709" y1="58.5376" x2="224.7295" y2="58.5376">
		<stop  offset="0" style="stop-color:#FFF200"/>
		<stop  offset="0.2315" style="stop-color:#00A651"/>
		<stop  offset="0.4828" style="stop-color:#00AEEF"/>
		<stop  offset="0.7537" style="stop-color:#2E3192"/>
		<stop  offset="1" style="stop-color:#ED1C24"/>
	</linearGradient>
	<rect x="0.171" y="58.194" fill="url(#SVGID_1_)" width="224.559" height="0.688"/>
	<g>
		<path fill="#FFFFFF" d="M133.58,30.094h6.697c1.859,0,3.405,0.662,4.639,1.987c1.349,1.257,2.023,2.815,2.023,4.675v5.128h5.127
			v5.127h-15.521c-0.814,0-1.279,0.407-1.396,1.221c0.093,0.93,0.558,1.396,1.396,1.396h0.627v5.128h-0.627
			c-1.745,0-3.303-0.617-4.675-1.85c-1.232-1.278-1.848-2.837-1.848-4.674c0-4.232,2.174-6.348,6.522-6.348h5.127v-5.128
			c0-0.93-0.465-1.396-1.395-1.396h-6.697V30.094z M142.3,49.488c1.86,0,2.79,0.942,2.79,2.825c0,1.86-0.93,2.791-2.79,2.791
			c-1.883,0-2.825-0.931-2.825-2.791C139.475,50.43,140.417,49.488,142.3,49.488z"/>
		<path fill="#FFFFFF" d="M168.356,30.094v10.395c0,1.722-0.617,3.268-1.85,4.64c-1.255,1.255-2.813,1.883-4.673,1.883h-11.162
			v-5.127h11.162c0.929,0,1.395-0.465,1.395-1.396V30.094H168.356z M156.392,50.779c1.884,0,2.825,0.941,2.825,2.825
			c0,1.86-0.941,2.79-2.825,2.79c-1.861,0-2.79-0.93-2.79-2.79C153.602,51.72,154.53,50.779,156.392,50.779z M163.473,50.779
			c1.884,0,2.825,0.941,2.825,2.825c0,1.86-0.941,2.79-2.825,2.79c-1.86,0-2.791-0.93-2.791-2.79
			C160.682,51.72,161.612,50.779,163.473,50.779z"/>
		<path fill="#FFFFFF" d="M181.226,41.884h5.127v5.127h-5.127v1.221c0,1.768-0.675,3.325-2.023,4.674
			c-1.349,1.232-2.895,1.85-4.639,1.85h-3.418v-5.128h3.418c0.93,0,1.395-0.466,1.395-1.396V30.094h5.268V41.884z"/>
		<path fill="#FFFFFF" d="M194.724,30.234h3.593c1.882,0,3.429,0.628,4.639,1.883c1.256,1.373,1.884,2.919,1.884,4.64l-2.198,5.128
			h5.442v5.127h-23.126v-5.127h5.441l-2.197-5.128c0-1.721,0.628-3.267,1.883-4.64C191.456,30.862,193.002,30.234,194.724,30.234z
			 M198.316,35.361h-3.593c-0.931,0-1.396,0.466-1.396,1.396l2.198,5.128h1.848l2.337-5.128
			C199.711,35.827,199.245,35.361,198.316,35.361z"/>
		<path fill="#FFFFFF" d="M217.083,22.176v18.313c0,1.768-0.676,3.326-2.025,4.674c-1.371,1.233-2.93,1.849-4.673,1.849h-3.696
			v-5.127h3.696c0.93,0,1.395-0.465,1.395-1.396V22.176H217.083z"/>
		<path fill="#FFFFFF" d="M225,47.011h-5.128V22.176H225V47.011z"/>
	</g>
	<g>
		<path fill="#FFFFFF" d="M150.288,16.577v3.676c0,0.135-0.004,0.234-0.011,0.298c-0.035,0.327-0.1,0.604-0.191,0.831
			c-0.057,0.142-0.128,0.284-0.213,0.426c-0.093,0.163-0.249,0.369-0.47,0.619c-0.582,0.61-1.306,0.911-2.173,0.904
			c-0.838-0.008-1.54-0.309-2.108-0.904c-0.568-0.605-0.85-1.333-0.842-2.185c0.021-1.044,0.437-1.85,1.246-2.419l0.501,0.726
			c-0.575,0.524-0.87,1.107-0.885,1.746c-0.007,0.575,0.199,1.072,0.618,1.492c0.419,0.419,0.916,0.632,1.491,0.64
			c0.568,0.014,1.062-0.189,1.48-0.609c0.412-0.403,0.618-0.894,0.618-1.469v-3.771H150.288z M147.455,17.344
			c0.155,0,0.28,0.053,0.372,0.159c0.106,0.106,0.16,0.235,0.16,0.384c0,0.149-0.054,0.276-0.16,0.384
			c-0.092,0.105-0.217,0.16-0.372,0.16c-0.149,0-0.277-0.055-0.384-0.16c-0.106-0.107-0.16-0.234-0.16-0.384
			c0-0.148,0.054-0.277,0.16-0.384S147.306,17.344,147.455,17.344z"/>
		<path fill="#FFFFFF" d="M154.805,13.03v6.467c0,0.283,0.092,0.528,0.277,0.734c0.191,0.213,0.415,0.319,0.671,0.319h0.266v0.81
			h-0.266c-0.483,0-0.913-0.199-1.289-0.596c-0.106,0.142-0.221,0.256-0.341,0.34c-0.234,0.171-0.568,0.256-1.002,0.256h-1.864
			l-0.116-0.81h1.885c0.192,0,0.37-0.061,0.533-0.182c0.305-0.219,0.458-0.61,0.458-1.171V13.03H154.805z M152.61,20.146h-0.874
			v-6.104h0.874V20.146z"/>
		<path fill="#FFFFFF" d="M159.226,15.619c1.016,0,1.8,0.39,2.354,1.171l-0.703,0.479c-0.44-0.49-0.947-0.759-1.523-0.81
			c-0.604-0.063-1.136,0.136-1.597,0.597c-0.626,0.64-0.768,1.375-0.427,2.205c0.355,0.859,0.977,1.289,1.864,1.289h3.047v0.81
			h-6.647v-0.81h1.534c-0.562-0.561-0.842-1.243-0.842-2.045c0-0.81,0.288-1.498,0.863-2.067
			C157.716,15.892,158.408,15.619,159.226,15.619z"/>
		<path fill="#FFFFFF" d="M166.757,13.03v6.679c0,0.199-0.032,0.381-0.097,0.544c-0.099,0.354-0.298,0.639-0.596,0.852
			c-0.234,0.171-0.564,0.256-0.991,0.256h-1.875l-0.106-0.81h1.886c0.191,0,0.369-0.061,0.533-0.182
			c0.305-0.219,0.457-0.61,0.457-1.171V13.03H166.757z M164.562,20.146h-0.873v-6.104h0.873V20.146z"/>
		<path fill="#FFFFFF" d="M168.481,21.36h-0.873v-8.703h0.873V21.36z"/>
		<path fill="#FFFFFF" d="M174.457,15.671v5.785c0,0.39-0.103,0.752-0.309,1.086c-0.234,0.355-0.54,0.561-0.916,0.618
			c-0.397,0.057-0.987,0.085-1.769,0.085v-0.81c0.688,0,1.176-0.014,1.46-0.043c0.383-0.042,0.604-0.305,0.66-0.788v-0.234h-1.353
			c-0.796,0-1.478-0.277-2.046-0.831c-0.568-0.567-0.852-1.25-0.852-2.045c0-0.675,0.217-1.271,0.649-1.79
			c0.412-0.504,0.948-0.848,1.608-1.033H174.457z M173.584,16.545h-1.523c-0.476,0-0.901,0.205-1.278,0.618
			c-0.341,0.368-0.511,0.813-0.511,1.331c0,0.574,0.205,1.065,0.617,1.47c0.391,0.39,0.878,0.586,1.46,0.586h1.235V16.545z"/>
		<path fill="#FFFFFF" d="M178.207,16.333c0.61-0.575,1.339-0.863,2.184-0.863c0.846,0,1.577,0.288,2.194,0.863
			c0.561,0.503,0.874,1.117,0.938,1.842v2.376h0.853v0.81h-3.984c-0.853,0-1.58-0.28-2.184-0.842
			c-0.61-0.567-0.916-1.264-0.916-2.087C177.291,17.606,177.597,16.908,178.207,16.333z M180.391,16.321
			c-0.604,0-1.122,0.207-1.555,0.618c-0.434,0.405-0.65,0.902-0.65,1.492c0.015,0.596,0.23,1.09,0.65,1.48
			c0.469,0.425,0.987,0.639,1.555,0.639h2.259v-2.119c0-0.568-0.231-1.065-0.692-1.492C181.51,16.528,180.987,16.321,180.391,16.321
			z M179.624,13.542c0.149,0,0.27,0.053,0.362,0.16c0.106,0.091,0.16,0.212,0.16,0.361c0,0.142-0.054,0.267-0.16,0.374
			c-0.1,0.099-0.221,0.147-0.362,0.147c-0.149,0-0.273-0.049-0.373-0.147c-0.1-0.114-0.149-0.238-0.149-0.374
			c0-0.142,0.05-0.263,0.149-0.361C179.351,13.594,179.475,13.542,179.624,13.542z M181.062,13.542c0.143,0,0.263,0.053,0.362,0.16
			c0.106,0.091,0.16,0.212,0.16,0.361c0,0.142-0.054,0.267-0.16,0.374c-0.1,0.099-0.22,0.147-0.362,0.147
			c-0.148,0-0.273-0.049-0.372-0.147c-0.1-0.114-0.149-0.238-0.149-0.374c0-0.142,0.05-0.263,0.149-0.361
			C180.781,13.594,180.906,13.542,181.062,13.542z"/>
		<path fill="#FFFFFF" d="M187.539,15.767v3.751c0,0.411-0.149,0.795-0.447,1.149c-0.362,0.461-0.977,0.692-1.843,0.692h-1.3v-0.81
			h1.3c0.567,0,0.94-0.089,1.118-0.266c0.185-0.192,0.277-0.451,0.277-0.778v-3.739H187.539z M185.483,22.18
			c0.142,0,0.262,0.053,0.362,0.16c0.106,0.1,0.159,0.22,0.159,0.362c0,0.142-0.053,0.266-0.159,0.373
			c-0.101,0.1-0.221,0.148-0.362,0.148c-0.149,0-0.273-0.049-0.373-0.148c-0.1-0.114-0.149-0.238-0.149-0.373
			c0-0.143,0.05-0.263,0.149-0.362C185.202,22.233,185.327,22.18,185.483,22.18z M186.921,22.18c0.149,0,0.27,0.053,0.362,0.16
			c0.106,0.1,0.16,0.22,0.16,0.362c0,0.142-0.054,0.266-0.16,0.373c-0.1,0.1-0.22,0.148-0.362,0.148
			c-0.148,0-0.273-0.049-0.373-0.148c-0.1-0.114-0.148-0.238-0.148-0.373c0-0.143,0.049-0.263,0.148-0.362
			C186.647,22.233,186.772,22.18,186.921,22.18z"/>
		<path fill="#FFFFFF" d="M189.265,20.55h0.852v0.81h-1.726v-8.703h0.874V20.55z"/>
		<path fill="#FFFFFF" d="M193.322,15.619c1.016,0,1.801,0.39,2.354,1.171l-0.703,0.479c-0.44-0.49-0.948-0.759-1.523-0.81
			c-0.604-0.063-1.137,0.136-1.598,0.597c-0.625,0.64-0.767,1.375-0.426,2.205c0.354,0.859,0.976,1.289,1.864,1.289h3.047v0.81
			h-6.647v-0.81h1.533c-0.561-0.561-0.841-1.243-0.841-2.045c0-0.81,0.287-1.498,0.862-2.067
			C191.813,15.892,192.506,15.619,193.322,15.619z"/>
		<path fill="#FFFFFF" d="M198.127,15.789h2.161c0.788,0,1.46,0.267,2.015,0.8c0.568,0.532,0.851,1.192,0.851,1.981
			c0,0.78-0.279,1.441-0.84,1.98h1.395v0.81h-6.519v-0.81h2.62c0.902,0,1.517-0.153,1.843-0.458
			c0.384-0.362,0.579-0.846,0.587-1.448c0.006-0.568-0.172-1.059-0.533-1.471c-0.362-0.384-0.799-0.575-1.311-0.575h-2.269V15.789z"
			/>
		<path fill="#FFFFFF" d="M206.265,12.657v7.02c0,0.398-0.11,0.753-0.329,1.066c-0.221,0.333-0.517,0.528-0.886,0.585
			c-0.127,0.021-0.717,0.032-1.768,0.032v-0.81c0.533,0,0.877-0.007,1.033-0.021c0.418-0.057,0.707-0.188,0.863-0.394
			c0.143-0.192,0.212-0.388,0.212-0.586v-6.893H206.265z"/>
		<path fill="#FFFFFF" d="M207.991,21.36h-0.874v-8.703h0.874V21.36z"/>
	</g>
</g>
</svg>
