<?xml version="1.0" encoding="utf-8"?>
<!-- Generator: Adobe Illustrator 16.0.0, SVG Export Plug-In . SVG Version: 6.00 Build 0)  -->
<!DOCTYPE svg PUBLIC "-//W3C//DTD SVG 1.1//EN" "http://www.w3.org/Graphics/SVG/1.1/DTD/svg11.dtd">
<svg version="1.1" id="Layer_1" xmlns="http://www.w3.org/2000/svg" xmlns:xlink="http://www.w3.org/1999/xlink" x="0px" y="0px"
	 width="395px" height="65px" viewBox="0 0 395 65" enable-background="new 0 0 395 65" xml:space="preserve">
<g>
	<g>
		<path fill="#FFFFFF" d="M217.124,63.697c-0.869,0.869-1.93,1.304-3.183,1.304c-1.255,0-2.315-0.435-3.185-1.304
			c-0.868-0.867-1.303-1.929-1.303-3.184s0.435-2.315,1.303-3.184c0.869-0.869,1.93-1.301,3.185-1.301
			c1.253,0,2.313,0.432,3.183,1.301c0.867,0.868,1.303,1.929,1.303,3.184S217.991,62.83,217.124,63.697z"/>
		<path fill="#00AEEF" d="M155.685,60.188c0.193-0.409,0.435-0.783,0.724-1.12l17.582-23.517c0.82-1.107,1.881-1.977,3.183-2.604
			c1.303-0.626,2.677-0.94,4.125-0.94c1.545,0,2.991,0.351,4.341,1.049c1.351,0.7,2.438,1.604,3.255,2.714l0.794,1.066l-4.418,5.908
			l-1.222-1.621c-0.291-0.386-0.688-0.807-1.194-1.267c-0.508-0.457-1.025-0.687-1.556-0.687s-1.05,0.229-1.556,0.687
			c-0.508,0.46-0.928,0.881-1.267,1.267l-16.857,22.502c-0.676,0.917-1.592,1.375-2.751,1.375c-0.963,0-1.783-0.337-2.459-1.014
			c-0.675-0.675-1.013-1.493-1.013-2.46C155.396,61.047,155.492,60.599,155.685,60.188z"/>
		<path fill="#FFF200" d="M172.343,60.188c0.193-0.409,0.434-0.783,0.724-1.12l12.203-16.323l4.418-5.908l0.961-1.285
			c0.82-1.107,1.881-1.977,3.184-2.604c1.303-0.626,2.677-0.94,4.123-0.94c1.545,0,2.992,0.351,4.342,1.049
			c1.351,0.7,2.437,1.604,3.255,2.714l1.168,1.569c-0.109,0.129-0.224,0.249-0.324,0.386l-4.11,5.496l-1.58-2.098
			c-0.288-0.386-0.687-0.807-1.193-1.267c-0.507-0.457-1.025-0.687-1.557-0.687c-0.529,0-1.049,0.229-1.555,0.687
			c-0.507,0.46-0.93,0.881-1.266,1.267l-1.136,1.515l-4.394,5.865l-11.33,15.122c-0.674,0.917-1.592,1.375-2.75,1.375
			c-0.963,0-1.783-0.337-2.459-1.014c-0.676-0.675-1.013-1.493-1.013-2.46C172.054,61.047,172.15,60.599,172.343,60.188z"/>
		<path fill="#ED1C24" d="M188.09,60.188c0.192-0.409,0.435-0.783,0.724-1.122l5.174-6.92l4.359-5.83l3.938-5.268l4.11-5.497
			c0.101-0.136,0.215-0.257,0.324-0.385c0.771-0.922,1.717-1.669,2.857-2.22c1.304-0.626,2.678-0.939,4.125-0.939
			c1.544,0,2.991,0.351,4.343,1.048c1.35,0.7,2.435,1.604,3.254,2.714l17.583,23.659c0.481,0.53,0.724,1.229,0.724,2.099
			c0,0.965-0.338,1.785-1.013,2.46c-0.676,0.677-1.495,1.014-2.461,1.014c-1.062,0-1.954-0.435-2.679-1.304l-17.002-22.573
			c-0.289-0.387-0.688-0.808-1.193-1.267c-0.507-0.458-1.023-0.688-1.556-0.688c-0.53,0-1.05,0.229-1.556,0.688
			c-0.438,0.397-0.808,0.765-1.119,1.105c-0.05,0.055-0.101,0.108-0.146,0.161l-4.259,5.683l-3.971,5.302l-4.335,5.786l-4.294,5.731
			c-0.675,0.917-1.591,1.375-2.749,1.375c-0.965,0-1.784-0.337-2.46-1.014c-0.676-0.675-1.013-1.495-1.013-2.46
			C187.801,61.045,187.897,60.598,188.09,60.188z"/>
	</g>
	<g>
		<path fill="#00AEEF" d="M391.341,0h-26.678c-0.966,0-1.749,0.79-1.749,1.764c0,0.975,0.495,1.197,1.46,1.197h25.746v45.551
			H251.487c-0.967,0-1.979,0.223-1.979,1.196c0,0.975,0.784,1.766,1.751,1.766h140.082c0.967,0,1.749-0.791,1.749-1.766V1.764
			C393.09,0.791,392.308,0,391.341,0z"/>
		<path fill="#00AEEF" d="M1.91,1.764v47.944c0,0.975,0.783,1.766,1.751,1.766h140.08c0.967,0,1.752-0.791,1.752-1.766
			c0-0.974-1.014-1.196-1.98-1.196H4.881V2.961h25.746c0.965,0,1.46-0.223,1.46-1.197c0-0.974-0.783-1.764-1.75-1.764H3.661
			C2.693,0,1.91,0.791,1.91,1.764z"/>
	</g>
</g>
</svg>
