<?xml version="1.0" encoding="utf-8"?>
<!-- Generator: Adobe Illustrator 16.0.0, SVG Export Plug-In . SVG Version: 6.00 Build 0)  -->
<!DOCTYPE svg PUBLIC "-//W3C//DTD SVG 1.1//EN" "http://www.w3.org/Graphics/SVG/1.1/DTD/svg11.dtd">
<svg version="1.1" id="Layer_1" xmlns="http://www.w3.org/2000/svg" xmlns:xlink="http://www.w3.org/1999/xlink" x="0px" y="0px"
	 width="250px" height="250px" viewBox="0 0 250 250" enable-background="new 0 0 250 250" xml:space="preserve">
<g>
	<g>
		<path fill="#C5168C" d="M176.777,69.795c0,0,5.579,1.769,10.636,6.596c5.054,4.821,8.544,7.931,14.443,8.921
			c3.347,0.563,6.185-0.528,8.992-1.295c2.805-0.772,5.943-1.987,5.943-1.987s-3.348-0.477-4.389-4.797
			c-1.044-4.355-2.727-3.98-4.01-3.941c-2.563,0.065-2.032,0.045-2.032,0.045s2.378,1.28,3.604,3.896
			c1.387,2.975,4.329,4.502,4.329,4.502s-1.367,0.585-2.438,0.146c-0.561-0.224-5.32-3.894-7.011-6.624
			c-2.849-4.621-4.612-6.148-8.503-5.513c-1.414,0.235-2.998,0.34-2.998,0.34s5.689,2.847,9.12,7.321
			c3.213,4.191,7.966,5.29,7.966,5.29s-5.17,1.694-8.192,0.931c-2.3-0.582-7.032-5.4-8.894-8.602
			c-2.846-4.881-7.328-8.022-12.384-6.441C178.499,69.354,176.777,69.795,176.777,69.795z"/>
		<path fill="#C5168C" d="M250,93.62c0,0-4.293-1.649-11.269-1.276c-4.991,0.269-9.105,0.73-10.931-0.4
			c-2.882-1.79-3.929-3.392-5.803-5.623c-1.871-2.229-4.04-4.258-4.04-4.258s3.661,0.806,7.524-1.402
			c3.855-2.205,4.511-1.712,5.538-0.958c2.067,1.516,1.646,1.197,1.646,1.197s-2.75,0.137-5.179,1.151
			c-3.028,1.259-6.537,1.038-6.537,1.038s0.301,0.653,1.435,0.904c0.585,0.131,3.431,0.441,6.492-0.514
			c5.25-1.638,7.539-2.208,10.376,0.537c1.026,0.993,2.035,1.757,2.035,1.757s-6.582-0.584-10.815,0.364
			c-4.643,1.035-6.96-0.304-6.96-0.304s2.005,3.428,5.123,3.64c6.951,0.489,15.994-4.293,19.312,0.781
			C249.365,92.418,250,93.62,250,93.62z"/>
	</g>
	<g>
		<g>
			<path fill="#626366" d="M92.979,151.361h-5.254l-0.731,2.691h-4.72l5.624-16.289h5.045l5.624,16.289h-4.842L92.979,151.361z
				 M92.015,147.845l-1.647-5.86l-1.641,5.86H92.015z"/>
			<path fill="#626366" d="M7.813,137.751h3.556l4.875,6.594l4.851-6.594h3.563v16.248h-3.792V145.1l-4.183,5.11h-0.907L11.6,145.1
				v8.899H7.813V137.751z"/>
			<path fill="#626366" d="M26.964,137.751H39.36v3.47h-7.763v2.584h7.199v3.312h-7.199v3.198h7.99v3.685H26.964V137.751z"/>
			<path fill="#626366" d="M137.328,137.751h12.396v3.47h-7.763v2.584h7.205v3.312h-7.205v3.198h7.986v3.685h-12.62V137.751z"/>
			<path fill="#626366" d="M185.298,137.751H197.7v3.47h-7.76v2.584h7.196v3.312h-7.196v3.198h7.978v3.685h-12.62V137.751z"/>
			<path fill="#626366" d="M42.768,137.751h6.871c1.358,0,2.45,0.203,3.285,0.6c0.829,0.403,1.521,0.973,2.07,1.722
				c0.543,0.743,0.937,1.611,1.179,2.602c0.248,0.99,0.375,2.041,0.375,3.147c0,1.736-0.185,3.082-0.549,4.037
				c-0.367,0.957-0.871,1.757-1.521,2.404c-0.647,0.647-1.336,1.08-2.083,1.295c-1.014,0.289-1.936,0.441-2.757,0.441h-6.871
				V137.751z M47.392,141.433v8.876h1.133c0.967,0,1.656-0.116,2.062-0.349c0.412-0.23,0.731-0.639,0.964-1.218
				c0.233-0.582,0.346-1.521,0.346-2.822c0-1.722-0.263-2.899-0.776-3.535c-0.519-0.633-1.378-0.952-2.575-0.952H47.392z"/>
			<path fill="#626366" d="M59.71,137.751h3.58v16.248h-3.58V137.751z"/>
			<path fill="#626366" d="M77.077,147.447l4.051,1.313c-0.274,1.212-0.704,2.223-1.289,3.034c-0.582,0.812-1.31,1.427-2.178,1.838
				c-0.862,0.418-1.969,0.621-3.312,0.621c-1.623,0-2.957-0.251-3.989-0.758c-1.029-0.501-1.918-1.388-2.673-2.658
				c-0.746-1.266-1.116-2.892-1.116-4.872c0-2.638,0.656-4.669,1.975-6.086c1.316-1.418,3.18-2.128,5.588-2.128
				c1.886,0,3.369,0.412,4.448,1.224c1.077,0.809,1.877,2.062,2.405,3.741l-4.087,0.967c-0.137-0.483-0.292-0.839-0.45-1.063
				c-0.254-0.379-0.576-0.668-0.943-0.874c-0.376-0.2-0.793-0.305-1.259-0.305c-1.047,0-1.855,0.451-2.414,1.346
				c-0.423,0.672-0.629,1.719-0.629,3.147c0,1.767,0.254,2.98,0.752,3.637c0.507,0.653,1.217,0.982,2.127,0.982
				c0.883,0,1.552-0.269,2.008-0.797C76.546,149.229,76.871,148.462,77.077,147.447z"/>
			<path fill="#626366" d="M131.259,147.447l4.051,1.313c-0.271,1.212-0.698,2.223-1.283,3.034
				c-0.588,0.812-1.315,1.427-2.181,1.838c-0.872,0.418-1.975,0.621-3.312,0.621c-1.629,0-2.959-0.251-3.992-0.758
				c-1.026-0.501-1.918-1.388-2.67-2.658c-0.749-1.266-1.122-2.892-1.122-4.872c0-2.638,0.663-4.669,1.972-6.086
				c1.319-1.418,3.187-2.128,5.597-2.128c1.883,0,3.369,0.412,4.442,1.224c1.08,0.809,1.886,2.062,2.408,3.741l-4.081,0.967
				c-0.146-0.483-0.295-0.839-0.454-1.063c-0.26-0.379-0.576-0.668-0.949-0.874c-0.376-0.2-0.793-0.305-1.259-0.305
				c-1.044,0-1.85,0.451-2.41,1.346c-0.418,0.672-0.63,1.719-0.63,3.147c0,1.767,0.254,2.98,0.755,3.637
				c0.504,0.653,1.211,0.982,2.125,0.982c0.883,0,1.554-0.269,2.004-0.797C130.728,149.229,131.053,148.462,131.259,147.447z"/>
			<path fill="#626366" d="M100.637,137.861h4.63v12.736h7.217v3.401h-11.847V137.861z"/>
			<path fill="#626366" d="M152.615,137.957h4.281l5.588,8.876v-8.876h4.329v16.042h-4.329l-5.558-8.81v8.81h-4.311V137.957z"/>
			<path fill="#626366" d="M169.358,137.764h13.643v4.01h-4.577v12.226h-4.487v-12.226h-4.58V137.764z"/>
			<path fill="#626366" d="M199.627,153.999v-16.235h7.707c1.429,0,2.524,0.131,3.279,0.399c0.755,0.263,1.363,0.758,1.823,1.477
				c0.468,0.723,0.695,1.6,0.695,2.632c0,0.9-0.17,1.674-0.525,2.33c-0.355,0.653-0.844,1.185-1.468,1.593
				c-0.391,0.254-0.931,0.469-1.62,0.639c0.552,0.2,0.952,0.396,1.203,0.6c0.173,0.131,0.417,0.418,0.749,0.854
				c0.319,0.436,0.531,0.77,0.639,1.005l2.244,4.708h-5.23l-2.467-4.961c-0.322-0.645-0.597-1.063-0.844-1.254
				c-0.332-0.25-0.71-0.375-1.131-0.375h-0.412v6.59H199.627z M204.267,144.342h1.954c0.212,0,0.621-0.077,1.223-0.224
				c0.313-0.065,0.561-0.232,0.749-0.508c0.197-0.274,0.295-0.587,0.295-0.942c0-0.522-0.152-0.925-0.462-1.208
				c-0.301-0.277-0.883-0.418-1.727-0.418h-2.032V144.342z"/>
			<path fill="#626366" d="M218.325,147.671h2.244v4.762h3.497v1.555h-5.74V147.671z"/>
			<path fill="#626366" d="M224.697,152.409h1.942v1.59h-1.942V152.409z"/>
			<path fill="#626366" d="M228.465,147.8h2.244v4.663h3.5v1.524h-5.743V147.8z"/>
			<path fill="#626366" d="M234.772,152.427h1.942v1.558h-1.942V152.427z"/>
			<path fill="#626366" d="M242.177,151.457l1.969,0.511c-0.137,0.468-0.346,0.865-0.626,1.181c-0.29,0.316-0.636,0.559-1.056,0.717
				c-0.427,0.164-0.961,0.244-1.605,0.244c-0.794,0-1.438-0.099-1.93-0.295c-0.507-0.197-0.94-0.543-1.304-1.035
				c-0.355-0.499-0.543-1.131-0.543-1.9c0-1.029,0.319-1.823,0.955-2.375c0.641-0.552,1.548-0.833,2.715-0.833
				c0.916,0,1.629,0.161,2.154,0.48c0.525,0.316,0.913,0.803,1.169,1.459l-1.981,0.379c-0.071-0.19-0.14-0.331-0.224-0.418
				c-0.122-0.148-0.271-0.256-0.457-0.34c-0.179-0.077-0.385-0.116-0.608-0.116c-0.504,0-0.898,0.176-1.169,0.525
				c-0.203,0.259-0.305,0.665-0.305,1.226c0,0.689,0.123,1.161,0.364,1.414c0.248,0.257,0.587,0.386,1.029,0.386
				c0.427,0,0.755-0.104,0.976-0.311S242.076,151.851,242.177,151.457z"/>
		</g>
	</g>
	<g>
		<path fill="#00A1A3" d="M136.248,122.706h-14.058l-1.608,5.579h-9.126l12.37-33.794h11.098l12.366,33.794h-9.4L136.248,122.706z
			 M134.138,115.399l-4.89-12.151l-4.851,12.151H134.138z"/>
		<path fill="#00A1A3" d="M152.459,128.285V94.491h13.181c5.75,0,9.076,0.594,10.245,1.086c1.617,0.681,3.007,2.026,4.022,3.521
			c1.021,1.504,1.524,5.203,1.524,7.354c0,1.874-0.37,4.293-1.151,5.656c-0.776,1.354-1.119,1.758-2.482,2.602
			c-0.868,0.537-3.255,1.095-2.748,1.79c1.688,2.295,2.001,2.993,2.906,4.377c0.256,0.388,0.96,1.477,1.563,2.455
			c1.13,1.832,1.136,1.996,1.372,2.488l1.378,2.465h-10.361l-3.396-7.292c-0.689-1.333-1.369-3.571-2.038-3.604
			c-2.792-0.129-1.79-0.051-2.721-0.051l-2.509,0.104v10.842H152.459z M161.395,110.668h5.319c0.573,0,1.688-0.18,3.338-0.537
			c0.835-0.164,1.513-0.573,2.047-1.232c0.525-0.665,0.793-1.423,0.793-2.285c0-1.268-0.42-2.243-1.253-2.927
			c-0.827-0.681-2.399-1.021-4.708-1.021h-5.537V110.668z"/>
		<path fill="#00A1A3" d="M186.274,94.491h27.259v7.214h-17.068v5.37h10.812v6.893h-10.812v6.661h17.558v7.656h-27.749V94.491z"/>
		<path fill="#00A1A3" d="M94.98,120.639c-4.893,0-8.861-4.139-8.861-9.255c0-5.11,3.968-9.252,8.861-9.252
			c3.01,0,5.669,1.563,7.271,3.956l6.143-5.719c-3.249-3.596-8.049-5.884-13.414-5.884c-9.776,0-17.707,7.569-17.707,16.898
			c0,9.335,7.93,16.901,17.707,16.901c5.919,0,11.144-2.784,14.359-7.041l-7.235-4.368
			C100.494,119.158,97.904,120.639,94.98,120.639z"/>
		<path fill="#00A1A3" d="M47.958,95.118l-11.307,33.167h-3.899l-8.714-27.415l-8.896,27.415H11.25L0,95.118h3.276l9.914,28.441
			l8.905-28.441h3.896L34.7,123.56l9.986-28.441H47.958z"/>
		<path fill="#00A1A3" d="M67.924,122.088c-0.25,0.442-0.513,0.729-0.82,1.083c-0.486,0.582-1.089,1.065-1.808,1.456
			c-0.722,0.395-1.521,0.689-2.411,0.887c-0.886,0.193-1.769,0.292-2.652,0.292c-1.265,0-2.438-0.197-3.502-0.591
			c-1.08-0.388-2.026-0.984-2.843-1.781c-0.817-0.793-1.486-1.79-1.99-2.989c-0.51-1.193-0.833-2.61-0.967-4.245h20.258v-0.555
			c0-1.964-0.266-3.727-0.794-5.281c-0.534-1.563-1.298-2.885-2.294-3.968c-0.997-1.086-2.202-1.915-3.619-2.497
			c-1.417-0.576-2.995-0.868-4.75-0.868c-1.704,0-3.255,0.292-4.648,0.868c-1.399,0.582-2.602,1.411-3.622,2.497
			c-1.021,1.083-1.808,2.404-2.36,3.968c-0.549,1.555-0.83,3.306-0.83,5.248c0,2.005,0.29,3.792,0.865,5.361
			c0.573,1.572,1.393,2.899,2.44,3.979c1.053,1.086,2.309,1.913,3.771,2.479s3.088,0.854,4.884,0.854
			c1.301,0,2.533-0.155,3.688-0.466c1.146-0.311,2.178-0.77,3.088-1.378c0.907-0.609,1.668-1.352,2.289-2.229
			c0.208-0.299,0.391-0.618,0.555-0.943L67.924,122.088z M52.031,110.092c0.516-1.023,1.146-1.867,1.909-2.545
			c0.752-0.674,1.611-1.172,2.575-1.504c0.964-0.322,2.005-0.486,3.118-0.486c2.259,0,4.159,0.675,5.702,2.021
			c1.545,1.349,2.536,3.38,2.974,6.098H50.93C51.148,112.306,51.515,111.112,52.031,110.092z"/>
	</g>
	<g>
		<path fill="#231F20" d="M60.417,161.646c0.692,0,1.214,0.122,1.561,0.361c0.346,0.241,0.59,0.51,0.731,0.803
			c0.152,0.343,0.218,0.725,0.194,1.148c-0.036,0.235-0.113,0.475-0.239,0.713c-0.122,0.241-0.269,0.459-0.438,0.653
			s-0.361,0.353-0.573,0.478c-0.212,0.122-0.43,0.185-0.653,0.185c-0.271,0-0.469-0.071-0.591-0.212
			c-0.123-0.14-0.155-0.307-0.096-0.495c0.021-0.08,0.078-0.14,0.167-0.176c0.087-0.036,0.188-0.063,0.298-0.077
			c0.114-0.019,0.227-0.039,0.343-0.063c0.12-0.023,0.224-0.071,0.319-0.143c0.116-0.093,0.209-0.188,0.271-0.29
			c0.065-0.098,0.11-0.196,0.134-0.292c0.036-0.093,0.051-0.188,0.051-0.28c0.071-0.343,0.003-0.618-0.2-0.829
			c-0.208-0.212-0.489-0.355-0.847-0.424c-0.358-0.072-0.772-0.063-1.244,0.026c-0.468,0.087-0.939,0.257-1.411,0.511
			c-0.468,0.253-0.91,0.597-1.322,1.032c-0.412,0.436-0.74,0.973-0.987,1.604c-0.188,0.483-0.266,0.893-0.236,1.227
			c0.027,0.337,0.113,0.611,0.254,0.829c0.143,0.218,0.319,0.388,0.531,0.514c0.209,0.122,0.403,0.209,0.582,0.256
			c0.176,0.057,0.37,0.066,0.582,0.024c0.209-0.039,0.415-0.096,0.615-0.167c0.2-0.069,0.382-0.138,0.549-0.203
			c0.164-0.063,0.287-0.09,0.37-0.077c0.164,0.012,0.248,0.122,0.253,0.334s-0.03,0.411-0.113,0.6
			c-0.036,0.096-0.125,0.17-0.274,0.229c-0.146,0.06-0.319,0.107-0.519,0.149c-0.2,0.042-0.418,0.071-0.653,0.089
			c-0.233,0.019-0.457,0.033-0.668,0.045c-0.659,0.233-1.211,0.564-1.659,0.987c-0.445,0.424-0.779,0.89-0.994,1.402
			c-0.218,0.511-0.328,1.032-0.328,1.561c0,0.531,0.113,1.009,0.334,1.438c0.224,0.43,0.558,0.781,1.005,1.059
			c0.448,0.277,1.005,0.415,1.677,0.415c0.668,0,1.208-0.119,1.62-0.361c0.412-0.241,0.734-0.519,0.96-0.829
			c0.23-0.311,0.388-0.611,0.478-0.901c0.086-0.286,0.143-0.478,0.167-0.572c0.048-0.188,0.104-0.325,0.167-0.415
			c0.066-0.087,0.179-0.125,0.343-0.113c0.083,0.012,0.182,0.048,0.301,0.104c0.116,0.06,0.218,0.149,0.298,0.274
			c0.083,0.122,0.128,0.277,0.134,0.469c0.006,0.188-0.068,0.42-0.221,0.704c-0.295,0.527-0.683,0.963-1.164,1.307
			c-0.483,0.34-1.005,0.594-1.569,0.758s-1.143,0.247-1.736,0.247s-1.155-0.077-1.683-0.229c-0.531-0.152-0.997-0.379-1.402-0.681
			c-0.406-0.298-0.704-0.659-0.892-1.083c-0.224-0.507-0.331-1.035-0.325-1.59c0.006-0.552,0.125-1.092,0.361-1.623
			c0.235-0.528,0.597-1.023,1.083-1.482c0.489-0.457,1.104-0.845,1.844-1.164c-0.636-0.352-1.059-0.79-1.268-1.313
			c-0.212-0.525-0.269-1.074-0.17-1.649c0.101-0.579,0.337-1.152,0.707-1.722c0.37-0.57,0.826-1.086,1.375-1.542
			c0.546-0.46,1.149-0.83,1.805-1.113C59.066,161.786,59.737,161.646,60.417,161.646z"/>
		<path fill="#231F20" d="M71.224,173.913c0.095-0.164,0.194-0.238,0.301-0.227c0.104,0.013,0.122,0.087,0.054,0.227
			c-0.131,0.26-0.31,0.582-0.54,0.97c-0.229,0.389-0.48,0.758-0.758,1.11c-0.274,0.352-0.567,0.653-0.871,0.907
			c-0.307,0.253-0.605,0.379-0.901,0.379c-0.305,0-0.57-0.129-0.794-0.379c-0.221-0.254-0.412-0.559-0.563-0.91
			c-0.152-0.353-0.275-0.723-0.37-1.113c-0.092-0.388-0.164-0.722-0.212-1.005c-0.256,0.283-0.513,0.569-0.767,0.856
			c-0.254,0.289-0.486,0.569-0.704,0.847s-0.415,0.537-0.591,0.775c-0.176,0.242-0.316,0.457-0.424,0.645
			c-0.176,0.341-0.307,0.621-0.396,0.839c-0.086,0.218-0.167,0.346-0.239,0.388c-0.069,0.042-0.155-0.009-0.253-0.149
			c-0.102-0.14-0.251-0.405-0.451-0.793c0.14-0.424,0.388-0.868,0.74-1.334c0.352-0.463,0.728-0.901,1.128-1.313
			c0.4-0.412,0.77-0.773,1.113-1.077c0.34-0.305,0.576-0.514,0.704-0.618c-0.072-0.552-0.123-1.07-0.158-1.551
			c-0.036-0.483-0.075-0.901-0.116-1.253c-0.039-0.355-0.102-0.63-0.185-0.83c-0.081-0.199-0.212-0.301-0.388-0.301
			c-0.128,0-0.251,0.134-0.37,0.405c-0.116,0.271-0.256,0.633-0.42,1.086c-0.167,0.454-0.364,0.982-0.591,1.588
			c-0.23,0.605-0.522,1.244-0.875,1.915c-0.095,0.176-0.194,0.257-0.298,0.238c-0.107-0.018-0.125-0.098-0.053-0.238
			c0.552-1.023,0.958-1.915,1.217-2.673c0.257-0.761,0.462-1.385,0.615-1.877c0.155-0.492,0.295-0.856,0.424-1.095
			c0.131-0.235,0.346-0.355,0.653-0.355c0.316,0,0.567,0.096,0.749,0.281c0.182,0.188,0.325,0.459,0.433,0.811
			c0.104,0.353,0.185,0.779,0.239,1.277c0.051,0.498,0.113,1.053,0.185,1.665c0.528-0.492,1.002-0.976,1.426-1.444
			c0.423-0.472,0.701-0.916,0.829-1.34c0.072-0.212,0.099-0.396,0.09-0.555c-0.012-0.158-0.03-0.298-0.054-0.421
			c-0.024-0.125-0.036-0.235-0.036-0.337c0-0.099,0.048-0.203,0.14-0.307c0.084-0.107,0.173-0.194,0.275-0.266
			c0.098-0.069,0.188-0.104,0.262-0.104c0.078,0,0.146,0.048,0.203,0.148c0.06,0.099,0.095,0.269,0.107,0.502
			c0.012,0.199-0.039,0.441-0.149,0.725c-0.113,0.28-0.266,0.576-0.459,0.889c-0.194,0.311-0.409,0.627-0.645,0.949
			c-0.232,0.325-0.471,0.633-0.713,0.925c-0.242,0.295-0.468,0.561-0.68,0.803c-0.209,0.241-0.385,0.436-0.528,0.591
			c0.036,0.269,0.071,0.581,0.107,0.939c0.036,0.358,0.092,0.71,0.176,1.05c0.081,0.341,0.191,0.657,0.325,0.949
			c0.134,0.295,0.319,0.513,0.555,0.653c0.224,0.08,0.453,0.051,0.689-0.09c0.233-0.14,0.459-0.34,0.677-0.6
			c0.218-0.256,0.424-0.546,0.618-0.871C70.898,174.498,71.071,174.197,71.224,173.913z"/>
		<path fill="#231F20" d="M79.034,173.907c0.096-0.164,0.191-0.241,0.292-0.229c0.098,0.012,0.119,0.09,0.06,0.229
			c-0.269,0.52-0.57,1.006-0.898,1.465c-0.328,0.46-0.686,0.83-1.074,1.113c-0.391,0.28-0.802,0.441-1.244,0.475
			c-0.441,0.035-0.907-0.11-1.402-0.441c-0.352,0.318-0.701,0.536-1.05,0.653c-0.346,0.119-0.656,0.151-0.934,0.098
			c-0.274-0.054-0.507-0.179-0.695-0.379c-0.188-0.199-0.301-0.447-0.334-0.742c-0.283,1.095-0.546,2.127-0.785,3.097
			c-0.241,0.97-0.432,1.79-0.573,2.461c-0.012,0.06-0.05,0.099-0.116,0.116c-0.065,0.019-0.137-0.006-0.221-0.071
			c-0.081-0.065-0.17-0.188-0.263-0.37c-0.095-0.185-0.176-0.45-0.248-0.803c-0.024-0.083-0.003-0.31,0.063-0.68
			c0.063-0.37,0.158-0.826,0.281-1.366c0.125-0.543,0.266-1.149,0.423-1.817c0.158-0.671,0.322-1.352,0.493-2.04
			c0.17-0.687,0.34-1.364,0.504-2.029c0.164-0.662,0.307-1.256,0.433-1.781c0.123-0.521,0.221-0.954,0.298-1.298
			c0.078-0.34,0.116-0.54,0.116-0.6c-0.012-0.068-0.033-0.102-0.063-0.096c-0.03,0.007-0.063,0.019-0.099,0.036
			c-0.033,0.018-0.063,0.027-0.086,0.033s-0.03-0.019-0.018-0.078c0.012-0.06,0.065-0.137,0.167-0.238
			c0.098-0.099,0.221-0.197,0.361-0.292c0.14-0.093,0.298-0.177,0.468-0.245c0.17-0.071,0.325-0.107,0.466-0.107
			c0.143,0,0.253,0.012,0.337,0.036c0.081,0.023,0.131,0.098,0.149,0.221c0.018,0.122-0.003,0.316-0.063,0.581
			c-0.06,0.266-0.158,0.639-0.298,1.122c0.164-0.224,0.346-0.447,0.546-0.671c0.2-0.224,0.406-0.427,0.618-0.608
			c0.212-0.183,0.424-0.332,0.632-0.442c0.212-0.11,0.412-0.167,0.6-0.167c0.271,0,0.534,0.039,0.785,0.113
			c0.253,0.078,0.462,0.23,0.626,0.46s0.265,0.561,0.301,0.996c0.033,0.436-0.036,1.012-0.212,1.73
			c-0.107,0.447-0.233,0.89-0.379,1.331c-0.149,0.441-0.316,0.868-0.504,1.279c-0.188,0.412-0.396,0.803-0.626,1.173
			c-0.227,0.37-0.465,0.698-0.713,0.979c0.259,0.191,0.54,0.292,0.847,0.311c0.304,0.018,0.609-0.039,0.907-0.167
			c0.301-0.132,0.59-0.328,0.874-0.591c0.28-0.266,0.54-0.582,0.776-0.946c0.081-0.128,0.161-0.259,0.235-0.396
			C78.873,174.188,78.951,174.051,79.034,173.907z M74.452,175.513c0.164-0.257,0.343-0.603,0.537-1.032
			c0.194-0.427,0.373-0.889,0.537-1.385c0.164-0.492,0.31-0.987,0.433-1.482c0.122-0.492,0.197-0.939,0.221-1.34
			c0.024-0.399-0.012-0.725-0.107-0.979c-0.093-0.253-0.269-0.379-0.528-0.379c-0.224,0-0.447,0.075-0.668,0.23
			c-0.224,0.151-0.445,0.349-0.663,0.587c-0.218,0.242-0.427,0.514-0.626,0.814c-0.2,0.299-0.382,0.591-0.546,0.871
			c-0.164,0.544-0.322,1.104-0.478,1.687c-0.152,0.581-0.31,1.172-0.474,1.771c0.164-0.256,0.34-0.405,0.528-0.447
			s0.382-0.015,0.582,0.077c0.2,0.096,0.406,0.236,0.618,0.424C74.028,175.119,74.24,175.313,74.452,175.513z M72.512,175.318
			c-0.119,0.12-0.2,0.263-0.248,0.433c-0.048,0.171-0.057,0.341-0.027,0.505s0.096,0.304,0.194,0.424
			c0.102,0.116,0.23,0.182,0.388,0.193s0.343-0.045,0.555-0.167c0.212-0.125,0.454-0.358,0.725-0.698
			c-0.167-0.14-0.325-0.271-0.478-0.388c-0.152-0.116-0.298-0.215-0.433-0.292c-0.134-0.075-0.262-0.117-0.379-0.123
			C72.694,175.199,72.593,175.238,72.512,175.318z"/>
		<path fill="#231F20" d="M85.947,173.907c0.092-0.164,0.194-0.241,0.298-0.229s0.123,0.09,0.054,0.229
			c-0.471,0.907-0.916,1.611-1.331,2.118c-0.417,0.505-0.8,0.856-1.146,1.051c-0.349,0.193-0.653,0.257-0.919,0.193
			c-0.263-0.065-0.48-0.215-0.65-0.45c-0.173-0.235-0.29-0.531-0.355-0.892c-0.063-0.358-0.06-0.731,0.009-1.119l1.113-5.206
			c-0.131,0.107-0.28,0.203-0.451,0.292c-0.17,0.087-0.352,0.155-0.546,0.203s-0.385,0.071-0.573,0.071s-0.352-0.035-0.495-0.107
			c-0.26,0.8-0.492,1.465-0.704,1.993c-0.212,0.531-0.394,0.952-0.546,1.262c-0.155,0.313-0.284,0.534-0.388,0.672
			c-0.107,0.134-0.188,0.218-0.248,0.247c-0.06,0.03-0.095,0.016-0.107-0.044c-0.012-0.061,0-0.126,0.036-0.194
			c0.176-0.331,0.346-0.674,0.504-1.032s0.308-0.719,0.448-1.077c0.143-0.357,0.271-0.707,0.388-1.05
			c0.12-0.341,0.23-0.662,0.337-0.97c-0.236-0.212-0.412-0.489-0.531-0.829c-0.116-0.341-0.182-0.672-0.194-0.988
			c-0.012-0.519,0.06-0.979,0.212-1.384c0.152-0.406,0.337-0.719,0.546-0.937c0.212-0.219,0.42-0.325,0.626-0.325
			c0.206,0,0.358,0.134,0.459,0.405c0.098,0.269,0.116,0.695,0.054,1.277c-0.066,0.584-0.269,1.345-0.609,2.285
			c0.128,0.095,0.292,0.143,0.493,0.143c0.295,0,0.552-0.077,0.775-0.229c0.224-0.155,0.418-0.322,0.582-0.504
			c0.164-0.183,0.304-0.35,0.415-0.501c0.11-0.155,0.203-0.23,0.274-0.23c0.116,0,0.233,0.051,0.352,0.149
			c0.116,0.102,0.224,0.212,0.316,0.334c0.095,0.126,0.167,0.242,0.221,0.355c0.054,0.11,0.075,0.185,0.063,0.221
			c-0.012,0.021-0.048,0.149-0.107,0.379c-0.057,0.229-0.134,0.519-0.229,0.874c-0.093,0.352-0.194,0.74-0.298,1.163
			c-0.104,0.424-0.212,0.845-0.316,1.263c-0.107,0.417-0.206,0.806-0.301,1.163c-0.092,0.358-0.164,0.645-0.212,0.856
			c-0.092,0.436-0.128,0.778-0.104,1.032s0.123,0.433,0.298,0.537c0.224,0.083,0.451,0.054,0.68-0.087
			c0.23-0.143,0.451-0.343,0.668-0.6c0.218-0.26,0.424-0.552,0.618-0.874C85.619,174.492,85.792,174.191,85.947,173.907z
			 M81.185,166.162c-0.104,0-0.206,0.107-0.298,0.326c-0.095,0.218-0.164,0.477-0.203,0.778c-0.042,0.298-0.045,0.617-0.009,0.951
			c0.033,0.335,0.122,0.615,0.262,0.839c0.048-0.132,0.113-0.353,0.194-0.672c0.083-0.315,0.152-0.641,0.203-0.969
			c0.054-0.328,0.078-0.621,0.072-0.875C81.4,166.288,81.326,166.162,81.185,166.162z"/>
		<path fill="#231F20" d="M92.627,173.907c0.095-0.164,0.194-0.241,0.298-0.229c0.107,0.012,0.125,0.09,0.054,0.229
			c-0.248,0.483-0.51,0.929-0.794,1.334c-0.28,0.405-0.594,0.761-0.934,1.065c-0.34,0.307-0.725,0.546-1.155,0.716
			s-0.913,0.257-1.453,0.257c-0.719,0-1.316-0.107-1.79-0.319c-0.478-0.212-0.838-0.514-1.086-0.907
			c-0.245-0.394-0.382-0.865-0.405-1.411c-0.024-0.549,0.053-1.157,0.229-1.826c0.248-0.895,0.561-1.649,0.943-2.268
			c0.382-0.617,0.785-1.118,1.208-1.5c0.424-0.382,0.851-0.656,1.28-0.82c0.426-0.164,0.805-0.248,1.136-0.248
			c0.292,0,0.546,0.065,0.758,0.194c0.212,0.131,0.379,0.289,0.501,0.477c0.125,0.188,0.206,0.392,0.248,0.609
			c0.042,0.218,0.045,0.414,0.009,0.591c-0.023,0.071-0.068,0.182-0.131,0.334c-0.066,0.155-0.158,0.328-0.275,0.521
			c-0.116,0.194-0.256,0.395-0.415,0.6c-0.158,0.206-0.337,0.397-0.537,0.573c-0.248,0.212-0.519,0.399-0.82,0.563
			c-0.298,0.167-0.6,0.29-0.898,0.373c-0.301,0.081-0.582,0.113-0.847,0.096c-0.266-0.018-0.483-0.107-0.66-0.274
			c-0.2,0.719-0.259,1.354-0.179,1.906c0.083,0.552,0.266,1.003,0.549,1.349c0.28,0.349,0.629,0.582,1.047,0.698
			c0.417,0.119,0.868,0.104,1.348-0.045c0.483-0.146,0.964-0.433,1.447-0.865C91.785,175.253,92.227,174.662,92.627,173.907z
			 M90.669,169.427c0.128-0.472,0.099-0.776-0.095-0.916c-0.194-0.144-0.472-0.116-0.83,0.077c-0.358,0.194-0.758,0.562-1.199,1.104
			c-0.441,0.54-0.838,1.265-1.19,2.169c0.096,0.259,0.292,0.382,0.591,0.369c0.301-0.012,0.624-0.131,0.97-0.36
			c0.346-0.229,0.686-0.552,1.014-0.97S90.505,169.99,90.669,169.427z"/>
		<path fill="#231F20" d="M97.898,173.907c0.092-0.164,0.194-0.241,0.298-0.229c0.107,0.012,0.125,0.09,0.054,0.229
			c-0.2,0.376-0.412,0.746-0.635,1.104c-0.224,0.357-0.469,0.686-0.74,0.987s-0.57,0.555-0.898,0.767
			c-0.331,0.212-0.695,0.361-1.095,0.441c-0.624,0.141-1.152,0.149-1.587,0.027c-0.433-0.123-0.772-0.316-1.02-0.582
			c-0.248-0.266-0.4-0.566-0.459-0.91c-0.06-0.34-0.033-0.659,0.081-0.951c0.11-0.296,0.31-0.537,0.6-0.731
			c0.286-0.196,0.653-0.274,1.101-0.238c0.2,0.023,0.346,0.08,0.442,0.176c0.092,0.093,0.152,0.203,0.176,0.325
			c0.024,0.125,0.024,0.241,0,0.353c-0.024,0.113-0.054,0.193-0.089,0.238c-0.024,0.023-0.045,0.021-0.06-0.009
			c-0.018-0.03-0.048-0.063-0.09-0.104c-0.042-0.042-0.098-0.087-0.167-0.135c-0.072-0.044-0.17-0.08-0.301-0.104
			c-0.176-0.035-0.376-0.009-0.6,0.081c-0.221,0.087-0.37,0.254-0.438,0.501c-0.083,0.271-0.072,0.501,0.036,0.689
			c0.104,0.188,0.26,0.334,0.465,0.441c0.206,0.104,0.445,0.164,0.713,0.176c0.272,0.012,0.528-0.029,0.77-0.125
			c0.239-0.093,0.444-0.242,0.615-0.447c0.17-0.206,0.262-0.475,0.274-0.803c0.024-0.399-0.06-0.806-0.248-1.211
			c-0.188-0.406-0.379-0.827-0.573-1.26c-0.194-0.436-0.346-0.897-0.456-1.387c-0.114-0.486-0.081-1.015,0.095-1.578
			c0.083-0.284,0.194-0.543,0.334-0.785c0.144-0.241,0.284-0.444,0.424-0.608s0.269-0.296,0.379-0.388
			c0.113-0.096,0.179-0.144,0.203-0.144c0.06,0,0.134,0.033,0.229,0.099c0.092,0.065,0.188,0.144,0.28,0.238
			c0.096,0.093,0.176,0.203,0.239,0.325c0.066,0.126,0.093,0.245,0.081,0.361c-0.012,0.119-0.078,0.271-0.194,0.459
			c-0.119,0.188-0.253,0.37-0.406,0.547c-0.176,0.211-0.37,0.433-0.582,0.653c-0.048,0.047-0.078,0.131-0.09,0.247
			c-0.012,0.096-0.009,0.224,0.009,0.388c0.018,0.167,0.074,0.382,0.167,0.653c0.095,0.308,0.259,0.612,0.495,0.919
			c0.236,0.305,0.454,0.627,0.653,0.961c0.2,0.334,0.337,0.692,0.412,1.068c0.078,0.376,0.009,0.787-0.2,1.235
			c0.233-0.26,0.468-0.576,0.704-0.946S97.734,174.215,97.898,173.907z"/>
		<path fill="#231F20" d="M103.152,173.907c0.092-0.164,0.194-0.241,0.298-0.229c0.107,0.012,0.125,0.09,0.054,0.229
			c-0.2,0.376-0.412,0.746-0.636,1.104c-0.224,0.357-0.468,0.686-0.74,0.987s-0.57,0.555-0.898,0.767
			c-0.331,0.212-0.695,0.361-1.095,0.441c-0.624,0.141-1.152,0.149-1.587,0.027c-0.433-0.123-0.776-0.316-1.021-0.582
			c-0.248-0.266-0.399-0.566-0.459-0.91c-0.06-0.34-0.033-0.659,0.081-0.951c0.11-0.296,0.311-0.537,0.6-0.731
			c0.286-0.196,0.653-0.274,1.101-0.238c0.2,0.023,0.346,0.08,0.441,0.176c0.093,0.093,0.152,0.203,0.176,0.325
			c0.021,0.125,0.021,0.241,0,0.353c-0.024,0.113-0.054,0.193-0.089,0.238c-0.024,0.023-0.045,0.021-0.063-0.009
			c-0.015-0.03-0.044-0.063-0.086-0.104c-0.042-0.042-0.098-0.087-0.167-0.135c-0.072-0.044-0.17-0.08-0.301-0.104
			c-0.176-0.035-0.376-0.009-0.6,0.081c-0.224,0.087-0.37,0.254-0.438,0.501c-0.084,0.271-0.072,0.501,0.033,0.689
			c0.107,0.188,0.262,0.334,0.468,0.441c0.206,0.104,0.444,0.164,0.713,0.176c0.271,0.012,0.528-0.029,0.767-0.125
			c0.242-0.093,0.447-0.242,0.617-0.447c0.17-0.206,0.263-0.475,0.275-0.803c0.023-0.399-0.06-0.806-0.248-1.211
			c-0.188-0.406-0.379-0.827-0.573-1.26c-0.194-0.436-0.346-0.897-0.459-1.387c-0.11-0.486-0.078-1.015,0.099-1.578
			c0.081-0.284,0.194-0.543,0.334-0.785c0.144-0.241,0.284-0.444,0.424-0.608s0.269-0.296,0.379-0.388
			c0.11-0.096,0.179-0.144,0.203-0.144c0.06,0,0.134,0.033,0.23,0.099c0.092,0.065,0.188,0.144,0.28,0.238
			c0.096,0.093,0.173,0.203,0.239,0.325c0.065,0.126,0.092,0.245,0.081,0.361c-0.012,0.119-0.078,0.271-0.194,0.459
			c-0.12,0.188-0.254,0.37-0.406,0.547c-0.176,0.211-0.37,0.433-0.582,0.653c-0.047,0.047-0.077,0.131-0.089,0.247
			c-0.012,0.096-0.009,0.224,0.009,0.388c0.018,0.167,0.075,0.382,0.167,0.653c0.095,0.308,0.259,0.612,0.495,0.919
			c0.236,0.305,0.45,0.627,0.653,0.961c0.197,0.334,0.337,0.692,0.412,1.068c0.078,0.376,0.009,0.787-0.203,1.235
			c0.235-0.26,0.471-0.576,0.707-0.946C102.788,174.552,102.985,174.215,103.152,173.907z"/>
		<path fill="#231F20" d="M106.589,173.907c0.092-0.164,0.191-0.241,0.292-0.229c0.098,0.012,0.119,0.09,0.06,0.229
			c-0.457,0.896-0.892,1.591-1.304,2.092c-0.412,0.501-0.785,0.851-1.119,1.05c-0.337,0.2-0.632,0.269-0.892,0.212
			c-0.256-0.06-0.471-0.202-0.641-0.433c-0.173-0.229-0.292-0.521-0.364-0.883c-0.068-0.358-0.081-0.737-0.033-1.137
			c0.033-0.308,0.099-0.668,0.194-1.086c0.093-0.418,0.203-0.851,0.325-1.298c0.123-0.444,0.254-0.889,0.388-1.331
			c0.134-0.441,0.262-0.838,0.379-1.189c0.116-0.355,0.221-0.647,0.307-0.884c0.089-0.235,0.152-0.37,0.185-0.405
			c0.131-0.129,0.31-0.269,0.54-0.415c0.229-0.146,0.459-0.221,0.695-0.221c0.188,0,0.251,0.138,0.185,0.405
			c-0.065,0.272-0.197,0.689-0.397,1.254c-0.2,0.563-0.441,1.276-0.722,2.136c-0.284,0.856-0.54,1.867-0.776,3.034
			c-0.095,0.436-0.125,0.778-0.098,1.032c0.03,0.254,0.128,0.433,0.292,0.537c0.224,0.083,0.451,0.054,0.677-0.087
			c0.23-0.143,0.457-0.343,0.68-0.6c0.224-0.26,0.433-0.552,0.627-0.874C106.264,174.492,106.437,174.191,106.589,173.907z
			 M105.62,167.132c-0.248,0-0.409-0.092-0.483-0.28c-0.078-0.188-0.083-0.394-0.018-0.617c0.063-0.224,0.185-0.43,0.361-0.618
			c0.176-0.188,0.394-0.283,0.65-0.283c0.248,0,0.409,0.096,0.486,0.283c0.074,0.188,0.081,0.395,0.018,0.618
			c-0.065,0.224-0.185,0.43-0.361,0.617C106.097,167.04,105.879,167.132,105.62,167.132z"/>
		<path fill="#231F20" d="M114.188,173.907c0.092-0.164,0.191-0.241,0.29-0.229c0.102,0.012,0.122,0.09,0.063,0.229
			c-0.188,0.353-0.376,0.678-0.564,0.97c-0.316,0.52-0.645,0.887-0.979,1.104s-0.656,0.337-0.96,0.36
			c-0.308,0.024-0.585-0.026-0.838-0.158c-0.254-0.128-0.457-0.283-0.609-0.459c-0.376,0.447-0.793,0.817-1.25,1.112
			c-0.459,0.296-0.963,0.442-1.516,0.442c-0.531,0-0.937-0.135-1.217-0.397c-0.283-0.266-0.48-0.605-0.59-1.023
			c-0.114-0.417-0.149-0.886-0.114-1.405c0.033-0.516,0.11-1.022,0.227-1.524c0.119-0.501,0.256-0.96,0.415-1.384
			s0.316-0.755,0.468-0.987c0.188-0.319,0.412-0.57,0.668-0.752c0.26-0.183,0.498-0.308,0.716-0.379
			c0.218-0.072,0.397-0.087,0.537-0.054c0.14,0.035,0.194,0.119,0.158,0.247c-0.024,0.072-0.089,0.191-0.194,0.361
			c-0.104,0.173-0.233,0.399-0.379,0.689c-0.146,0.289-0.313,0.653-0.501,1.095s-0.37,0.973-0.549,1.596
			c-0.152,0.552-0.245,1.06-0.28,1.516c-0.036,0.46-0.021,0.851,0.044,1.176c0.063,0.322,0.176,0.563,0.334,0.722
			s0.352,0.206,0.582,0.144c0.23-0.065,0.486-0.254,0.776-0.567c0.286-0.31,0.597-0.772,0.925-1.384
			c-0.26-0.376-0.457-0.809-0.6-1.298c-0.14-0.486-0.221-0.987-0.239-1.498c-0.015-0.513,0.021-1.014,0.116-1.509
			c0.093-0.493,0.239-0.935,0.433-1.322c0.194-0.391,0.436-0.701,0.731-0.937c0.292-0.236,0.636-0.353,1.023-0.353
			c0.4,0,0.716,0.215,0.952,0.645c0.233,0.43,0.352,0.99,0.352,1.683c0,0.695-0.134,1.478-0.406,2.349s-0.716,1.742-1.339,2.61
			c0.081,0.083,0.17,0.158,0.266,0.229c0.081,0.06,0.179,0.122,0.289,0.185c0.11,0.066,0.233,0.11,0.361,0.135
			c0.483,0.093,0.901-0.015,1.253-0.328C113.395,175.247,113.776,174.695,114.188,173.907z M110.133,174.421
			c0.4-0.848,0.704-1.614,0.916-2.304c0.212-0.688,0.343-1.279,0.397-1.771c0.054-0.495,0.039-0.878-0.045-1.149
			c-0.081-0.271-0.212-0.405-0.388-0.405c-0.2,0-0.379,0.093-0.537,0.274s-0.298,0.427-0.415,0.731
			c-0.116,0.307-0.209,0.656-0.274,1.05c-0.063,0.394-0.096,0.8-0.096,1.217c0,0.418,0.036,0.83,0.104,1.235
			C109.868,173.705,109.979,174.078,110.133,174.421z"/>
		<path fill="#231F20" d="M121.805,173.907c0.093-0.164,0.191-0.241,0.29-0.229c0.101,0.012,0.122,0.09,0.063,0.229
			c-0.471,0.919-0.916,1.629-1.339,2.137c-0.424,0.504-0.809,0.854-1.155,1.041s-0.653,0.245-0.919,0.176
			c-0.263-0.071-0.477-0.227-0.641-0.468c-0.167-0.242-0.278-0.537-0.337-0.893c-0.057-0.352-0.051-0.716,0.018-1.092
			c0.095-0.472,0.235-0.987,0.423-1.555c0.188-0.563,0.364-1.109,0.528-1.641c0.167-0.528,0.292-1.006,0.382-1.429
			c0.086-0.424,0.078-0.723-0.027-0.898c-0.167-0.271-0.364-0.399-0.6-0.388c-0.236,0.012-0.48,0.104-0.731,0.28
			c-0.254,0.176-0.51,0.403-0.77,0.681c-0.256,0.277-0.48,0.537-0.668,0.784c-0.352,1-0.695,2.064-1.023,3.195
			c-0.328,1.128-0.558,2.273-0.686,3.44c-0.176-0.048-0.337-0.102-0.478-0.158c-0.128-0.06-0.25-0.12-0.361-0.18
			c-0.11-0.057-0.191-0.128-0.239-0.212c-0.06-0.104-0.06-0.354,0-0.748c0.06-0.395,0.152-0.859,0.274-1.394
			c0.123-0.534,0.263-1.11,0.424-1.722c0.158-0.611,0.31-1.179,0.457-1.7c0.146-0.525,0.277-0.973,0.388-1.343
			c0.113-0.37,0.179-0.591,0.203-0.662c0.024-0.081,0.012-0.129-0.036-0.141c-0.045-0.012-0.099-0.012-0.158,0
			c-0.081,0.024-0.176,0.054-0.28,0.09c0.176-0.212,0.37-0.399,0.582-0.567c0.176-0.14,0.379-0.269,0.609-0.388
			c0.227-0.116,0.471-0.176,0.731-0.176c0.152,0,0.262,0.023,0.325,0.071c0.065,0.048,0.089,0.135,0.071,0.266
			c-0.018,0.129-0.071,0.316-0.158,0.564c-0.09,0.247-0.203,0.563-0.346,0.951c0.176-0.212,0.364-0.427,0.564-0.645
			c0.2-0.218,0.415-0.408,0.644-0.572c0.23-0.164,0.466-0.299,0.704-0.406c0.242-0.104,0.486-0.158,0.734-0.158
			c0.48,0,0.83,0.104,1.039,0.316c0.212,0.212,0.331,0.492,0.355,0.839c0.021,0.346-0.024,0.748-0.143,1.199
			c-0.117,0.453-0.26,0.925-0.43,1.411c-0.173,0.489-0.349,0.979-0.531,1.465c-0.182,0.489-0.325,0.939-0.433,1.352
			c-0.104,0.411-0.155,0.772-0.149,1.083c0.006,0.313,0.116,0.534,0.328,0.662c0.221,0.083,0.447,0.054,0.677-0.087
			c0.229-0.143,0.457-0.343,0.68-0.6c0.221-0.26,0.43-0.552,0.624-0.874C121.477,174.492,121.649,174.191,121.805,173.907z"/>
		<path fill="#231F20" d="M135.609,173.907c0.093-0.164,0.191-0.241,0.29-0.229c0.102,0.012,0.119,0.09,0.063,0.229
			c-0.188,0.353-0.375,0.678-0.563,0.97c-0.319,0.52-0.645,0.887-0.979,1.104c-0.337,0.218-0.657,0.337-0.961,0.36
			c-0.307,0.024-0.585-0.026-0.838-0.158c-0.253-0.128-0.457-0.283-0.608-0.459c-0.376,0.447-0.794,0.817-1.25,1.112
			c-0.459,0.296-0.967,0.442-1.519,0.442c-0.528,0-0.934-0.135-1.214-0.397c-0.284-0.266-0.48-0.605-0.591-1.023
			c-0.113-0.417-0.152-0.886-0.116-1.405c0.036-0.516,0.113-1.022,0.229-1.524c0.116-0.501,0.257-0.96,0.415-1.384
			c0.158-0.424,0.313-0.755,0.466-0.987c0.188-0.319,0.412-0.57,0.671-0.752c0.26-0.183,0.496-0.308,0.713-0.379
			c0.218-0.072,0.396-0.087,0.54-0.054c0.14,0.035,0.194,0.119,0.158,0.247c-0.023,0.072-0.089,0.191-0.194,0.361
			c-0.107,0.173-0.232,0.399-0.379,0.689c-0.149,0.289-0.316,0.653-0.504,1.095s-0.37,0.973-0.546,1.596
			c-0.152,0.552-0.248,1.06-0.281,1.516c-0.036,0.46-0.021,0.851,0.042,1.176c0.065,0.322,0.176,0.563,0.337,0.722
			c0.158,0.158,0.352,0.206,0.582,0.144c0.229-0.065,0.486-0.254,0.775-0.567c0.287-0.31,0.597-0.772,0.925-1.384
			c-0.259-0.376-0.459-0.809-0.6-1.298c-0.14-0.486-0.221-0.987-0.239-1.498c-0.018-0.513,0.021-1.014,0.117-1.509
			c0.092-0.493,0.235-0.935,0.43-1.322c0.194-0.391,0.438-0.701,0.734-0.937c0.292-0.236,0.632-0.353,1.02-0.353
			c0.4,0,0.719,0.215,0.952,0.645c0.236,0.43,0.355,0.99,0.355,1.683c0,0.695-0.138,1.478-0.406,2.349
			c-0.271,0.871-0.719,1.742-1.34,2.61c0.081,0.083,0.17,0.158,0.263,0.229c0.083,0.06,0.179,0.122,0.292,0.185
			c0.11,0.066,0.232,0.11,0.361,0.135c0.48,0.093,0.898-0.015,1.253-0.328C134.815,175.247,135.197,174.695,135.609,173.907z
			 M131.552,174.421c0.399-0.848,0.707-1.614,0.919-2.304c0.211-0.688,0.343-1.279,0.396-1.771c0.051-0.495,0.036-0.878-0.044-1.149
			c-0.083-0.271-0.212-0.405-0.388-0.405c-0.2,0-0.379,0.093-0.537,0.274c-0.158,0.182-0.298,0.427-0.415,0.731
			c-0.119,0.307-0.209,0.656-0.274,1.05s-0.095,0.8-0.095,1.217c0,0.418,0.036,0.83,0.104,1.235
			C131.289,173.705,131.399,174.078,131.552,174.421z"/>
		<path fill="#231F20" d="M139.15,163.269c0.26-0.447,0.573-0.812,0.943-1.095c0.37-0.28,0.725-0.466,1.059-0.555
			c0.334-0.087,0.626-0.072,0.874,0.045c0.245,0.116,0.382,0.354,0.412,0.716c0.03,0.357-0.081,0.841-0.334,1.453
			c-0.253,0.611-0.707,1.366-1.366,2.258c-0.104,0.155-0.239,0.325-0.397,0.514c-0.158,0.188-0.334,0.379-0.528,0.572
			c-0.194,0.194-0.403,0.379-0.627,0.555c-0.224,0.177-0.459,0.332-0.704,0.46c-0.307,0.848-0.611,1.73-0.918,2.646
			c-0.305,0.919-0.582,1.841-0.827,2.771c-0.319,1.188-0.513,2.214-0.582,3.079c-0.072,0.862-0.078,1.569-0.018,2.115
			c0.057,0.549,0.152,0.937,0.28,1.166c0.131,0.229,0.242,0.296,0.337,0.203c0.044-0.048,0.116-0.194,0.212-0.441
			c0.092-0.248,0.185-0.546,0.28-0.893c0.095-0.346,0.179-0.725,0.256-1.137c0.075-0.411,0.131-0.817,0.167-1.217
			c0.069-0.755,0.081-1.423,0.036-2.014c-0.048-0.588-0.099-1.095-0.149-1.524c-0.054-0.43-0.083-0.773-0.089-1.032
			c-0.006-0.26,0.063-0.442,0.203-0.546c0.093-0.061,0.206-0.084,0.334-0.072c0.131,0.012,0.271,0.042,0.423,0.09
			c0.152,0.045,0.313,0.099,0.483,0.158c0.173,0.06,0.34,0.104,0.504,0.14c0.152,0.024,0.307,0.013,0.468-0.035
			c0.158-0.045,0.313-0.045,0.465,0c0.072,0.023,0.09,0.08,0.054,0.167c-0.036,0.089-0.11,0.179-0.221,0.266
			c-0.113,0.089-0.253,0.152-0.423,0.193c-0.17,0.042-0.349,0.021-0.537-0.063c-0.388-0.152-0.671-0.263-0.848-0.334
			c-0.176-0.071-0.289-0.077-0.343-0.018s-0.063,0.19-0.027,0.396c0.036,0.206,0.075,0.52,0.116,0.937
			c0.039,0.418,0.06,0.952,0.06,1.605s-0.06,1.443-0.176,2.372c-0.072,0.519-0.155,1.017-0.257,1.5
			c-0.098,0.483-0.208,0.907-0.334,1.28c-0.122,0.37-0.253,0.662-0.388,0.88s-0.266,0.328-0.397,0.328
			c-0.081,0-0.188-0.029-0.316-0.089c-0.131-0.061-0.268-0.155-0.415-0.29c-0.146-0.137-0.29-0.316-0.424-0.54
			c-0.134-0.224-0.25-0.498-0.343-0.829c-0.128-0.457-0.2-0.984-0.212-1.578s0.018-1.218,0.089-1.871
			c0.069-0.653,0.176-1.321,0.316-2.011s0.295-1.357,0.468-2.011c0.17-0.653,0.346-1.273,0.528-1.861
			c0.182-0.588,0.355-1.113,0.519-1.569c-0.34-0.06-0.585-0.149-0.731-0.266c-0.146-0.119-0.221-0.206-0.221-0.266
			c0-0.08,0.036-0.176,0.104-0.283c0.071-0.104,0.137-0.158,0.194-0.158c0.06,0,0.155,0.057,0.283,0.167
			c0.128,0.113,0.311,0.203,0.546,0.274c0.295-0.8,0.621-1.608,0.979-2.426C138.354,164.736,138.739,163.976,139.15,163.269z
			 M138.64,167.785c0.328-0.176,0.656-0.436,0.988-0.775c0.328-0.34,0.641-0.719,0.934-1.131c0.292-0.411,0.555-0.832,0.785-1.259
			c0.23-0.43,0.409-0.823,0.537-1.176c0.131-0.352,0.188-0.641,0.176-0.865c-0.012-0.221-0.11-0.334-0.298-0.334
			c-0.259,0-0.51,0.135-0.749,0.406c-0.242,0.271-0.489,0.653-0.743,1.146c-0.25,0.495-0.51,1.08-0.772,1.757
			C139.231,166.231,138.944,166.974,138.64,167.785z"/>
		<path fill="#231F20" d="M149.076,163.2c0.54-0.447,1.077-0.794,1.605-1.035c0.528-0.239,1.032-0.397,1.515-0.466
			c0.483-0.071,0.925-0.068,1.331,0.009c0.406,0.075,0.749,0.218,1.032,0.424c0.28,0.206,0.492,0.466,0.635,0.785
			c0.14,0.315,0.188,0.671,0.14,1.059c-0.06,0.447-0.277,0.836-0.653,1.164s-0.844,0.552-1.408,0.671
			c-0.567,0.116-1.188,0.104-1.871-0.036c-0.68-0.14-1.352-0.471-2.008-0.987c-0.659,0.681-1.211,1.453-1.659,2.31
			c-0.448,0.859-0.782,1.73-1.005,2.613c-0.224,0.88-0.334,1.742-0.334,2.584c0,0.841,0.12,1.59,0.361,2.249s0.6,1.188,1.074,1.587
			c0.478,0.4,1.08,0.6,1.808,0.6c0.671,0,1.211-0.125,1.623-0.379c0.412-0.25,0.731-0.543,0.96-0.874
			c0.23-0.328,0.385-0.641,0.466-0.942c0.083-0.299,0.137-0.495,0.161-0.591c0.044-0.2,0.101-0.34,0.167-0.424
			c0.063-0.08,0.179-0.116,0.343-0.104c0.305,0.024,0.51,0.132,0.618,0.325c0.104,0.194,0.125,0.436,0.063,0.723
			c-0.065,0.289-0.211,0.597-0.441,0.919c-0.229,0.322-0.534,0.626-0.916,0.909c-0.382,0.281-0.835,0.514-1.357,0.695
			c-0.525,0.183-1.11,0.274-1.754,0.274c-0.859,0-1.608-0.206-2.25-0.617c-0.642-0.412-1.158-0.967-1.552-1.668
			c-0.394-0.701-0.647-1.507-0.758-2.417c-0.11-0.912-0.071-1.864,0.123-2.857c0.194-0.994,0.558-1.996,1.095-3.011
			c0.534-1.011,1.253-1.969,2.16-2.876c-0.143-0.176-0.277-0.36-0.406-0.555c-0.131-0.194-0.26-0.409-0.388-0.645
			c-0.2-0.376-0.281-0.633-0.239-0.767c0.042-0.135,0.191-0.203,0.451-0.203c0.176,0,0.304,0.027,0.388,0.081
			c0.081,0.051,0.155,0.14,0.221,0.262c0.063,0.126,0.143,0.287,0.236,0.486C148.748,162.675,148.888,162.917,149.076,163.2z
			 M149.974,164.238c0.472,0.424,0.964,0.716,1.483,0.874c0.516,0.158,0.994,0.212,1.429,0.158c0.433-0.051,0.799-0.194,1.101-0.424
			c0.298-0.227,0.468-0.519,0.501-0.871c0.072-0.283,0.012-0.552-0.176-0.803c-0.188-0.253-0.478-0.408-0.872-0.468
			c-0.394-0.06-0.886,0.021-1.474,0.238S150.717,163.594,149.974,164.238z"/>
		<path fill="#231F20" d="M162.794,173.907c0.093-0.164,0.194-0.241,0.298-0.229c0.104,0.012,0.123,0.09,0.054,0.229
			c-0.423,0.824-0.823,1.48-1.199,1.97c-0.376,0.486-0.719,0.844-1.032,1.064c-0.31,0.224-0.591,0.338-0.835,0.338
			c-0.248,0-0.459-0.072-0.635-0.212c-0.176-0.141-0.322-0.335-0.433-0.573c-0.11-0.241-0.179-0.492-0.203-0.752
			c-0.352,0.483-0.719,0.851-1.101,1.104c-0.382,0.253-0.743,0.394-1.086,0.423c-0.34,0.03-0.65-0.041-0.934-0.211
			c-0.28-0.171-0.501-0.448-0.659-0.83c-0.161-0.382-0.242-0.859-0.248-1.429c-0.006-0.57,0.089-1.232,0.289-1.984
			c0.295-1.106,0.681-1.996,1.155-2.664c0.478-0.671,0.976-1.179,1.5-1.519c0.522-0.34,1.036-0.54,1.542-0.6
			c0.504-0.06,0.934-0.023,1.286,0.104c0.352,0.131,0.6,0.331,0.74,0.6c0.143,0.271,0.113,0.561-0.086,0.865
			c0.2-0.045,0.313-0.042,0.343,0.018c0.03,0.06,0,0.224-0.09,0.495c-0.086,0.269-0.227,0.681-0.42,1.235
			c-0.194,0.552-0.415,1.304-0.663,2.259c-0.2,0.812-0.322,1.438-0.37,1.877c-0.048,0.441,0.054,0.739,0.298,0.892
			c0.224,0.083,0.45,0.054,0.68-0.087c0.229-0.143,0.453-0.343,0.668-0.6c0.218-0.26,0.424-0.552,0.618-0.874
			C162.466,174.492,162.639,174.191,162.794,173.907z M156.517,172.902c-0.188,0.8-0.242,1.447-0.158,1.942
			c0.081,0.492,0.245,0.823,0.492,0.987s0.546,0.167,0.898,0.009c0.355-0.161,0.707-0.492,1.059-0.996
			c0.036-0.355,0.099-0.731,0.185-1.131c0.09-0.4,0.188-0.806,0.301-1.218c0.11-0.411,0.227-0.809,0.352-1.19
			c0.123-0.382,0.236-0.733,0.343-1.05c-0.128-0.023-0.221-0.065-0.274-0.122c-0.051-0.06-0.083-0.113-0.096-0.161
			c-0.012-0.024,0.039-0.087,0.149-0.194c0.113-0.104,0.203-0.238,0.274-0.405c0.092-0.212,0.128-0.424,0.104-0.636
			s-0.134-0.316-0.334-0.316c-0.295,0-0.611,0.138-0.952,0.415c-0.34,0.277-0.665,0.632-0.969,1.068
			c-0.308,0.436-0.582,0.915-0.83,1.446C156.815,171.879,156.633,172.398,156.517,172.902z"/>
		<path fill="#231F20" d="M169.686,173.907c0.095-0.164,0.194-0.241,0.298-0.229c0.107,0.012,0.125,0.09,0.054,0.229
			c-0.469,0.907-0.913,1.611-1.331,2.118c-0.418,0.505-0.8,0.856-1.146,1.051c-0.346,0.193-0.653,0.257-0.916,0.193
			c-0.266-0.065-0.483-0.215-0.654-0.45c-0.17-0.235-0.289-0.531-0.352-0.892c-0.065-0.358-0.063-0.731,0.009-1.119l1.11-5.206
			c-0.128,0.107-0.278,0.203-0.451,0.292c-0.17,0.087-0.352,0.155-0.546,0.203s-0.385,0.071-0.573,0.071s-0.352-0.035-0.492-0.107
			c-0.26,0.8-0.496,1.465-0.707,1.993c-0.212,0.531-0.394,0.952-0.546,1.262c-0.152,0.313-0.28,0.534-0.388,0.672
			c-0.104,0.134-0.188,0.218-0.248,0.247c-0.057,0.03-0.092,0.016-0.104-0.044c-0.012-0.061,0-0.126,0.036-0.194
			c0.176-0.331,0.343-0.674,0.501-1.032s0.31-0.719,0.451-1.077c0.14-0.357,0.271-0.707,0.388-1.05
			c0.116-0.341,0.229-0.662,0.334-0.97c-0.235-0.212-0.412-0.489-0.528-0.829c-0.117-0.341-0.182-0.672-0.194-0.988
			c-0.012-0.519,0.06-0.979,0.211-1.384c0.152-0.406,0.334-0.719,0.546-0.937c0.211-0.219,0.42-0.325,0.626-0.325
			c0.206,0,0.358,0.134,0.457,0.405c0.101,0.269,0.119,0.695,0.053,1.277c-0.065,0.584-0.268,1.345-0.608,2.285
			c0.131,0.095,0.295,0.143,0.495,0.143c0.292,0,0.552-0.077,0.776-0.229c0.224-0.155,0.417-0.322,0.582-0.504
			c0.164-0.183,0.301-0.35,0.415-0.501c0.11-0.155,0.203-0.23,0.271-0.23c0.119,0,0.235,0.051,0.352,0.149
			c0.119,0.102,0.224,0.212,0.319,0.334c0.093,0.126,0.167,0.242,0.221,0.355c0.05,0.11,0.071,0.185,0.06,0.221
			c-0.012,0.021-0.045,0.149-0.104,0.379s-0.134,0.519-0.23,0.874c-0.095,0.352-0.194,0.74-0.298,1.163
			c-0.107,0.424-0.211,0.845-0.319,1.263c-0.104,0.417-0.206,0.806-0.298,1.163c-0.096,0.358-0.164,0.645-0.212,0.856
			c-0.096,0.436-0.131,0.778-0.107,1.032s0.125,0.433,0.301,0.537c0.224,0.083,0.451,0.054,0.677-0.087
			c0.229-0.143,0.454-0.343,0.671-0.6c0.218-0.26,0.423-0.552,0.618-0.874C169.361,174.492,169.534,174.191,169.686,173.907z
			 M164.927,166.162c-0.107,0-0.206,0.107-0.301,0.326c-0.092,0.218-0.161,0.477-0.203,0.778c-0.042,0.298-0.045,0.617-0.009,0.951
			c0.036,0.335,0.125,0.615,0.266,0.839c0.048-0.132,0.11-0.353,0.194-0.672c0.081-0.315,0.149-0.641,0.203-0.969
			s0.074-0.621,0.068-0.875C165.139,166.288,165.067,166.162,164.927,166.162z"/>
		<path fill="#231F20" d="M176.369,173.907c0.093-0.164,0.194-0.241,0.298-0.229s0.123,0.09,0.054,0.229
			c-0.248,0.483-0.513,0.929-0.793,1.334c-0.283,0.405-0.594,0.761-0.934,1.065c-0.343,0.307-0.728,0.546-1.155,0.716
			c-0.43,0.17-0.916,0.257-1.456,0.257c-0.716,0-1.313-0.107-1.79-0.319c-0.474-0.212-0.835-0.514-1.083-0.907
			s-0.382-0.865-0.406-1.411c-0.024-0.549,0.054-1.157,0.23-1.826c0.245-0.895,0.561-1.649,0.942-2.268
			c0.382-0.617,0.785-1.118,1.208-1.5c0.421-0.382,0.847-0.656,1.277-0.82s0.809-0.248,1.137-0.248c0.295,0,0.546,0.065,0.758,0.194
			c0.212,0.131,0.379,0.289,0.504,0.477c0.122,0.188,0.206,0.392,0.245,0.609c0.042,0.218,0.044,0.414,0.009,0.591
			c-0.021,0.071-0.065,0.182-0.131,0.334c-0.065,0.155-0.155,0.328-0.271,0.521c-0.119,0.194-0.256,0.395-0.415,0.6
			c-0.161,0.206-0.34,0.397-0.54,0.573c-0.245,0.212-0.519,0.399-0.817,0.563c-0.301,0.167-0.6,0.29-0.901,0.373
			c-0.298,0.081-0.582,0.113-0.845,0.096c-0.265-0.018-0.486-0.107-0.662-0.274c-0.2,0.719-0.26,1.354-0.176,1.906
			c0.081,0.552,0.266,1.003,0.546,1.349c0.283,0.349,0.632,0.582,1.05,0.698c0.418,0.119,0.865,0.104,1.349-0.045
			c0.48-0.146,0.964-0.433,1.444-0.865C175.527,175.253,175.969,174.662,176.369,173.907z M174.412,169.427
			c0.128-0.472,0.096-0.776-0.099-0.916c-0.194-0.144-0.468-0.116-0.829,0.077c-0.358,0.194-0.758,0.562-1.196,1.104
			c-0.442,0.54-0.838,1.265-1.19,2.169c0.092,0.259,0.289,0.382,0.591,0.369c0.298-0.012,0.62-0.131,0.969-0.36
			c0.346-0.229,0.684-0.552,1.012-0.97C174,170.482,174.245,169.99,174.412,169.427z"/>
	</g>
</g>
</svg>
