<?xml version="1.0" encoding="utf-8"?>
<!-- Generator: Adobe Illustrator 16.0.0, SVG Export Plug-In . SVG Version: 6.00 Build 0)  -->
<!DOCTYPE svg PUBLIC "-//W3C//DTD SVG 1.1//EN" "http://www.w3.org/Graphics/SVG/1.1/DTD/svg11.dtd">
<svg version="1.1" id="Layer_1" xmlns="http://www.w3.org/2000/svg" xmlns:xlink="http://www.w3.org/1999/xlink" x="0px" y="0px"
	 width="250px" height="250px" viewBox="0 0 250 250" enable-background="new 0 0 250 250" xml:space="preserve">
<g>
	<polygon fill-rule="evenodd" clip-rule="evenodd" fill="#231F20" points="239.825,131.206 239.825,105.347 174.795,105.347 
		174.795,131.206 239.825,131.206 239.825,131.206 	"/>
	<g>
		<defs>
			<rect id="SVGID_66_" y="94.103" width="250" height="42.982"/>
		</defs>
		<clipPath id="SVGID_1_">
			<use xlink:href="#SVGID_66_"  overflow="visible"/>
		</clipPath>
		<polygon clip-path="url(#SVGID_1_)" fill="none" stroke="#231F20" stroke-width="3.8794" stroke-miterlimit="22.9256" points="
			239.825,131.206 239.825,105.347 174.795,105.347 174.795,131.206 239.825,131.206 239.825,131.206 		"/>
		<path clip-path="url(#SVGID_1_)" fill-rule="evenodd" clip-rule="evenodd" fill="#EC1C24" d="M18.59,94.284l0.024,7.206
			c-1.581,0.192-3.089-0.452-4.214,0.814c-0.193,0.551-0.312,1.533-0.312,2.491l4.525-0.048v7.638l-4.478,0.023l0.023,19.442
			l-10.487-0.024l-0.024-19.441H0.033v-7.638l3.64,0.048c-0.119-3.832,0.814-6.992,3.687-9.074
			C10.641,93.758,14.71,94.093,18.59,94.284L18.59,94.284L18.59,94.284z"/>
		<path clip-path="url(#SVGID_1_)" fill="none" stroke="#EC1C24" stroke-width="0.2095" stroke-miterlimit="2.6131" d="
			M3.673,104.796c-0.119-3.832,0.814-6.992,3.687-9.074c3.281-1.964,7.351-1.629,11.23-1.438 M14.088,104.796l4.525-0.048v7.638
			l-4.478,0.023l0.023,19.442l-10.487-0.024l-0.024-19.441H0.033v-7.638l3.64,0.048 M18.614,101.49
			c-1.581,0.192-3.089-0.452-4.214,0.814c-0.193,0.551-0.312,1.533-0.312,2.491 M18.59,94.284l0.024,7.206"/>
	</g>
	<path fill-rule="evenodd" clip-rule="evenodd" fill="#EC1C24" d="M97.578,94.284c0,0,0,8.812,0,13.05
		c2.874-2.897,7.23-4.19,11.254-2.992c3.136,0.813,5.723,3.685,6.225,6.823l0.215,2.466l-0.024,18.196H105.12
		c0,0,0.047-10.512-0.024-15.61c-0.264-1.245-0.455-2.682-1.771-3.377c-1.078-0.574-2.467-0.431-3.592,0
		c-1.436,0.887-2.274,2.515-2.154,4.287v14.7H87.282V94.284H97.578L97.578,94.284L97.578,94.284z"/>
	<path fill="none" stroke="#EC1C24" stroke-width="0.2095" stroke-miterlimit="2.6131" d="M97.578,117.127v14.7H87.282V94.284
		h10.296 M105.12,131.827c0,0,0.047-10.512-0.024-15.61c-0.264-1.245-0.455-2.682-1.771-3.377c-1.078-0.574-2.467-0.431-3.592,0
		c-1.436,0.887-2.274,2.515-2.154,4.287 M115.057,111.165l0.215,2.466l-0.024,18.196H105.12 M97.578,94.284c0,0,0,8.812,0,13.05
		c2.874-2.897,7.23-4.19,11.254-2.992c3.136,0.813,5.723,3.685,6.225,6.823"/>
	<path fill-rule="evenodd" clip-rule="evenodd" fill="#EC1C24" d="M55.749,108.507c0.503,1.198,0.886,2.514,0.958,3.902
		l-0.191,0.192h-9.05c-0.192-0.551-0.264-1.246-0.623-1.675c-1.077-1.126-2.849-1.078-4.214-0.744
		c-0.623,0.239-1.388,0.744-1.509,1.508c0,0.36,0.073,0.743,0.385,1.007c2.25,1.173,5.147,0.934,7.613,1.604
		c3.376,0.622,7.23,2.682,8.308,6.32c0.743,2.897,0.191,6.104-1.868,8.26c-4.525,4.454-12.258,4.55-18.029,2.73
		c-2.777-0.862-5.794-3.497-6.321-6.515c-0.047-0.764-0.311-1.506-0.191-2.273c3.161-0.119,6.608-0.07,9.625-0.022
		c0.072,1.149,0.454,2.274,1.508,2.969c1.389,0.742,3.328,0.982,4.718,0.048c0.502-0.455,0.813-1.078,0.813-1.772
		c0-0.622-0.311-1.196-0.886-1.508c-3.951-1.437-8.547-1.223-12.187-3.423c-2.537-1.629-3.423-4.455-3.16-7.28
		c0.24-2.898,2.753-5.603,5.387-6.681c3.951-1.771,8.596-1.46,12.93-0.718C52.157,104.94,54.553,106.113,55.749,108.507
		L55.749,108.507L55.749,108.507z"/>
	<path fill="none" stroke="#EC1C24" stroke-width="0.2095" stroke-miterlimit="2.6131" d="M47.465,112.602
		c-0.192-0.551-0.264-1.246-0.623-1.675c-1.077-1.126-2.849-1.078-4.214-0.744c-0.623,0.239-1.388,0.744-1.509,1.508
		c0,0.36,0.073,0.743,0.385,1.007c2.25,1.173,5.147,0.934,7.613,1.604c3.376,0.622,7.23,2.682,8.308,6.32
		c0.743,2.897,0.191,6.104-1.868,8.26c-4.525,4.454-12.258,4.55-18.029,2.73c-2.777-0.862-5.794-3.497-6.321-6.515
		c-0.047-0.764-0.311-1.506-0.191-2.273c3.161-0.119,6.608-0.07,9.625-0.022c0.072,1.149,0.454,2.274,1.508,2.969
		c1.389,0.742,3.328,0.982,4.718,0.048c0.502-0.455,0.813-1.078,0.813-1.772c0-0.622-0.311-1.196-0.886-1.508
		c-3.951-1.437-8.547-1.223-12.187-3.423c-2.537-1.629-3.423-4.455-3.16-7.28c0.24-2.898,2.753-5.603,5.387-6.681
		c3.951-1.771,8.596-1.46,12.93-0.718c2.394,0.504,4.789,1.677,5.985,4.07 M56.707,112.409l-0.191,0.192h-9.05 M55.749,108.507
		c0.503,1.198,0.886,2.514,0.958,3.902"/>
	<path fill-rule="evenodd" clip-rule="evenodd" fill="#EC1C24" d="M84.457,109.418c1.006,1.698,1.677,3.542,1.868,5.554h-3.616
		h-5.865c-0.312-1.341-1.126-2.515-2.371-3.137c-1.078-0.503-2.585-0.359-3.592,0.143c-2.563,1.94-2.441,5.341-2.299,8.429
		c0.313,1.868,1.149,4.143,3.281,4.766c1.389,0.311,2.944,0.119,3.759-1.197c0.766-0.959,1.149-2.132,1.149-3.377
		c3.927,0,5.434,0,8.572,0h1.172c0.145,4.574-3.088,9.123-7.23,10.847c-5.028,2.083-11.875,1.724-15.969-2.106
		c-4.717-3.831-6.25-10.297-4.312-16.019c1.51-4.404,5.891-8.308,10.488-9.003C75.191,103.287,81.104,104.532,84.457,109.418
		L84.457,109.418L84.457,109.418z"/>
	<path fill="none" stroke="#EC1C24" stroke-width="0.2095" stroke-miterlimit="2.6131" d="M86.516,120.598
		c0.145,4.574-3.088,9.123-7.23,10.847c-5.028,2.083-11.875,1.724-15.969-2.106c-4.717-3.831-6.25-10.297-4.312-16.019
		c1.51-4.404,5.891-8.308,10.488-9.003c5.699-1.029,11.612,0.216,14.965,5.102 M85.343,120.598h1.172 M76.844,114.972
		c-0.312-1.341-1.126-2.515-2.371-3.137c-1.078-0.503-2.585-0.359-3.592,0.143c-2.563,1.94-2.441,5.341-2.299,8.429
		c0.313,1.868,1.149,4.143,3.281,4.766c1.389,0.311,2.944,0.119,3.759-1.197c0.766-0.959,1.149-2.132,1.149-3.377
		c3.927,0,5.434,0,8.572,0 M86.325,114.972h-3.616h-5.865 M84.457,109.418c1.006,1.698,1.677,3.542,1.868,5.554"/>
	<polygon fill-rule="evenodd" clip-rule="evenodd" fill="#EC1C24" points="30.13,131.852 19.954,131.827 19.954,104.796 
		30.13,104.748 30.13,131.852 30.13,131.852 	"/>
	<polygon fill="none" stroke="#EC1C24" stroke-width="0.2095" stroke-miterlimit="2.6131" points="30.13,131.852 19.954,131.827 
		19.954,104.796 30.13,104.748 30.13,131.852 30.13,131.852 	"/>
	<path fill-rule="evenodd" clip-rule="evenodd" fill="#EC1C24" d="M164.475,112.578c-0.836,0.047-1.7,0-2.968,0.311
		c-2.418,0.742-4.262,2.275-4.622,4.286l-0.312,1.818l-0.143,12.834l-9.914,0.024v-27.056h9.914c0,0,0,2.106,0,3.448
		c1.125-1.39,2.539-2.729,4.262-3.329c1.03-0.383,2.776-0.502,3.783-0.454C164.475,104.461,164.475,108.053,164.475,112.578
		L164.475,112.578L164.475,112.578z"/>
	<path fill="none" stroke="#EC1C24" stroke-width="0.2095" stroke-miterlimit="2.6131" d="M156.431,104.796c0,0,0,2.106,0,3.448
		c1.125-1.39,2.539-2.729,4.262-3.329c1.03-0.383,2.776-0.502,3.783-0.454c0,0,0,3.592,0,8.117 M156.885,117.175l-0.312,1.818
		l-0.143,12.834l-9.914,0.024v-27.056h9.914 M164.475,112.578c-0.836,0.047-1.7,0-2.968,0.311c-2.418,0.742-4.262,2.275-4.622,4.286
		"/>
	<path fill-rule="evenodd" clip-rule="evenodd" fill="#EC1C24" d="M129.327,111.452L129.327,111.452
		c1.651-0.573,3.711-0.384,4.909,0.934c0.647,0.767,1.006,1.7,1.006,2.634c-3.138,0-5.1,0-8.547,0.097
		C126.694,113.606,127.891,112.025,129.327,111.452L129.327,111.452L129.327,111.452z M135.408,123.327
		c-1.126,1.629-3.089,2.275-4.981,1.893c-1.625-0.312-3.206-1.557-3.709-3.209c-0.144-0.455-0.216-0.814-0.144-1.365h15.947h3.063
		c0.049-3.183-0.526-6.153-1.843-8.834c-2.347-5.173-7.639-7.974-13.097-7.974c-5.531-0.096-10.631,3.232-13.05,8.093
		c-2.083,4.597-1.484,10.871,1.462,14.894c3.424,4.763,8.882,6.128,14.533,5.674c4.836-0.646,10.297-4.071,11.684-9.171h-0.358
		C141.585,123.327,139.023,123.327,135.408,123.327L135.408,123.327L135.408,123.327z"/>
	<path fill="none" stroke="#EC1C24" stroke-width="0.2095" stroke-miterlimit="2.6131" d="M129.327,111.452
		c1.651-0.573,3.711-0.384,4.909,0.934c0.647,0.767,1.006,1.7,1.006,2.634c-3.138,0-5.1,0-8.547,0.097
		C126.694,113.606,127.891,112.025,129.327,111.452 M144.914,123.327c-3.329,0-5.891,0-9.506,0 M145.272,123.327h-0.358
		 M145.583,120.646c0.049-3.183-0.526-6.153-1.843-8.834c-2.347-5.173-7.639-7.974-13.097-7.974
		c-5.531-0.096-10.631,3.232-13.05,8.093c-2.083,4.597-1.484,10.871,1.462,14.894c3.424,4.763,8.882,6.128,14.533,5.674
		c4.836-0.646,10.297-4.071,11.684-9.171 M126.573,120.646h15.947h3.063 M135.408,123.327c-1.126,1.629-3.089,2.275-4.981,1.893
		c-1.625-0.312-3.206-1.557-3.709-3.209c-0.144-0.455-0.216-0.814-0.144-1.365"/>
	<polygon fill-rule="evenodd" clip-rule="evenodd" fill="#EC1C24" points="30.13,101.49 30.13,94.261 19.954,94.284 19.93,101.538 
		30.13,101.49 30.13,101.49 	"/>
	<polygon fill="none" stroke="#EC1C24" stroke-width="0.2095" stroke-miterlimit="2.6131" points="30.13,101.49 30.13,94.261 
		19.954,94.284 19.93,101.538 30.13,101.49 30.13,101.49 	"/>
	<path fill-rule="evenodd" clip-rule="evenodd" fill="#FFFFFF" d="M228.259,115.667c2.801-1.893,5.627-3.929,8.07-6.586
		c0,1.846,0.023,3.592,0.023,5.411c-1.437,1.294-2.992,2.539-4.597,3.616c1.627,1.102,3.185,2.346,4.668,3.687
		c0.001,1.845,0.024,3.593,0.049,5.387c-2.467-2.585-5.293-4.692-8.164-6.56c-7.088,4.598-15.11,7.206-24.041,7.206
		c-8.93-0.166-16.903-2.704-23.966-7.518c-0.911-0.621-1.771-1.317-2.609-2.01l-0.025-0.024c7.543-6.035,16.258-9.29,26.123-9.673
		C212.937,108.436,220.98,111.021,228.259,115.667L228.259,115.667L228.259,115.667z"/>
	<path fill="none" stroke="#FFFFFF" stroke-width="0.2095" stroke-miterlimit="2.6131" d="M177.667,118.276
		c7.543-6.035,16.258-9.29,26.123-9.673c9.146-0.168,17.189,2.417,24.469,7.063 M177.693,118.301l-0.025-0.024 M228.309,120.622
		c-7.088,4.598-15.11,7.206-24.041,7.206c-8.93-0.166-16.903-2.704-23.966-7.518c-0.911-0.621-1.771-1.317-2.609-2.01
		 M236.473,127.182c-2.467-2.585-5.293-4.692-8.164-6.56 M231.756,118.108c1.627,1.102,3.185,2.346,4.668,3.687
		c0,1.845,0.024,3.593,0.049,5.387 M228.259,115.667c2.801-1.893,5.627-3.929,8.07-6.586c0,1.846,0.023,3.592,0.023,5.411
		c-1.437,1.294-2.992,2.539-4.597,3.616"/>
	<path fill-rule="evenodd" clip-rule="evenodd" fill="#EC1C24" d="M228.259,117.223c2.323-1.341,4.621-3.137,6.729-4.957v0.168
		l0.023,1.629c-1.676,1.531-3.591,2.825-5.411,4.07c1.845,1.172,3.735,2.585,5.459,4.094l0.023,1.796
		c-1.819-1.461-4.501-3.568-6.774-5.005l-0.097,0.023c-7.805,5.461-17.119,8.047-27.224,7.28
		c-7.781-0.743-14.844-3.377-21.069-8.045c3.353-2.635,7.014-4.525,10.917-5.914c6.776-2.49,15.42-3.16,22.771-1.436
		C218.85,112.074,223.759,114.157,228.259,117.223L228.259,117.223L228.259,117.223z"/>
	<path fill="none" stroke="#EC1C24" stroke-width="0.2095" stroke-miterlimit="2.6131" d="M179.919,118.276
		c3.353-2.635,7.014-4.525,10.917-5.914c6.776-2.49,15.42-3.16,22.771-1.436c5.243,1.147,10.151,3.23,14.652,6.296 M228.212,119.041
		c-7.805,5.461-17.119,8.047-27.224,7.28c-7.781-0.743-14.844-3.377-21.069-8.045 M228.309,119.018l-0.097,0.023 M235.083,124.022
		c-1.819-1.461-4.501-3.568-6.774-5.005 M235.06,122.227l0.023,1.796 M229.601,118.133c1.845,1.172,3.735,2.585,5.459,4.094
		 M235.012,114.063c-1.676,1.531-3.591,2.825-5.411,4.07 M234.988,112.266v0.168l0.023,1.629 M228.259,117.223
		c2.323-1.341,4.621-3.137,6.729-4.957"/>
	<path fill-rule="evenodd" clip-rule="evenodd" fill="#FFFFFF" d="M226.895,118.108v0.048c-9.025,6.297-21.597,8.57-32.707,5.53
		c-4.213-1.101-8.165-2.922-11.828-5.41c0.575-0.479,1.246-0.861,1.868-1.245c8.476-5.173,19.824-7.038,30.025-4.503
		C218.754,113.606,222.969,115.475,226.895,118.108L226.895,118.108L226.895,118.108z"/>
	<path fill="none" stroke="#FFFFFF" stroke-width="0.2095" stroke-miterlimit="2.6131" d="M226.895,118.156
		c-9.025,6.297-21.597,8.57-32.707,5.53c-4.213-1.101-8.165-2.922-11.828-5.41c0.575-0.479,1.246-0.861,1.868-1.245
		c8.476-5.173,19.824-7.038,30.025-4.503c4.5,1.078,8.716,2.946,12.641,5.58 M226.895,118.108v0.048"/>
	<path fill-rule="evenodd" clip-rule="evenodd" fill="#231F20" d="M193.806,114.35c0.071,0.455-0.12,0.814-0.408,1.125
		c-0.216,0.144-0.503-0.023-0.767,0.048c-0.694,0.145-1.196,0.767-1.604,1.342c0,0.047,0.072,0.047,0.144,0.047l2.922,0.024
		c0.19,0.071,0.454,0.023,0.551,0.239c0.022,0.189,0.095,0.359,0.022,0.551c-0.214,0.431-0.405,0.814-0.597,1.268
		c0.144-0.023,0.238-0.118,0.383-0.168c1.58-0.812,3.16-1.747,4.765-2.608c0.43-0.119,1.076-0.288,1.365,0.12
		c0.143,0.312-0.289,0.477-0.145,0.79c0.264,0.839,0.407,1.891-0.239,2.587c-0.671,0.764-1.651,1.124-2.657,0.837
		c-0.12-0.048-0.287-0.168-0.359-0.288c-0.215-0.432-0.048-0.91,0.264-1.245c0.095-0.072,0.238-0.192,0.359-0.096
		c0.287,0.217,0.622,0.312,0.982,0.241c0.167-0.099,0.31-0.312,0.335-0.504c0.047-0.265-0.025-0.526-0.144-0.741
		c-1.46,0.788-2.873,1.722-4.406,2.393c-0.646,0.24-1.556,0.312-2.106-0.191c-0.478-0.623,0.216-1.197,0.192-1.795l-0.073-0.071
		c-0.813-0.026-1.626-0.05-2.465,0c-0.502,0.669-0.766,1.461-1.317,2.082c-0.311,0.216-0.838,0.216-1.221,0.119
		c-0.096-0.071-0.216-0.167-0.216-0.287l0.048-0.288l0.838-1.578l-0.072-0.074c-0.312,0-0.646,0.05-0.933-0.047
		c-0.121-0.095-0.146-0.262-0.121-0.382c0.121-0.457,0.479-0.743,0.886-0.862h1.078c1.03-1.532,2.491-2.994,4.406-2.826
		C193.59,114.157,193.782,114.205,193.806,114.35L193.806,114.35L193.806,114.35z"/>
	<path fill-rule="evenodd" clip-rule="evenodd" fill="#231F20" d="M196.513,114.564c0.19,0.336,0.142,0.79-0.025,1.103
		c-0.262,0.406-0.67,0.574-1.102,0.598c-0.358-0.048-0.741-0.191-0.885-0.55c-0.143-0.384-0.024-0.791,0.216-1.078
		c0.359-0.335,0.814-0.527,1.316-0.408C196.226,114.276,196.367,114.421,196.513,114.564L196.513,114.564L196.513,114.564z"/>
	<path fill-rule="evenodd" clip-rule="evenodd" fill="#231F20" d="M209.991,114.517c0.048,0.359-0.192,0.622-0.359,0.935
		c-0.502,0.766-0.981,1.58-1.364,2.394l0.024,0.047c0.717-0.477,1.411-1.078,2.274-1.172c0.264,0,0.456,0.168,0.575,0.407
		c0.167,0.575,0.143,1.222,0.408,1.748c0.31,0.214,0.574-0.095,0.861-0.169c0.574-0.216,0.839-0.838,1.125-1.315
		c0.671-0.91,1.677-1.389,2.778-1.27c0.263,0.071,0.598,0.287,0.695,0.574c0.167,0.791-0.527,1.438-1.078,1.818
		c-0.36,0.216-0.767,0.361-1.221,0.479c0.023,0.122,0.167,0.17,0.262,0.217c0.479,0.095,0.886-0.121,1.342-0.288
		c1.412-0.527,2.706-1.412,3.998-2.227c0.144-0.047,0.287-0.071,0.408,0c0.215,0.118,0.24,0.432,0.335,0.669
		c0.527-0.405,1.1-0.692,1.771-0.716l0.696,0.023c0.167,0.048,0.167,0.767,0,1.054c-0.289,0.501-1.03,0.119-1.46,0.407
		c-0.958,0.238-1.509,1.172-1.965,1.986c-0.335,0.311-0.934,0.384-1.341,0.191c-0.335-0.503,0.167-0.932,0.312-1.389l-0.024-0.024
		c-1.102,0.671-2.251,1.27-3.496,1.58c-0.887,0.192-1.845,0.025-2.347-0.788c-0.096-0.05-0.167,0.047-0.263,0.07
		c-0.742,0.431-1.653,1.102-2.513,0.599c-0.433-0.479-0.409-1.102-0.504-1.699c-0.023-0.071-0.096-0.169-0.191-0.146
		c-0.527,0.216-0.982,0.625-1.484,0.936c-0.718,0.479-1.484,1.363-2.442,0.861c-0.143-0.094-0.096-0.335-0.049-0.455
		c0.049-0.216,0.12-0.406,0.192-0.622l-0.022-0.023c-1.078,0.766-2.253,1.364-3.616,1.22c-0.504-0.119-1.078-0.478-1.246-0.98
		c-0.192-0.72,0.144-1.389,0.623-1.892c0.863-0.766,2.011-1.197,3.186-0.886c0.24,0.096-0.024,0.791-0.215,1.078
		c-0.215,0.358-0.625,0.239-0.983,0.239c-0.406,0.048-0.813,0.264-1.004,0.67c-0.024,0.192,0,0.382,0.191,0.504
		c0.622,0.023,1.126-0.312,1.652-0.504c1.15-0.574,2.178-1.341,2.969-2.418c0.311-0.552,0.527-1.125,0.957-1.628
		c0.264-0.359,0.959-0.408,1.438-0.264L209.991,114.517L209.991,114.517L209.991,114.517z"/>
	<path fill-rule="evenodd" clip-rule="evenodd" fill="#FFFFFF" d="M215.69,117.223c-0.144,0.359-0.527,0.646-0.838,0.743
		c0.048-0.313,0.312-0.575,0.575-0.719C215.498,117.247,215.618,117.127,215.69,117.223L215.69,117.223L215.69,117.223z"/>
	<path fill="none" stroke="#FFFFFF" stroke-width="0.2095" stroke-miterlimit="2.6131" d="M215.69,117.223
		c-0.144,0.359-0.527,0.646-0.838,0.743c0.048-0.313,0.312-0.575,0.575-0.719C215.498,117.247,215.618,117.127,215.69,117.223"/>
	<g>
		<defs>
			<rect id="SVGID_68_" y="94.103" width="250" height="42.982"/>
		</defs>
		<clipPath id="SVGID_2_">
			<use xlink:href="#SVGID_68_"  overflow="visible"/>
		</clipPath>
		<path clip-path="url(#SVGID_2_)" fill-rule="evenodd" clip-rule="evenodd" fill="#231F20" d="M245.235,107.263L245.235,107.263
			h1.365c0.096,0,0.526,0.023,0.742-0.287c0.049-0.073,0.121-0.192,0.121-0.359c0-0.072,0-0.216-0.121-0.384
			c-0.238-0.312-0.67-0.312-0.742-0.312h-1.365V107.263L245.235,107.263L245.235,107.263z M246.505,105.442L246.505,105.442
			c0.191,0,0.91-0.072,1.34,0.503c0.073,0.095,0.216,0.311,0.216,0.646c0,0.145,0,0.336-0.167,0.599
			c-0.335,0.527-0.934,0.527-1.125,0.527l1.316,1.963h-0.743l-1.195-1.891h-0.912v1.866h-0.597v-4.213H246.505L246.505,105.442
			L246.505,105.442z M242.866,107.573L242.866,107.573c0,1.796,1.46,3.255,3.255,3.255c1.796,0,3.257-1.459,3.257-3.255
			c0-1.819-1.462-3.28-3.257-3.28S242.866,105.754,242.866,107.573L242.866,107.573L242.866,107.573z M250,107.573
			c0,0.288-0.048,0.862-0.334,1.581c-0.646,1.387-2.012,2.275-3.544,2.275c-2.156,0-3.854-1.75-3.854-3.856
			c0-2.131,1.724-3.879,3.854-3.879C248.253,103.694,250,105.442,250,107.573L250,107.573L250,107.573z"/>
	</g>
	<path fill="#231F20" d="M90.97,147.386h-1.055l-2.636,8.365h1.054L90.97,147.386L90.97,147.386z M92.151,143.623h-1.054
		l-0.346,1.091h1.055L92.151,143.623L92.151,143.623z M94.752,147.386h-1.001c-0.09,0.474-0.236,0.965-0.49,1.82l-2.055,6.545h1.055
		l1.236-3.909c0.455-1.436,0.855-2.235,1.455-2.837c0.709-0.726,1.582-1.126,2.418-1.126c0.946,0,1.546,0.51,1.546,1.308
		c0,0.292-0.073,0.709-0.218,1.165l-1.709,5.399h1.054l1.637-5.182c0.183-0.601,0.291-1.146,0.291-1.581
		c0-1.056-0.982-1.874-2.237-1.874c-0.727,0-1.509,0.255-2.164,0.71c-0.346,0.235-0.6,0.455-1.126,1.018L94.752,147.386
		L94.752,147.386z M104.408,147.386h-1c-0.091,0.474-0.237,0.965-0.491,1.82l-2.055,6.545h1.054l1.236-3.909
		c0.456-1.436,0.855-2.235,1.456-2.837c0.709-0.726,1.582-1.126,2.418-1.126c0.945,0,1.545,0.51,1.545,1.308
		c0,0.292-0.072,0.709-0.217,1.165l-1.709,5.399h1.055l1.636-5.182c0.182-0.601,0.292-1.146,0.292-1.581
		c0-1.056-0.982-1.874-2.237-1.874c-0.727,0-1.509,0.255-2.165,0.71c-0.345,0.235-0.6,0.455-1.127,1.018L104.408,147.386
		L104.408,147.386z M116.246,147.114c-1.363,0-2.619,0.582-3.491,1.618c-0.91,1.073-1.492,2.656-1.492,4.037
		c0,1.908,1.291,3.128,3.31,3.128c1.309,0,2.473-0.526,3.345-1.49c0.963-1.055,1.619-2.71,1.619-4.038
		C119.538,148.351,118.283,147.114,116.246,147.114L116.246,147.114z M116.228,147.879c1.364,0,2.254,0.909,2.254,2.346
		c0,0.836-0.473,2.31-1.017,3.182c-0.692,1.108-1.729,1.728-2.892,1.728c-1.31,0-2.256-0.945-2.256-2.255
		c0-0.944,0.4-2.256,0.964-3.163C114.01,148.516,115.028,147.879,116.228,147.879L116.228,147.879z M129.03,147.386h-1.109
		l-3.509,5.529c-0.382,0.62-0.873,1.474-1.165,2.092c-0.018-0.329-0.036-0.637-0.036-0.729c0-0.09-0.055-0.743-0.092-1.49
		l-0.381-5.402h-0.982l0.709,8.365h1.055L129.03,147.386L129.03,147.386z M131.212,149.388c0.418-1.092,1.018-1.509,2.2-1.509
		c1.31,0,1.855,0.472,1.855,1.6c0,0.291-0.037,0.509-0.127,0.783l-0.146,0.471h-1.31c-1.309,0-2.327,0.092-2.927,0.236
		c-1.491,0.4-2.4,1.474-2.4,2.839c0,1.234,1.037,2.09,2.527,2.09c1.127,0,1.928-0.346,3.056-1.326l-0.382,1.18h1.037
		c0.236-1.09,0.346-1.509,0.746-2.763l0.582-1.837c0.291-0.908,0.4-1.436,0.4-1.855c0-1.363-1.092-2.182-2.91-2.182
		c-0.981,0-1.781,0.255-2.364,0.745c-0.418,0.346-0.636,0.71-0.89,1.528H131.212L131.212,149.388z M134.758,151.496
		c-0.474,1.311-0.728,1.856-1.146,2.347c-0.673,0.818-1.619,1.291-2.546,1.291c-1.001,0-1.655-0.563-1.655-1.436
		c0-0.856,0.528-1.528,1.437-1.856c0.673-0.254,1.509-0.346,2.874-0.346H134.758L134.758,151.496z M141.595,148.151h1.583
		l0.237-0.766h-1.583l0.563-1.816l-1.182,0.4l-0.437,1.416h-1.635l-0.237,0.766h1.637l-1.346,4.291
		c-0.437,1.365-0.491,1.582-0.491,2.001c0,0.945,0.655,1.454,1.873,1.454c0.255,0,0.472-0.036,1-0.146l0.273-0.872
		c-0.545,0.128-0.873,0.163-1.183,0.163c-0.582,0-0.908-0.235-0.908-0.672c0-0.309,0.072-0.637,0.327-1.437L141.595,148.151
		L141.595,148.151z M147.031,147.386h-1.054l-2.637,8.365h1.054L147.031,147.386L147.031,147.386z M148.214,143.623h-1.055
		l-0.345,1.091h1.054L148.214,143.623L148.214,143.623z M155.833,147.386h-1.11l-3.508,5.529c-0.382,0.62-0.874,1.474-1.164,2.092
		c-0.017-0.329-0.036-0.637-0.036-0.729c0-0.09-0.055-0.743-0.091-1.49l-0.382-5.402h-0.982l0.709,8.365h1.055L155.833,147.386
		L155.833,147.386z M162.979,151.733c0.345-1.037,0.455-1.49,0.455-2.11c0-1.544-1.055-2.489-2.8-2.489
		c-1.273,0-2.383,0.509-3.273,1.545c-1.001,1.146-1.71,3.055-1.71,4.583c0,1.6,1.182,2.636,3.019,2.636
		c1.782,0,3.218-0.891,3.981-2.491h-1.109c-0.818,1.183-1.672,1.728-2.8,1.728c-1.272,0-2.037-0.69-2.037-1.855
		c0-0.509,0.073-0.979,0.273-1.545H162.979L162.979,151.733z M157.161,150.969c0.708-1.999,1.909-3.072,3.455-3.072
		c1.037,0,1.764,0.637,1.764,1.51c0,0.473-0.108,1.02-0.291,1.563H157.161L157.161,150.969z M178.586,149.661
		c0.019-0.22,0.019-0.383,0.019-0.546c0-1.272-0.965-2.001-2.62-2.001c-2.073,0-3.382,0.945-3.382,2.418
		c0,0.511,0.164,0.928,0.473,1.237c0.291,0.272,0.709,0.51,1.963,1.109c1.11,0.509,1.456,0.872,1.456,1.563
		c0,1.002-0.964,1.692-2.365,1.692c-0.728,0-1.273-0.199-1.618-0.6c-0.273-0.31-0.364-0.619-0.419-1.456h-1.018
		c0.091,2.037,0.909,2.819,2.945,2.819c2.091,0,3.528-1.036,3.528-2.545c0-0.981-0.563-1.69-1.818-2.273
		c-1.019-0.474-1.146-0.547-1.4-0.71c-0.474-0.291-0.673-0.6-0.673-1.017c0-0.874,0.909-1.474,2.237-1.474
		c1.09,0,1.636,0.437,1.636,1.308c0,0.092,0,0.183-0.019,0.475H178.586L178.586,149.661z M184.914,147.114
		c-1.364,0-2.619,0.582-3.491,1.618c-0.91,1.073-1.491,2.656-1.491,4.037c0,1.908,1.29,3.128,3.31,3.128
		c1.31,0,2.473-0.526,3.346-1.49c0.963-1.055,1.619-2.71,1.619-4.038C188.207,148.351,186.951,147.114,184.914,147.114
		L184.914,147.114z M184.896,147.879c1.364,0,2.254,0.909,2.254,2.346c0,0.836-0.473,2.31-1.018,3.182
		c-0.692,1.108-1.728,1.728-2.892,1.728c-1.31,0-2.255-0.945-2.255-2.255c0-0.944,0.401-2.256,0.963-3.163
		C182.678,148.516,183.696,147.879,184.896,147.879L184.896,147.879z M194.043,143.623h-1.055l-3.818,12.128h1.054L194.043,143.623
		L194.043,143.623z M202.535,147.386h-1.054l-0.891,2.803c-0.801,2.563-0.928,2.854-1.51,3.545c-0.746,0.91-1.618,1.4-2.438,1.4
		c-0.945,0-1.617-0.6-1.617-1.455c0-0.4,0.127-1.073,0.29-1.6l1.473-4.693h-1.056l-1.199,3.803
		c-0.418,1.327-0.564,1.999-0.564,2.582c0,1.236,0.982,2.127,2.346,2.127c1.055,0,2.091-0.563,3.165-1.709l-0.237,1.563h0.982
		c0.036-0.236,0.054-0.399,0.092-0.544c0.163-1.072,0.272-1.546,0.745-3.128L202.535,147.386L202.535,147.386z M206.971,148.151
		h1.583l0.236-0.766h-1.582l0.563-1.816l-1.182,0.4l-0.437,1.416h-1.637l-0.236,0.766h1.637l-1.346,4.291
		c-0.437,1.365-0.491,1.582-0.491,2.001c0,0.945,0.654,1.454,1.873,1.454c0.254,0,0.473-0.036,1-0.146l0.272-0.872
		c-0.545,0.128-0.873,0.163-1.182,0.163c-0.583,0-0.91-0.235-0.91-0.672c0-0.309,0.073-0.637,0.327-1.437L206.971,148.151
		L206.971,148.151z M212.408,147.386h-1.055l-2.637,8.365h1.055L212.408,147.386L212.408,147.386z M213.59,143.623h-1.054
		l-0.346,1.091h1.055L213.59,143.623L213.59,143.623z M218.373,147.114c-1.364,0-2.619,0.582-3.491,1.618
		c-0.91,1.073-1.492,2.656-1.492,4.037c0,1.908,1.291,3.128,3.309,3.128c1.31,0,2.473-0.526,3.347-1.49
		c0.963-1.055,1.618-2.71,1.618-4.038C221.665,148.351,220.41,147.114,218.373,147.114L218.373,147.114z M218.355,147.879
		c1.364,0,2.253,0.909,2.253,2.346c0,0.836-0.471,2.31-1.017,3.182c-0.692,1.108-1.729,1.728-2.893,1.728
		c-1.308,0-2.253-0.945-2.253-2.255c0-0.944,0.4-2.256,0.963-3.163C216.136,148.516,217.155,147.879,218.355,147.879
		L218.355,147.879z M226.173,147.386h-1c-0.091,0.474-0.237,0.965-0.492,1.82l-2.054,6.545h1.056l1.236-3.909
		c0.454-1.436,0.854-2.235,1.455-2.837c0.709-0.726,1.582-1.126,2.418-1.126c0.945,0,1.545,0.51,1.545,1.308
		c0,0.292-0.071,0.709-0.217,1.165l-1.71,5.399h1.055l1.638-5.182c0.181-0.601,0.29-1.146,0.29-1.581
		c0-1.056-0.982-1.874-2.236-1.874c-0.727,0-1.51,0.255-2.164,0.71c-0.345,0.235-0.6,0.455-1.128,1.018L226.173,147.386
		L226.173,147.386z M240.048,149.661c0.02-0.22,0.02-0.383,0.02-0.546c0-1.272-0.965-2.001-2.619-2.001
		c-2.073,0-3.382,0.945-3.382,2.418c0,0.511,0.163,0.928,0.473,1.237c0.291,0.272,0.709,0.51,1.964,1.109
		c1.109,0.509,1.455,0.872,1.455,1.563c0,1.002-0.964,1.692-2.364,1.692c-0.728,0-1.272-0.199-1.618-0.6
		c-0.273-0.31-0.364-0.619-0.419-1.456h-1.018c0.09,2.037,0.909,2.819,2.946,2.819c2.09,0,3.526-1.036,3.526-2.545
		c0-0.981-0.563-1.69-1.817-2.273c-1.02-0.474-1.146-0.547-1.401-0.71c-0.472-0.291-0.673-0.6-0.673-1.017
		c0-0.874,0.91-1.474,2.237-1.474c1.09,0,1.636,0.437,1.636,1.308c0,0.092,0,0.183-0.019,0.475H240.048L240.048,149.661z"/>
</g>
</svg>
