<?xml version="1.0" encoding="utf-8"?>
<!-- Generator: Adobe Illustrator 16.0.0, SVG Export Plug-In . SVG Version: 6.00 Build 0)  -->
<!DOCTYPE svg PUBLIC "-//W3C//DTD SVG 1.1//EN" "http://www.w3.org/Graphics/SVG/1.1/DTD/svg11.dtd">
<svg version="1.1" id="Layer_1" xmlns="http://www.w3.org/2000/svg" xmlns:xlink="http://www.w3.org/1999/xlink" x="0px" y="0px"
	 width="250px" height="250px" viewBox="0 0 250 250" enable-background="new 0 0 250 250" xml:space="preserve">
<g>
	<path fill="#231F20" d="M48.367,124.853c1.988-4.754,1.813-8.455-0.509-11.092c-2.34-2.637-6.737-3.963-13.191-3.963H12.785
		l-1.975,4.777h15.055c7.708,0,9.935,3.821,7.266,10.152c-1.531,3.666-2.891,7.04-6.08,8.543c-2.925,1.368-5.951,1.762-11.335,1.762
		l-6.962-0.004l5.204-12.332H7.397L0,140.252h19.827c5.555,0,9.953-0.517,13.186-1.535c3.551-1.145,6.737-3.006,9.524-5.608
		C45.161,130.628,47.106,127.879,48.367,124.853"/>
	<path fill="#231F20" d="M185.137,109.782l0.009,0.016h-8.129l-31.213,29.175l12.2-29.172h-13.382l-16.17,12.659l-8.315,6.819
		h-0.378l3.914-9.946l-4.767-9.533h-13.447l-12.225,29.228L86.191,109.8H71.472l-32.553,30.444h8.128l8.312-7.953H75.87l1.624,7.953
		h21.792l7.875-18.808c0.39-0.949,0.768-2.029,1.146-3.253c0.032,0.984,0.311,2.034,0.788,3.125l6.931,15.699h1.162l19.824-15.636
		c0.734-0.585,1.86-1.65,3.355-3.188c-0.77,1.424-1.292,2.499-1.599,3.253l-7.89,18.808h14.393l0.004-0.011h15.159l8.226-7.99h21.29
		l1.711,7.99h7.48l-7.298-30.451H185.137z M59.653,128.111l12.972-12.396l2.355,12.396H59.653z M172.959,128.066l13.314-12.952
		l2.776,12.952H172.959z"/>
	<path fill="#231F20" d="M250,109.748h-22.071c-6.472,0-11.986,1.329-16.507,3.959c-4.542,2.643-7.816,6.342-9.809,11.104
		c-1.268,3.023-1.626,5.792-1.081,8.25c0.648,2.624,2.254,4.494,4.848,5.624c2.369,1.018,6.338,1.542,11.902,1.542h19.793
		l1.984-4.844h-11.16c-5.373,0-8.944-0.692-10.732-2.068c-1.95-1.495-1.727-4.947-0.211-8.622
		c2.657-6.354,8.221-10.304,15.908-10.304h8.633l-1.968,4.767h6.557L250,109.748z"/>
</g>
</svg>
