<?xml version="1.0" encoding="utf-8"?>
<!-- Generator: Adobe Illustrator 16.0.0, SVG Export Plug-In . SVG Version: 6.00 Build 0)  -->
<!DOCTYPE svg PUBLIC "-//W3C//DTD SVG 1.1//EN" "http://www.w3.org/Graphics/SVG/1.1/DTD/svg11.dtd">
<svg version="1.1" id="Layer_1" xmlns="http://www.w3.org/2000/svg" xmlns:xlink="http://www.w3.org/1999/xlink" x="0px" y="0px"
	 width="250px" height="250px" viewBox="0 0 250 250" enable-background="new 0 0 250 250" xml:space="preserve">
<g>
	<g>
		<path fill="#222558" d="M38.201,108.371l0.642,0.75c-2.698,1.824-4.707,3.775-6.035,5.86c-1.691,2.667-2.549,5.583-2.549,8.72
			c0,3.811,1.262,7.332,3.779,10.57c1.074-0.883,1.735-1.63,1.951-2.237c0.216-0.61,0.331-2.256,0.331-4.97v-12.137l11.596-9.68
			c2.701,1.083,4.84,1.77,6.388,2.091c1.554,0.312,3.381,0.477,5.469,0.477h0.626l0.413,0.982l-4.452,4.255
			c-3.006-0.317-6.4-1.414-10.186-3.292l0.292,30.924l1.02,0.025c2.59,0,4.958-0.435,7.097-1.318
			c2.132-0.896,4.344-2.336,6.626-4.332l0.833,0.801c-1.678,2.313-3.331,4.115-4.948,5.402c-1.621,1.274-3.566,2.304-5.841,3.076
			c-2.275,0.769-4.538,1.154-6.775,1.154c-3.318,0-6.451-0.807-9.384-2.416c-2.94-1.611-5.244-3.909-6.903-6.906
			c-1.659-3-2.488-6.085-2.488-9.273c0-3.909,1.176-7.542,3.531-10.888C31.079,113.395,34.076,110.846,38.201,108.371z
			 M44.925,109.6l-3.149,2.708v12.372c0,1.532-0.083,2.558-0.251,3.063c-0.172,0.661-0.594,1.373-1.236,2.145
			c-1.329,1.529-3.168,3.283-5.549,5.25c1.452,1.605,3,2.848,4.656,3.706c1.652,0.845,3.598,1.43,5.815,1.716L44.925,109.6z"/>
		<path fill="#222558" d="M84.154,117.742l0.963,0.372c-0.963,1.522-1.599,2.686-1.853,3.486c-0.261,0.804-0.391,1.894-0.391,3.27
			v11.562c0,1.917,0.137,3.121,0.404,3.594c0.267,0.477,0.591,0.718,0.969,0.718c0.194,0,0.397-0.048,0.623-0.159
			c0.118-0.083,0.502-0.4,1.144-0.935l0.633,0.845l-5.717,4.996c-1.398-1.087-2.326-2.063-2.797-2.908
			c-0.467-0.858-0.734-2.049-0.778-3.591l-8.234,6.499c-3.089-2.54-4.63-5.034-4.63-7.494c0-1.646,0.331-3.194,1.007-4.649
			c0.883-1.888,2.425-4.106,4.599-6.636l-3.267-6.947l0.372-0.744c0.703,0.057,1.23,0.086,1.567,0.086
			c2.132,0,4.001-0.839,5.625-2.527c1.315,0.772,2.758,1.396,4.313,1.862c1.561,0.467,2.746,0.699,3.584,0.699
			c0.378,0,0.665-0.07,0.865-0.203C83.347,118.804,83.687,118.406,84.154,117.742z M77.353,122.919l-9.261-2.844l3.302,6.969
			l5.958,2.825V122.919z M77.353,131l-6.543-3.095c-1.014,2.199-1.51,4.141-1.51,5.793c0,2.92,1.313,5.333,3.954,7.227l4.1-3.276
			V131z"/>
		<path fill="#222558" d="M103.816,126.65l6.27,3.264v11.428c-1.51,0.137-2.889,0.515-4.119,1.106
			c-1.23,0.597-2.622,1.617-4.195,3.044c-1.332-0.801-2.485-1.36-3.48-1.662c-0.976-0.315-2.021-0.461-3.133-0.461
			c-1.691,0-3.207,0.521-4.516,1.551c-0.493,0.375-0.852,0.572-1.064,0.572c-0.194,0-0.397-0.099-0.604-0.305
			c-0.19-0.204-0.286-0.394-0.286-0.601c0-0.223,0.181-0.515,0.566-0.877c0.207-0.216,0.572-0.639,1.093-1.261l2.45-3.057
			l3.518-4.637l-5.917-3.188v-10.116c1.865-0.575,3.337-1.223,4.389-1.932c1.062-0.715,2.082-1.694,3.057-2.937
			c2.311,0.976,4.176,1.672,5.581,2.066c1.014,0.267,1.977,0.4,2.901,0.4c1.014,0,1.799-0.219,2.374-0.664
			c0.553-0.442,0.833-0.906,0.833-1.389c0-0.324-0.171-0.648-0.534-0.972c-0.702-0.636-1.062-1.252-1.062-1.847
			c0-0.559,0.162-1.004,0.47-1.341c0.312-0.331,0.642-0.493,1.021-0.493c0.508,0,0.969,0.226,1.373,0.687
			c0.41,0.464,0.604,1.071,0.604,1.831c0,0.782-0.162,1.541-0.483,2.282c-0.331,0.744-0.947,1.7-1.885,2.876L103.816,126.65z
			 M100.549,130.988l-6.553,8.733c0.791-0.273,1.538-0.473,2.221-0.604c0.689-0.118,1.309-0.188,1.869-0.188
			c2.082,0,4.246,0.693,6.483,2.065v-7.862L100.549,130.988z M95.868,128.503l3.706,1.926l5.952-7.84
			c-1.224,0.331-2.269,0.483-3.168,0.483c-2.225,0-4.389-0.731-6.489-2.222V128.503z"/>
		<path fill="#222558" d="M128.918,126.65l6.283,3.264v11.428c-1.528,0.137-2.895,0.515-4.134,1.106
			c-1.236,0.597-2.628,1.617-4.189,3.044c-1.334-0.801-2.498-1.36-3.473-1.662c-1.001-0.315-2.037-0.461-3.143-0.461
			c-1.697,0-3.207,0.521-4.525,1.551c-0.489,0.375-0.839,0.572-1.062,0.572c-0.194,0-0.388-0.099-0.591-0.305
			c-0.2-0.204-0.305-0.394-0.305-0.601c0-0.223,0.194-0.515,0.578-0.877c0.21-0.216,0.579-0.639,1.1-1.261l2.45-3.057l3.505-4.637
			l-5.911-3.188v-10.116c1.866-0.575,3.331-1.223,4.386-1.932c1.064-0.715,2.082-1.694,3.061-2.937
			c2.31,0.976,4.169,1.672,5.58,2.066c1.011,0.267,1.98,0.4,2.889,0.4c1.02,0,1.821-0.219,2.38-0.664
			c0.56-0.442,0.839-0.906,0.839-1.389c0-0.324-0.175-0.648-0.534-0.972c-0.702-0.636-1.058-1.252-1.058-1.847
			c0-0.559,0.156-1.004,0.461-1.341c0.305-0.331,0.651-0.493,1.039-0.493c0.496,0,0.957,0.226,1.36,0.687
			c0.397,0.464,0.604,1.071,0.604,1.831c0,0.782-0.162,1.541-0.486,2.282c-0.324,0.744-0.957,1.7-1.881,2.876L128.918,126.65z
			 M125.648,130.988l-6.556,8.733c0.794-0.273,1.541-0.473,2.231-0.604c0.677-0.118,1.306-0.188,1.872-0.188
			c2.082,0,4.239,0.693,6.48,2.065v-7.862L125.648,130.988z M120.97,128.503l3.709,1.926l5.942-7.84
			c-1.214,0.331-2.256,0.483-3.152,0.483c-2.231,0-4.398-0.731-6.499-2.222V128.503z"/>
		<path fill="#222558" d="M151.714,116.582l7.649,8.934l-12.143,8.517v4.936l6.295,2.485l4.262-2.895l0.585,0.813l-8.787,6.121
			c-1.789-0.957-3.264-1.653-4.417-2.069c-1.157-0.41-2.796-0.839-4.929-1.297v-0.699c0.61-0.359,1.021-0.801,1.217-1.328
			c0.213-0.541,0.312-1.691,0.312-3.455v-15.505c1.697-0.613,3.108-1.172,4.239-1.681
			C146.804,119.08,148.717,118.124,151.714,116.582z M147.605,119.703l-0.385,0.19v12.318l7.135-5.008L147.605,119.703z"/>
		<path fill="#222558" d="M173.642,106.654v0.721c-1.427,0.744-2.44,1.646-3.022,2.721c-0.594,1.074-0.88,2.704-0.88,4.888v24.079
			l3.089,2.311l1.182-0.976l0.693,0.976l-5.415,4.119c-1.646-1.421-2.873-2.361-3.69-2.825c-0.82-0.467-1.894-0.89-3.219-1.262
			v-0.598c0.493-0.305,0.887-0.702,1.169-1.169c0.277-0.47,0.471-1.02,0.579-1.652c0.032-0.216,0.07-1.3,0.08-3.257v-19.363
			c0-1.643-0.057-2.787-0.188-3.429c-0.118-0.642-0.372-1.255-0.76-1.846c-0.375-0.588-1.017-1.243-1.916-1.971l0.438-0.524
			c1.633,0.467,3.111,1.427,4.411,2.87c1.357-1.427,2.578-2.412,3.665-2.937C170.95,107.004,172.215,106.711,173.642,106.654z"/>
		<path fill="#222558" d="M189.236,106.654v0.721c-1.437,0.744-2.444,1.646-3.032,2.721c-0.588,1.074-0.88,2.704-0.88,4.888v24.079
			l3.099,2.311l1.179-0.976l0.689,0.976l-5.428,4.119c-1.637-1.421-2.867-2.361-3.684-2.825c-0.807-0.467-1.884-0.89-3.219-1.262
			v-0.598c0.496-0.305,0.893-0.702,1.176-1.169c0.273-0.47,0.471-1.02,0.579-1.652c0.038-0.216,0.063-1.3,0.08-3.257v-19.363
			c0-1.643-0.061-2.787-0.188-3.429c-0.13-0.642-0.372-1.255-0.763-1.846c-0.369-0.588-1.021-1.243-1.917-1.971l0.438-0.524
			c1.634,0.467,3.114,1.427,4.417,2.87c1.351-1.427,2.571-2.412,3.667-2.937C186.544,107.004,187.799,106.711,189.236,106.654z"/>
		<path fill="#222558" d="M207.179,126.65l6.286,3.264v11.428c-1.519,0.137-2.905,0.515-4.141,1.106
			c-1.23,0.597-2.625,1.617-4.188,3.044c-1.332-0.801-2.495-1.36-3.477-1.662c-0.988-0.315-2.024-0.461-3.134-0.461
			c-1.703,0-3.209,0.521-4.528,1.551c-0.496,0.375-0.842,0.572-1.058,0.572c-0.197,0-0.395-0.099-0.591-0.305
			c-0.204-0.204-0.302-0.394-0.302-0.601c0-0.223,0.188-0.515,0.565-0.877c0.213-0.216,0.579-0.639,1.1-1.261l2.45-3.057
			l3.508-4.637l-5.911-3.188v-10.116c1.869-0.575,3.327-1.223,4.389-1.932c1.068-0.715,2.088-1.694,3.054-2.937
			c2.32,0.976,4.179,1.672,5.583,2.066c1.007,0.267,1.98,0.4,2.905,0.4c1.014,0,1.805-0.219,2.364-0.664
			c0.563-0.442,0.845-0.906,0.845-1.389c0-0.324-0.178-0.648-0.534-0.972c-0.712-0.636-1.062-1.252-1.062-1.847
			c0-0.559,0.156-1.004,0.461-1.341c0.305-0.331,0.654-0.493,1.033-0.493c0.505,0,0.957,0.226,1.36,0.687
			c0.417,0.464,0.617,1.071,0.617,1.831c0,0.782-0.162,1.541-0.493,2.282c-0.321,0.744-0.953,1.7-1.881,2.876L207.179,126.65z
			 M203.902,130.988l-6.55,8.733c0.794-0.273,1.538-0.473,2.234-0.604c0.677-0.118,1.303-0.188,1.866-0.188
			c2.084,0,4.242,0.693,6.479,2.065v-7.862L203.902,130.988z M199.218,128.503l3.718,1.926l5.953-7.84
			c-1.224,0.331-2.27,0.483-3.162,0.483c-2.234,0-4.398-0.731-6.509-2.222V128.503z"/>
	</g>
	<g>
		<g>
			
				<radialGradient id="SVGID_1_" cx="138.9971" cy="-164.5977" r="109.4825" gradientTransform="matrix(1 0 0 1 -12.7578 264.8853)" gradientUnits="userSpaceOnUse">
				<stop  offset="0.0041" style="stop-color:#E9DB48"/>
				<stop  offset="0.172" style="stop-color:#E5D648"/>
				<stop  offset="0.3716" style="stop-color:#DBC846"/>
				<stop  offset="0.5874" style="stop-color:#C9B044"/>
				<stop  offset="0.8129" style="stop-color:#B18E42"/>
				<stop  offset="1" style="stop-color:#986D3F"/>
			</radialGradient>
			<path fill-rule="evenodd" clip-rule="evenodd" fill="url(#SVGID_1_)" d="M177.338,174.106
				c-0.048-45.759-1.834-92.034-1.758-137.914c5.736-1.802,8.562-11.094,10.805-16.805c-2.647-2.841-14.253-9.042-18.801-9.874
				c-2.428,3.137-4.85,6.264-7.284,9.397c-3.057-1.052-6.108-2.11-9.166-3.168c-0.969-2.123-0.62-8.86-0.578-11.746
				c-4.494-1.761-11.609-3.08-17.749-3.292c-1.02,3.759-2.037,7.522-3.051,11.278c-3.915-0.117-7.837-0.238-11.752-0.353
				c-0.741-3.874-1.484-7.754-2.225-11.631c-6.21,0.044-12.426,0.88-18.099,1.643c-0.35,3.877-0.708,7.76-1.061,11.631
				c-3.718,1.1-7.44,2.199-11.158,3.289c-1.49-3.607-2.975-7.205-4.461-10.805c-7.246,0.925-25.897,11.488-19.042,7.872
				c4.16,5.914,8.317,11.825,12.467,17.739c0.038,0,0.07,0,0.111,0c0.156-0.08,0.318-0.159,0.467-0.235
				c-2.504-4.941-5.015-9.874-7.513-14.803c3.48-1.646,6.973-3.286,10.446-4.929c1.691,3.636,3.381,7.284,5.06,10.929
				c5.917-1.77,11.828-3.537,17.742-5.294c0.232-3.725,0.467-7.439,0.703-11.161c3.486-0.432,6.972-0.861,10.458-1.296
				c0.661,3.686,1.395,7.662,2.053,11.335c1.293,0.159,4.833,0.089,19.328,0.769c1.023-3.797,2.037-7.602,3.057-11.393
				c3.2,0.699,6.419,1.398,9.632,2.107c0.645,0.734,0.261,9.62,0.229,11.396c5.142,1.767,10.268,3.537,15.397,5.288
				c1.98-1.592,5.6-7.614,7.519-8.577c3.801,1.802,7.599,3.61,11.387,5.409c-2.396,4.942-6.143,12.27-9.62,13.567
				c1.522,44.211,2.279,88.935,2.228,134.469c-43.977-3.271-94.14-5.047-147.806,19.973c-4.189,2.113-8.377,4.227-12.56,6.34
				c-1.497,0.858-2.984,1.729-4.468,2.584c0,0.238,0,0.474,0,0.702c2.425-0.976,4.859-1.958,7.278-2.933
				C87.341,165.926,146.35,172.527,177.338,174.106z M214.713,189.955c-75.143-19.061-125.068-10.093-146.767-7.01
				c-2.562,1.236-10.573,5.418-12.089,6.499c14.405-0.725,54.826-7.729,109.814-3.448c23.015,2.393,52.684,5.898,78.311,14.581
				c0.067-0.194,0.146-0.385,0.219-0.566C242.508,199.342,226.574,193.358,214.713,189.955z"/>
		</g>
	</g>
	<g>
		<path fill="#242459" stroke="#222558" stroke-width="0.25" d="M5.786,249.999c-1.04,0-2.009-0.165-2.902-0.502
			c-0.902-0.328-1.69-0.813-2.364-1.459c-0.645-0.623-1.16-1.392-1.548-2.313c-0.372-0.918-0.565-1.926-0.565-3.019
			c0-1.1,0.194-2.113,0.575-3.047c0.378-0.925,0.918-1.739,1.602-2.422c0.684-0.67,1.484-1.188,2.431-1.554
			c0.957-0.372,1.964-0.546,3.044-0.546c0.788,0,1.491,0.086,2.139,0.28c0.639,0.19,1.185,0.403,1.621,0.651l0.623-0.546h0.861
			l0.089,5.145h-0.877c-0.489-1.58-1.081-2.733-1.783-3.467c-0.689-0.74-1.535-1.106-2.542-1.106c-1.236,0-2.187,0.546-2.834,1.652
			c-0.652,1.093-0.969,2.635-0.969,4.618c0,1.119,0.104,2.069,0.33,2.867c0.216,0.794,0.509,1.433,0.868,1.913
			c0.388,0.508,0.836,0.877,1.357,1.106c0.528,0.245,1.106,0.359,1.745,0.359c0.922,0,1.748-0.248,2.476-0.756
			c0.721-0.499,1.373-1.262,1.977-2.288l0.858,0.521c-0.28,0.584-0.617,1.105-0.979,1.566c-0.366,0.455-0.782,0.846-1.259,1.182
			c-0.531,0.359-1.096,0.652-1.735,0.865C7.387,249.9,6.644,249.999,5.786,249.999z"/>
		<path fill="#242459" stroke="#222558" stroke-width="0.25" d="M24.186,249.405c-0.286,0.124-0.626,0.235-1.023,0.346
			c-0.391,0.111-0.82,0.162-1.262,0.162c-0.817,0-1.411-0.124-1.799-0.372c-0.378-0.235-0.639-0.585-0.782-1.033H19.26
			c-0.226,0.222-0.435,0.422-0.654,0.572c-0.204,0.162-0.429,0.299-0.671,0.41c-0.311,0.149-0.61,0.254-0.896,0.324
			c-0.286,0.073-0.689,0.111-1.205,0.111c-0.772,0-1.437-0.222-1.964-0.677c-0.559-0.455-0.826-1.055-0.826-1.808
			c0-0.429,0.063-0.794,0.181-1.093c0.118-0.305,0.286-0.572,0.502-0.811c0.207-0.203,0.436-0.384,0.69-0.521
			c0.267-0.143,0.553-0.267,0.864-0.385c0.597-0.222,1.313-0.448,2.145-0.683c0.839-0.238,1.446-0.448,1.833-0.632v-0.954
			c0-0.168-0.013-0.384-0.044-0.658c-0.019-0.267-0.076-0.499-0.156-0.689c-0.104-0.213-0.248-0.385-0.441-0.528
			c-0.197-0.143-0.458-0.232-0.782-0.232c-0.299,0-0.541,0.051-0.734,0.124c-0.2,0.086-0.353,0.175-0.474,0.261
			c0.019,0.124,0.083,0.336,0.168,0.61c0.096,0.261,0.137,0.528,0.137,0.782c0,0.115-0.025,0.248-0.092,0.423
			c-0.058,0.162-0.13,0.299-0.254,0.4c-0.149,0.137-0.318,0.235-0.518,0.308c-0.185,0.076-0.47,0.115-0.864,0.115
			c-0.556,0-0.979-0.137-1.265-0.41c-0.279-0.264-0.429-0.61-0.429-1.045c0-0.372,0.149-0.703,0.441-1.007
			c0.296-0.286,0.652-0.521,1.081-0.718c0.423-0.2,0.887-0.362,1.44-0.461c0.543-0.111,1.045-0.168,1.513-0.168
			c0.639,0,1.223,0.044,1.764,0.118c0.54,0.073,1.02,0.235,1.449,0.474c0.41,0.235,0.737,0.565,0.988,1.004
			c0.229,0.436,0.353,1.02,0.353,1.723c0,0.753-0.006,1.643-0.044,2.66c-0.035,1.027-0.042,1.71-0.042,2.034
			c0,0.295,0.042,0.534,0.13,0.708c0.092,0.162,0.229,0.295,0.417,0.385c0.105,0.047,0.292,0.079,0.527,0.092
			c0.242,0.006,0.467,0.02,0.658,0.02V249.405z M19.26,244.228c-0.369,0.124-0.74,0.267-1.099,0.429
			c-0.369,0.159-0.667,0.334-0.903,0.509c-0.248,0.188-0.436,0.429-0.578,0.721c-0.143,0.286-0.207,0.62-0.207,1.02
			c0,0.521,0.114,0.893,0.349,1.125c0.235,0.229,0.521,0.347,0.871,0.347c0.365,0,0.67-0.08,0.906-0.219
			c0.232-0.146,0.441-0.334,0.616-0.556L19.26,244.228z"/>
		<path fill="#242459" stroke="#222558" stroke-width="0.25" d="M29.557,249.951c-0.645,0-1.274-0.102-1.885-0.286
			c-0.613-0.188-1.087-0.385-1.427-0.598l-0.292,0.674h-0.778l-0.13-3.706h0.728c0.099,0.299,0.261,0.632,0.49,1.007
			c0.238,0.372,0.505,0.708,0.797,1.011c0.318,0.295,0.664,0.553,1.068,0.753c0.397,0.204,0.833,0.312,1.287,0.312
			c0.61,0,1.055-0.124,1.341-0.362c0.299-0.235,0.448-0.597,0.448-1.081c0-0.267-0.067-0.486-0.19-0.658
			c-0.14-0.175-0.318-0.324-0.553-0.448c-0.257-0.136-0.543-0.248-0.845-0.331c-0.312-0.098-0.696-0.203-1.144-0.34
			c-0.455-0.137-0.833-0.273-1.157-0.41c-0.324-0.136-0.651-0.349-0.995-0.635c-0.305-0.261-0.541-0.569-0.715-0.938
			c-0.178-0.362-0.267-0.792-0.267-1.3c0-0.938,0.384-1.691,1.169-2.26c0.788-0.578,1.814-0.871,3.095-0.871
			c0.594,0,1.153,0.061,1.659,0.188c0.502,0.114,0.931,0.251,1.274,0.394l0.21-0.582h0.753l0.156,3.391h-0.689
			c-0.238-0.687-0.629-1.284-1.188-1.79c-0.572-0.496-1.173-0.744-1.821-0.744c-0.508,0-0.912,0.105-1.204,0.321
			c-0.292,0.207-0.436,0.499-0.436,0.877c0,0.505,0.204,0.871,0.639,1.1c0.429,0.226,1.026,0.429,1.795,0.636
			c1.183,0.295,2.041,0.721,2.593,1.242c0.547,0.521,0.827,1.198,0.827,2.012c0,1.084-0.429,1.926-1.281,2.523
			C32.029,249.653,30.929,249.951,29.557,249.951z"/>
		<path fill="#242459" stroke="#222558" stroke-width="0.25" d="M39.99,249.951c-0.645,0-1.277-0.102-1.888-0.286
			c-0.61-0.188-1.081-0.385-1.424-0.598l-0.299,0.674h-0.775l-0.124-3.706h0.721c0.099,0.299,0.267,0.632,0.496,1.007
			c0.235,0.372,0.496,0.708,0.794,1.011c0.312,0.295,0.671,0.553,1.065,0.753c0.403,0.204,0.833,0.312,1.293,0.312
			c0.594,0,1.048-0.124,1.341-0.362c0.299-0.235,0.442-0.597,0.442-1.081c0-0.267-0.063-0.486-0.194-0.658
			c-0.137-0.175-0.318-0.324-0.553-0.448c-0.248-0.136-0.534-0.248-0.845-0.331c-0.312-0.098-0.689-0.203-1.138-0.34
			s-0.833-0.273-1.163-0.41c-0.321-0.136-0.645-0.349-0.988-0.635c-0.302-0.261-0.547-0.569-0.718-0.938
			c-0.181-0.362-0.267-0.792-0.267-1.3c0-0.938,0.391-1.691,1.167-2.26c0.792-0.578,1.821-0.871,3.095-0.871
			c0.598,0,1.157,0.061,1.659,0.188c0.505,0.114,0.94,0.251,1.28,0.394l0.207-0.582h0.757l0.155,3.391H43.39
			c-0.229-0.687-0.626-1.284-1.186-1.79c-0.572-0.496-1.176-0.744-1.814-0.744c-0.524,0-0.915,0.105-1.208,0.321
			c-0.299,0.207-0.436,0.499-0.436,0.877c0,0.505,0.213,0.871,0.636,1.1c0.429,0.226,1.023,0.429,1.789,0.636
			c1.186,0.295,2.05,0.721,2.597,1.242c0.553,0.521,0.829,1.198,0.829,2.012c0,1.084-0.432,1.926-1.274,2.523
			C42.472,249.653,41.359,249.951,39.99,249.951z"/>
		<path fill="#242459" stroke="#222558" stroke-width="0.25" d="M56.496,247.241c-0.229,0.375-0.508,0.728-0.833,1.058
			c-0.334,0.346-0.703,0.632-1.125,0.871c-0.445,0.248-0.893,0.432-1.341,0.563c-0.461,0.137-0.976,0.194-1.567,0.194
			c-0.976,0-1.827-0.137-2.542-0.41c-0.709-0.286-1.297-0.658-1.764-1.131c-0.461-0.467-0.801-1.021-1.04-1.659
			c-0.222-0.642-0.34-1.338-0.34-2.082c0-0.67,0.124-1.325,0.378-1.938c0.242-0.623,0.598-1.176,1.052-1.656
			c0.451-0.47,1.023-0.849,1.707-1.147c0.683-0.292,1.456-0.436,2.301-0.436c0.925,0,1.684,0.111,2.282,0.34
			c0.594,0.226,1.087,0.537,1.484,0.935c0.372,0.372,0.658,0.82,0.82,1.328c0.174,0.524,0.26,1.055,0.26,1.621v0.642h-6.718
			c0,1.364,0.267,2.393,0.792,3.102c0.515,0.702,1.354,1.062,2.492,1.062c0.62,0,1.179-0.159,1.678-0.509
			c0.496-0.337,0.918-0.772,1.274-1.293L56.496,247.241z M52.705,243.459c0-0.394-0.016-0.804-0.06-1.221
			c-0.038-0.416-0.105-0.753-0.219-1.02c-0.105-0.312-0.254-0.553-0.452-0.706c-0.194-0.156-0.448-0.238-0.74-0.238
			c-0.508,0-0.918,0.254-1.23,0.775c-0.299,0.512-0.467,1.332-0.493,2.45L52.705,243.459z"/>
		<path fill="#242459" stroke="#222558" stroke-width="0.25" d="M63.52,249.608h-6.251v-0.715c0.162-0.025,0.343-0.035,0.496-0.061
			c0.162-0.013,0.318-0.051,0.441-0.102c0.207-0.073,0.356-0.184,0.436-0.333c0.076-0.156,0.111-0.347,0.111-0.591v-11.005
			c0-0.26-0.048-0.486-0.153-0.708c-0.108-0.213-0.238-0.375-0.413-0.486c-0.136-0.085-0.333-0.175-0.594-0.248
			c-0.279-0.08-0.512-0.124-0.715-0.143v-0.725l5.008-0.257l0.143,0.155v13.287c0,0.242,0.051,0.436,0.124,0.598
			c0.099,0.149,0.229,0.273,0.429,0.353c0.13,0.063,0.273,0.118,0.422,0.168c0.149,0.038,0.312,0.073,0.515,0.099V249.608z"/>
		<path fill="#242459" stroke="#222558" stroke-width="0.25" d="M70.53,249.608h-6.264v-0.715c0.175-0.025,0.34-0.035,0.508-0.061
			c0.156-0.013,0.305-0.051,0.429-0.102c0.219-0.073,0.362-0.184,0.442-0.333c0.066-0.156,0.111-0.347,0.111-0.591v-11.005
			c0-0.26-0.048-0.486-0.156-0.708c-0.099-0.213-0.242-0.375-0.417-0.486c-0.124-0.085-0.327-0.175-0.594-0.248
			c-0.27-0.08-0.505-0.124-0.708-0.143v-0.725l5.008-0.257l0.149,0.155v13.287c0,0.242,0.035,0.436,0.124,0.598
			c0.092,0.149,0.229,0.273,0.422,0.353c0.137,0.063,0.273,0.118,0.423,0.168c0.143,0.038,0.314,0.073,0.521,0.099V249.608z"/>
		<path fill="#242459" stroke="#222558" stroke-width="0.25" d="M76.056,249.951c-0.642,0-1.268-0.102-1.884-0.286
			c-0.607-0.188-1.087-0.385-1.424-0.598l-0.299,0.674h-0.775l-0.124-3.706h0.728c0.086,0.299,0.261,0.632,0.489,1.007
			c0.232,0.372,0.502,0.708,0.801,1.011c0.299,0.295,0.667,0.553,1.065,0.753c0.397,0.204,0.833,0.312,1.287,0.312
			c0.594,0,1.048-0.124,1.347-0.362c0.292-0.235,0.442-0.597,0.442-1.081c0-0.267-0.07-0.486-0.207-0.658
			c-0.13-0.175-0.315-0.324-0.541-0.448c-0.26-0.136-0.546-0.248-0.845-0.331c-0.312-0.098-0.689-0.203-1.144-0.34
			c-0.445-0.137-0.833-0.273-1.154-0.41c-0.324-0.136-0.648-0.349-1.001-0.635c-0.298-0.261-0.534-0.569-0.715-0.938
			c-0.181-0.362-0.261-0.792-0.261-1.3c0-0.938,0.385-1.691,1.167-2.26c0.791-0.578,1.814-0.871,3.089-0.871
			c0.604,0,1.15,0.061,1.665,0.188c0.512,0.114,0.935,0.251,1.274,0.394l0.213-0.582H80l0.156,3.391h-0.689
			c-0.235-0.687-0.626-1.284-1.192-1.79c-0.565-0.496-1.176-0.744-1.821-0.744c-0.505,0-0.909,0.105-1.195,0.321
			c-0.299,0.207-0.442,0.499-0.442,0.877c0,0.505,0.207,0.871,0.642,1.1c0.422,0.226,1.02,0.429,1.783,0.636
			c1.195,0.295,2.05,0.721,2.606,1.242c0.54,0.521,0.826,1.198,0.826,2.012c0,1.084-0.436,1.926-1.287,2.523
			C78.542,249.653,77.436,249.951,76.056,249.951z"/>
		<path fill="#242459" stroke="#222558" stroke-width="0.25" d="M102.462,249.608h-7.675v-0.775
			c0.347-0.025,0.775-0.089,1.262-0.188c0.477-0.104,0.718-0.229,0.718-0.384c0-0.054,0-0.111-0.01-0.175
			c-0.013-0.067-0.044-0.162-0.095-0.273l-1.198-2.92h-4.865c-0.108,0.267-0.232,0.591-0.369,0.957
			c-0.137,0.362-0.254,0.683-0.346,0.969c-0.13,0.372-0.207,0.648-0.226,0.807c-0.022,0.162-0.042,0.289-0.042,0.35
			c0,0.213,0.165,0.391,0.483,0.541c0.324,0.149,0.852,0.254,1.605,0.317v0.775h-5.781v-0.775c0.219-0.006,0.467-0.038,0.741-0.108
			c0.273-0.041,0.496-0.127,0.651-0.229c0.273-0.159,0.499-0.359,0.689-0.582c0.188-0.238,0.343-0.505,0.474-0.829
			c0.763-1.856,1.535-3.728,2.304-5.587c0.778-1.862,1.63-3.928,2.561-6.185h1.99c1.287,3.2,2.31,5.724,3.051,7.577
			c0.734,1.853,1.354,3.388,1.872,4.611c0.086,0.188,0.197,0.375,0.328,0.537c0.13,0.159,0.324,0.312,0.572,0.458
			c0.181,0.111,0.404,0.193,0.642,0.235c0.248,0.063,0.458,0.095,0.664,0.102V249.608z M95.061,243.91l-2.043-5.094l-2.008,5.094
			H95.061z"/>
		<path fill="#242459" stroke="#222558" stroke-width="0.25" d="M108.551,249.608h-6.257v-0.715
			c0.175-0.025,0.343-0.035,0.512-0.061c0.159-0.013,0.295-0.051,0.426-0.102c0.219-0.073,0.362-0.184,0.436-0.333
			c0.076-0.156,0.111-0.347,0.111-0.591v-11.005c0-0.26-0.042-0.486-0.146-0.708c-0.102-0.213-0.245-0.375-0.413-0.486
			c-0.133-0.085-0.327-0.175-0.601-0.248c-0.267-0.08-0.505-0.124-0.708-0.143v-0.725l5.002-0.257l0.149,0.155v13.287
			c0,0.242,0.044,0.436,0.137,0.598c0.085,0.149,0.222,0.273,0.416,0.353c0.13,0.063,0.28,0.118,0.423,0.168
			c0.149,0.038,0.318,0.073,0.515,0.099V249.608z"/>
		<path fill="#242459" stroke="#222558" stroke-width="0.25" d="M127.208,243.141c0.429,0.295,0.772,0.664,1.04,1.106
			c0.267,0.432,0.391,0.957,0.391,1.544c0,0.715-0.149,1.325-0.448,1.824c-0.305,0.489-0.734,0.88-1.293,1.166
			c-0.604,0.299-1.287,0.524-2.063,0.642c-0.782,0.118-1.697,0.184-2.752,0.184h-7.322v-0.775c0.213-0.013,0.467-0.038,0.775-0.089
			c0.312-0.035,0.531-0.086,0.655-0.137c0.248-0.098,0.422-0.229,0.502-0.397c0.092-0.156,0.137-0.366,0.137-0.626v-9.931
			c0-0.245-0.044-0.442-0.105-0.604c-0.076-0.156-0.248-0.292-0.534-0.41c-0.2-0.085-0.429-0.162-0.715-0.209
			c-0.273-0.063-0.502-0.108-0.715-0.14v-0.769h7.662c1.935,0,3.321,0.26,4.169,0.782c0.858,0.537,1.287,1.319,1.287,2.352
			c0,0.47-0.099,0.893-0.286,1.262c-0.191,0.353-0.47,0.67-0.833,0.938c-0.324,0.235-0.709,0.46-1.154,0.632
			c-0.455,0.181-0.947,0.324-1.449,0.448v0.188c0.502,0.047,1.049,0.175,1.602,0.333
			C126.313,242.642,126.799,242.868,127.208,243.141z M124.015,238.901c0-0.772-0.222-1.385-0.664-1.827
			c-0.442-0.436-1.103-0.658-1.977-0.658c-0.13,0-0.286,0.013-0.493,0.019c-0.204,0.003-0.384,0.016-0.527,0.022v5.221h0.521
			c1.064,0,1.859-0.242,2.374-0.737C123.754,240.443,124.015,239.76,124.015,238.901z M124.705,245.677
			c0-0.985-0.286-1.741-0.877-2.266c-0.578-0.521-1.417-0.788-2.504-0.788c-0.124,0-0.292,0.006-0.502,0.019
			c-0.207,0.013-0.369,0.019-0.467,0.019v5.177c0.063,0.235,0.241,0.448,0.559,0.617c0.312,0.165,0.683,0.254,1.131,0.254
			c0.788,0,1.43-0.264,1.926-0.795C124.463,247.377,124.705,246.634,124.705,245.677z"/>
		<path fill="#242459" stroke="#222558" stroke-width="0.25" d="M141.417,249.405c-0.292,0.124-0.629,0.235-1.033,0.346
			c-0.403,0.111-0.813,0.162-1.261,0.162c-0.814,0-1.405-0.124-1.79-0.372c-0.381-0.235-0.648-0.585-0.785-1.033h-0.061
			c-0.226,0.222-0.436,0.422-0.651,0.572c-0.213,0.162-0.429,0.299-0.68,0.41c-0.305,0.149-0.594,0.254-0.887,0.324
			c-0.286,0.073-0.696,0.111-1.214,0.111c-0.769,0-1.427-0.222-1.97-0.677c-0.541-0.455-0.813-1.055-0.813-1.808
			c0-0.429,0.063-0.794,0.174-1.093c0.118-0.305,0.292-0.572,0.509-0.811c0.207-0.203,0.429-0.384,0.689-0.521
			c0.267-0.143,0.547-0.267,0.864-0.385c0.598-0.222,1.313-0.448,2.152-0.683c0.833-0.238,1.439-0.448,1.827-0.632v-0.954
			c0-0.168-0.006-0.384-0.038-0.658c-0.025-0.267-0.086-0.499-0.168-0.689c-0.092-0.213-0.235-0.385-0.442-0.528
			c-0.197-0.143-0.458-0.232-0.775-0.232c-0.299,0-0.54,0.051-0.734,0.124c-0.197,0.086-0.353,0.175-0.47,0.261
			c0.016,0.124,0.073,0.336,0.165,0.61c0.095,0.261,0.143,0.528,0.143,0.782c0,0.115-0.035,0.248-0.092,0.423
			c-0.063,0.162-0.149,0.299-0.254,0.4c-0.155,0.137-0.324,0.235-0.518,0.308c-0.191,0.076-0.483,0.115-0.868,0.115
			c-0.566,0-0.982-0.137-1.268-0.41c-0.28-0.264-0.429-0.61-0.429-1.045c0-0.372,0.156-0.703,0.442-1.007
			c0.292-0.286,0.651-0.521,1.081-0.718c0.416-0.2,0.89-0.362,1.437-0.461c0.546-0.111,1.048-0.168,1.516-0.168
			c0.639,0,1.224,0.044,1.757,0.118c0.541,0.073,1.027,0.235,1.456,0.474c0.41,0.235,0.741,0.565,0.982,1.004
			c0.235,0.436,0.359,1.02,0.359,1.723c0,0.753-0.019,1.643-0.042,2.66c-0.032,1.027-0.051,1.71-0.051,2.034
			c0,0.295,0.051,0.534,0.137,0.708c0.092,0.162,0.229,0.295,0.416,0.385c0.105,0.047,0.292,0.079,0.528,0.092
			c0.242,0.006,0.461,0.02,0.661,0.02V249.405z M136.488,244.228c-0.372,0.124-0.74,0.267-1.106,0.429
			c-0.362,0.159-0.667,0.334-0.89,0.509c-0.248,0.188-0.448,0.429-0.585,0.721c-0.143,0.286-0.209,0.62-0.209,1.02
			c0,0.521,0.124,0.893,0.359,1.125c0.229,0.229,0.521,0.347,0.864,0.347c0.372,0,0.671-0.08,0.906-0.219
			c0.238-0.146,0.442-0.334,0.623-0.556L136.488,244.228z"/>
		<path fill="#242459" stroke="#222558" stroke-width="0.25" d="M152.079,241.574c0,0.508-0.152,0.944-0.47,1.322
			c-0.312,0.381-0.721,0.578-1.23,0.578c-0.486,0-0.896-0.124-1.233-0.372c-0.327-0.235-0.496-0.598-0.496-1.084
			c0-0.222,0.013-0.41,0.051-0.534c0.029-0.124,0.061-0.242,0.092-0.359c-0.312,0.013-0.629,0.124-0.963,0.312
			c-0.343,0.197-0.636,0.461-0.903,0.794v5.45c0,0.235,0.038,0.423,0.111,0.579c0.076,0.156,0.194,0.267,0.375,0.359
			c0.143,0.07,0.378,0.13,0.708,0.181c0.328,0.057,0.566,0.076,0.706,0.092v0.715h-6.648v-0.715
			c0.175-0.025,0.337-0.035,0.505-0.061c0.171-0.025,0.314-0.051,0.426-0.102c0.213-0.067,0.362-0.178,0.441-0.327
			c0.083-0.162,0.118-0.353,0.118-0.598v-5.787c0-0.235-0.061-0.445-0.159-0.639c-0.121-0.194-0.251-0.343-0.419-0.455
			c-0.111-0.073-0.267-0.146-0.445-0.197c-0.181-0.051-0.384-0.089-0.604-0.105v-0.728l4.741-0.261l0.143,0.152v1.437h0.044
			c0.461-0.527,0.938-0.944,1.459-1.243c0.505-0.305,1.045-0.458,1.599-0.458c0.613,0,1.112,0.191,1.49,0.575
			C151.889,240.481,152.079,240.977,152.079,241.574z"/>
		<path fill="#242459" stroke="#222558" stroke-width="0.25" d="M157.368,249.951c-0.652,0-1.271-0.102-1.888-0.286
			c-0.616-0.188-1.08-0.385-1.43-0.598l-0.292,0.674h-0.775l-0.13-3.706h0.731c0.095,0.299,0.264,0.632,0.486,1.007
			c0.235,0.372,0.502,0.708,0.794,1.011c0.318,0.295,0.674,0.553,1.077,0.753c0.397,0.204,0.826,0.312,1.281,0.312
			c0.607,0,1.058-0.124,1.344-0.362c0.296-0.235,0.442-0.597,0.442-1.081c0-0.267-0.067-0.486-0.194-0.658
			c-0.13-0.175-0.314-0.324-0.55-0.448c-0.251-0.136-0.534-0.248-0.845-0.331c-0.312-0.098-0.687-0.203-1.138-0.34
			c-0.445-0.137-0.846-0.273-1.16-0.41c-0.318-0.136-0.648-0.349-0.995-0.635c-0.305-0.261-0.543-0.569-0.715-0.938
			c-0.175-0.362-0.267-0.792-0.267-1.3c0-0.938,0.391-1.691,1.172-2.26c0.798-0.578,1.809-0.871,3.086-0.871
			c0.601,0,1.16,0.061,1.668,0.188c0.502,0.114,0.928,0.251,1.265,0.394l0.219-0.582h0.753l0.156,3.391h-0.693
			c-0.232-0.687-0.629-1.284-1.188-1.79c-0.566-0.496-1.167-0.744-1.821-0.744c-0.515,0-0.909,0.105-1.205,0.321
			c-0.286,0.207-0.438,0.499-0.438,0.877c0,0.505,0.209,0.871,0.642,1.1c0.429,0.226,1.021,0.429,1.79,0.636
			c1.188,0.295,2.05,0.721,2.603,1.242c0.547,0.521,0.823,1.198,0.823,2.012c0,1.084-0.423,1.926-1.281,2.523
			C159.843,249.653,158.737,249.951,157.368,249.951z"/>
		<path fill="#242459" stroke="#222558" stroke-width="0.25" d="M176.104,249.608h-5.965v-0.715
			c0.124-0.025,0.289-0.035,0.464-0.061c0.181-0.013,0.318-0.051,0.394-0.102c0.143-0.067,0.245-0.171,0.299-0.308
			c0.057-0.137,0.083-0.35,0.083-0.617v-4.652c0-0.687-0.121-1.182-0.381-1.532c-0.251-0.334-0.616-0.509-1.083-0.509
			c-0.267,0-0.512,0.045-0.75,0.124c-0.219,0.083-0.442,0.2-0.661,0.35c-0.197,0.13-0.353,0.267-0.467,0.41
			c-0.111,0.137-0.213,0.26-0.295,0.365v5.326c0,0.248,0.035,0.448,0.092,0.585c0.063,0.149,0.175,0.261,0.337,0.353
			c0.105,0.063,0.235,0.118,0.391,0.168c0.168,0.038,0.324,0.073,0.48,0.099v0.715h-6.057v-0.715
			c0.165-0.025,0.333-0.035,0.496-0.061c0.168-0.013,0.315-0.051,0.442-0.102c0.207-0.073,0.356-0.184,0.432-0.333
			c0.08-0.156,0.118-0.347,0.118-0.591v-11.082c0-0.209-0.054-0.435-0.149-0.677c-0.102-0.235-0.238-0.417-0.419-0.527
			c-0.137-0.099-0.324-0.162-0.579-0.21c-0.248-0.051-0.477-0.076-0.67-0.095v-0.725l4.945-0.257l0.143,0.155v6.836h0.044
			c0.251-0.222,0.474-0.422,0.674-0.61c0.207-0.172,0.455-0.372,0.744-0.55c0.245-0.162,0.563-0.292,0.957-0.414
			c0.397-0.111,0.82-0.165,1.277-0.165c1.065,0,1.878,0.308,2.412,0.925c0.547,0.617,0.814,1.424,0.814,2.431v4.872
			c0,0.248,0.032,0.445,0.108,0.585c0.076,0.146,0.207,0.273,0.403,0.346c0.121,0.058,0.254,0.099,0.404,0.149
			c0.146,0.032,0.321,0.063,0.527,0.099V249.608z"/>
		<path fill="#242459" stroke="#222558" stroke-width="0.25" d="M188.378,249.405c-0.286,0.124-0.629,0.235-1.026,0.346
			c-0.394,0.111-0.82,0.162-1.268,0.162c-0.807,0-1.405-0.124-1.789-0.372c-0.385-0.235-0.646-0.585-0.785-1.033h-0.054
			c-0.229,0.222-0.451,0.422-0.651,0.572c-0.219,0.162-0.438,0.299-0.68,0.41c-0.308,0.149-0.604,0.254-0.899,0.324
			c-0.289,0.073-0.686,0.111-1.208,0.111c-0.769,0-1.424-0.222-1.97-0.677c-0.543-0.455-0.807-1.055-0.807-1.808
			c0-0.429,0.054-0.794,0.165-1.093c0.124-0.305,0.292-0.572,0.515-0.811c0.2-0.203,0.432-0.384,0.693-0.521
			c0.26-0.143,0.553-0.267,0.858-0.385c0.597-0.222,1.313-0.448,2.151-0.683c0.833-0.238,1.446-0.448,1.833-0.632v-0.954
			c0-0.168-0.022-0.384-0.041-0.658c-0.025-0.267-0.08-0.499-0.172-0.689c-0.098-0.213-0.238-0.385-0.438-0.528
			c-0.197-0.143-0.458-0.232-0.788-0.232c-0.289,0-0.531,0.051-0.725,0.124c-0.203,0.086-0.356,0.175-0.477,0.261
			c0.019,0.124,0.073,0.336,0.175,0.61c0.089,0.261,0.14,0.528,0.14,0.782c0,0.115-0.032,0.248-0.095,0.423
			c-0.057,0.162-0.146,0.299-0.261,0.4c-0.146,0.137-0.321,0.235-0.508,0.308c-0.188,0.076-0.48,0.115-0.874,0.115
			c-0.559,0-0.979-0.137-1.262-0.41c-0.289-0.264-0.432-0.61-0.432-1.045c0-0.372,0.146-0.703,0.442-1.007
			c0.299-0.286,0.654-0.521,1.077-0.718c0.417-0.2,0.899-0.362,1.443-0.461c0.546-0.111,1.045-0.168,1.513-0.168
			c0.639,0,1.23,0.044,1.77,0.118c0.537,0.073,1.017,0.235,1.446,0.474c0.41,0.235,0.734,0.565,0.979,1.004
			c0.242,0.436,0.369,1.02,0.369,1.723c0,0.753-0.019,1.643-0.048,2.66c-0.035,1.027-0.047,1.71-0.047,2.034
			c0,0.295,0.047,0.534,0.13,0.708c0.092,0.162,0.232,0.295,0.413,0.385c0.114,0.047,0.295,0.079,0.537,0.092
			c0.241,0.006,0.454,0.02,0.658,0.02V249.405z M183.455,244.228c-0.378,0.124-0.747,0.267-1.109,0.429
			c-0.359,0.159-0.661,0.334-0.903,0.509c-0.245,0.188-0.432,0.429-0.575,0.721c-0.14,0.286-0.209,0.62-0.209,1.02
			c0,0.521,0.114,0.893,0.353,1.125c0.242,0.229,0.528,0.347,0.88,0.347c0.362,0,0.664-0.08,0.896-0.219
			c0.235-0.146,0.445-0.334,0.626-0.556L183.455,244.228z"/>
		<path fill="#242459" stroke="#222558" stroke-width="0.25" d="M211.631,249.608h-7.633v-0.775
			c0.171-0.006,0.413-0.032,0.731-0.051c0.314-0.038,0.54-0.073,0.658-0.124c0.251-0.098,0.407-0.235,0.502-0.384
			c0.098-0.168,0.143-0.378,0.143-0.636v-4.853h-6.019v4.754c0,0.22,0.048,0.423,0.143,0.598c0.102,0.185,0.264,0.321,0.496,0.423
			c0.121,0.047,0.34,0.111,0.642,0.165c0.302,0.07,0.553,0.102,0.741,0.108v0.775h-7.608v-0.775c0.159,0,0.403-0.025,0.724-0.063
			c0.321-0.038,0.553-0.08,0.699-0.133c0.238-0.083,0.404-0.213,0.496-0.394c0.095-0.168,0.143-0.378,0.143-0.617v-9.972
			c0-0.238-0.048-0.429-0.134-0.591c-0.08-0.162-0.241-0.299-0.505-0.416c-0.188-0.092-0.441-0.168-0.753-0.235
			c-0.312-0.07-0.534-0.108-0.67-0.121v-0.769h7.608v0.769c-0.2,0.013-0.445,0.044-0.728,0.102
			c-0.279,0.047-0.508,0.105-0.654,0.149c-0.264,0.085-0.433,0.222-0.512,0.41c-0.086,0.185-0.127,0.391-0.127,0.604v4.211h6.019
			v-4.112c0-0.238-0.038-0.429-0.133-0.591c-0.08-0.162-0.251-0.299-0.512-0.416c-0.171-0.08-0.4-0.149-0.693-0.216
			c-0.283-0.076-0.515-0.127-0.696-0.14v-0.769h7.633v0.769c-0.219,0.013-0.454,0.038-0.721,0.083
			c-0.264,0.044-0.502,0.105-0.715,0.168c-0.254,0.085-0.416,0.216-0.505,0.41c-0.092,0.178-0.137,0.385-0.137,0.604v9.985
			c0,0.235,0.044,0.436,0.137,0.598c0.089,0.175,0.251,0.308,0.505,0.423c0.156,0.06,0.391,0.13,0.687,0.171
			c0.302,0.063,0.55,0.095,0.75,0.102V249.608z"/>
		<path fill="#242459" stroke="#222558" stroke-width="0.25" d="M223.027,240.926c0.489,0.461,0.864,1.008,1.118,1.643
			c0.264,0.639,0.391,1.329,0.391,2.069c0,0.741-0.127,1.43-0.381,2.082c-0.251,0.645-0.623,1.205-1.119,1.666
			c-0.515,0.508-1.144,0.883-1.869,1.15c-0.725,0.254-1.551,0.391-2.488,0.391c-0.813,0-1.551-0.111-2.228-0.337
			c-0.687-0.241-1.284-0.582-1.812-1.048c-0.502-0.448-0.896-0.995-1.186-1.64c-0.289-0.661-0.436-1.385-0.436-2.193
			c0-0.797,0.127-1.506,0.382-2.12c0.257-0.616,0.639-1.176,1.147-1.662c0.483-0.464,1.1-0.82,1.808-1.074
			c0.722-0.254,1.525-0.384,2.416-0.384c0.925,0,1.735,0.13,2.447,0.384C221.924,240.106,222.525,240.462,223.027,240.926z
			 M220.488,247.813c0.143-0.372,0.248-0.82,0.328-1.347c0.066-0.537,0.095-1.138,0.095-1.853c0-0.467-0.025-0.995-0.095-1.586
			c-0.067-0.594-0.166-1.067-0.302-1.417c-0.152-0.417-0.372-0.744-0.654-0.979c-0.28-0.238-0.639-0.356-1.068-0.356
			c-0.474,0-0.849,0.13-1.131,0.391c-0.28,0.248-0.499,0.591-0.655,1.001c-0.137,0.381-0.232,0.813-0.276,1.325
			c-0.061,0.502-0.08,1.03-0.08,1.576c0,0.728,0.019,1.325,0.061,1.802c0.054,0.474,0.159,0.944,0.34,1.424
			c0.156,0.413,0.369,0.728,0.658,0.976c0.28,0.238,0.648,0.35,1.084,0.35c0.397,0,0.734-0.108,1.026-0.324
			C220.1,248.572,220.323,248.242,220.488,247.813z"/>
		<path fill="#242459" stroke="#222558" stroke-width="0.25" d="M233.212,249.154c-0.422,0.188-0.871,0.35-1.357,0.505
			c-0.483,0.149-1.074,0.216-1.776,0.216c-1.023,0-1.799-0.248-2.294-0.756c-0.496-0.499-0.744-1.205-0.744-2.145v-6.095h-1.796
			v-1.084h1.831v-3.013h3.219v3.013h2.787v1.084h-2.768v5.444c0,0.769,0.099,1.315,0.324,1.64c0.21,0.324,0.601,0.483,1.163,0.483
			c0.172,0,0.426-0.009,0.747-0.035c0.314-0.025,0.534-0.061,0.664-0.089V249.154z"/>
		<path fill="#242459" stroke="#222558" stroke-width="0.25" d="M244.589,247.241c-0.232,0.375-0.505,0.728-0.845,1.058
			c-0.321,0.346-0.699,0.632-1.112,0.871c-0.448,0.248-0.893,0.432-1.344,0.563c-0.451,0.137-0.972,0.194-1.567,0.194
			c-0.982,0-1.827-0.137-2.539-0.41c-0.708-0.286-1.296-0.658-1.761-1.131c-0.46-0.467-0.81-1.021-1.039-1.659
			c-0.232-0.642-0.343-1.338-0.343-2.082c0-0.67,0.127-1.325,0.372-1.938c0.241-0.623,0.601-1.176,1.055-1.656
			c0.451-0.47,1.017-0.849,1.707-1.147c0.686-0.292,1.456-0.436,2.301-0.436c0.925,0,1.694,0.111,2.282,0.34
			c0.597,0.226,1.1,0.537,1.487,0.935c0.372,0.372,0.648,0.82,0.816,1.328c0.175,0.524,0.264,1.055,0.264,1.621v0.642h-6.718
			c0,1.364,0.261,2.393,0.785,3.102c0.528,0.702,1.351,1.062,2.495,1.062c0.623,0,1.183-0.159,1.678-0.509
			c0.496-0.337,0.918-0.772,1.271-1.293L244.589,247.241z M240.792,243.459c0-0.394-0.019-0.804-0.054-1.221
			c-0.044-0.416-0.111-0.753-0.213-1.02c-0.114-0.312-0.267-0.553-0.461-0.706c-0.194-0.156-0.445-0.238-0.737-0.238
			c-0.515,0-0.921,0.254-1.227,0.775c-0.305,0.512-0.47,1.332-0.496,2.45L240.792,243.459z"/>
		<path fill="#242459" stroke="#222558" stroke-width="0.25" d="M251.609,249.608h-6.251v-0.715c0.166-0.025,0.34-0.035,0.502-0.061
			c0.159-0.013,0.312-0.051,0.432-0.102c0.213-0.073,0.359-0.184,0.432-0.333c0.073-0.156,0.118-0.347,0.118-0.591v-11.005
			c0-0.26-0.054-0.486-0.156-0.708c-0.102-0.213-0.235-0.375-0.41-0.486c-0.13-0.085-0.333-0.175-0.601-0.248
			c-0.267-0.08-0.508-0.124-0.712-0.143v-0.725l5.012-0.257l0.143,0.155v13.287c0,0.242,0.048,0.436,0.137,0.598
			c0.086,0.149,0.226,0.273,0.413,0.353c0.137,0.063,0.273,0.118,0.426,0.168c0.14,0.038,0.312,0.073,0.515,0.099V249.608z"/>
	</g>
	<g>
		<g>
			<path fill-rule="evenodd" clip-rule="evenodd" fill="#222558" d="M43.988,212.016c-0.792,0.333-1.748,2.148-1.71,2.997
				c-0.95,0.223-1.64,0.305-2.021,1.017c-0.022,0.2-0.054,0.4-0.08,0.61c0.025,0.038,0.057,0.089,0.08,0.137
				c0.413,0.26,0.654,0.26,1.246,0.066c0.022,0,0.048,0,0.08,0c0,1.15,0,2.307,0,3.464c-0.703,0-1.405,0-2.101,0
				c0.038-1.119,0.35-7.221-0.156-7.668c-1.036-0.96-1.945,2.212-2.18,2.784c-0.801,0.709-1.691,0.378-2.25,1.42
				c0.086,0.715,0.728,0.642,1.471,0.543c0,0.969,0,1.945,0,2.921c-0.867,0-1.757,0-2.634,0c-0.025-2.215-0.048-4.44-0.08-6.665
				c-0.156-0.111-0.312-0.222-0.467-0.333c-0.098-0.025-0.209-0.051-0.305-0.07c-0.366,0.241-1.497,2.32-1.561,2.854
				c-0.931,0.445-2.088,0.483-2.174,1.704c0,0.025,0,0.038,0,0.061c0.331,0.213,0.684,0.362,1.243,0.213
				c0.305,0.489,0.261,1.452,0.235,2.237c-2.628-0.006-4.716,0.06-6.76,0.07c-0.025-5.365-0.051-10.735-0.076-16.106
				c-0.261-0.143-0.312-0.197-0.769-0.204c-0.579,0.728-1.78,2.473-1.792,3.537c-1.1,0.149-1.945,0.645-2.104,1.627
				c0.197,0.298,0.327,0.397,0.708,0.546c0.28-0.092,0.563-0.188,0.849-0.273c0.025,0,0.063,0,0.083,0
				c0.019,4.389,0.042,8.787,0.073,13.176c1.351,0.833,4.754,0.28,6.601,0.28c5.619,0,11.244,0,16.865,0
				c0.708-0.957,0.318-8.669,0.302-10.611C44.404,212.239,44.191,212.127,43.988,212.016z M175.958,216.977
				c-1.265-0.76-3.642-0.61-5.749-0.61c-4.112,0-8.234,0-12.35,0c0-0.025,0-0.051,0-0.063c2.987-1.093,5.638-4.106,8.771-4.821
				c0.283,0.273,0.257,0.584,0.706,0.74c0.076,0.016,0.149,0.042,0.232,0.067c0.89-0.623,1.071-1.621,0.464-2.647
				c0.785-0.448,2.311-2.615,1.239-3.121c-5.558,3.295-11.129,6.607-16.694,9.909c-0.286,0.547-0.181,1.694-0.156,2.447
				c1.144,0.708,4.31,0.35,6.14,0.35c5.202,0,10.401,0,15.61,0c0,0.035,0,0.085,0,0.13c0.204,0.241,0.251,0.565,0.235,1.02
				c-9.27,0-19.618-0.022-28.119,0c-0.032-5.365-0.057-10.735-0.089-16.106c-0.248-0.143-0.302-0.197-0.769-0.204
				c-0.572,0.728-1.773,2.473-1.783,3.537c-1.097,0.149-1.942,0.645-2.101,1.627c0.191,0.298,0.328,0.397,0.703,0.546
				c0.276-0.092,0.572-0.188,0.858-0.273c0.016,0,0.042,0,0.08,0c0.019,4.389,0.041,8.787,0.073,13.176
				c1.236,0.794,7.048,0.347,9.317,0.347c8.126,0,16.259,0,24.391,0c0.664-0.813,0.34-2.803,0.079-3.877
				C176.82,218.242,176.696,217.422,175.958,216.977z M80.423,204.478c-0.159-0.248-0.261-0.28-0.626-0.343
				c-0.658,0.448-1.919,2.523-1.872,3.394c-1.274,0.207-2.285,0.753-1.938,1.977c0.08,0.051,0.156,0.086,0.235,0.137
				c0.499,0.051,0.687-0.085,1.239-0.137c0,4.389,0,8.787,0,13.176c0.582,0.347,1.77,0.302,2.803,0.28
				c0.594-0.826,0.302-2.873,0.302-4.144c0-3.333,0-6.664,0-9.995C80.566,207.678,80.982,205.304,80.423,204.478z M73.425,204.882
				c-0.254-0.13-0.521-0.273-0.775-0.404c-0.286,0.194-1.697,2.45-1.716,2.854c-1.236,0.197-2.323,0.683-2.33,1.96
				c0,0.032,0,0.051,0,0.077c0.41,0.203,1.602-0.077,1.795,0.136c0,3.623,0,7.246,0,10.872c-2.002,0-3.988,0-5.984,0
				c-0.025-2.724-0.057-5.441-0.076-8.155c-0.273-0.143-0.372-0.207-0.858-0.207c-0.626,0.871-1.808,2.212-1.633,3.407
				c-1.1,0.334-2.082,0.521-2.101,1.824c0,0.025,0,0.051,0,0.063c0.547,0.337,0.839,0.207,1.633,0.149
				c0.032,0.969,0.058,1.951,0.083,2.917c-2.101,0-4.195,0-6.296,0c-0.496-1.519-2.107-2.294-2.555-3.737
				c-0.216-0.677,0.111-1.268,0-1.764c-0.235,0-0.474,0-0.703,0c-1.081,0.435-1.535,1.802-1.471,3.254
				c-0.928,0.299-2.06,0.982-1.789,2.107c1.055,0.442,2.479-0.155,3.26,0.753c0.391,0.448,0.48,1.093,0.467,1.894
				c-0.044,3.041-3.617,3.127-6.524,3.744c-0.083,0.086-0.156,0.178-0.238,0.267c-0.019,0.209-0.038,0.279,0.083,0.47
				c0.489,0.708,3.083,0.572,4.268,0.41c2.908-0.384,5.11-2.192,5.514-4.748c5.879,0,11.765,0,17.638,0
				c0.712-0.976,0.308-3.636,0.308-5.101C73.425,213.583,73.425,209.232,73.425,204.882z M139.059,212.016
				c-0.178,0.025-0.365,0.051-0.54,0.07c-0.404,1.154-1.316,1.697-1.316,3.063c-1.086,0.273-1.69,0.353-2.101,1.217
				c0.035,0.362,0.035,0.397,0.312,0.547c0.283,0.188,0.632,0.102,1.087,0.063c0.029,1.128,0.048,2.269,0.067,3.4
				c-0.715,0-1.446,0-2.161,0c0.042-2.45,0.165-5.247-0.083-7.615c-0.235-0.089-0.464-0.181-0.696-0.264
				c-0.441,0.302-1.217,1.519-1.404,1.964c-0.019,0.362-0.054,0.728-0.073,1.083c-0.661,0.607-1.487-0.013-2.336,1.296
				c0,0.108,0,0.232,0,0.343c0.432,0.28,0.75,0.423,1.402,0.2c0.032,0,0.057,0,0.083,0c0,0.992,0,1.986,0,2.991
				c-0.884,0-1.767,0-2.641,0c0.013-2.17,0.404-5.117-0.238-6.931c-0.203-0.07-0.419-0.137-0.62-0.207
				c-0.715,0.877-0.896,2.027-1.633,2.927c-0.442,0.149-0.877,0.318-1.313,0.474c-0.267,0.286-0.528,0.584-0.779,0.877
				c0,0.118,0,0.229,0,0.34c0.429,0.279,0.823,0.305,1.392,0.343c0.032,0.728,0.051,1.446,0.076,2.177c-1.913,0-3.83,0-5.749,0
				c-0.019-2.692-0.051-5.39-0.073-8.088c-0.292-0.175-0.317-0.261-0.852-0.273c-0.28,0.235-1.494,2.069-1.637,2.38
				c-0.025,0.359-0.047,0.728-0.073,1.087c-0.798,0.702-2.041-0.185-2.021,1.903c0.521,0.261,0.852,0.118,1.548,0.073
				c0.025,0.969,0.063,1.951,0.083,2.917c-2.568,0-5.123,0-7.688,0c0-3.553,0-7.119,0-10.668c0-1.551,0.235-3.585-0.156-4.891
				c-0.26-0.146-0.286-0.229-0.702-0.273c-0.604,0.448-1.195,2.339-1.71,2.787c-0.82,0.715-1.478,0.104-2.25,1.49
				c0,0.308,0.013,0.385,0.156,0.547c0.025,0.066,0.051,0.136,0.073,0.203c0.579,0,0.871-0.073,1.243-0.203
				c0.575,0.384,0.312,2.015,0.312,2.854c0,2.714,0,5.431,0,8.155c-2.069,0-4.666,0.073-6.058,0
				c-0.511-1.847-3.213-2.736-2.412-5.228c-0.149-0.114-0.299-0.238-0.461-0.35c-0.073,0-0.156,0-0.235,0
				c-1.922,0.957-0.778,2.114-1.703,3.331c-0.604,0.785-2.015,0.642-1.71,2.107c0.826,0.343,2.101-0.143,2.873,0.41
				c2.672,1.897-0.381,4.996-2.406,5.507c-1.014,0.13-2.021,0.267-3.032,0.404c-0.261,0.104-0.261,0.104-0.381,0.337
				c-0.086,0.197-0.042,0.308,0.07,0.47c0.515,0.658,3.076,0.648,4.274,0.41c2.619-0.489,5.177-2.084,5.358-4.684
				c2.311-0.636,6.569,0.321,9.553-0.063c9.81,0,19.63,0,29.431,0c0.572-0.703,0.772-9.582,0.245-10.738
				C139.311,212.096,139.304,212.121,139.059,212.016z M38.163,208.686c1.948-0.632,1.112-3.114-1.093-3.051
				c-0.534,0.451-1.894,1.15-1.167,2.237C36.202,208.473,37.107,208.984,38.163,208.686z M246.954,209.292
				c1.43-0.944,0.063-2.727-1.63-2.647c-0.579,0.305-1.049,0.381-1.322,0.959C243.112,209.045,245.676,210.151,246.954,209.292z
				 M196.78,209.436c0.899,1.176,2.81,0.922,3.413-0.346c-0.009-1.484-2.577-2.654-3.346-1.081
				c-0.448,0.054-0.985-0.747-2.241-0.747C191.778,208.711,194.451,211.489,196.78,209.436z M233.13,211.196
				c1.767-0.648,0.944-3.038-1.084-2.984c-0.155,0.045-0.321,0.099-0.467,0.137c-0.706,0.219-0.88,0.715-1.09,1.36
				C230.463,210.872,231.91,211.867,233.13,211.196z M36.529,211.406c1.866-0.692,0.944-3.044-1.322-2.92
				C33.106,209.543,34.174,212.271,36.529,211.406z M38.003,210.996c0.976,1.071,2.765,0.188,3.188-0.677
				c0.054-1.3-0.772-1.888-2.256-1.834C37.972,208.921,37.009,209.903,38.003,210.996z M249.051,219.767
				c-0.016-3.238-0.051-6.483-0.073-9.728c-0.181-0.273-0.359-0.331-0.861-0.331c-0.385,0.48-0.769,0.953-1.163,1.437
				c-0.899,0.572-2.384,0.82-3.035,1.617c-0.254,0.458-0.508,0.906-0.766,1.36c-0.655,0.417-1.262,0.429-1.716,1.026
				c-0.362,0.769-0.718,1.529-1.087,2.311c-0.346,0.429-1.115,0.807-1.551,1.217c0.08,0.2,0.156,0.4,0.235,0.61
				c2.069,0.353,4.745,0.073,6.995,0.07c0,0.34,0,0.677,0,1.02c-3.887-0.01-8.425,0.054-11.819,0
				c-0.016-2.676-0.044-5.342-0.073-8.028c-0.194-0.111-0.617-0.47-1.007-0.197c-0.01,0.013-1.548,2.472-1.551,2.517
				c0,0.267,0,0.54,0,0.813c-0.677,0.689-2.082-0.185-2.031,1.903c0.531,0.261,0.858,0.118,1.563,0.073
				c0.019,0.969,0.048,1.951,0.076,2.917c-1.652-0.016-5.937-0.331-6.995,0.197c-1.191-0.728-0.407-3.009-1.709-3.731
				c-1.64-0.912-10.98-0.556-13.98-0.54c0-1.367,0-2.72,0-4.081c-0.099-0.121-0.2-0.232-0.308-0.343
				c-0.156-0.025-0.312-0.038-0.464-0.06c-0.563,0.346-1.535,2.199-1.404,2.851c-0.931,0.365-1.551,0.241-2.021,1.02
				c0.029,0.156,0.057,0.314,0.086,0.477c0.257,0.063,0.515,0.137,0.772,0.2c0.032,0.747,0.054,1.491,0.079,2.237
				c0.906,0.56,3.07,0.34,4.586,0.34c3.464,0.07,6.938,0.134,10.401,0.207c0.251,0.324,0.385,0.658,0.394,1.227
				c-4.169-0.044-8.339-0.089-12.502-0.14c-1.125-0.155-1.382-0.683-2.418-0.744c-0.798,1.001-1.599,1.986-2.402,2.987
				c0.104,0.188,0.203,0.362,0.311,0.547c15.718,0,29.6,0,45.127,0C249.242,222.357,249.051,220.841,249.051,219.767z
				 M244.084,216.573c0-0.044,0-0.089,0-0.143c0.817-0.251,1.592-0.591,1.707-1.494c0.051-0.025,0.102-0.038,0.152-0.06
				c0.025,0.565,0.057,1.128,0.086,1.697C245.377,216.573,244.723,216.573,244.084,216.573z M95.718,213.513
				c2.139-0.454,1.773-3.114-0.852-2.987C92.877,211.504,93.449,213.98,95.718,213.513z M200.658,210.859
				c-0.162-0.197-0.207-0.21-0.537-0.267c-0.394,0.48-0.782,0.95-1.167,1.424c-0.855,0.385-1.713,0.772-2.564,1.157
				c-0.315,0.429-0.623,0.871-0.938,1.291c-0.69,0.473-1.576,0.61-2.098,1.227c-0.928,1.119-0.887,2.304-2.17,3.127
				c0.226,1.367,5.027,0.858,6.836,0.813c-0.039,0.998,0.044,2.66-0.467,3.331c-1.437,1.853-6.118,0.89-7.217-0.48
				c-1.007-1.242,0.133-3.74-1.017-4.684c-1.484,0.162-1.945,3.369-1.551,4.884c0.49,1.9,3.598,4.821,7.141,3.947
				c6.899-1.697,6.06-3.216,6.06-10.535C200.969,214.664,201.433,211.774,200.658,210.859z M198.02,216.977
				c-0.671,0-1.348,0-2.028,0c0.703-0.623,1.516-0.512,1.872-1.494c0.047-0.022,0.098-0.042,0.156-0.061
				C198.02,215.931,198.02,216.459,198.02,216.977z M12.751,219.078c-0.149-0.013-0.305-0.038-0.461-0.063
				c-1.017,0.747-3.642,2.386-4.341,0c-0.747-2.492,3.267-2.425,4.268-0.944c0.229-0.086,0.467-0.188,0.696-0.273
				c0.13-1.081-0.2-1.649-0.696-2.313c0.496-0.756,1.229-1.894,0.775-3.261c-0.13-0.242-0.185-0.295-0.47-0.403
				c-0.149-0.029-0.305-0.045-0.467-0.077c-0.467,0.671-0.499,2.018-1.313,2.38c-1.004,0.13-2.024,0.273-3.032,0.41
				c-2.667,0.689-4.09,3.152-2.87,5.844c-0.312-0.022-0.623-0.044-0.941-0.07c-0.178-0.213-0.286-0.299-0.384-0.61
				c-0.242-0.137-0.261-0.188-0.703-0.204c-0.54,0.429-0.883,0.715-0.769,1.564c-1.195-0.315-2.898,0.826-3.655,1.423
				c0.08,0.188,0.156,0.362,0.235,0.547c5.873,0,11.752,0,17.631,0c0.073-0.118,0.156-0.235,0.235-0.347c0-0.156,0-0.311,0-0.473
				C14.89,221.271,13.708,220.606,12.751,219.078z M59.992,223.905c-2.892,1.506-0.324,4.313,2.161,2.38
				C62.636,224.83,61.749,223.851,59.992,223.905z M114.201,226.492c-0.918,0.404-1.592,0.591-1.703,1.704
				c0.635,1.49,2.244,1.608,3.569,0.67c0.124-0.419,0.254-1.039,0-1.417C115.8,226.917,115.079,226.498,114.201,226.492z
				 M117.929,226.492c-1.341,0.712-1.79,1.646-0.696,2.851c1.001,0.248,1.761,0.162,2.562-0.203
				C120.471,227.788,119.988,226.435,117.929,226.492z"/>
		</g>
	</g>
	<g>
		<g>
			<path fill="#242459" d="M38.271,72.008c0.591,0,1.138-0.207,1.614-0.607c0.486-0.41,0.728-1.039,0.728-1.888
				c0-0.693-0.242-1.265-0.753-1.726c-0.489-0.458-1.062-0.693-1.697-0.693c-0.582,0-1.141,0.219-1.646,0.667
				c-0.502,0.429-0.75,1.02-0.75,1.751c0,0.769,0.248,1.385,0.744,1.843C37.009,71.786,37.597,72.008,38.271,72.008z M113.734,97.05
				c-0.191-0.146-0.458-0.276-0.77-0.394c-0.33-0.121-0.677-0.175-1.039-0.175c-0.273,0-0.559,0.048-0.833,0.146
				c-0.118,0.028-0.254,0.092-0.384,0.168c-0.137,0.073-0.28,0.171-0.429,0.289c-0.502,0.477-0.753,1.077-0.753,1.805
				c0,0.826,0.245,1.43,0.728,1.821c0.467,0.417,1.071,0.629,1.821,0.629c0.598,0,1.163-0.213,1.678-0.629
				c0.511-0.416,0.766-1.023,0.766-1.821c0-0.347-0.063-0.67-0.188-0.969C114.201,97.623,114.007,97.333,113.734,97.05z
				 M105.856,97.845c-0.095-0.232-0.28-0.477-0.572-0.715c-0.467-0.429-1.068-0.648-1.815-0.648c-0.661,0-1.262,0.2-1.814,0.604
				c-0.48,0.438-0.734,1.039-0.734,1.805c0,0.775,0.254,1.389,0.769,1.812c0.505,0.419,1.125,0.639,1.846,0.639
				c0.578,0,1.169-0.213,1.729-0.629c0.502-0.432,0.763-1.045,0.763-1.821c0-0.238-0.013-0.423-0.016-0.537
				C105.999,98.239,105.942,98.067,105.856,97.845z M142.59,77.977l-0.137,0.331l-0.098,0.279v0.772v5.603h-3.413v-7.884
				l-3.804,1.843c-0.162,0.07-0.308,0.19-0.423,0.391l-0.346,0.461l-0.219,0.524l-0.073,0.28v0.331v4.055h-3.55v-5.596l-3.747,1.776
				c-0.267,0.08-0.613,0.289-1.02,0.629l-0.709,1.115v0.2v0.277v0.575v0.378l-0.08,0.407l-0.098,0.162l-0.194,0.076h-4.405h-1.532
				h-2.069v-8.939l-3.235,2.05c-0.556,0.397-1.014,0.909-1.363,1.561c-0.267,0.623-0.397,1.274-0.397,1.97v3.359h-13.79h-2.23
				h-1.112V58.359l-3.172,2.063l-0.359,0.245l-0.474,0.455l-0.385,0.531l-0.238,0.343l-0.146,0.499l-0.083,0.429v0.887v21.152
				h-9.229h-0.436H60.246H48.392l-6.283-0.019v-5.723l-3.804,1.91l-0.417,0.347l-0.483,0.458l-0.397,0.502
				c-0.137,0.229-0.28,0.553-0.423,0.954l-0.098,0.744v0.422v0.569v8.26h-6.254l0.181,1.064l0.321,0.811l0.226,0.502l0.222,0.318
				l0.397,0.483l0.394,0.423c0.441,0.569,1.081,1.039,1.926,1.389c0.839,0.365,1.684,0.54,2.517,0.54
				c0.553,0,0.944-0.035,1.185-0.102l1.268-0.359c0.343-0.166,0.674-0.369,0.969-0.594c0.292-0.235,0.585-0.524,0.909-0.88
				l0.333-0.423l0.219-0.423l0.213-0.384l0.223-0.461c0.248-0.725,0.372-1.36,0.372-1.91v-2.781h6.283h11.854h18.661h1.554h15.197
				h2.23h20.854h1.532h24.181l1.087-0.102l0.54-0.14c0.156-0.07,0.286-0.143,0.369-0.226c0.191-0.111,0.372-0.404,0.56-0.845
				l0.146-1.052V75.25l-3.67,1.878C143.149,77.322,142.857,77.602,142.59,77.977z M216.099,77.497l-0.992-0.842
				c-0.458-0.458-0.982-0.807-1.551-1.033l-0.826-0.242l-0.868-0.121h-11.479l-0.464-0.061l-0.423-0.241
				c-0.191-0.162-0.35-0.438-0.486-0.833l-0.08-0.277c0-0.156,0.143-0.419,0.426-0.813l1.652-0.992l11.275-6.197l0.566-1.602
				l-25.116,11.813l-0.324,0.257l-0.381,0.486l-0.159,0.35l-0.137,0.565l-0.127,0.645l-0.019,0.429l0.054,0.706l0.185,0.67h22.128
				c0.442,0,0.798,0.044,1.064,0.137c0.312,0.073,0.604,0.229,0.871,0.467l0.283,0.286l0.404,0.42
				c0.117,0.178,0.209,0.467,0.276,0.871v2.615h-29.345h-0.356h-15.687h-3.124h-2.727V63.666v-0.422l-0.057-0.426l-0.086-0.403
				l-0.14-0.419c-0.108-0.334-0.362-0.693-0.766-1.042l-0.422-0.372l-0.429-0.298l-2.956-1.923v32.237h7.583h3.124h15.687h0.356
				h31.773l0.782-0.102l0.528-0.22l0.388-0.346c0.14-0.083,0.226-0.171,0.286-0.283l0.219-0.467l0.095-0.417
				c0-0.219,0.028-0.4,0.08-0.565v-8.196C216.659,78.806,216.471,77.967,216.099,77.497z"/>
		</g>
	</g>
</g>
</svg>
