<?xml version="1.0" encoding="utf-8"?>
<!-- Generator: Adobe Illustrator 16.0.0, SVG Export Plug-In . SVG Version: 6.00 Build 0)  -->
<!DOCTYPE svg PUBLIC "-//W3C//DTD SVG 1.1//EN" "http://www.w3.org/Graphics/SVG/1.1/DTD/svg11.dtd">
<svg version="1.1" id="Layer_1" xmlns="http://www.w3.org/2000/svg" xmlns:xlink="http://www.w3.org/1999/xlink" x="0px" y="0px"
	 width="250px" height="250px" viewBox="0 0 250 250" enable-background="new 0 0 250 250" xml:space="preserve">
<g>
	<polygon fill="#2E368F" points="0,19.686 0,151.973 37.242,230.314 250,129.507 198.209,19.686 	"/>
	<g>
		<g>
			<path fill-rule="evenodd" clip-rule="evenodd" fill="#FFFFFF" d="M185.498,108.308v5.942h-9.249l-1.359-3.478
				c0,0-0.971,1.308-2.38,2.196c-1.004,0.636-1.943,1.271-3.331,1.609c-7.424,0.624-10.733-2.869-11.424-8.975
				c-0.056-9.033,6.479-11.47,15.504-11.428c0.65-1.549,0.438-5.659,0-6.997c-3.085-2.425-11.972,0.541-11.972,0.541l-1.631-4.895
				c0,0,7.177-3.648,13.055-2.991c5.884,0.651,8.981,5.981,8.981,5.981v22.492H185.498z M173.8,99.89
				c0.076-0.526,0.055-0.523-0.815-0.815c-1.627-0.554-5.349,0.518-7.073,2.176c-1.722,1.657-0.764,7.441,2.449,7.614
				c2.61-0.021,4.107-1.149,5.439-2.449C173.8,104.243,173.8,102.064,173.8,99.89z"/>
			<path fill-rule="evenodd" clip-rule="evenodd" fill="#FFFFFF" d="M157.301,114.25h-11.053V88.483c0,0-0.772-1.7-3.794-1.907
				c-3.772-0.256-5.185,2.723-5.185,2.723v19.009h4.086v5.942H125.03v-5.942h4.08V87.665h-4.08v-6.258h9.797l1.356,2.996
				c0,0,1.898-4.417,8.924-3.812c6.468,0.557,8.488,7.344,8.488,7.344v20.372h3.705V114.25z"/>
			<path fill-rule="evenodd" clip-rule="evenodd" fill="#FFFFFF" d="M103.825,113.976c-4.457-0.757-3.21-2.734-3.256-2.957
				c-0.042-0.225,5.324-21.583,5.324-21.583s-4.378,0.694-4.433-0.59c-0.052-1.217,12.413-1.181,12.413-1.181
				s-4.664,17.978-5.616,22.761c3.131-0.624,5.035-3.247,7.101-5.318c0.584-0.496,0.712-0.679,1.053-0.223
				c0.48,0.643,0.128,0.813,0.128,0.813s-1.855,2.668-4.533,4.99l12.607-5.909c0,0-7.393-19.039-8.345-20.627
				c-4.135,2.471-9.23,0.066-9.301-4.789c-2.151,0.801-22.465,9.937-22.465,9.937l12.705,28.039l7.095-3.328
				C104.142,113.994,103.983,114,103.825,113.976z"/>
			<polygon fill-rule="evenodd" clip-rule="evenodd" fill="#FFFFFF" points="85.613,114.25 77.995,114.25 70.939,103.809 
				64.167,114.25 55.989,114.25 55.989,108.308 59.09,108.308 65.579,98.168 59.09,87.443 55.989,87.443 55.989,81.52 63.888,81.52 
				70.939,91.958 77.149,81.52 85.613,81.52 85.613,87.443 81.898,87.443 75.454,98.168 81.898,108.308 85.613,108.308 			"/>
			<path fill-rule="evenodd" clip-rule="evenodd" fill="#FFFFFF" d="M54.161,108.308v5.942H37.023v-5.942h4.351V87.774h-4.351V81.52
				h4.082c0,0,0.526,2.258,3.003,3.538c2.477,1.278,5.157,0.542,5.157,0.542v22.708H54.161z"/>
			<circle fill-rule="evenodd" clip-rule="evenodd" fill="#FFFFFF" cx="112.555" cy="80.163" r="3.345"/>
			<path fill-rule="evenodd" clip-rule="evenodd" fill="#FFFFFF" d="M50.005,80.272c0,1.847-1.497,3.344-3.344,3.344
				c-1.844,0-3.344-1.497-3.344-3.344c0-1.844,1.5-3.344,3.344-3.344C48.508,76.929,50.005,78.429,50.005,80.272z"/>
			<path fill="none" stroke="#FFFFFF" stroke-width="0.25" stroke-miterlimit="10" d="M186.231,78.623
				c0,1.333-1.08,2.413-2.413,2.413c-1.332,0-2.409-1.08-2.409-2.413c0-1.329,1.077-2.409,2.409-2.409
				C185.151,76.214,186.231,77.294,186.231,78.623z"/>
			<g>
				<g>
					<path fill="#FFFFFF" d="M184.558,80.184l-0.186-0.383c-0.282-0.578-0.502-0.867-0.653-0.867h-0.42v1.25h-0.447v-3.105h1.144
						c0.253,0,0.456,0.097,0.608,0.295c0.137,0.176,0.204,0.393,0.204,0.642c0,0.243-0.061,0.45-0.188,0.624
						c-0.076,0.104-0.168,0.183-0.274,0.237c0.116,0.143,0.256,0.386,0.426,0.727l0.293,0.581H184.558z M183.995,78.525
						c0.109,0,0.198-0.042,0.265-0.131c0.067-0.094,0.104-0.222,0.104-0.38c0-0.146-0.024-0.265-0.076-0.353
						c-0.063-0.119-0.161-0.177-0.292-0.177h-0.696v1.04H183.995z"/>
				</g>
			</g>
		</g>
		<g>
			<path fill="#FFFFFF" d="M63.55,122.894c0.508,0.322,0.764,0.764,0.764,1.32v0.347H63.61v-0.393c0-0.305-0.149-0.551-0.441-0.736
				c-0.304-0.191-0.681-0.286-1.132-0.286c-0.423,0-0.778,0.082-1.07,0.247c-0.338,0.188-0.505,0.446-0.505,0.775v3.554
				c0,0.328,0.167,0.587,0.505,0.775c0.292,0.164,0.647,0.247,1.07,0.247c0.42,0,0.776-0.083,1.068-0.247
				c0.335-0.188,0.505-0.447,0.505-0.775v-1.451h-1.923v-0.648h2.626v2.054c0,0.56-0.256,1.001-0.764,1.32
				c-0.42,0.265-0.925,0.396-1.513,0.396c-0.59,0-1.098-0.131-1.515-0.396c-0.508-0.319-0.764-0.761-0.764-1.32v-3.462
				c0-0.557,0.256-0.998,0.764-1.32c0.417-0.265,0.925-0.396,1.515-0.396C62.625,122.498,63.13,122.629,63.55,122.894z"/>
			<path fill="#FFFFFF" d="M68.211,122.564h3.757v0.648h-3.055v2.373h2.58v0.647h-2.58v2.419h3.055v0.648h-3.757V122.564z"/>
			<path fill="#FFFFFF" d="M79.321,129.301c-0.624-1.166-1.013-1.856-1.162-2.075c-0.341-0.483-0.648-0.728-0.922-0.728h-1.132v2.8
				h-0.703v-6.736h2.477c0.533,0,0.956,0.204,1.272,0.614c0.289,0.375,0.435,0.828,0.435,1.357c0,0.514-0.137,0.952-0.407,1.317
				c-0.204,0.273-0.46,0.462-0.77,0.565c0.268,0.295,0.836,1.257,1.703,2.885H79.321z M77.879,125.851
				c0.311,0,0.554-0.122,0.73-0.365c0.183-0.243,0.274-0.56,0.274-0.952c0-0.371-0.083-0.679-0.244-0.919
				c-0.186-0.271-0.438-0.404-0.761-0.404h-1.773v2.641H77.879z"/>
			<path fill="#FFFFFF" d="M88.135,129.301v-4.637l-1.795,4.637h-0.48l-1.792-4.637v4.637h-0.702v-6.736h0.59l2.145,5.522
				l2.146-5.522h0.593v6.736H88.135z"/>
			<path fill="#FFFFFF" d="M93.45,127.481l-0.581,1.819h-0.736l2.151-6.736h0.48l2.147,6.736H96.18l-0.584-1.819H93.45z
				 M95.386,126.806c-0.43-1.345-0.716-2.318-0.861-2.918c-0.144,0.6-0.429,1.573-0.861,2.918H95.386z"/>
			<path fill="#FFFFFF" d="M100.773,122.564l2.881,5.147v-5.156h0.703v6.745h-0.551l-2.894-5.166v5.156h-0.702v-6.727H100.773z"/>
			<path fill="#FFFFFF" d="M117.692,122.564l-2.276,2.799l2.337,3.938h-0.815l-1.992-3.362l-0.801,0.977v2.383h-0.702v-6.736h0.702
				v3.249l2.641-3.246H117.692z"/>
			<path fill="#FFFFFF" d="M121.14,122.564h0.702v6.736h-0.702V122.564z"/>
			<path fill="#FFFFFF" d="M129.481,122.564v0.648h-1.701v6.088h-0.702v-6.088h-1.707v-0.648H129.481z"/>
			<path fill="#FFFFFF" d="M136.707,122.894c0.508,0.322,0.764,0.764,0.764,1.32v0.347h-0.703v-0.393
				c0-0.305-0.148-0.551-0.44-0.736c-0.305-0.191-0.682-0.286-1.132-0.286c-0.423,0-0.779,0.082-1.071,0.247
				c-0.338,0.188-0.505,0.446-0.505,0.775v3.554c0,0.328,0.167,0.587,0.505,0.775c0.292,0.164,0.648,0.247,1.071,0.247
				c0.42,0,0.775-0.083,1.067-0.247c0.335-0.188,0.505-0.447,0.505-0.775v-0.393h0.703v0.347c0,0.56-0.256,1.001-0.764,1.32
				c-0.42,0.265-0.925,0.396-1.512,0.396c-0.591,0-1.099-0.131-1.516-0.396c-0.508-0.319-0.764-0.761-0.764-1.32v-3.462
				c0-0.557,0.256-0.998,0.764-1.32c0.417-0.265,0.925-0.396,1.516-0.396C135.782,122.498,136.287,122.629,136.707,122.894z"/>
			<path fill="#FFFFFF" d="M144.955,122.564h0.7v6.736h-0.7v-3.067h-2.888v3.067h-0.702v-6.736h0.702v3.021h2.888V122.564z"/>
			<path fill="#FFFFFF" d="M149.556,122.564h3.757v0.648h-3.055v2.373h2.58v0.647h-2.58v2.419h3.055v0.648h-3.757V122.564z"/>
			<path fill="#FFFFFF" d="M157.313,122.564l2.878,5.147v-5.156h0.703v6.745h-0.548l-2.896-5.166v5.156h-0.703v-6.727H157.313z"/>
		</g>
	</g>
</g>
</svg>
