<?xml version="1.0" encoding="utf-8"?>
<!-- Generator: Adobe Illustrator 16.0.0, SVG Export Plug-In . SVG Version: 6.00 Build 0)  -->
<!DOCTYPE svg PUBLIC "-//W3C//DTD SVG 1.1//EN" "http://www.w3.org/Graphics/SVG/1.1/DTD/svg11.dtd">
<svg version="1.1" id="Layer_1" xmlns="http://www.w3.org/2000/svg" xmlns:xlink="http://www.w3.org/1999/xlink" x="0px" y="0px"
	 width="250px" height="250px" viewBox="0 0 250 250" enable-background="new 0 0 250 250" xml:space="preserve">
<g>
	<polygon fill="#034EA1" points="43.382,138.585 35.755,138.585 35.755,139.682 38.94,139.682 38.94,148.097 40.196,148.097 
		40.196,139.682 43.382,139.682 	"/>
	<path fill="#034EA1" d="M55.384,138.363c-2.759,0-4.533,1.908-4.533,4.877c0,2.759,1.509,5.085,4.548,5.085
		c3.01,0,4.542-2.277,4.542-5.062C59.94,140.433,58.33,138.363,55.384,138.363 M55.384,139.46c2.012,0,3.307,1.521,3.307,3.87
		c0,2.361-1.295,3.911-3.278,3.911c-2.017,0-3.31-1.533-3.31-3.911C52.103,141.298,53.145,139.46,55.384,139.46"/>
	<path fill="#034EA1" d="M68.381,138.585v5.798c0,2.635,1.08,3.91,3.827,3.91c2.88,0,3.829-1.371,3.829-4.04v-5.668h-1.264v5.997
		c0,1.752-0.644,2.675-2.565,2.675c-1.827,0-2.557-0.846-2.557-2.675v-5.997H68.381z"/>
	<path fill="#034EA1" d="M85.012,138.585v9.512h1.253v-4.118h2.49c1.723,0,2.136,0.413,2.213,2.02
		c0.029,0.554,0.018,1.616,0.323,2.098h1.443c-0.508-0.505-0.508-1.472-0.549-2.228c-0.052-1.151-0.106-2.058-1.442-2.337
		c0.973-0.28,1.628-1.203,1.628-2.312c0-2.04-1.403-2.635-3.187-2.635H85.012z M86.265,139.662h2.695
		c1.116,0,2.161,0.222,2.161,1.636c0,1.567-1.27,1.685-2.496,1.685h-2.36V139.662z"/>
	<rect x="101.132" y="138.585" fill="#034EA1" width="1.258" height="9.512"/>
	<path fill="#034EA1" d="M118.184,141.379c-0.078-2.037-1.466-2.978-3.48-2.978c-1.705,0-3.439,0.762-3.439,2.71
		c0,2.008,1.777,2.259,3.31,2.605c1.559,0.364,2.757,0.598,2.757,1.83c0,1.354-1.25,1.74-2.358,1.74
		c-1.521,0-2.772-0.606-2.825-2.329h-1.215c0,2.3,1.668,3.35,3.934,3.35c1.813,0,3.693-0.771,3.693-2.886
		c0-1.997-1.971-2.479-3.521-2.796c-1.466-0.314-2.574-0.537-2.574-1.604c0-1.001,0.788-1.578,2.145-1.578
		c1.405,0,2.222,0.56,2.366,1.936H118.184z"/>
	<polygon fill="#034EA1" points="127.052,138.585 127.052,148.097 128.255,148.097 128.255,140.17 131.279,148.097 132.37,148.097 
		135.349,140.17 135.349,148.097 136.531,148.097 136.531,138.585 134.788,138.585 131.839,146.643 128.786,138.585 	"/>
	<polygon fill="#034EA1" points="162.535,147 157.494,147 157.494,138.585 156.244,138.585 156.244,148.097 162.535,148.097 	"/>
	<rect x="170.63" y="146.614" fill="#034EA1" width="1.478" height="1.483"/>
	<polygon fill="#034EA1" points="187.523,147 182.481,147 182.481,138.585 181.227,138.585 181.227,148.097 187.523,148.097 	"/>
	<rect x="195.615" y="146.614" fill="#034EA1" width="1.482" height="1.483"/>
	<path fill="#034EA1" d="M214.242,144.504h-1.249c-0.205,1.78-1.189,2.736-2.803,2.736c-1.974,0-3.183-1.478-3.183-3.893
		c0-2.009,0.94-3.887,3.194-3.887c1.417,0,2.43,0.745,2.71,1.985h1.252c-0.185-2.032-2.065-3.07-3.936-3.07
		c-2.915,0-4.493,2.254-4.493,4.978c0,3.05,1.699,4.972,4.403,4.972C212.485,148.325,214.032,146.922,214.242,144.504"/>
	<path fill="#0071BB" d="M78.551,155.707v5.705h2.222c0.895,0,1.38-0.162,1.85-0.632c0.618-0.615,0.8-1.466,0.8-2.317
		c0-0.915-0.294-1.683-0.84-2.17c-0.545-0.49-1.16-0.585-1.867-0.585H78.551z M79.54,156.555h1.114c1.247,0,1.77,0.785,1.77,1.959
		c0,1.169-0.37,2.058-1.709,2.058H79.54V156.555z"/>
	<path fill="#0071BB" d="M92.95,155.707h-1.001v3.368c0,0.972-0.164,1.627-1.305,1.627c-0.897,0-1.367-0.433-1.367-1.322v-3.673
		h-0.999v3.477c0,1.579,0.733,2.34,2.35,2.34c1.541,0,2.322-0.75,2.322-2.323V155.707z"/>
	<path fill="#0071BB" d="M98.093,155.707v5.705h2.906c1.062,0,1.795-0.672,1.795-1.686c0-0.736-0.418-1.223-1.064-1.379
		c0.476-0.196,0.811-0.649,0.811-1.209c0-0.846-0.614-1.431-1.847-1.431H98.093z M99.068,156.518h1.396
		c0.566,0,1.085,0.072,1.085,0.788c0,0.571-0.378,0.782-1.116,0.782h-1.365V156.518z M99.068,158.809h1.486
		c0.644,0,1.244,0.112,1.244,0.897c0,0.727-0.561,0.889-1.229,0.889h-1.501V158.809z"/>
	<path fill="#0071BB" d="M110.335,155.701h-1.065l-2.199,5.711h1.033l0.561-1.518h2.253l0.546,1.518h1.073L110.335,155.701z
		 M110.66,159.146h-1.739l0.886-2.407L110.66,159.146z"/>
	<rect x="117.078" y="155.707" fill="#0071BB" width="1.008" height="5.705"/>
	<path fill="#0071BB" d="M124.351,160.333h-1.088v1.08h0.52c-0.012,0.424-0.176,0.675-0.52,0.776v0.482
		c0.857-0.19,1.088-0.756,1.088-1.521V160.333z"/>
	<path fill="#0071BB" d="M140.369,155.707h-1.004v3.368c0,0.972-0.167,1.627-1.302,1.627c-0.895,0-1.364-0.433-1.364-1.322v-3.673
		h-1.002v3.477c0,1.579,0.736,2.34,2.35,2.34c1.538,0,2.322-0.75,2.322-2.323V155.707z"/>
	<rect x="145.489" y="160.333" fill="#0071BB" width="1.085" height="1.08"/>
	<path fill="#0071BB" d="M154.346,155.701h-1.065l-2.201,5.711h1.035l0.558-1.518h2.257l0.545,1.518h1.07L154.346,155.701z
		 M154.666,159.146h-1.74l0.889-2.407L154.666,159.146z"/>
	<rect x="161.049" y="160.333" fill="#0071BB" width="1.088" height="1.08"/>
	<polygon fill="#0071BB" points="171.403,155.707 167.3,155.707 167.3,161.412 171.446,161.412 171.446,160.555 168.289,160.555 
		168.289,158.873 171.178,158.873 171.178,158.062 168.289,158.062 168.289,156.552 171.403,156.552 	"/>
	<path fill="#034EA1" d="M86.275,125.346c-1.844,0.208-3.696,0.43-5.537,0.621c0.574,0.124,1.215,0.19,1.959,0.19
		C84.25,126.157,85.41,125.876,86.275,125.346"/>
	<path fill="#0071BB" d="M241.487,111.97c0-0.306-0.006-0.598-0.018-0.88c-0.912,0.297-1.824,0.58-2.741,0.88H241.487z"/>
	<path fill="#034EA1" d="M129.992,118.489v0.222c0.45-0.075,0.909-0.15,1.365-0.222H129.992z"/>
	<path fill="#034EA1" d="M28.685,129.888c-7.916,0.37-15.773,0.632-23.557,0.788c2.522,1.523,6.101,2.407,11.067,2.407
		C21.889,133.083,25.969,132.069,28.685,129.888"/>
	<path fill="#034EA1" d="M32.961,118.489c0-8.888-5.439-10.963-11.133-11.769c-7.491-1.042-12.418-0.577-12.418-6.172
		c0-4.21,1.982-5.596,6.849-5.596c4.285,0,6.461,1.097,6.721,4.845h8.896c-0.831-8.882-6.721-11.829-15.617-11.829
		c-10.109,0-15.742,4.334-15.742,12.637c0,9.174,5.887,11.653,11.453,12.288c5.25,0.635,12.161,0.635,12.161,5.881
		c0,5.018-2.436,7.035-7.745,7.035c-5.631,0-7.296-1.844-7.489-5.246H0c0,3.875,1.166,7.214,4.164,9.471
		c8.357-0.165,16.792-0.441,25.303-0.852C31.856,126.817,32.961,123.32,32.961,118.489"/>
	<path fill="#034EA1" d="M44.611,111.162c0-3.803,1.858-5.656,5.633-5.656c3.65,0.058,5.503,1.559,5.503,5.714v16.336
		c2.918-0.219,5.841-0.459,8.773-0.71v-16.547c0-7.327-3.781-11.999-11.974-11.999c-3.004,0-6.014,0.863-7.936,2.998V88.203h-8.768
		v40.657c2.909-0.159,5.833-0.332,8.768-0.522V111.162z"/>
	<path fill="#034EA1" d="M64.521,130.973v-3.463c-2.809,0.236-5.616,0.487-8.409,0.707c-0.119,0.002-0.24,0.011-0.364,0.02v3.48
		C58.659,131.49,61.585,131.235,64.521,130.973"/>
	<path fill="#2A4E9D" d="M64.521,132.624v-0.943c-2.936,0.265-5.861,0.514-8.773,0.741v0.202H64.521z"/>
	<path fill="#034EA1" d="M43.053,132.624c0.522-0.038,1.036-0.072,1.559-0.101v-3.506c-2.935,0.185-5.85,0.346-8.768,0.508v3.099
		H43.053z"/>
	<path fill="#034EA1" d="M83.517,133.172c1.663-0.19,3.339-0.398,5.01-0.603c2.979-0.728,5.189-2.104,6.644-4.202
		c-7.515,0.946-14.966,1.783-22.354,2.516c2.378,1.562,5.65,2.317,9.881,2.317C82.98,133.201,83.243,133.184,83.517,133.172"/>
	<path fill="#034EA1" d="M76.868,119.525v-7.384c0-4.205,1.218-6.635,5.829-6.635c4.605,0,5.821,2.43,5.821,6.635v7.384
		c0,2.222-0.344,3.937-1.343,5.073c3.287-0.372,6.586-0.765,9.896-1.171c0.179-1.074,0.277-2.234,0.277-3.5v-8.187
		c0-9.171-4.735-13.266-14.651-13.266c-9.924,0-14.662,4.326-14.662,13.266v8.187c0,2.563,0.387,4.715,1.134,6.504
		c3.351-0.306,6.715-0.638,10.089-0.984C77.442,124.439,76.868,122.396,76.868,119.525"/>
	<path fill="#034EA1" d="M71.979,130.263c7.817-0.773,15.707-1.645,23.663-2.658c0.583-1.022,1.017-2.188,1.293-3.506
		c-3.566,0.444-7.119,0.857-10.66,1.247c-0.865,0.531-2.025,0.811-3.578,0.811c-0.744,0-1.385-0.066-1.959-0.19
		c-3.78,0.404-7.544,0.768-11.295,1.114C70.069,128.35,70.927,129.4,71.979,130.263"/>
	<path fill="#034EA1" d="M109.956,129.671v-3.307c-2.932,0.418-5.854,0.828-8.767,1.221v3.351
		C104.102,130.531,107.024,130.107,109.956,129.671"/>
	<path fill="#034EA1" d="M109.956,113.185c0-5.079,4.482-7.096,10.179-6.409v-8.363c-4.672-0.687-8.958,1.385-10.496,3.749
		l-0.387-3.576h-8.063v24.313c2.918-0.378,5.835-0.768,8.767-1.174V113.185z"/>
	<path fill="#034EA1" d="M109.956,125.66v-3.27c-2.932,0.41-5.849,0.796-8.767,1.169v3.318
		C104.102,126.488,107.024,126.079,109.956,125.66"/>
	<path fill="#2A4E9D" d="M109.956,132.678v-2.147c-2.92,0.436-5.841,0.846-8.767,1.247v0.9H109.956z"/>
	<path fill="#034EA1" d="M134.064,125.738c-1.585-0.263-2.791-0.976-3.463-2.574c-2.949,0.496-5.873,0.952-8.793,1.411
		c0.317,1.134,0.759,2.153,1.33,3.042C126.761,127.014,130.405,126.388,134.064,125.738"/>
	<path fill="#034EA1" d="M126.904,130.996c7.497-1.307,15.072-2.724,22.723-4.274c0.416-0.961,0.679-2.029,0.788-3.221
		c-8.92,1.772-17.828,3.394-26.729,4.866C124.544,129.446,125.604,130.324,126.904,130.996"/>
	<path fill="#034EA1" d="M135.815,132.736c6.831,0,11.203-1.616,13.261-4.952c-6.859,1.388-13.716,2.681-20.559,3.89
		C130.532,132.384,132.95,132.736,135.815,132.736"/>
	<path fill="#034EA1" d="M150.476,122.18h-8.646c0,0.94-0.283,1.714-0.878,2.3c3.151-0.583,6.32-1.198,9.5-1.827
		C150.458,122.492,150.476,122.339,150.476,122.18"/>
	<path fill="#034EA1" d="M129.992,118.489h1.365c6.328-1.036,12.703-2.153,19.118-3.345v-3.405c0-9.171-4.738-13.266-14.66-13.266
		c-9.921,0-14.653,4.729-14.653,13.266v7.725c0,0.217,0.015,0.418,0.02,0.626c2.93-0.441,5.867-0.903,8.811-1.379V118.489z
		 M136.072,105.333c4.99,0,5.888,2.363,5.888,6.637h-11.968C129.992,107.875,130.89,105.333,136.072,105.333"/>
	<path fill="#034EA1" d="M150.476,115.814c-5.05,0.935-10.077,1.835-15.075,2.672h15.075V115.814z"/>
	<path fill="#034EA1" d="M130.361,122.472c-0.236-0.823-0.363-1.838-0.369-3.088c-2.935,0.476-5.869,0.938-8.79,1.379
		c0.063,1.134,0.199,2.179,0.425,3.143C124.526,123.444,127.441,122.968,130.361,122.472"/>
	<path fill="#0071BB" d="M161.964,132.035c2.112-0.473,4.239-0.972,6.366-1.475v-2.886c-3.475,0.805-6.949,1.599-10.418,2.361
		C158.922,130.984,160.25,131.628,161.964,132.035"/>
	<path fill="#0071BB" d="M155.177,121.695c2.905-0.592,5.812-1.198,8.738-1.827v-3.019c-2.93,0.615-5.858,1.224-8.768,1.798v1.512
		C155.147,120.694,155.156,121.202,155.177,121.695"/>
	<path fill="#0071BB" d="M168.33,132.624v-0.816c-1.013,0.233-2.018,0.47-3.033,0.704
		C166.231,132.581,167.236,132.624,168.33,132.624"/>
	<path fill="#0071BB" d="M168.33,126.589v-1.587c-1.446,0-2.427-0.193-3.1-0.661c-3.134,0.701-6.271,1.385-9.401,2.041
		c0.306,1.073,0.727,1.962,1.275,2.724C160.83,128.295,164.572,127.461,168.33,126.589"/>
	<path fill="#0071BB" d="M163.915,88.145h-8.768v26.134c2.909-0.56,5.838-1.143,8.768-1.731V88.145z"/>
	<path fill="#0071BB" d="M155.609,125.481c2.964-0.624,5.936-1.261,8.917-1.925c-0.384-0.661-0.557-1.596-0.589-2.857
		c-2.908,0.629-5.809,1.229-8.712,1.827C155.298,123.614,155.419,124.598,155.609,125.481"/>
	<path fill="#0071BB" d="M163.915,116.157v-2.955c-2.93,0.592-5.858,1.175-8.768,1.729v3.001
		C158.06,117.355,160.979,116.769,163.915,116.157"/>
	<path fill="#0071BB" d="M171.594,118.183c2.912-0.658,5.838-1.333,8.77-2.026v-2.9c-2.929,0.669-5.857,1.342-8.77,1.974V118.183z"
		/>
	<path fill="#0071BB" d="M180.363,123.721v-2.892c-2.929,0.707-5.85,1.414-8.77,2.086v2.929
		C174.5,125.155,177.432,124.442,180.363,123.721"/>
	<path fill="#0071BB" d="M180.363,119.897v-2.903c-2.926,0.687-5.85,1.374-8.77,2.029v2.949
		C174.506,121.303,177.432,120.604,180.363,119.897"/>
	<path fill="#0071BB" d="M180.363,112.547v-2.822c-2.929,0.646-5.857,1.298-8.77,1.919v2.863
		C174.506,113.875,177.432,113.211,180.363,112.547"/>
	<path fill="#0071BB" d="M181.001,91.721c0-5.826-9.918-5.884-9.918,0C171.083,97.547,181.001,97.489,181.001,91.721"/>
	<path fill="#0071BB" d="M180.363,99.333h-8.77v11.618c2.912-0.615,5.838-1.247,8.77-1.893V99.333z"/>
	<path fill="#0071BB" d="M171.594,129.792c2.912-0.692,5.835-1.419,8.77-2.158v-2.851c-2.929,0.724-5.855,1.457-8.77,2.141V129.792z
		"/>
	<path fill="#0071BB" d="M171.594,132.678h8.244c0.177-0.043,0.35-0.089,0.525-0.138v-3.685c-2.929,0.739-5.855,1.48-8.77,2.185
		V132.678z"/>
	<path fill="#0071BB" d="M215.602,107.128c-0.205-0.892-0.465-1.708-0.788-2.444c-2.966,0.805-5.918,1.57-8.87,2.334
		c0.56,0.603,0.946,1.411,1.177,2.413C209.937,108.675,212.762,107.918,215.602,107.128"/>
	<path fill="#0071BB" d="M195.595,112.443v-1.053c0-0.667,0.081-1.25,0.199-1.795c-2.999,0.742-5.985,1.466-8.969,2.17v2.848
		C189.739,113.904,192.66,113.185,195.595,112.443"/>
	<path fill="#0071BB" d="M186.825,111.044c3.053-0.719,6.111-1.455,9.185-2.213c0.869-2.413,3.054-3.325,5.668-3.325
		c1.495,0,2.701,0.323,3.63,0.979c3.06-0.788,6.139-1.604,9.221-2.433c-0.422-0.823-0.9-1.547-1.455-2.17
		c-8.824,2.297-17.568,4.421-26.248,6.407V111.044z"/>
	<path fill="#0071BB" d="M203.79,98.358c-3.206,0-6.53,1.151-8.899,3.688l-0.444-3.46h-7.616v9.024
		c8.487-1.945,17.056-4.04,25.689-6.28C210.193,99.12,207.014,98.329,203.79,98.358"/>
	<path fill="#0071BB" d="M207.368,125.06c2.895-0.846,5.789-1.708,8.71-2.594v-3.426c-2.906,0.869-5.81,1.697-8.71,2.528V125.06z"/>
	<path fill="#0071BB" d="M207.368,117.649v2.721c2.895-0.819,5.795-1.659,8.71-2.522v-2.681
		C213.175,116.016,210.271,116.833,207.368,117.649"/>
	<path fill="#0071BB" d="M207.368,129.083c2.895-0.863,5.789-1.729,8.71-2.634v-3.411c-2.906,0.883-5.81,1.726-8.71,2.571V129.083z"
		/>
	<path fill="#0071BB" d="M207.368,111.682v1.25c2.883-0.793,5.769-1.59,8.666-2.416c-0.04-0.926-0.124-1.798-0.263-2.597
		c-2.833,0.791-5.664,1.538-8.492,2.297C207.34,110.666,207.368,111.153,207.368,111.682"/>
	<path fill="#0071BB" d="M207.368,132.624h1.899c2.263-0.692,4.527-1.382,6.811-2.098v-3.362c-2.906,0.889-5.81,1.752-8.71,2.612
		V132.624z"/>
	<path fill="#0071BB" d="M186.825,125.972c2.914-0.753,5.835-1.523,8.77-2.323v-2.776c-2.924,0.779-5.85,1.573-8.77,2.317V125.972z"
		/>
	<path fill="#0071BB" d="M216.078,132.624v-1.14c-1.221,0.384-2.441,0.759-3.656,1.14H216.078z"/>
	<path fill="#0071BB" d="M207.368,116.596c2.895-0.811,5.795-1.631,8.71-2.482v-2.49c0-0.066-0.009-0.127-0.009-0.193
		c-2.897,0.831-5.801,1.627-8.701,2.418V116.596z"/>
	<path fill="#0071BB" d="M186.825,132.624h8.403c0.121-0.038,0.245-0.078,0.366-0.112v-3.547c-2.927,0.811-5.853,1.633-8.77,2.407
		V132.624z"/>
	<path fill="#0071BB" d="M186.825,130.834c2.914-0.779,5.832-1.579,8.77-2.39v-3.581c-2.924,0.796-5.85,1.602-8.77,2.358V130.834z"
		/>
	<path fill="#0071BB" d="M186.825,122.093c2.914-0.742,5.835-1.503,8.77-2.28v-2.808c-2.924,0.762-5.847,1.538-8.77,2.262V122.093z"
		/>
	<path fill="#0071BB" d="M195.595,116.08v-2.811c-2.924,0.742-5.847,1.489-8.77,2.196v2.842
		C189.739,117.58,192.66,116.841,195.595,116.08"/>
	<path fill="#0071BB" d="M240.143,106.75c2.721-0.875,5.437-1.743,8.172-2.646c-0.424-0.753-0.932-1.431-1.521-2.026
		c-3.472,1.114-6.929,2.213-10.389,3.284C238.197,105.466,239.378,105.939,240.143,106.75"/>
	<path fill="#0071BB" d="M221.884,105.344c6.678-1.907,13.401-3.91,20.178-6.008c-1.564-0.474-3.362-0.75-5.399-0.831
		c-4.219,1.25-8.418,2.461-12.6,3.636C223.153,103.05,222.421,104.118,221.884,105.344"/>
	<path fill="#0071BB" d="M241.389,109.938c2.704-0.883,5.411-1.775,8.135-2.695c-0.198-0.825-0.461-1.576-0.771-2.277
		c-2.669,0.886-5.341,1.778-8.002,2.632C241.089,108.25,241.285,109.03,241.389,109.938"/>
	<path fill="#0071BB" d="M220.687,112.752c2.964-0.877,5.938-1.777,8.926-2.698c0.127-1.157,0.415-2.142,0.976-2.897
		c-3.284,0.993-6.557,1.957-9.835,2.909c-0.041,0.542-0.066,1.097-0.066,1.671V112.752z"/>
	<path fill="#0071BB" d="M220.862,109.113c8.314-2.418,16.715-4.984,25.198-7.705c-0.79-0.649-1.693-1.195-2.735-1.619
		c-7.278,2.265-14.55,4.418-21.811,6.487C221.215,107.157,220.995,108.1,220.862,109.113"/>
	<path fill="#0071BB" d="M241.487,111.97h-2.759c-6.028,1.965-12.046,3.85-18.042,5.67v1.824c0,0.534,0.018,1.051,0.049,1.553
		c9.609-2.999,19.357-6.196,29.253-9.639c-0.021-1.097-0.104-2.124-0.263-3.073c-2.753,0.932-5.509,1.881-8.256,2.785
		C241.481,111.373,241.487,111.664,241.487,111.97"/>
	<path fill="#0071BB" d="M250,118.489v-2.525c-2.406,0.843-4.813,1.706-7.212,2.525H250z"/>
	<path fill="#0071BB" d="M225.324,101.068c2.952-0.834,5.912-1.691,8.885-2.563C230.458,98.655,227.497,99.518,225.324,101.068"/>
	<path fill="#0071BB" d="M229.779,122.07c-0.17-0.756-0.266-1.65-0.266-2.718v-0.5c-2.914,0.935-5.817,1.827-8.724,2.727
		c0.104,1.16,0.309,2.222,0.598,3.192C224.172,123.894,226.972,122.991,229.779,122.07"/>
	<path fill="#0071BB" d="M223.14,128.272c2.986-0.961,5.987-1.957,8.997-2.964c-0.983-0.456-1.731-1.241-2.167-2.551
		c-2.802,0.915-5.593,1.792-8.386,2.667C221.974,126.503,222.499,127.438,223.14,128.272"/>
	<path fill="#0071BB" d="M220.687,116.46c4.793-1.446,9.612-2.935,14.469-4.49h-5.642c0-0.289,0.009-0.563,0.018-0.837
		c-2.952,0.912-5.904,1.786-8.845,2.661V116.46z"/>
	<path fill="#0071BB" d="M240.509,118.489c3.151-1.08,6.314-2.165,9.491-3.281v-3.189c-6.479,2.234-12.937,4.401-19.366,6.47
		H240.509z"/>
	<path fill="#0071BB" d="M235.47,125.874c-0.617,0-1.191-0.035-1.731-0.113c-0.762,0.251-1.526,0.52-2.291,0.776
		c-2.563,0.851-5.107,1.668-7.656,2.49c0.84,0.883,1.864,1.599,3.06,2.165c7.604-2.522,15.306-5.191,23.104-8.002
		c0.025-0.329,0.046-0.661,0.046-1.01h-5.826c-0.99,0.346-1.982,0.707-2.97,1.044C240.726,124.927,238.965,125.874,235.47,125.874"
		/>
	<path fill="#0071BB" d="M239.198,132.528c3.27-0.369,5.777-1.258,7.55-2.678c-1.368,0.49-2.733,0.99-4.093,1.475
		C241.498,131.729,240.353,132.122,239.198,132.528"/>
	<path fill="#0071BB" d="M228.452,131.813c1.766,0.566,3.838,0.857,6.219,0.9c4.605-1.578,9.237-3.206,13.912-4.9
		c0.617-0.984,1.019-2.127,1.232-3.408c-4.3,1.553-8.582,3.074-12.836,4.54C234.131,129.928,231.295,130.869,228.452,131.813"/>
	<path fill="#2A4E9D" d="M44.611,132.522c-0.522,0.029-1.039,0.063-1.559,0.101h1.559V132.522z"/>
	<path fill="#034EA1" d="M140.952,124.48c-2.303,0.43-4.597,0.849-6.888,1.258c0.577,0.101,1.209,0.136,1.881,0.136
		C138.447,125.874,140.058,125.38,140.952,124.48"/>
	<path fill="#2A4E9D" d="M83.517,133.172c1.861-0.046,3.532-0.24,5.01-0.603C86.855,132.773,85.18,132.981,83.517,133.172"/>
	<path fill="#0071BB" d="M235.597,105.333c-2.62,0-4.144,0.655-5.009,1.824c1.936-0.586,3.878-1.195,5.817-1.795
		C236.143,105.344,235.88,105.333,235.597,105.333"/>
	<path fill="#0071BB" d="M229.514,118.489v0.363c0.372-0.118,0.748-0.248,1.12-0.363H229.514z"/>
	<path fill="#0071BB" d="M180.363,132.678v-0.138c-0.176,0.049-0.349,0.095-0.528,0.138H180.363z"/>
	<path fill="#0071BB" d="M195.595,132.624v-0.112c-0.121,0.035-0.245,0.075-0.366,0.112H195.595z"/>
	<path fill="#0071BB" d="M241.204,123.225c0.987-0.337,1.979-0.698,2.97-1.044h-2.819
		C241.354,122.561,241.3,122.904,241.204,123.225"/>
</g>
</svg>
