<?xml version="1.0" encoding="utf-8"?>
<!-- Generator: Adobe Illustrator 16.0.0, SVG Export Plug-In . SVG Version: 6.00 Build 0)  -->
<!DOCTYPE svg PUBLIC "-//W3C//DTD SVG 1.1//EN" "http://www.w3.org/Graphics/SVG/1.1/DTD/svg11.dtd">
<svg version="1.1" id="Layer_1" xmlns="http://www.w3.org/2000/svg" xmlns:xlink="http://www.w3.org/1999/xlink" x="0px" y="0px"
	 width="250px" height="250px" viewBox="0 0 250 250" enable-background="new 0 0 250 250" xml:space="preserve">
<g>
	<rect y="91.112" fill="#89181B" width="250" height="67.776"/>
	<g>
		<g>
			<g>
				<path fill="#FFFFFF" d="M61.276,114.729v2.171h-0.18c-0.135-0.566-0.389-1-0.759-1.302c-0.369-0.302-0.786-0.452-1.254-0.452
					c-0.391,0-0.75,0.112-1.076,0.336c-0.326,0.226-0.564,0.521-0.717,0.883c-0.192,0.464-0.29,0.983-0.29,1.552
					c0,0.56,0.071,1.071,0.212,1.531c0.143,0.459,0.364,0.807,0.665,1.042c0.301,0.236,0.694,0.354,1.173,0.354
					c0.395,0,0.754-0.088,1.083-0.259c0.328-0.174,0.673-0.469,1.036-0.89v0.538c-0.35,0.366-0.715,0.633-1.096,0.797
					c-0.379,0.164-0.824,0.248-1.331,0.248c-0.669,0-1.262-0.133-1.78-0.402c-0.521-0.269-0.919-0.652-1.202-1.154
					c-0.281-0.502-0.421-1.036-0.421-1.602c0-0.598,0.154-1.164,0.466-1.7c0.314-0.536,0.736-0.95,1.267-1.247
					c0.531-0.295,1.095-0.443,1.692-0.443c0.44,0,0.904,0.095,1.395,0.286c0.282,0.112,0.463,0.167,0.539,0.167
					c0.1,0,0.185-0.033,0.258-0.107c0.072-0.074,0.12-0.188,0.141-0.345H61.276z"/>
				<path fill="#FFFFFF" d="M65.728,119.352h-2.212l-0.262,0.609c-0.088,0.202-0.131,0.371-0.131,0.502
					c0,0.176,0.071,0.305,0.212,0.388c0.083,0.05,0.288,0.086,0.614,0.112v0.169h-2.082v-0.169c0.226-0.033,0.408-0.128,0.556-0.278
					c0.144-0.155,0.321-0.469,0.533-0.945l2.24-4.997h0.088l2.257,5.134c0.217,0.486,0.393,0.793,0.53,0.919
					c0.107,0.098,0.254,0.15,0.444,0.167v0.169h-3.029v-0.169h0.124c0.243,0,0.415-0.033,0.515-0.102
					c0.067-0.048,0.1-0.119,0.1-0.212c0-0.055-0.007-0.112-0.026-0.171c-0.006-0.029-0.052-0.143-0.138-0.345L65.728,119.352z
					 M65.57,119.009l-0.934-2.154l-0.959,2.154H65.57z"/>
				<path fill="#FFFFFF" d="M73.129,119.001l1.698-4.129h2.549v0.171h-0.203c-0.185,0-0.332,0.033-0.444,0.097
					c-0.074,0.043-0.138,0.117-0.183,0.217c-0.035,0.074-0.051,0.267-0.051,0.576v4.13c0,0.319,0.016,0.519,0.051,0.6
					c0.033,0.081,0.102,0.15,0.207,0.209c0.104,0.06,0.244,0.09,0.42,0.09h0.203v0.169h-3.268v-0.169h0.202
					c0.185,0,0.331-0.031,0.442-0.098c0.076-0.042,0.14-0.116,0.186-0.221c0.033-0.074,0.049-0.269,0.049-0.581v-4.642l-2.397,5.71
					h-0.112l-2.438-5.67v4.411c0,0.307,0.007,0.497,0.022,0.569c0.04,0.152,0.128,0.278,0.261,0.376
					c0.134,0.095,0.346,0.145,0.631,0.145v0.169h-2.143v-0.169h0.064c0.139,0.002,0.267-0.021,0.389-0.066
					c0.12-0.05,0.21-0.112,0.271-0.193c0.063-0.079,0.11-0.193,0.146-0.338c0.005-0.034,0.007-0.19,0.007-0.469v-3.963
					c0-0.314-0.015-0.514-0.05-0.593s-0.104-0.147-0.207-0.207c-0.104-0.06-0.245-0.09-0.421-0.09h-0.198v-0.171h2.56
					L73.129,119.001z"/>
				<path fill="#FFFFFF" d="M81.754,117.814c0.594,0.138,1.01,0.307,1.249,0.504c0.346,0.279,0.52,0.641,0.52,1.088
					c0,0.471-0.19,0.862-0.569,1.169c-0.467,0.371-1.14,0.557-2.026,0.557h-3.182v-0.169c0.289,0,0.485-0.028,0.588-0.081
					c0.104-0.055,0.176-0.124,0.218-0.211c0.042-0.083,0.063-0.298,0.063-0.636v-4.063c0-0.338-0.021-0.552-0.063-0.638
					c-0.042-0.088-0.115-0.159-0.22-0.212c-0.105-0.052-0.3-0.078-0.586-0.078v-0.171h3.002c0.718,0,1.225,0.064,1.523,0.192
					c0.299,0.126,0.533,0.319,0.707,0.571c0.172,0.255,0.259,0.524,0.259,0.812c0,0.3-0.111,0.571-0.328,0.804
					C82.687,117.488,82.305,117.676,81.754,117.814z M80.072,118.049v2.009l-0.005,0.229c0,0.167,0.044,0.292,0.127,0.378
					c0.085,0.083,0.211,0.126,0.376,0.126c0.248,0,0.474-0.055,0.683-0.164c0.207-0.109,0.366-0.267,0.477-0.474
					c0.111-0.209,0.167-0.44,0.167-0.695c0-0.295-0.068-0.554-0.203-0.788c-0.138-0.233-0.323-0.395-0.559-0.488
					C80.896,118.09,80.544,118.045,80.072,118.049z M80.072,117.69c0.437,0,0.76-0.05,0.967-0.147
					c0.208-0.1,0.367-0.238,0.479-0.417c0.11-0.179,0.165-0.407,0.165-0.683c0-0.276-0.053-0.505-0.162-0.681
					c-0.109-0.179-0.267-0.312-0.469-0.405c-0.204-0.093-0.53-0.138-0.979-0.133V117.69z"/>
				<path fill="#FFFFFF" d="M86.365,118.28v1.754c0,0.338,0.021,0.552,0.063,0.64c0.04,0.086,0.114,0.157,0.219,0.209
					c0.103,0.05,0.3,0.079,0.586,0.079v0.169h-3.204v-0.169c0.289,0,0.485-0.028,0.589-0.081c0.103-0.055,0.175-0.124,0.216-0.211
					c0.043-0.083,0.064-0.298,0.064-0.636v-4.063c0-0.338-0.021-0.552-0.064-0.638c-0.041-0.088-0.114-0.159-0.218-0.212
					c-0.106-0.052-0.302-0.078-0.587-0.078v-0.171h2.907c0.759,0,1.313,0.052,1.663,0.157c0.352,0.105,0.638,0.3,0.859,0.581
					c0.223,0.281,0.332,0.612,0.332,0.99c0,0.461-0.166,0.842-0.498,1.145c-0.213,0.19-0.511,0.336-0.893,0.429l1.507,2.119
					c0.196,0.276,0.337,0.445,0.42,0.514c0.126,0.096,0.271,0.148,0.438,0.157v0.169h-1.971l-2.018-2.852H86.365z M86.365,115.21
					v2.742h0.264c0.427,0,0.747-0.038,0.961-0.117c0.21-0.079,0.379-0.222,0.5-0.426s0.181-0.471,0.181-0.8
					c0-0.479-0.109-0.831-0.333-1.059c-0.224-0.226-0.583-0.34-1.078-0.34H86.365z"/>
				<path fill="#FFFFFF" d="M94.146,120.963v0.169h-3.273v-0.169h0.206c0.183,0,0.327-0.031,0.439-0.098
					c0.081-0.042,0.141-0.116,0.185-0.221c0.034-0.074,0.053-0.269,0.053-0.581v-4.121c0-0.319-0.019-0.519-0.053-0.6
					c-0.033-0.079-0.103-0.15-0.206-0.209c-0.103-0.06-0.24-0.09-0.418-0.09h-0.206v-0.171h3.273v0.171h-0.21
					c-0.181,0-0.326,0.033-0.438,0.097c-0.08,0.043-0.143,0.117-0.189,0.222c-0.033,0.074-0.051,0.267-0.051,0.581v4.121
					c0,0.319,0.018,0.519,0.055,0.6c0.034,0.081,0.103,0.15,0.207,0.209c0.103,0.06,0.242,0.09,0.416,0.09H94.146z"/>
				<path fill="#FFFFFF" d="M94.485,121.132v-0.169h0.209c0.182,0,0.322-0.028,0.418-0.085c0.097-0.057,0.169-0.133,0.214-0.233
					c0.028-0.064,0.043-0.259,0.043-0.581v-4.121c0-0.319-0.02-0.519-0.05-0.6c-0.036-0.079-0.104-0.15-0.207-0.209
					c-0.105-0.06-0.243-0.09-0.418-0.09h-0.209v-0.171h2.804c0.748,0,1.35,0.102,1.804,0.305c0.559,0.25,0.979,0.628,1.268,1.13
					c0.288,0.507,0.434,1.078,0.434,1.714c0,0.44-0.071,0.847-0.214,1.216c-0.142,0.371-0.324,0.678-0.548,0.919
					c-0.226,0.243-0.486,0.436-0.778,0.583c-0.296,0.145-0.653,0.259-1.079,0.34c-0.188,0.036-0.482,0.052-0.886,0.052H94.485z
					 M96.873,115.229v4.884c0,0.259,0.012,0.417,0.038,0.474c0.022,0.06,0.064,0.105,0.124,0.136
					c0.082,0.045,0.202,0.069,0.36,0.069c0.515,0,0.906-0.174,1.176-0.526c0.37-0.474,0.556-1.209,0.556-2.207
					c0-0.805-0.126-1.445-0.381-1.926c-0.198-0.376-0.457-0.631-0.77-0.766C97.756,115.271,97.388,115.224,96.873,115.229z"/>
				<path fill="#FFFFFF" d="M107.713,114.729v2.207h-0.169c-0.207-0.602-0.517-1.062-0.928-1.376
					c-0.415-0.314-0.864-0.471-1.354-0.471c-0.467,0-0.857,0.133-1.167,0.395c-0.312,0.264-0.53,0.631-0.661,1.102
					c-0.129,0.472-0.193,0.955-0.193,1.45c0,0.6,0.07,1.126,0.212,1.581c0.143,0.45,0.371,0.783,0.686,0.995s0.69,0.321,1.124,0.321
					c0.152,0,0.306-0.019,0.464-0.05c0.159-0.033,0.321-0.078,0.489-0.14v-1.302c0-0.245-0.018-0.407-0.053-0.479
					c-0.032-0.071-0.104-0.138-0.209-0.197c-0.107-0.057-0.234-0.086-0.387-0.086h-0.161v-0.171h3.043v0.171
					c-0.23,0.015-0.393,0.045-0.48,0.093c-0.093,0.05-0.163,0.128-0.214,0.238c-0.026,0.06-0.041,0.202-0.041,0.431v1.302
					c-0.399,0.178-0.816,0.312-1.247,0.402c-0.434,0.09-0.881,0.138-1.346,0.138c-0.594,0-1.088-0.081-1.48-0.243
					c-0.394-0.162-0.739-0.374-1.039-0.638c-0.3-0.262-0.533-0.56-0.704-0.888c-0.215-0.426-0.322-0.899-0.322-1.428
					c0-0.94,0.331-1.735,0.993-2.385c0.66-0.65,1.492-0.976,2.496-0.976c0.313,0,0.591,0.026,0.841,0.074
					c0.136,0.026,0.354,0.095,0.656,0.212c0.305,0.114,0.485,0.171,0.541,0.171c0.086,0,0.164-0.031,0.238-0.093
					c0.073-0.064,0.142-0.183,0.204-0.359H107.713z"/>
				<path fill="#FFFFFF" d="M111.12,115.233v2.547h0.125c0.397,0,0.686-0.124,0.864-0.374c0.179-0.248,0.293-0.616,0.341-1.102
					h0.176v3.278h-0.176c-0.035-0.357-0.113-0.65-0.233-0.878c-0.117-0.229-0.255-0.381-0.412-0.459s-0.386-0.117-0.685-0.117v1.764
					c0,0.345,0.016,0.554,0.046,0.63c0.029,0.079,0.082,0.141,0.163,0.19c0.079,0.05,0.209,0.074,0.388,0.074h0.374
					c0.585,0,1.052-0.136,1.406-0.405c0.352-0.271,0.604-0.686,0.757-1.238h0.174l-0.283,1.987h-5.41v-0.169h0.207
					c0.184,0,0.328-0.031,0.44-0.098c0.078-0.042,0.139-0.116,0.185-0.221c0.032-0.074,0.051-0.269,0.051-0.581v-4.121
					c0-0.283-0.01-0.457-0.024-0.521c-0.031-0.107-0.087-0.19-0.171-0.25c-0.119-0.086-0.277-0.128-0.48-0.128h-0.207v-0.171h5.241
					v1.852h-0.178c-0.089-0.452-0.213-0.776-0.376-0.974c-0.161-0.197-0.389-0.343-0.684-0.436
					c-0.174-0.055-0.498-0.081-0.972-0.081H111.12z"/>
				<path fill="#FFFFFF" d="M120.679,120.963v0.169h-3.274v-0.169h0.206c0.184,0,0.33-0.031,0.44-0.098
					c0.081-0.042,0.142-0.116,0.185-0.221c0.034-0.074,0.051-0.269,0.051-0.581v-4.121c0-0.319-0.017-0.519-0.051-0.6
					c-0.034-0.079-0.104-0.15-0.205-0.209c-0.104-0.06-0.241-0.09-0.42-0.09h-0.206v-0.171h3.274v0.171h-0.21
					c-0.181,0-0.327,0.033-0.438,0.097c-0.078,0.043-0.142,0.117-0.189,0.222c-0.031,0.074-0.049,0.267-0.049,0.581v4.121
					c0,0.319,0.018,0.519,0.053,0.6c0.034,0.081,0.104,0.15,0.207,0.209c0.104,0.06,0.243,0.09,0.417,0.09H120.679z"/>
				<path fill="#FFFFFF" d="M123.248,114.872l3.091,3.884v-2.692c0-0.376-0.055-0.631-0.162-0.762
					c-0.149-0.179-0.396-0.264-0.743-0.259v-0.171h2.066v0.171c-0.264,0.036-0.441,0.078-0.531,0.133
					c-0.091,0.052-0.162,0.14-0.213,0.262c-0.051,0.121-0.076,0.331-0.076,0.626v5.213h-0.157l-4.233-5.213v3.98
					c0,0.359,0.082,0.602,0.247,0.728c0.163,0.129,0.354,0.19,0.565,0.19h0.146v0.169h-2.22v-0.169
					c0.346-0.002,0.586-0.074,0.72-0.214c0.136-0.138,0.204-0.374,0.204-0.705v-4.418l-0.134-0.167
					c-0.133-0.167-0.25-0.276-0.351-0.329c-0.102-0.052-0.249-0.081-0.439-0.088v-0.171H123.248z"/>
				<path fill="#FFFFFF" d="M133.687,114.872v1.694h-0.164c-0.099-0.39-0.208-0.671-0.328-0.842
					c-0.119-0.171-0.284-0.307-0.495-0.41c-0.117-0.055-0.32-0.081-0.612-0.081h-0.466v4.83c0,0.319,0.017,0.519,0.052,0.6
					c0.036,0.081,0.105,0.15,0.207,0.209c0.105,0.06,0.244,0.09,0.424,0.09h0.207v0.169h-3.277v-0.169h0.207
					c0.181,0,0.328-0.031,0.438-0.098c0.081-0.042,0.145-0.116,0.192-0.221c0.032-0.074,0.049-0.269,0.049-0.581v-4.83h-0.45
					c-0.424,0-0.729,0.088-0.921,0.267c-0.267,0.25-0.436,0.605-0.507,1.066h-0.176v-1.694H133.687z"/>
				<path fill="#FFFFFF" d="M136.605,115.233v2.547h0.125c0.398,0,0.687-0.124,0.862-0.374c0.18-0.248,0.295-0.616,0.344-1.102
					h0.174v3.278h-0.174c-0.036-0.357-0.115-0.65-0.234-0.878s-0.256-0.381-0.414-0.459c-0.157-0.079-0.383-0.117-0.683-0.117v1.764
					c0,0.345,0.015,0.554,0.045,0.63c0.029,0.079,0.083,0.141,0.164,0.19c0.079,0.05,0.21,0.074,0.388,0.074h0.374
					c0.586,0,1.052-0.136,1.405-0.405c0.353-0.271,0.605-0.686,0.76-1.238h0.17l-0.28,1.987h-5.413v-0.169h0.209
					c0.182,0,0.329-0.031,0.439-0.098c0.079-0.042,0.14-0.116,0.185-0.221c0.033-0.074,0.05-0.269,0.05-0.581v-4.121
					c0-0.283-0.007-0.457-0.023-0.521c-0.03-0.107-0.087-0.19-0.169-0.25c-0.118-0.086-0.278-0.128-0.481-0.128h-0.209v-0.171h5.241
					v1.852h-0.176c-0.088-0.452-0.215-0.776-0.376-0.974c-0.162-0.197-0.389-0.343-0.686-0.436
					c-0.172-0.055-0.495-0.081-0.971-0.081H136.605z"/>
				<path fill="#FFFFFF" d="M142.849,118.28v1.754c0,0.338,0.021,0.552,0.062,0.64c0.043,0.086,0.116,0.157,0.221,0.209
					c0.104,0.05,0.3,0.079,0.587,0.079v0.169h-3.205v-0.169c0.289,0,0.484-0.028,0.589-0.081c0.103-0.055,0.175-0.124,0.217-0.211
					c0.041-0.083,0.063-0.298,0.063-0.636v-4.063c0-0.338-0.021-0.552-0.063-0.638c-0.042-0.088-0.114-0.159-0.219-0.212
					c-0.105-0.052-0.301-0.078-0.587-0.078v-0.171h2.907c0.758,0,1.312,0.052,1.664,0.157c0.35,0.105,0.638,0.3,0.856,0.581
					c0.224,0.281,0.332,0.612,0.332,0.99c0,0.461-0.164,0.842-0.496,1.145c-0.212,0.19-0.511,0.336-0.893,0.429l1.507,2.119
					c0.195,0.276,0.336,0.445,0.42,0.514c0.125,0.096,0.271,0.148,0.438,0.157v0.169h-1.973l-2.018-2.852H142.849z M142.849,115.21
					v2.742h0.262c0.429,0,0.75-0.038,0.963-0.117c0.211-0.079,0.377-0.222,0.5-0.426c0.122-0.205,0.182-0.471,0.182-0.8
					c0-0.479-0.111-0.831-0.333-1.059c-0.224-0.226-0.584-0.34-1.079-0.34H142.849z"/>
				<path fill="#FFFFFF" d="M149.52,114.872l3.09,3.884v-2.692c0-0.376-0.055-0.631-0.161-0.762
					c-0.149-0.179-0.397-0.264-0.744-0.259v-0.171h2.067v0.171c-0.264,0.036-0.441,0.078-0.533,0.133
					c-0.091,0.052-0.161,0.14-0.212,0.262c-0.051,0.121-0.076,0.331-0.076,0.626v5.213h-0.156l-4.235-5.213v3.98
					c0,0.359,0.082,0.602,0.248,0.728c0.164,0.129,0.354,0.19,0.566,0.19h0.146v0.169h-2.22v-0.169
					c0.343-0.002,0.583-0.074,0.719-0.214c0.137-0.138,0.205-0.374,0.205-0.705v-4.418l-0.135-0.167
					c-0.132-0.167-0.249-0.276-0.352-0.329c-0.1-0.052-0.247-0.081-0.438-0.088v-0.171H149.52z"/>
				<path fill="#FFFFFF" d="M157.928,119.352h-2.211l-0.262,0.609c-0.089,0.202-0.131,0.371-0.131,0.502
					c0,0.176,0.071,0.305,0.211,0.388c0.084,0.05,0.288,0.086,0.614,0.112v0.169h-2.081v-0.169c0.225-0.033,0.408-0.128,0.553-0.278
					c0.146-0.155,0.324-0.469,0.536-0.945l2.24-4.997h0.088l2.256,5.134c0.215,0.486,0.394,0.793,0.531,0.919
					c0.104,0.098,0.252,0.15,0.442,0.167v0.169h-3.027v-0.169h0.124c0.243,0,0.414-0.033,0.512-0.102
					c0.068-0.048,0.103-0.119,0.103-0.212c0-0.055-0.009-0.112-0.028-0.171c-0.006-0.029-0.052-0.143-0.137-0.345L157.928,119.352z
					 M157.771,119.009l-0.933-2.154l-0.961,2.154H157.771z"/>
				<path fill="#FFFFFF" d="M166.085,114.872v1.694h-0.165c-0.099-0.39-0.209-0.671-0.327-0.842
					c-0.121-0.171-0.286-0.307-0.495-0.41c-0.117-0.055-0.321-0.081-0.613-0.081h-0.468v4.83c0,0.319,0.019,0.519,0.053,0.6
					c0.038,0.081,0.104,0.15,0.209,0.209c0.103,0.06,0.243,0.09,0.422,0.09h0.207v0.169h-3.277v-0.169h0.208
					c0.182,0,0.329-0.031,0.438-0.098c0.08-0.042,0.143-0.116,0.19-0.221c0.032-0.074,0.05-0.269,0.05-0.581v-4.83h-0.452
					c-0.422,0-0.729,0.088-0.919,0.267c-0.268,0.25-0.438,0.605-0.507,1.066h-0.176v-1.694H166.085z"/>
				<path fill="#FFFFFF" d="M169.889,120.963v0.169h-3.272v-0.169h0.208c0.182,0,0.327-0.031,0.439-0.098
					c0.078-0.042,0.14-0.116,0.185-0.221c0.034-0.074,0.051-0.269,0.051-0.581v-4.121c0-0.319-0.017-0.519-0.051-0.6
					c-0.035-0.079-0.103-0.15-0.206-0.209c-0.103-0.06-0.243-0.09-0.418-0.09h-0.208v-0.171h3.272v0.171h-0.206
					c-0.182,0-0.327,0.033-0.438,0.097c-0.081,0.043-0.144,0.117-0.188,0.222c-0.036,0.074-0.053,0.267-0.053,0.581v4.121
					c0,0.319,0.019,0.519,0.053,0.6c0.037,0.081,0.107,0.15,0.21,0.209c0.102,0.06,0.242,0.09,0.417,0.09H169.889z"/>
				<path fill="#FFFFFF" d="M173.759,114.784c0.998-0.036,1.807,0.255,2.433,0.874c0.622,0.619,0.934,1.393,0.934,2.323
					c0,0.792-0.233,1.493-0.697,2.097c-0.617,0.8-1.485,1.2-2.607,1.2c-1.128,0-1.999-0.383-2.615-1.145
					c-0.485-0.604-0.729-1.319-0.729-2.147c0-0.931,0.316-1.705,0.948-2.326C172.059,115.041,172.836,114.748,173.759,114.784z
					 M173.813,115.079c-0.572,0-1.008,0.295-1.307,0.878c-0.242,0.481-0.365,1.171-0.365,2.069c0,1.069,0.189,1.859,0.565,2.368
					c0.261,0.357,0.629,0.538,1.099,0.538c0.317,0,0.582-0.079,0.794-0.233c0.271-0.197,0.481-0.512,0.632-0.942
					c0.151-0.433,0.226-0.998,0.226-1.692c0-0.829-0.076-1.45-0.229-1.859c-0.154-0.409-0.35-0.7-0.59-0.871
					C174.399,115.165,174.126,115.079,173.813,115.079z"/>
				<path fill="#FFFFFF" d="M179.817,114.872l3.087,3.884v-2.692c0-0.376-0.053-0.631-0.161-0.762
					c-0.148-0.179-0.396-0.264-0.743-0.259v-0.171h2.068v0.171c-0.265,0.036-0.443,0.078-0.533,0.133
					c-0.091,0.052-0.162,0.14-0.212,0.262c-0.051,0.121-0.076,0.331-0.076,0.626v5.213h-0.157l-4.234-5.213v3.98
					c0,0.359,0.081,0.602,0.247,0.728c0.165,0.129,0.353,0.19,0.565,0.19h0.149v0.169h-2.223v-0.169
					c0.346-0.002,0.585-0.074,0.721-0.214c0.136-0.138,0.204-0.374,0.204-0.705v-4.418l-0.136-0.167
					c-0.131-0.167-0.247-0.276-0.35-0.329s-0.249-0.081-0.439-0.088v-0.171H179.817z"/>
				<path fill="#FFFFFF" d="M188.225,119.352h-2.212l-0.264,0.609c-0.086,0.202-0.129,0.371-0.129,0.502
					c0,0.176,0.07,0.305,0.212,0.388c0.083,0.05,0.288,0.086,0.614,0.112v0.169h-2.083v-0.169c0.227-0.033,0.409-0.128,0.555-0.278
					c0.146-0.155,0.322-0.469,0.535-0.945l2.239-4.997h0.089l2.257,5.134c0.215,0.486,0.393,0.793,0.53,0.919
					c0.105,0.098,0.253,0.15,0.443,0.167v0.169h-3.028v-0.169h0.124c0.243,0,0.414-0.033,0.513-0.102
					c0.068-0.048,0.102-0.119,0.102-0.212c0-0.055-0.009-0.112-0.028-0.171c-0.005-0.029-0.05-0.143-0.137-0.345L188.225,119.352z
					 M188.067,119.009l-0.935-2.154l-0.96,2.154H188.067z"/>
				<path fill="#FFFFFF" d="M197.089,118.935l-0.236,2.197h-5.558v-0.169h0.208c0.18,0,0.325-0.031,0.437-0.098
					c0.081-0.042,0.141-0.116,0.185-0.221c0.035-0.074,0.053-0.269,0.053-0.581v-4.121c0-0.319-0.018-0.519-0.053-0.6
					c-0.033-0.079-0.101-0.15-0.206-0.209c-0.102-0.06-0.24-0.09-0.415-0.09h-0.208v-0.171h3.337v0.171h-0.272
					c-0.182,0-0.327,0.033-0.438,0.097c-0.081,0.043-0.145,0.117-0.19,0.222c-0.034,0.074-0.049,0.267-0.049,0.581v3.989
					c0,0.322,0.018,0.524,0.055,0.612c0.035,0.088,0.108,0.155,0.216,0.198c0.076,0.026,0.263,0.041,0.56,0.041h0.521
					c0.331,0,0.609-0.057,0.829-0.176c0.223-0.117,0.415-0.3,0.578-0.552c0.159-0.252,0.313-0.626,0.459-1.119H197.089z"/>
				<path fill="#FFFFFF" d="M203.708,114.729l0.051,2.087h-0.188c-0.089-0.523-0.31-0.942-0.657-1.264
					c-0.353-0.317-0.726-0.476-1.135-0.476c-0.314,0-0.563,0.083-0.746,0.252c-0.182,0.167-0.273,0.359-0.273,0.578
					c0,0.138,0.032,0.262,0.097,0.369c0.089,0.145,0.231,0.288,0.43,0.428c0.145,0.103,0.479,0.283,1.002,0.541
					c0.733,0.359,1.226,0.702,1.48,1.021s0.381,0.686,0.381,1.097c0,0.526-0.205,0.976-0.614,1.352
					c-0.407,0.378-0.926,0.566-1.553,0.566c-0.196,0-0.383-0.021-0.559-0.059c-0.175-0.043-0.396-0.117-0.662-0.229
					c-0.146-0.062-0.269-0.093-0.361-0.093c-0.081,0-0.167,0.031-0.255,0.093c-0.089,0.062-0.162,0.157-0.217,0.283h-0.171v-2.364
					h0.171c0.135,0.664,0.396,1.171,0.781,1.521c0.387,0.35,0.805,0.523,1.252,0.523c0.343,0,0.617-0.095,0.823-0.281
					c0.202-0.188,0.305-0.407,0.305-0.657c0-0.147-0.038-0.291-0.116-0.429c-0.079-0.14-0.197-0.271-0.358-0.395
					c-0.161-0.126-0.441-0.288-0.851-0.488c-0.569-0.281-0.979-0.517-1.228-0.714c-0.249-0.197-0.441-0.419-0.574-0.662
					c-0.134-0.243-0.2-0.509-0.2-0.802c0-0.5,0.182-0.923,0.549-1.273c0.365-0.352,0.827-0.528,1.384-0.528
					c0.205,0,0.402,0.026,0.593,0.074c0.146,0.038,0.321,0.107,0.528,0.207c0.207,0.098,0.353,0.147,0.436,0.147
					c0.081,0,0.143-0.023,0.189-0.071c0.048-0.05,0.092-0.169,0.13-0.357H203.708z"/>
				<path fill="#FFFFFF" d="M210.837,114.729v2.171h-0.179c-0.136-0.566-0.39-1-0.757-1.302c-0.371-0.302-0.789-0.452-1.257-0.452
					c-0.391,0-0.75,0.112-1.075,0.336c-0.326,0.226-0.565,0.521-0.717,0.883c-0.194,0.464-0.292,0.983-0.292,1.552
					c0,0.56,0.073,1.071,0.213,1.531c0.144,0.459,0.364,0.807,0.667,1.042c0.301,0.236,0.69,0.354,1.172,0.354
					c0.394,0,0.755-0.088,1.082-0.259c0.328-0.174,0.671-0.469,1.035-0.89v0.538c-0.35,0.366-0.715,0.633-1.095,0.797
					c-0.38,0.164-0.823,0.248-1.333,0.248c-0.667,0-1.262-0.133-1.779-0.402s-0.92-0.652-1.2-1.154
					c-0.281-0.502-0.423-1.036-0.423-1.602c0-0.598,0.156-1.164,0.47-1.7c0.313-0.536,0.733-0.95,1.265-1.247
					c0.53-0.295,1.095-0.443,1.692-0.443c0.438,0,0.904,0.095,1.395,0.286c0.282,0.112,0.462,0.167,0.539,0.167
					c0.099,0,0.185-0.033,0.256-0.107c0.074-0.074,0.119-0.188,0.143-0.345H210.837z"/>
				<path fill="#FFFFFF" d="M213.94,118.124v1.94c0,0.319,0.019,0.519,0.053,0.6c0.036,0.081,0.104,0.15,0.21,0.209
					c0.1,0.06,0.24,0.09,0.414,0.09h0.209v0.169h-3.272v-0.169h0.207c0.181,0,0.328-0.031,0.439-0.098
					c0.079-0.042,0.14-0.116,0.184-0.221c0.034-0.074,0.051-0.269,0.051-0.581v-4.121c0-0.319-0.017-0.519-0.051-0.6
					c-0.033-0.079-0.102-0.15-0.205-0.209s-0.242-0.09-0.418-0.09h-0.207v-0.171h3.272v0.171h-0.209
					c-0.179,0-0.326,0.033-0.436,0.097c-0.081,0.043-0.145,0.117-0.19,0.222c-0.033,0.074-0.051,0.267-0.051,0.581v1.773h2.211
					v-1.773c0-0.319-0.019-0.519-0.051-0.6c-0.034-0.079-0.102-0.15-0.208-0.209c-0.104-0.06-0.245-0.09-0.421-0.09h-0.202v-0.171
					h3.269v0.171h-0.202c-0.185,0-0.332,0.033-0.44,0.097c-0.078,0.043-0.144,0.117-0.188,0.222
					c-0.033,0.074-0.052,0.267-0.052,0.581v4.121c0,0.319,0.019,0.519,0.052,0.6c0.032,0.081,0.101,0.15,0.208,0.209
					c0.104,0.06,0.245,0.09,0.42,0.09h0.202v0.169h-3.269v-0.169h0.202c0.186,0,0.333-0.031,0.44-0.098
					c0.079-0.042,0.144-0.116,0.188-0.221c0.032-0.074,0.051-0.269,0.051-0.581v-1.94H213.94z"/>
				<path fill="#FFFFFF" d="M222.36,114.784c0.999-0.036,1.809,0.255,2.431,0.874c0.625,0.619,0.936,1.393,0.936,2.323
					c0,0.792-0.231,1.493-0.698,2.097c-0.614,0.8-1.483,1.2-2.606,1.2c-1.127,0-1.999-0.383-2.613-1.145
					c-0.486-0.604-0.731-1.319-0.731-2.147c0-0.931,0.317-1.705,0.95-2.326C220.659,115.041,221.438,114.748,222.36,114.784z
					 M222.417,115.079c-0.571,0-1.009,0.295-1.309,0.878c-0.243,0.481-0.364,1.171-0.364,2.069c0,1.069,0.188,1.859,0.563,2.368
					c0.262,0.357,0.629,0.538,1.1,0.538c0.317,0,0.584-0.079,0.794-0.233c0.271-0.197,0.481-0.512,0.635-0.942
					c0.148-0.433,0.225-0.998,0.225-1.692c0-0.829-0.078-1.45-0.231-1.859c-0.154-0.409-0.351-0.7-0.589-0.871
					C223.002,115.165,222.727,115.079,222.417,115.079z"/>
				<path fill="#FFFFFF" d="M229.715,114.784c0.998-0.036,1.81,0.255,2.431,0.874c0.623,0.619,0.936,1.393,0.936,2.323
					c0,0.792-0.233,1.493-0.697,2.097c-0.614,0.8-1.485,1.2-2.608,1.2c-1.127,0-1.998-0.383-2.613-1.145
					c-0.486-0.604-0.729-1.319-0.729-2.147c0-0.931,0.316-1.705,0.948-2.326C228.014,115.041,228.792,114.748,229.715,114.784z
					 M229.77,115.079c-0.571,0-1.007,0.295-1.306,0.878c-0.243,0.481-0.365,1.171-0.365,2.069c0,1.069,0.188,1.859,0.564,2.368
					c0.262,0.357,0.628,0.538,1.1,0.538c0.316,0,0.581-0.079,0.793-0.233c0.271-0.197,0.481-0.512,0.633-0.942
					c0.151-0.433,0.227-0.998,0.227-1.692c0-0.829-0.076-1.45-0.231-1.859c-0.154-0.409-0.35-0.7-0.59-0.871
					C230.357,115.165,230.082,115.079,229.77,115.079z"/>
				<path fill="#FFFFFF" d="M239.389,118.935l-0.237,2.197h-5.558v-0.169h0.208c0.18,0,0.326-0.031,0.438-0.098
					c0.081-0.042,0.141-0.116,0.184-0.221c0.033-0.074,0.052-0.269,0.052-0.581v-4.121c0-0.319-0.019-0.519-0.052-0.6
					c-0.032-0.079-0.102-0.15-0.205-0.209c-0.103-0.06-0.243-0.09-0.417-0.09h-0.208v-0.171h3.337v0.171h-0.272
					c-0.181,0-0.327,0.033-0.438,0.097c-0.081,0.043-0.143,0.117-0.189,0.222c-0.034,0.074-0.051,0.267-0.051,0.581v3.989
					c0,0.322,0.019,0.524,0.057,0.612c0.036,0.088,0.107,0.155,0.216,0.198c0.074,0.026,0.263,0.041,0.559,0.041h0.521
					c0.333,0,0.61-0.057,0.831-0.176c0.224-0.117,0.414-0.3,0.576-0.552c0.16-0.252,0.313-0.626,0.459-1.119H239.389z"/>
			</g>
			<g>
				<path fill="#FFFFFF" d="M132.298,134.762v-0.171h0.208c0.182,0,0.32-0.029,0.418-0.086c0.097-0.057,0.168-0.133,0.216-0.233
					c0.027-0.064,0.04-0.257,0.04-0.581v-4.118c0-0.322-0.017-0.519-0.05-0.603c-0.033-0.079-0.104-0.147-0.206-0.209
					c-0.103-0.06-0.241-0.09-0.418-0.09h-0.208v-0.169h2.803c0.748,0,1.35,0.1,1.805,0.305c0.56,0.25,0.98,0.626,1.269,1.13
					c0.287,0.505,0.431,1.076,0.431,1.714c0,0.44-0.069,0.845-0.212,1.214c-0.141,0.372-0.326,0.679-0.55,0.921
					c-0.224,0.24-0.483,0.436-0.778,0.581c-0.294,0.146-0.652,0.26-1.076,0.341c-0.188,0.036-0.484,0.055-0.888,0.055H132.298z
					 M134.687,128.856v4.884c0,0.26,0.011,0.419,0.036,0.476c0.023,0.06,0.065,0.103,0.123,0.133
					c0.086,0.048,0.204,0.072,0.362,0.072c0.512,0,0.904-0.176,1.176-0.529c0.37-0.474,0.555-1.209,0.555-2.207
					c0-0.804-0.126-1.445-0.379-1.925c-0.199-0.374-0.457-0.631-0.771-0.767C135.567,128.899,135.199,128.854,134.687,128.856z"/>
				<path fill="#FFFFFF" d="M139.224,128.501h3.231v0.169h-0.161c-0.243,0-0.409,0.026-0.5,0.079
					c-0.093,0.05-0.154,0.119-0.195,0.209c-0.038,0.088-0.058,0.312-0.058,0.669v3.066c0,0.562,0.043,0.931,0.128,1.111
					c0.085,0.183,0.223,0.333,0.418,0.452c0.192,0.122,0.438,0.181,0.733,0.181c0.34,0,0.626-0.076,0.866-0.229
					c0.238-0.152,0.417-0.362,0.534-0.631c0.118-0.267,0.178-0.733,0.178-1.397v-2.554c0-0.281-0.028-0.479-0.087-0.6
					c-0.059-0.121-0.132-0.202-0.222-0.25c-0.139-0.071-0.334-0.107-0.584-0.107v-0.169h2.163v0.169h-0.129
					c-0.176,0-0.323,0.036-0.439,0.107c-0.115,0.072-0.201,0.179-0.253,0.319c-0.04,0.097-0.062,0.276-0.062,0.531v2.378
					c0,0.735-0.048,1.266-0.143,1.592c-0.098,0.326-0.336,0.628-0.71,0.9c-0.376,0.273-0.889,0.412-1.538,0.412
					c-0.542,0-0.961-0.074-1.256-0.217c-0.404-0.197-0.688-0.45-0.854-0.757c-0.167-0.31-0.25-0.721-0.25-1.242v-3.066
					c0-0.359-0.02-0.583-0.06-0.671s-0.108-0.16-0.207-0.209c-0.099-0.055-0.279-0.079-0.545-0.076V128.501z"/>
				<path fill="#FFFFFF" d="M150.037,131.441c0.595,0.141,1.011,0.307,1.25,0.505c0.345,0.278,0.519,0.643,0.519,1.09
					c0,0.469-0.19,0.859-0.569,1.167c-0.466,0.374-1.14,0.56-2.026,0.56h-3.182v-0.171c0.288,0,0.486-0.026,0.588-0.079
					c0.105-0.055,0.177-0.126,0.218-0.212c0.042-0.086,0.063-0.297,0.063-0.638v-4.061c0-0.34-0.021-0.552-0.063-0.64
					c-0.041-0.088-0.115-0.16-0.22-0.212c-0.104-0.052-0.3-0.079-0.586-0.079v-0.169h3.002c0.718,0,1.225,0.064,1.523,0.19
					c0.299,0.128,0.533,0.319,0.707,0.574c0.173,0.252,0.26,0.523,0.26,0.809c0,0.302-0.11,0.571-0.329,0.807
					C150.973,131.117,150.587,131.303,150.037,131.441z M148.356,131.677v2.009l-0.006,0.231c0,0.165,0.044,0.291,0.129,0.376
					c0.083,0.086,0.21,0.129,0.375,0.129c0.247,0,0.474-0.057,0.681-0.167c0.207-0.107,0.369-0.267,0.479-0.474
					c0.11-0.207,0.166-0.44,0.166-0.695c0-0.293-0.067-0.555-0.204-0.788c-0.136-0.231-0.321-0.395-0.558-0.488
					C149.181,131.72,148.828,131.674,148.356,131.677z M148.356,131.317c0.436,0,0.759-0.05,0.967-0.147
					c0.207-0.1,0.366-0.238,0.479-0.417c0.109-0.178,0.165-0.404,0.165-0.681c0-0.278-0.054-0.504-0.163-0.683
					c-0.109-0.176-0.267-0.312-0.469-0.405c-0.203-0.093-0.529-0.135-0.979-0.133V131.317z"/>
				<path fill="#FFFFFF" d="M156.072,132.979h-2.212l-0.264,0.609c-0.086,0.205-0.128,0.374-0.128,0.505
					c0,0.174,0.069,0.305,0.21,0.388c0.084,0.05,0.289,0.086,0.614,0.11v0.171h-2.081v-0.171c0.225-0.034,0.408-0.126,0.553-0.279
					c0.146-0.152,0.324-0.466,0.536-0.945l2.238-4.994h0.09l2.256,5.132c0.216,0.485,0.393,0.792,0.531,0.919
					c0.104,0.097,0.252,0.152,0.442,0.167v0.171h-3.027v-0.171h0.125c0.241,0,0.413-0.034,0.513-0.1c0.066-0.05,0.1-0.122,0.1-0.214
					c0-0.055-0.007-0.112-0.027-0.169c-0.006-0.028-0.051-0.145-0.138-0.348L156.072,132.979z M155.914,132.638l-0.933-2.156
					l-0.96,2.156H155.914z"/>
				<path fill="#FFFFFF" d="M162.429,134.59v0.171h-3.272v-0.171h0.207c0.181,0,0.326-0.031,0.438-0.098
					c0.081-0.041,0.142-0.117,0.185-0.221c0.035-0.074,0.053-0.269,0.053-0.581v-4.118c0-0.322-0.018-0.519-0.053-0.603
					c-0.033-0.079-0.101-0.147-0.206-0.209c-0.102-0.06-0.24-0.09-0.416-0.09h-0.207v-0.169h3.272v0.169h-0.208
					c-0.182,0-0.327,0.033-0.439,0.098c-0.079,0.043-0.143,0.117-0.189,0.224c-0.033,0.071-0.048,0.267-0.048,0.581v4.118
					c0,0.319,0.015,0.521,0.052,0.6c0.034,0.081,0.104,0.152,0.207,0.21c0.103,0.062,0.243,0.09,0.418,0.09H162.429z"/>
			</g>
		</g>
		<g>
			<g>
				<g>
					<path fill="#D39F29" d="M28.307,104.146h-0.036H10.613v21.535c0,0,0.432,6.674,3.947,10.264
						c3.489,3.561,12.271,8.248,13.71,9.866v0.041c0.005-0.007,0.012-0.015,0.019-0.021c0.006,0.007,0.013,0.014,0.018,0.021v-0.041
						c1.439-1.619,10.221-6.306,13.71-9.866c3.516-3.59,3.947-10.264,3.947-10.264v-21.535H28.307z"/>
				</g>
				<g>
					<g>
						<g>
							<path fill="#D39F29" d="M11.252,104.901v20.756c0,0,0.415,6.434,3.806,9.893c3.39,3.458,11.968,8.026,13.249,9.547v-40.196
								H11.252z"/>
						</g>
						<g>
							<path fill="#89181B" d="M45.325,104.901v20.756c0,0-0.415,6.434-3.806,9.893c-3.39,3.458-11.968,8.026-13.249,9.547v-40.196
								H45.325z"/>
						</g>
					</g>
					<g>
						<path fill="#231F20" d="M27.845,146.261v-1.031c-0.652-0.638-2.397-1.759-4.398-3.046c-2.99-1.921-6.71-4.311-8.693-6.334
							c-3.462-3.533-3.909-9.897-3.928-10.167v-0.026v-21.182h34.927v21.208c-0.019,0.269-0.467,6.634-3.928,10.167
							c-1.982,2.023-5.703,4.413-8.693,6.334c-2.001,1.288-3.747,2.409-4.398,3.046v1.031l-0.443-0.523L27.845,146.261z
							 M28.287,144.445l0.019,0.019c0.802-0.709,2.405-1.738,4.364-2.997c2.953-1.899,6.629-4.261,8.545-6.215
							c3.168-3.232,3.661-9.292,3.684-9.612v-20.313h-33.22v20.313c0.022,0.319,0.516,6.379,3.684,9.612
							c1.915,1.954,5.592,4.315,8.545,6.215c1.959,1.259,3.562,2.288,4.363,2.997L28.287,144.445z"/>
					</g>
				</g>
				<g>
					<g>
						<polygon fill="#221F1F" points="45.211,105.117 28.271,105.117 28.271,111.001 45.211,109.281 						"/>
					</g>
					<g>
						<polygon fill="#6C6C6F" points="11.331,105.117 28.271,105.117 28.271,111.001 11.331,109.281 						"/>
					</g>
				</g>
			</g>
			<g>
				<path fill="#FFFFFF" stroke="#FFFFFF" stroke-miterlimit="10" d="M18.022,120.294v0.748c-0.261,0.141-0.525,0.248-0.796,0.321
					c-0.27,0.074-0.536,0.112-0.8,0.112c-0.255,0-0.498-0.036-0.729-0.104c-0.231-0.069-0.447-0.171-0.653-0.31
					c-0.33-0.224-0.587-0.509-0.771-0.859c-0.183-0.35-0.273-0.728-0.273-1.138c0-0.31,0.06-0.612,0.181-0.902
					c0.12-0.293,0.292-0.548,0.515-0.767c0.236-0.233,0.502-0.407,0.796-0.524c0.294-0.114,0.62-0.171,0.978-0.171
					c0.249,0,0.497,0.029,0.743,0.088c0.245,0.06,0.503,0.155,0.771,0.281v0.716c-0.282-0.159-0.546-0.276-0.794-0.352
					c-0.247-0.076-0.488-0.114-0.721-0.114c-0.519,0-0.946,0.169-1.286,0.504c-0.338,0.336-0.507,0.757-0.507,1.264
					c0,0.5,0.167,0.917,0.5,1.252s0.752,0.504,1.255,0.504c0.259,0,0.52-0.045,0.785-0.135
					C17.48,120.618,17.75,120.48,18.022,120.294z"/>
				<path fill="#FFFFFF" stroke="#FFFFFF" stroke-miterlimit="10" d="M20.111,121.142c-0.149,0.107-0.288,0.183-0.422,0.231
					c-0.131,0.047-0.273,0.071-0.426,0.071c-0.263,0-0.469-0.064-0.616-0.195s-0.222-0.312-0.222-0.54
					c0-0.217,0.08-0.405,0.24-0.569c0.161-0.162,0.403-0.3,0.728-0.412l0.695-0.24c0.002-0.019,0.003-0.036,0.004-0.055
					c0.002-0.017,0.002-0.043,0.002-0.076c0-0.181-0.043-0.312-0.129-0.393c-0.086-0.081-0.226-0.121-0.424-0.121
					c-0.162,0-0.331,0.036-0.505,0.107c-0.173,0.071-0.347,0.179-0.52,0.319v-0.602c0.149-0.126,0.317-0.224,0.505-0.288
					c0.187-0.064,0.384-0.098,0.594-0.098c0.376,0,0.649,0.086,0.821,0.26c0.171,0.174,0.257,0.452,0.257,0.838v1.29
					c0,0.107,0.01,0.186,0.027,0.231c0.018,0.042,0.049,0.066,0.091,0.066c0.035,0,0.073-0.009,0.112-0.031
					c0.038-0.019,0.103-0.064,0.192-0.138v0.372c-0.106,0.095-0.214,0.164-0.32,0.209c-0.108,0.045-0.221,0.067-0.337,0.067
					c-0.113,0-0.196-0.024-0.253-0.071C20.151,121.322,20.118,121.246,20.111,121.142z M20.089,120.77v-0.895
					c-0.395,0.129-0.666,0.246-0.814,0.355c-0.148,0.107-0.224,0.233-0.224,0.376c0,0.126,0.038,0.221,0.115,0.291
					c0.077,0.066,0.186,0.102,0.326,0.102c0.103,0,0.205-0.019,0.305-0.057C19.896,120.901,19.993,120.846,20.089,120.77z"/>
				<path fill="#FFFFFF" stroke="#FFFFFF" stroke-miterlimit="10" d="M21.463,121.392v-3.052h0.583v0.374
					c0.148-0.146,0.293-0.252,0.438-0.319c0.145-0.066,0.301-0.1,0.468-0.1c0.216,0,0.397,0.04,0.542,0.124
					c0.145,0.081,0.267,0.212,0.367,0.391c0.179-0.184,0.348-0.317,0.506-0.396c0.157-0.081,0.324-0.119,0.503-0.119
					c0.319,0,0.571,0.095,0.757,0.288c0.185,0.19,0.277,0.455,0.277,0.788v2.021H25.31v-1.866c0-0.248-0.049-0.431-0.147-0.547
					c-0.098-0.117-0.252-0.176-0.462-0.176c-0.154,0-0.288,0.031-0.402,0.09c-0.114,0.062-0.226,0.162-0.333,0.3v2.2h-0.571v-1.866
					c0-0.245-0.051-0.429-0.152-0.545c-0.1-0.119-0.256-0.179-0.467-0.179c-0.151,0-0.283,0.031-0.396,0.09
					c-0.112,0.062-0.222,0.162-0.332,0.3v2.2H21.463z"/>
				<path fill="#FFFFFF" stroke="#FFFFFF" stroke-miterlimit="10" d="M26.637,121.249v-4.477h0.59v1.74
					c0.111-0.081,0.228-0.14,0.354-0.178c0.127-0.041,0.267-0.06,0.422-0.06c0.427,0,0.77,0.145,1.028,0.436
					c0.258,0.288,0.388,0.673,0.388,1.154c0,0.507-0.146,0.9-0.436,1.178s-0.7,0.417-1.229,0.417c-0.178,0-0.357-0.017-0.541-0.052
					C27.03,121.373,26.838,121.32,26.637,121.249z M27.227,120.777c0.106,0.038,0.209,0.069,0.305,0.088
					c0.098,0.021,0.194,0.031,0.29,0.031c0.309,0,0.548-0.091,0.719-0.269c0.17-0.176,0.254-0.431,0.254-0.759
					c0-0.319-0.08-0.569-0.247-0.755c-0.164-0.186-0.388-0.278-0.669-0.278c-0.111,0-0.222,0.019-0.328,0.057
					c-0.107,0.038-0.215,0.095-0.323,0.171V120.777z"/>
				<path fill="#FFFFFF" stroke="#FFFFFF" stroke-miterlimit="10" d="M29.992,121.392v-3.052h0.584v0.664
					c0.163-0.267,0.31-0.452,0.439-0.557c0.131-0.107,0.271-0.16,0.423-0.16c0.106,0,0.215,0.024,0.323,0.071
					c0.108,0.05,0.225,0.124,0.348,0.226l-0.318,0.541c-0.095-0.086-0.186-0.147-0.272-0.186s-0.177-0.057-0.272-0.057
					c-0.159,0-0.298,0.069-0.417,0.207c-0.118,0.138-0.202,0.331-0.253,0.578v1.724H29.992z"/>
				<path fill="#FFFFFF" stroke="#FFFFFF" stroke-miterlimit="10" d="M32.404,117.442c0-0.098,0.032-0.178,0.095-0.245
					c0.063-0.066,0.142-0.098,0.234-0.098s0.172,0.031,0.236,0.098c0.063,0.067,0.095,0.147,0.095,0.245s-0.032,0.179-0.095,0.243
					c-0.064,0.066-0.144,0.1-0.236,0.1s-0.171-0.033-0.234-0.1C32.437,117.621,32.404,117.54,32.404,117.442z M32.442,121.392
					v-3.052h0.584v3.052H32.442z"/>
				<path fill="#FFFFFF" stroke="#FFFFFF" stroke-miterlimit="10" d="M35.816,121.223c-0.107,0.078-0.224,0.135-0.348,0.173
					c-0.124,0.036-0.262,0.055-0.414,0.055c-0.424,0-0.769-0.148-1.035-0.443c-0.27-0.295-0.402-0.676-0.402-1.145
					s0.133-0.852,0.402-1.147c0.267-0.292,0.611-0.442,1.035-0.442c0.147,0,0.284,0.019,0.409,0.06
					c0.125,0.038,0.243,0.097,0.353,0.178v-1.74H36.4v4.62h-0.584V121.223z M35.816,120.715v-1.718
					c-0.096-0.069-0.193-0.122-0.292-0.157c-0.1-0.033-0.206-0.05-0.32-0.05c-0.3,0-0.533,0.093-0.705,0.283
					s-0.257,0.45-0.257,0.783c0,0.331,0.085,0.593,0.257,0.783s0.405,0.286,0.705,0.286c0.114,0,0.221-0.017,0.32-0.05
					C35.623,120.842,35.721,120.787,35.816,120.715z"/>
				<path fill="#FFFFFF" stroke="#FFFFFF" stroke-miterlimit="10" d="M37.677,120.418c-0.221-0.071-0.389-0.188-0.504-0.35
					c-0.114-0.164-0.173-0.364-0.173-0.604c0-0.371,0.123-0.65,0.368-0.838c0.245-0.19,0.609-0.286,1.093-0.286h1.164v0.495H39.13
					c0.081,0.09,0.141,0.186,0.179,0.286s0.057,0.212,0.057,0.335c0,0.255-0.075,0.474-0.224,0.655
					c-0.15,0.181-0.35,0.293-0.603,0.34c-0.055,0.01-0.128,0.024-0.221,0.038c-0.315,0.052-0.474,0.136-0.474,0.252
					s0.226,0.221,0.676,0.312c0.11,0.023,0.197,0.04,0.261,0.055c0.284,0.062,0.498,0.164,0.644,0.309
					c0.147,0.146,0.219,0.331,0.219,0.555c0,0.31-0.123,0.547-0.372,0.709c-0.249,0.164-0.61,0.245-1.084,0.245
					c-0.464,0-0.816-0.079-1.063-0.236c-0.243-0.157-0.366-0.385-0.366-0.686c0-0.214,0.071-0.39,0.214-0.528
					c0.144-0.138,0.353-0.235,0.631-0.288c-0.111-0.052-0.194-0.107-0.246-0.169c-0.051-0.06-0.077-0.128-0.077-0.205
					c0-0.079,0.031-0.15,0.095-0.214C37.438,120.54,37.54,120.478,37.677,120.418z M37.33,121.96c0,0.147,0.071,0.262,0.217,0.338
					c0.143,0.076,0.354,0.114,0.634,0.114c0.273,0,0.487-0.038,0.642-0.112c0.155-0.076,0.231-0.179,0.231-0.307
					c0-0.145-0.087-0.252-0.262-0.326c-0.174-0.071-0.436-0.107-0.786-0.107c-0.198,0-0.361,0.038-0.486,0.114
					S37.33,121.846,37.33,121.96z M38.188,118.854c-0.179,0-0.326,0.057-0.439,0.165c-0.113,0.109-0.17,0.247-0.17,0.418
					c0,0.179,0.055,0.317,0.161,0.417c0.108,0.1,0.258,0.15,0.448,0.15c0.192,0,0.345-0.05,0.457-0.15
					c0.111-0.103,0.169-0.241,0.169-0.417c0-0.171-0.06-0.309-0.177-0.418C38.52,118.911,38.369,118.854,38.188,118.854z"/>
				<path fill="#FFFFFF" stroke="#FFFFFF" stroke-miterlimit="10" d="M42.635,121.068c-0.195,0.131-0.396,0.229-0.602,0.292
					c-0.207,0.064-0.42,0.098-0.64,0.098c-0.465,0-0.833-0.15-1.109-0.447c-0.276-0.3-0.414-0.698-0.414-1.195
					c0-0.455,0.133-0.826,0.397-1.109c0.267-0.283,0.613-0.426,1.04-0.426c0.424,0,0.76,0.146,1.007,0.434
					c0.248,0.288,0.371,0.678,0.371,1.168v0.09h-2.196c0.017,0.288,0.106,0.512,0.273,0.674c0.164,0.162,0.386,0.243,0.661,0.243
					c0.188,0,0.381-0.036,0.584-0.107c0.202-0.071,0.411-0.181,0.627-0.326V121.068z M40.489,119.54h1.552
					c-0.02-0.224-0.097-0.402-0.231-0.536c-0.136-0.136-0.305-0.202-0.509-0.202c-0.224,0-0.405,0.064-0.543,0.188
					C40.621,119.113,40.531,119.297,40.489,119.54z"/>
			</g>
		</g>
	</g>
</g>
</svg>
