<?xml version="1.0" encoding="utf-8"?>
<!-- Generator: Adobe Illustrator 16.0.0, SVG Export Plug-In . SVG Version: 6.00 Build 0)  -->
<!DOCTYPE svg PUBLIC "-//W3C//DTD SVG 1.1//EN" "http://www.w3.org/Graphics/SVG/1.1/DTD/svg11.dtd">
<svg version="1.1" id="Layer_1" xmlns="http://www.w3.org/2000/svg" xmlns:xlink="http://www.w3.org/1999/xlink" x="0px" y="0px"
	 width="250px" height="250px" viewBox="0 0 250 250" enable-background="new 0 0 250 250" xml:space="preserve">
<g>
	<path fill="#F16739" d="M20.712,222.655v-85.541h48.759c4.547,0,7.828,1.306,9.847,3.936c2.039,2.604,3.053,6.83,3.053,12.655
		v19.101c0,5.775-1.014,9.972-3.053,12.596c-2.019,2.61-5.3,3.922-9.847,3.922H33.757v33.332H20.712z M63.596,151.927H33.757v22.667
		h29.839c2.303,0,3.886-0.513,4.722-1.511c0.853-0.987,1.272-2.755,1.272-5.293v-9.149c0-2.478-0.419-4.223-1.272-5.21
		C67.482,152.416,65.899,151.927,63.596,151.927z"/>
	<path fill="#F16739" d="M217.017,151.881h-39.445v54.558h39.445v-19.154h-20.654v-14.667h32.926v29.671
		c0,7.877-0.912,13.24-2.772,16.081c-1.851,2.865-5.409,4.286-10.683,4.286h-37.452c-5.267,0-8.835-1.421-10.675-4.286
		c-1.851-2.841-2.779-8.204-2.779-16.081V156.87c0-7.834,0.928-13.177,2.779-16.055c1.84-2.888,5.409-4.329,10.675-4.329h37.452
		c5.194,0,8.756,1.421,10.633,4.243c1.88,2.818,2.822,7.939,2.822,15.324v1.963l-12.271,3.485V151.881z"/>
	<g>
		<g>
			<path fill="#F16739" d="M20.867,250v-15.163h12.969c1.193,0,2.062,0.245,2.613,0.718c0.532,0.445,0.793,1.176,0.793,2.217v3.403
				c0,1.008-0.261,1.765-0.793,2.21c-0.552,0.479-1.42,0.701-2.613,0.701h-9.509V250H20.867z M32.267,237.471h-7.94v4.001h7.94
				c0.621,0,1.037-0.082,1.259-0.258c0.225-0.171,0.33-0.492,0.33-0.928v-1.636c0-0.427-0.105-0.747-0.33-0.922
				C33.304,237.56,32.888,237.471,32.267,237.471z"/>
			<path fill="#F16739" d="M42.374,238.422c0-1.364,0.261-2.31,0.773-2.808c0.519-0.513,1.513-0.777,2.987-0.777h11.148
				c1.46,0,2.468,0.265,2.987,0.777c0.519,0.498,0.767,1.443,0.767,2.808v8.006c0,1.372-0.248,2.326-0.767,2.822
				c-0.519,0.492-1.527,0.75-2.987,0.75H46.134c-1.474,0-2.468-0.258-2.987-0.75c-0.512-0.496-0.773-1.45-0.773-2.822V238.422z
				 M45.896,247.155H57.53v-9.596H45.896V247.155z"/>
			<path fill="#F16739" d="M71.572,250l-5.829-15.163h3.635l3.849,10.171l4.024-10.171h2.472l4.101,10.171l3.667-10.171h3.152
				L84.792,250H82.41l-4.163-10.48L74.018,250H71.572z"/>
			<path fill="#F16739" d="M95.649,250v-15.163h15.513v2.588H99.185v3.383h6.995v2.577h-6.995v3.771h12.119V250H95.649z"/>
			<path fill="#F16739" d="M117.823,250v-15.163h12.956c1.209,0,2.072,0.245,2.62,0.718c0.532,0.445,0.81,1.176,0.81,2.217v3.571
				c0,1.012-0.277,1.771-0.81,2.218c-0.548,0.479-1.411,0.714-2.62,0.714h-1.976l6.998,5.726h-5.062l-6.103-5.726h-3.354V250
				H117.823z M129.213,237.471h-7.93v4.223h7.93c0.611,0,1.034-0.093,1.262-0.265c0.225-0.194,0.343-0.495,0.343-0.941v-1.837
				c0-0.427-0.119-0.747-0.343-0.922C130.247,237.56,129.824,237.471,129.213,237.471z"/>
			<path fill="#F16739" d="M166.953,237.56h-11v9.596h11v-3.377h-5.766v-2.587h9.192v5.236c0,1.372-0.258,2.326-0.773,2.822
				c-0.515,0.492-1.513,0.75-2.97,0.75h-10.467c-1.464,0-2.462-0.258-2.984-0.75c-0.512-0.496-0.776-1.45-0.776-2.822v-8.006
				c0-1.364,0.264-2.31,0.776-2.808c0.522-0.513,1.52-0.777,2.984-0.777h10.467c1.438,0,2.435,0.265,2.957,0.757
				c0.529,0.499,0.787,1.397,0.787,2.693v0.347l-3.426,0.621V237.56z"/>
			<path fill="#F16739" d="M174.413,250L183,234.837h3.39l8.7,15.163h-3.961l-1.827-3.314h-9.599L177.938,250H174.413z
				 M181.197,243.95h6.651l-3.268-6.179L181.197,243.95z"/>
			<path fill="#F16739" d="M199.961,250v-15.163h3.535V250H199.961z"/>
			<path fill="#F16739" d="M211.191,250v-15.163h2.425l10.662,8.941c0.36,0.308,0.681,0.555,0.955,0.836
				c0.278,0.258,0.532,0.538,0.76,0.823c-0.053-0.859-0.089-1.464-0.112-1.831c-0.016-0.34-0.03-0.604-0.03-0.796v-7.974h3.172V250
				h-2.402l-11.131-9.367c-0.271-0.234-0.509-0.449-0.707-0.645c-0.198-0.175-0.387-0.39-0.552-0.578
				c0.046,0.473,0.085,0.898,0.102,1.332c0.026,0.409,0.033,0.756,0.033,1.077V250H211.191z"/>
		</g>
	</g>
	<path fill="#383A8E" d="M167.848,221.971l-17.095-58.143l1.411-1.651l-1.659-0.05l-4.864-69.76l55.896-18.113l-0.056,4.586
		l-7.167-0.063l-0.037,2.812l7.173,0.079l-0.053,4.939l-4.702-0.06l-0.053,2.825l4.718,0.043l-0.063,4.927l-6.466-0.063l-0.03,2.821
		l6.463,0.063l-0.029,2.822l2.815,0.046l0.023-2.825l6.229,0.069l0.043-2.824l-6.229-0.063l0.05-4.926l4.477,0.039l0.02-2.821
		l-4.457-0.04l0.053-4.927l6.932,0.069l0.033-2.808l-6.936-0.09l0.069-5.558l3.552-1.14l0.106-10.894l-64.526,0.02l-1.375-19.99
		l34.723-12.697l-0.033,2.264l-4.038-0.047l-0.04,2.825l4.051,0.046l-0.036,2.733l-2.468-0.037l-0.04,2.825l2.478,0.033l-0.02,2.735
		l-3.602-0.046l-0.036,2.822l3.602,0.043l-0.02,1.632l2.812,0.026l0.02-1.619l3.439,0.047l0.049-2.829l-3.449-0.036l0.02-2.735
		l2.316,0.02l0.046-2.818l-2.336-0.017l0.033-2.739l3.879,0.04l0.05-2.822l-3.906-0.036l0.037-3.337l2.244-0.833l0.083-8.462
		l-41.467,0.01L139.237,0h-24.474l-1.447,18.314H72.97v8.462l2.237,0.823v3.356h-3.886v2.825h3.886v2.729h-2.313v2.818h2.313v2.735
		h-3.433v2.818h3.433v1.626h2.828v-1.626h3.595v-2.818h-3.595v-2.735h2.468v-2.818h-2.468v-2.729h4.041v-2.825h-4.041v-2.315
		l33.48,12.39l-1.586,20.284H47.02v10.874l3.509,1.166v5.574h-6.932v2.815h6.932v4.937h-4.451v2.809h4.451v4.942H44.31v2.818h6.218
		v2.813h2.822V97.25h6.463v-2.818H53.35v-4.942h4.692v-2.809H53.35v-4.937h7.173v-2.815H53.35v-4.658l54.158,17.743l-5.432,68.63
		l-1.656-0.069l1.391,1.79L82.38,221.971H20.712V232.3h208.576v-10.329H167.848z M151.995,221.971l-24.282-31.059l20.862-24.523
		l16.342,55.582H151.995z M148.413,221.971H101.29l24.563-28.857L148.413,221.971z M128.882,144.43l16.692-12.575l1.937,27.992
		L128.882,144.43z M145.641,161.981l-38.423-1.187l19.355-14.624L145.641,161.981z M126.662,142.596l-17.839-14.769l18.083-13.637
		l17.829,14.772L126.662,142.596z M145.34,128.501l-0.469,0.354l0.459-0.552L145.34,128.501z M129.213,112.449l14.267-10.748
		l1.665,23.935L129.213,112.449z M126.969,110.599l-15.962-13.216l15.876-12.034l15.982,13.283L126.969,110.599z M129.2,83.601
		l12.357-9.367l1.45,20.853L129.2,83.601z M126.969,81.744l-13.263-11.032l13.517-10.207l13.283,10.996L126.969,81.744z
		 M129.546,58.754l10.398-7.851l1.209,17.495L129.546,58.754z M138.471,29.862l1.084,15.434l-10.253-8.505L138.471,29.862z
		 M127.059,34.938L116.69,26.32l10.398-10.5l10.249,11.356L127.059,34.938z M138.732,48.283L127.31,56.91l-11.75-9.74l11.429-8.634
		L138.732,48.283z M129.081,13.814l7.729-7.817l1.252,17.753L129.081,13.814z M127.184,11.703l-8.022-8.892h16.841L127.184,11.703z
		 M125.202,13.719l-9.434,9.532l1.441-18.391L125.202,13.719z M115.649,25.944l-0.109,0.125l0.01-0.218L115.649,25.944z
		 M124.752,36.686l-10.702,8.082l1.269-15.906L124.752,36.686z M113.707,49.277l11.297,9.371L112.2,68.322L113.707,49.277z
		 M111.84,72.84l12.827,10.652l-14.535,11.013L111.84,72.84z M109.702,99.953l14.964,12.394l-16.94,12.787L109.702,99.953z
		 M108.757,127.787l-1.163-0.988l0.026-0.545L108.757,127.787z M124.346,144.317l-19.296,14.568l2.263-28.65L124.346,144.317z
		 M130.997,164.348l15.219,0.455l-20.277,23.83l-19.594-25.065L130.997,164.348z M205.178,64.113l-0.079,6.007l-3.003,0.979
		l-0.532-0.007v0.185l-56.11,18.192l-1.761-25.349L205.178,64.113z M179.142,21.127l-0.043,3.664l-37.208,13.597l-1.189-17.244
		L179.142,21.127z M75.789,24.791v-3.647h37.3L111.754,38.1L75.789,24.791z M53.35,71.31v-0.142h-0.417l-3.106-1.021V64.12h59.875
		l-1.973,24.995L53.35,71.31z M103.9,165.038l20.171,25.809l-26.492,31.124H85.337L103.9,165.038z"/>
</g>
</svg>
