<?xml version="1.0" encoding="utf-8"?>
<!-- Generator: Adobe Illustrator 16.0.0, SVG Export Plug-In . SVG Version: 6.00 Build 0)  -->
<!DOCTYPE svg PUBLIC "-//W3C//DTD SVG 1.1//EN" "http://www.w3.org/Graphics/SVG/1.1/DTD/svg11.dtd">
<svg version="1.1" id="Layer_1" xmlns="http://www.w3.org/2000/svg" xmlns:xlink="http://www.w3.org/1999/xlink" x="0px" y="0px"
	 width="250px" height="250px" viewBox="0 0 250 250" enable-background="new 0 0 250 250" xml:space="preserve">
<g>
	<g>
		<path fill-rule="evenodd" clip-rule="evenodd" fill="#CD0E26" d="M54.445,127.49l4.941,11.547h-9.8L54.445,127.49z M52.592,118.8
			h3.354l14.999,35.365h-5.645l-4.515-10.64H47.761l-4.487,10.64h-5.246L52.592,118.8z"/>
		<path fill-rule="evenodd" clip-rule="evenodd" fill="#CD0E26" d="M147.411,127.49l4.941,11.547h-9.8L147.411,127.49z
			 M145.558,118.8h3.35l15.003,35.365h-5.648l-4.511-10.64h-13.029l-4.487,10.64h-5.246L145.558,118.8z"/>
		<path fill-rule="evenodd" clip-rule="evenodd" fill="#CD0E26" d="M229.446,127.49l4.941,11.547h-9.8L229.446,127.49z
			 M227.593,118.8h3.35l15.003,35.365h-5.645l-4.515-10.64h-13.025l-4.492,10.64h-5.238L227.593,118.8z"/>
		<polygon fill="#CD0E26" points="85.62,154.654 80.703,154.654 84.737,119.586 89.205,119.586 100.721,146.48 112.897,119.586 
			117.268,119.586 120.735,154.654 115.646,154.654 113.116,130.707 102.718,154.654 98.715,154.654 88.438,131.043 		"/>
		<path fill="#CD0E26" d="M0,154.658l0.012-44.806l13.553-0.016c8.901,0,14.624,3.342,14.581,12.263
			c0,6.145-3.803,9.796-8.119,11.547l12.931,18.604l-6.094,3.252l-14.96-21.957l0.504-3.58c0.219-0.271,9.917,0.137,9.917-7.646
			c0-6.767-5.774-7.474-11.066-7.474H6.474l-0.012,39.813h-6.38H0z"/>
		<path fill="#CD0E26" d="M180.669,149.494h3.925c11.61,0.027,14.956-6.117,15.003-12.192c0-9.331-7.392-13.01-14.515-13.01h-4.413
			V149.494z M175.958,154.65L175.958,154.65v-35.068h8.232h1.251c10.82,0,19.495,6.755,19.307,17.45
			c-0.242,12.599-9.917,17.618-18.72,17.618c-0.978,0.063-2.709,0-3.69,0H175.958z"/>
		<path fill-rule="evenodd" clip-rule="evenodd" fill="#CD0E26" d="M125.16,68.139c3.002,0.79,6.129,2.939,7.201,6.997
			c0.93,3.526-0.551,6.173-2.205,7.729c-1.685,1.583-3.94,2.299-3.94,2.299c1.098,0.16,3.475,0.898,4.941,2.967
			c1.337,1.88,2.087,4.921,2.803,7.998c0.75,3.24,2.932,3.67,4.402,3.533c0.793-0.066,1.571-0.359,2.345-1.298
			c2.295-2.811,4.304-7.419,4.304-12.384c0-11.051-8.959-20.01-20.018-20.01c-2.936,0-5.719,0.652-8.229,1.798
			C118.57,67.373,121.591,67.196,125.16,68.139"/>
		<path fill-rule="evenodd" clip-rule="evenodd" fill="#CD0E26" d="M131.626,98.528c-1.798-2.068-1.134-6.333-2.666-9.397
			c-1.532-3.069-5.234-3.968-5.234-3.968c5.754-2.271,6.04-7.873,4.699-11.161c-1.599-3.936-5.25-5.453-8.799-5.801
			c-2.986-0.289-4.914,0.731-5.383,0.974c-0.359,0.188-0.708,0.41-0.887,0.551c3.057-0.961,5.918-0.492,8.604,1.678
			c2.181,1.751,3.452,4.948,2.4,8.596c-0.907,3.154-5.864,5.129-5.864,5.129c2.268,0.273,5.465,2.337,6.329,6.595
			c0.676,3.346,2.134,6.402,3.331,7.739c2.971,3.3,7.196,2.674,8.78,2.068c0.598-0.234,1.528-0.731,1.981-1.231
			C134.996,101.378,132.701,99.767,131.626,98.528"/>
		<path fill-rule="evenodd" clip-rule="evenodd" fill="#CD0E26" d="M126.759,101.593c-4.726-2.74-4.367-8.522-5.665-11.399
			c-1.739-3.857-4.636-5.054-4.636-5.054c0.837-0.345,6.055-3.792,4.503-9.272c-1.982-6.993-8.314-5.32-9.667-4.315
			c-3.428,2.549-6.321,8.686-6.321,14.428c0,11.063,8.963,20.019,20.018,20.019c4.183,0,8.057-1.282,11.27-3.472
			C133.737,103.391,129.746,103.32,126.759,101.593"/>
		<path fill-rule="evenodd" clip-rule="evenodd" fill="#CD0E26" d="M246.712,118.487c-1.817,0-3.292,1.454-3.292,3.241
			c0,1.79,1.474,3.24,3.292,3.24c1.818,0,3.288-1.45,3.288-3.24C250,119.941,248.53,118.487,246.712,118.487z M249.566,121.729
			c0,1.552-1.278,2.811-2.854,2.811c-1.579,0-2.857-1.259-2.857-2.811c0-1.553,1.278-2.811,2.857-2.811
			C248.288,118.918,249.566,120.176,249.566,121.729z"/>
		<path fill="none" stroke="#CD0E26" stroke-width="0.0647" stroke-miterlimit="22.9256" d="M246.712,118.487
			c-1.817,0-3.292,1.454-3.292,3.241c0,1.79,1.474,3.24,3.292,3.24c1.818,0,3.288-1.45,3.288-3.24
			C250,119.941,248.53,118.487,246.712,118.487z M249.566,121.729c0,1.552-1.278,2.811-2.854,2.811
			c-1.579,0-2.857-1.259-2.857-2.811c0-1.553,1.278-2.811,2.857-2.811C248.288,118.918,249.566,120.176,249.566,121.729z"/>
		<path fill-rule="evenodd" clip-rule="evenodd" fill="#CD0E26" d="M245.395,123.448c0.137-0.012,0.274-0.027,0.411-0.027
			c0.133,0,0.27,0.016,0.406,0.027v-1.712h0.039c0.118,0.199,0.274,0.445,0.352,0.59l0.645,1.122
			c0.164-0.012,0.324-0.027,0.489-0.027c0.168,0,0.328,0.016,0.492,0.027l-0.211-0.332c-0.324-0.493-0.661-0.989-0.958-1.501
			c0.504-0.106,0.844-0.438,0.844-0.958c0-0.363-0.164-0.606-0.469-0.767c-0.23-0.117-0.625-0.105-0.879-0.105h-1.161V123.448z
			 M246.212,120.074c0.333,0,0.739-0.043,0.825,0.403c0.023,0.109,0.031,0.188,0.031,0.266c0,0.547-0.286,0.813-0.856,0.762V120.074
			z"/>
	</g>
	<g>
		<path fill="#CD0E26" d="M99.431,183.772v-15.761h5.426c1.228,0,2.162,0.078,2.807,0.227c0.903,0.207,1.673,0.582,2.311,1.13
			c0.833,0.699,1.454,1.599,1.869,2.693c0.41,1.09,0.618,2.341,0.618,3.744c0,1.196-0.141,2.26-0.422,3.183
			c-0.278,0.926-0.637,1.688-1.075,2.294c-0.434,0.606-0.915,1.083-1.435,1.431c-0.52,0.349-1.145,0.61-1.88,0.79
			c-0.735,0.18-1.579,0.27-2.533,0.27H99.431z M101.514,181.912h3.366c1.04,0,1.853-0.098,2.447-0.289
			c0.59-0.195,1.06-0.466,1.411-0.817c0.497-0.496,0.879-1.161,1.157-1.993c0.273-0.837,0.414-1.85,0.414-3.038
			c0-1.649-0.27-2.916-0.813-3.799c-0.54-0.888-1.2-1.479-1.974-1.779c-0.559-0.215-1.458-0.324-2.697-0.324h-3.311V181.912z"/>
		<path fill="#CD0E26" d="M122.897,180.095l1.998,0.25c-0.313,1.165-0.899,2.071-1.751,2.717c-0.852,0.645-1.943,0.969-3.268,0.969
			c-1.669,0-2.994-0.516-3.971-1.544c-0.978-1.027-1.47-2.471-1.47-4.327c0-1.919,0.497-3.408,1.486-4.472
			c0.989-1.06,2.271-1.591,3.846-1.591c1.529,0,2.775,0.52,3.741,1.56c0.969,1.04,1.454,2.502,1.454,4.386
			c0,0.113-0.004,0.285-0.012,0.516h-8.514c0.071,1.255,0.426,2.217,1.063,2.882c0.637,0.668,1.435,1,2.388,1
			c0.708,0,1.313-0.188,1.814-0.559C122.205,181.506,122.604,180.911,122.897,180.095z M116.541,176.967h6.375
			c-0.086-0.961-0.329-1.681-0.731-2.161c-0.614-0.743-1.415-1.118-2.396-1.118c-0.887,0-1.634,0.297-2.24,0.895
			C116.943,175.177,116.607,175.971,116.541,176.967z"/>
		<path fill="#CD0E26" d="M127.333,170.239v-2.228h1.935v2.228H127.333z M127.333,183.772v-11.418h1.935v11.418H127.333z"/>
		<path fill="#CD0E26" d="M132.193,183.772v-11.418h1.739v1.731c0.446-0.809,0.856-1.345,1.231-1.603
			c0.379-0.258,0.79-0.387,1.243-0.387c0.653,0,1.313,0.207,1.99,0.625l-0.668,1.794c-0.473-0.277-0.946-0.418-1.419-0.418
			c-0.422,0-0.802,0.125-1.138,0.379c-0.336,0.255-0.579,0.61-0.723,1.06c-0.215,0.688-0.321,1.442-0.321,2.26v5.977H132.193z"/>
		<path fill="#CD0E26" d="M146.996,182.365c-0.719,0.606-1.407,1.036-2.072,1.29c-0.661,0.25-1.372,0.375-2.13,0.375
			c-1.255,0-2.22-0.309-2.893-0.918c-0.676-0.614-1.013-1.396-1.013-2.35c0-0.559,0.129-1.071,0.383-1.532s0.586-0.833,1-1.114
			c0.411-0.277,0.876-0.488,1.392-0.633c0.379-0.102,0.954-0.196,1.72-0.29c1.56-0.188,2.713-0.41,3.452-0.668
			c0.004-0.266,0.008-0.434,0.008-0.504c0-0.79-0.18-1.345-0.547-1.666c-0.492-0.438-1.227-0.656-2.205-0.656
			c-0.911,0-1.579,0.16-2.013,0.477c-0.434,0.32-0.754,0.884-0.961,1.696l-1.892-0.258c0.172-0.813,0.454-1.466,0.848-1.962
			c0.395-0.501,0.962-0.884,1.708-1.153c0.747-0.266,1.61-0.402,2.592-0.402c0.973,0,1.767,0.117,2.376,0.344
			c0.606,0.23,1.056,0.52,1.341,0.868c0.289,0.348,0.489,0.785,0.602,1.317c0.066,0.328,0.098,0.922,0.098,1.782v2.58
			c0,1.798,0.043,2.936,0.125,3.412c0.082,0.478,0.243,0.935,0.489,1.372h-2.021C147.18,183.37,147.051,182.901,146.996,182.365z
			 M146.836,178.042c-0.704,0.285-1.759,0.531-3.163,0.731c-0.793,0.113-1.356,0.242-1.688,0.387
			c-0.328,0.145-0.583,0.352-0.762,0.629c-0.18,0.274-0.27,0.583-0.27,0.919c0,0.516,0.196,0.946,0.586,1.29
			c0.391,0.344,0.962,0.516,1.716,0.516c0.743,0,1.407-0.164,1.99-0.488c0.579-0.328,1.004-0.774,1.278-1.337
			c0.207-0.438,0.313-1.083,0.313-1.935V178.042z"/>
	</g>
</g>
</svg>
