<?xml version="1.0" encoding="utf-8"?>
<!-- Generator: Adobe Illustrator 16.0.0, SVG Export Plug-In . SVG Version: 6.00 Build 0)  -->
<!DOCTYPE svg PUBLIC "-//W3C//DTD SVG 1.1//EN" "http://www.w3.org/Graphics/SVG/1.1/DTD/svg11.dtd">
<svg version="1.1" id="Layer_1" xmlns="http://www.w3.org/2000/svg" xmlns:xlink="http://www.w3.org/1999/xlink" x="0px" y="0px"
	 width="250px" height="250px" viewBox="0 0 250 250" enable-background="new 0 0 250 250" xml:space="preserve">
<g>
	<path fill="#EC1C24" d="M8.085,124.257c-3.187,0-5.328-0.49-6.432-1.47c-1.1-0.98-1.653-2.795-1.653-5.445v-2.873l7.25-1.504v4.946
		h19.045c1.357,0,2.267-0.212,2.723-0.635s0.684-1.27,0.684-2.54v-2.573c0-1.291-0.234-2.154-0.702-2.589
		c-0.467-0.434-1.368-0.65-2.704-0.65H14.366v-5.748h10.625c1.336,0,2.227-0.213,2.673-0.635c0.444-0.422,0.668-1.279,0.668-2.573
		V98.2c0-1.316-0.224-2.182-0.668-2.607c-0.446-0.422-1.337-0.635-2.673-0.635H7.553v4.41l-6.984-1.303v-2.204
		c0-2.65,0.546-4.466,1.637-5.446s3.23-1.47,6.415-1.47h19.11c3.184,0,5.322,0.49,6.415,1.47c1.091,0.98,1.637,2.795,1.637,5.446
		v3.208c0,2.071-0.503,3.606-1.504,4.61c-1.002,1.002-2.774,1.701-5.313,2.102c2.829,0.268,4.9,0.983,6.215,2.139
		c1.314,1.159,1.972,2.841,1.972,5.045v3.71c0,2.894-0.624,4.882-1.872,5.963c-1.248,1.079-3.473,1.618-6.682,1.618H8.085z"/>
	<polygon fill="#58595B" points="54.39,124.257 54.39,88.946 90.105,88.946 90.105,95.125 62.609,95.125 62.609,104.414 
		77.476,104.414 77.476,110.864 62.609,110.864 62.609,124.257 	"/>
	<path fill="#58595B" d="M107.776,117.61h27.096V95.26h-27.096V117.61z M99.561,97.297c0-3.208,0.601-5.399,1.803-6.583
		c1.205-1.18,3.52-1.769,6.949-1.769h25.992c3.429,0,5.745,0.588,6.95,1.769c1.201,1.184,1.803,3.375,1.803,6.583v18.608
		c0,3.23-0.602,5.431-1.803,6.599c-1.205,1.168-3.521,1.753-6.95,1.753h-25.992c-3.43,0-5.744-0.585-6.949-1.753
		c-1.202-1.168-1.803-3.369-1.803-6.599V97.297z"/>
	<polygon fill="#58595B" points="160.365,124.257 160.365,88.946 168.581,88.946 168.581,117.61 195.076,117.61 195.076,124.257 	
		"/>
	<path fill="#58595B" d="M215.322,117.61h10.624c5.655,0,9.665-0.881,12.025-2.638c2.364-1.76,3.544-4.666,3.544-8.722
		c0-3.609-0.979-6.342-2.942-8.201c-1.959-1.858-4.854-2.789-8.685-2.789h-14.566V117.61z M207.104,124.257V88.946h22.716
		c6.482,0,11.466,1.513,14.951,4.542c3.486,3.029,5.229,7.329,5.229,12.897c0,3.294-0.68,6.262-2.037,8.9
		c-1.358,2.641-3.275,4.718-5.747,6.231c-1.538,0.958-3.445,1.655-5.729,2.089c-2.283,0.435-5.208,0.65-8.771,0.65H207.104z"/>
	<polygon fill="#231F20" points="10.428,151.581 2.837,151.581 2.837,158.62 11.297,158.62 11.297,160.737 0.316,160.737 
		0.316,141.208 10.862,141.208 10.862,143.321 2.837,143.321 2.837,149.495 10.428,149.495 	"/>
	<path fill="#231F20" d="M26.712,152.419c0-0.317-0.03-0.752-0.117-1.069c-0.376-1.624-1.766-2.956-3.68-2.956
		c-2.635,0-4.2,2.318-4.2,5.418c0,2.838,1.39,5.187,4.142,5.187c1.711,0,3.276-1.131,3.738-3.045
		c0.087-0.345,0.117-0.693,0.117-1.101V152.419z M29.261,140.166v16.947c0,1.248,0.029,2.666,0.117,3.624h-2.29l-0.117-2.435h-0.057
		c-0.781,1.565-2.492,2.752-4.781,2.752c-3.389,0-5.998-2.869-5.998-7.128c-0.027-4.663,2.869-7.532,6.287-7.532
		c2.146,0,3.594,1.014,4.231,2.145h0.059v-8.374H29.261z"/>
	<path fill="#231F20" d="M48.121,156.913c0,1.448,0.031,2.721,0.117,3.824h-2.259l-0.145-2.29h-0.059
		c-0.667,1.131-2.146,2.607-4.637,2.607c-2.202,0-4.839-1.217-4.839-6.142v-8.201h2.551v7.766c0,2.666,0.811,4.463,3.128,4.463
		c1.71,0,2.898-1.19,3.362-2.318c0.145-0.379,0.231-0.841,0.231-1.303v-8.608h2.548V156.913z"/>
	<path fill="#231F20" d="M65.247,160.213c-0.667,0.349-2.145,0.841-4.027,0.841c-4.23,0-6.983-2.897-6.983-7.184
		c0-4.318,2.955-7.449,7.533-7.449c1.507,0,2.84,0.379,3.535,0.724l-0.58,1.973c-0.608-0.349-1.563-0.669-2.955-0.669
		c-3.216,0-4.954,2.376-4.954,5.304c0,3.245,2.086,5.246,4.868,5.246c1.448,0,2.405-0.379,3.129-0.697L65.247,160.213z"/>
	<path fill="#231F20" d="M78.517,153.578c-2.782-0.055-5.94,0.438-5.94,3.159c0,1.652,1.1,2.435,2.405,2.435
		c1.826,0,2.984-1.159,3.39-2.348c0.087-0.259,0.146-0.549,0.146-0.811V153.578z M80.979,157.375c0,1.217,0.057,2.404,0.232,3.362
		h-2.318l-0.202-1.769h-0.088c-0.781,1.101-2.288,2.086-4.288,2.086c-2.839,0-4.287-2-4.287-4.028c0-3.39,3.013-5.242,8.431-5.214
		v-0.29c0-1.159-0.319-3.245-3.188-3.245c-1.303,0-2.665,0.407-3.65,1.042l-0.579-1.68c1.159-0.752,2.839-1.245,4.607-1.245
		c4.287,0,5.33,2.925,5.33,5.735V157.375z"/>
	<path fill="#231F20" d="M90.83,143.353v3.359h3.651v1.942H90.83v7.563c0,1.738,0.492,2.725,1.912,2.725
		c0.694,0,1.102-0.059,1.478-0.176l0.117,1.914c-0.493,0.204-1.276,0.376-2.263,0.376c-1.187,0-2.142-0.407-2.752-1.1
		c-0.724-0.755-0.984-2-0.984-3.652v-7.649h-2.173v-1.942h2.173v-2.576L90.83,143.353z"/>
	<path fill="#231F20" d="M100.246,160.737v-14.025h2.551v14.025H100.246z M103.086,142.773c0.028,0.869-0.608,1.563-1.622,1.563
		c-0.898,0-1.537-0.693-1.537-1.563c0-0.9,0.666-1.593,1.594-1.593C102.478,141.18,103.086,141.873,103.086,142.773z"/>
	<path fill="#231F20" d="M111.487,153.753c0,3.07,1.769,5.39,4.259,5.39c2.435,0,4.259-2.29,4.259-5.449
		c0-2.376-1.186-5.39-4.2-5.39C112.791,148.305,111.487,151.088,111.487,153.753z M122.612,153.609c0,5.187-3.592,7.445-6.981,7.445
		c-3.796,0-6.722-2.78-6.722-7.214c0-4.694,3.071-7.446,6.954-7.446C119.89,146.394,122.612,149.319,122.612,153.609z"/>
	<path fill="#231F20" d="M128.727,150.508c0-1.448-0.027-2.638-0.113-3.797h2.259l0.145,2.318h0.059
		c0.695-1.332,2.317-2.635,4.635-2.635c1.942,0,4.956,1.159,4.956,5.97v8.373h-2.552v-8.083c0-2.262-0.838-4.145-3.244-4.145
		c-1.681,0-2.984,1.189-3.419,2.607c-0.115,0.321-0.174,0.755-0.174,1.19v8.432h-2.551V150.508z"/>
	<path fill="#231F20" d="M170.477,160.099c-0.926,0.462-2.78,0.955-5.156,0.955c-5.505,0-9.648-3.507-9.648-9.908
		c0-6.115,4.144-10.256,10.199-10.256c2.433,0,3.969,0.521,4.637,0.869l-0.61,2.056c-0.956-0.462-2.317-0.811-3.938-0.811
		c-4.58,0-7.622,2.928-7.622,8.056c0,4.78,2.752,7.85,7.505,7.85c1.534,0,3.1-0.318,4.114-0.811L170.477,160.099z"/>
	<path fill="#231F20" d="M184.704,152.364c0.029-1.625-0.667-4.145-3.535-4.145c-2.578,0-3.709,2.376-3.912,4.145H184.704z
		 M177.229,154.188c0.059,3.449,2.26,4.866,4.81,4.866c1.826,0,2.926-0.317,3.883-0.724l0.435,1.828
		c-0.898,0.404-2.433,0.896-4.664,0.896c-4.317,0-6.897-2.869-6.897-7.097c0-4.231,2.493-7.563,6.577-7.563
		c4.579,0,5.797,4.028,5.797,6.604c0,0.524-0.059,0.928-0.088,1.189H177.229z"/>
	<path fill="#231F20" d="M193.221,150.508c0-1.448-0.028-2.638-0.114-3.797h2.259l0.146,2.318h0.059
		c0.694-1.332,2.317-2.635,4.635-2.635c1.941,0,4.955,1.159,4.955,5.97v8.373h-2.552v-8.083c0-2.262-0.838-4.145-3.243-4.145
		c-1.682,0-2.984,1.189-3.419,2.607c-0.116,0.321-0.175,0.755-0.175,1.19v8.432h-2.55V150.508z"/>
	<path fill="#231F20" d="M215.038,143.353v3.359h3.65v1.942h-3.65v7.563c0,1.738,0.493,2.725,1.912,2.725
		c0.697,0,1.101-0.059,1.479-0.176l0.115,1.914c-0.493,0.204-1.274,0.376-2.259,0.376c-1.188,0-2.146-0.407-2.752-1.1
		c-0.725-0.755-0.986-2-0.986-3.652v-7.649h-2.173v-1.942h2.173v-2.576L215.038,143.353z"/>
	<path fill="#231F20" d="M224.455,151.088c0-1.652-0.028-3.073-0.116-4.376h2.23l0.088,2.752h0.115
		c0.638-1.883,2.173-3.069,3.883-3.069c0.29,0,0.493,0.028,0.725,0.086v2.404c-0.262-0.056-0.521-0.086-0.869-0.086
		c-1.797,0-3.071,1.362-3.419,3.276c-0.058,0.345-0.116,0.752-0.116,1.187v7.477h-2.521V151.088z"/>
	<path fill="#231F20" d="M245.142,152.364c0.029-1.625-0.667-4.145-3.535-4.145c-2.577,0-3.709,2.376-3.912,4.145H245.142z
		 M237.667,154.188c0.059,3.449,2.259,4.866,4.809,4.866c1.826,0,2.927-0.317,3.884-0.724l0.435,1.828
		c-0.898,0.404-2.434,0.896-4.665,0.896c-4.317,0-6.896-2.869-6.896-7.097c0-4.231,2.493-7.563,6.576-7.563
		c4.58,0,5.797,4.028,5.797,6.604c0,0.524-0.059,0.928-0.088,1.189H237.667z"/>
</g>
</svg>
