<?xml version="1.0" encoding="utf-8"?>
<!-- Generator: Adobe Illustrator 16.0.0, SVG Export Plug-In . SVG Version: 6.00 Build 0)  -->
<!DOCTYPE svg PUBLIC "-//W3C//DTD SVG 1.1//EN" "http://www.w3.org/Graphics/SVG/1.1/DTD/svg11.dtd">
<svg version="1.1" id="Layer_1" xmlns="http://www.w3.org/2000/svg" xmlns:xlink="http://www.w3.org/1999/xlink" x="0px" y="0px"
	 width="250px" height="250px" viewBox="0 0 250 250" enable-background="new 0 0 250 250" xml:space="preserve">
<g>
	<g>
		<path fill="#E97125" d="M61.734,95.076l-22.8-22.441l-3.179,49.971c6.002,1.732,10.107,3.996,11.685,4.951L61.734,95.076z"/>
		<path fill="#E97125" d="M34.258,46.92L8.23,82.087l11.924,38.289c4.829,0.011,9.188,0.638,12.948,1.524L34.258,46.92z"/>
		<path fill="#E97125" d="M9.567,96.963L0,123.688l0.153,0.182c6.277-2.225,12.182-3.23,17.554-3.443L9.567,96.963z"/>
		<path fill="#707277" d="M35.368,154.979l12.071-27.424c-1.577-0.953-5.683-3.218-11.685-4.951l-2.047,32.375H35.368z"/>
		<path fill="#707277" d="M32.594,154.979l0.509-33.078c-3.761-0.887-8.119-1.515-12.948-1.524l10.771,34.604h1.668V154.979z"/>
		<path fill="#707277" d="M29.701,154.979l-11.994-34.555c-5.372,0.213-11.276,1.219-17.554,3.443l26.877,31.111H29.701
			L29.701,154.979z"/>
	</g>
	<path fill="#E97125" d="M81.86,141.814c-1.473-0.023-2.941-0.307-4.345-0.996c-1.668-0.813-2.883-2.146-3.541-4.075
		c-0.438-1.313-0.483-2.679-0.313-4.058c0.352-2.813,1.56-5.093,3.436-6.947c1.212-1.194,2.587-2.041,4.119-2.577
		c2.26-0.79,4.554-0.995,6.872-0.41c1.316,0.33,2.549,0.915,3.568,1.949c1.191,1.2,1.922,2.685,2.072,4.498
		c0.201,2.427-0.296,4.673-1.47,6.713c-1.184,2.078-2.82,3.575-4.808,4.581C85.697,141.389,83.842,141.791,81.86,141.814z
		 M88.44,129.832c0.015-1.253-0.09-2.249-0.456-3.189c-0.477-1.225-1.302-1.955-2.479-2.088c-0.463-0.049-0.947-0.021-1.399,0.065
		c-1.149,0.228-2.026,0.972-2.775,1.95c-0.612,0.813-1.075,1.74-1.402,2.738c-0.536,1.637-0.854,3.33-0.996,5.063
		c-0.094,1.097,0.031,2.18,0.414,3.203c0.474,1.222,1.288,1.956,2.469,2.131c0.825,0.121,1.622-0.024,2.378-0.425
		c1.041-0.559,1.817-1.436,2.427-2.518C87.839,134.577,88.318,132.141,88.44,129.832z"/>
	<path fill="#E97125" d="M226.9,127.997c-0.146-0.31-0.271-0.585-0.395-0.853c-0.818-1.752-2.109-2.607-3.84-2.649
		c-2.409-0.06-4.182,1.185-5.396,3.46c-1.117,2.105-1.668,4.415-1.5,6.9c0.018,0.248,0.053,0.502,0.09,0.744
		c0.464,2.594,2.181,3.906,4.263,3.974c1.36,0.042,2.571-0.449,3.68-1.313c0.734-0.574,1.361-1.292,1.956-2.04
		c0.153-0.188,0.293-0.376,0.471-0.589c0.65,0.296,1.185,0.78,1.787,1.243c-0.084,0.167-0.145,0.313-0.23,0.437
		c-1.146,1.595-2.583,2.771-4.275,3.508c-2.607,1.144-5.291,1.289-8.004,0.522c-0.943-0.268-1.816-0.733-2.597-1.396
		c-1.759-1.494-2.675-3.469-2.604-5.995c0.092-3.234,1.288-5.874,3.385-8.019c1.881-1.908,4.104-2.978,6.59-3.371
		c1.455-0.229,2.904-0.242,4.353,0.043c1.961,0.394,3.472,1.541,4.554,3.426c0.061,0.115,0.108,0.24,0.153,0.352
		C228.912,126.813,227.715,127.604,226.9,127.997z"/>
	<polygon fill="#E97125" points="73.738,122.88 58.587,122.88 58.054,125.163 63.12,125.163 60.317,141.354 65.379,141.354 
		68.346,125.163 73.331,125.118 	"/>
	<polygon fill="#E97125" points="194.282,122.88 179.127,122.88 178.596,125.163 183.66,125.163 180.854,141.354 185.919,141.354 
		188.889,125.163 193.871,125.118 	"/>
	<path fill="#E97125" d="M119.969,122.88l-11.359,18.937l-2.106-9.471h-0.278l-5.686,9.471l-4.32-18.937h5.34l2.009,9.853
		c0,0,0.122,0.562,0.397,0l1.762-3.146l-1.448-6.705h5.372l2.005,9.645c0,0,0.153,0.418,0.429-0.178l5.41-9.467L119.969,122.88
		L119.969,122.88z"/>
	<polygon fill="#E97125" points="133.578,122.88 121.866,122.88 118.611,141.331 130.675,141.331 131.064,139.093 124.237,139.041 
		125.32,133.118 131.455,133.143 131.807,130.762 125.654,130.717 126.682,125.139 133.168,125.163 	"/>
	<polygon fill="#E97125" points="208.887,122.88 197.168,122.88 193.913,141.331 205.982,141.331 206.37,139.093 199.543,139.041 
		200.629,133.118 206.764,133.143 207.111,130.762 200.963,130.717 201.99,125.139 208.473,125.163 	"/>
	<path fill="#E97125" d="M137.962,122.88l-3.259,18.451h4.939l2.922-16.206c0,0,0.026-0.178,0.277-0.178c0,0,1.604,0,2.36,0.07
		c0,0,1.838,0.229,2.271,1.694c0,0,0.836,2.226-1.25,4.358c0,0-1.592,1.348-4.297,0.943c0,0-0.136-0.035,0.031,0.295l2.82,9.021
		h5.752l-2.998-7.739c0,0-0.153-0.265,0.16-0.243c0,0,3.791-0.718,4.798-3.973c0,0,1.497-3.59-1.748-5.6c0,0-1.31-0.891-4.474-0.896
		C143.104,122.865,137.962,122.88,137.962,122.88z"/>
	<path fill="#E97125" d="M166.2,127.301l2.147-1.344c0,0,0.137-0.014,0-0.341c0,0-1.17-2.785-4.186-3.123
		c-3.016-0.341-7.15,0.999-8.463,5.479c0,0-0.989,3.098,1.65,4.846c0,0,2.488,1.524,3.182,1.877c0,0,2.732,1.557,0.943,3.674
		c0,0-1.592,2.099-3.726,0.717c0,0-0.892-0.456-1.435-2.238c0,0-0.016-0.244-0.338,0.031l-2.375,1.295c0,0-0.265-0.087,0.369,1.053
		c0,0,1.448,2.973,6.176,2.517c0,0,4.83-0.191,6.563-4.563c0,0,1.521-2.904-0.47-5.178c0,0-1.17-1.003-2.963-1.911
		c0,0-2.782-1.292-2.873-2.378c0,0-0.368-2.1,1.779-2.852c0,0,1.357-0.574,2.81,0.418c0,0,0.661,0.334,1.049,1.82
		C166.044,127.1,166.059,127.389,166.2,127.301z"/>
	<polygon fill="#E97125" points="250,122.782 244.813,122.782 243.413,130.622 237.609,130.622 238.945,122.782 233.82,122.782 
		230.531,141.354 235.632,141.354 237.137,133.143 242.88,133.143 241.475,141.354 246.706,141.354 	"/>
	<g>
		<path fill="#707277" d="M49.685,149.12h-1.688l0.118-0.704h4.104l-0.118,0.704h-1.702l-0.979,5.858h-0.717L49.685,149.12z"/>
		<path fill="#707277" d="M54.476,155.08c-1.497,0-2.201-1.273-2.201-2.663c0-1.14,0.391-2.354,1.048-3.153
			c0.509-0.582,1.247-0.951,2.006-0.951c1.553,0,2.189,1.28,2.189,2.685c0,1.11-0.365,2.326-1.009,3.103
			c-0.513,0.623-1.205,0.981-2.026,0.981L54.476,155.08L54.476,155.08z M54.569,154.4c1.235,0,2.183-1.782,2.183-3.366
			c0-0.933-0.265-2.043-1.521-2.043c-1.309,0-2.207,1.849-2.207,3.354c0,1.072,0.414,2.055,1.542,2.055H54.569z"/>
		<path fill="#707277" d="M59.228,154.979l-0.289-6.563h0.71l0.14,3.932c0.014,0.85,0,1.299,0,1.702h0.014
			c0.133-0.425,0.271-0.843,0.585-1.653l1.605-3.979h0.766l0.118,3.774c0.028,0.85,0.028,1.424,0.014,1.849h0.015
			c0.174-0.562,0.341-1.086,0.57-1.683l1.553-3.94h0.756l-2.688,6.563H62.34l-0.143-3.732c-0.038-0.768-0.028-1.135,0.014-1.889
			h-0.027c-0.191,0.625-0.338,1.133-0.582,1.725l-1.615,3.896h-0.759V154.979z"/>
		<path fill="#707277" d="M69.334,151.895h-2.106l-0.39,2.389h2.367l-0.121,0.697h-3.078l1.101-6.563h2.948l-0.122,0.688h-2.228
			l-0.352,2.104h2.096L69.334,151.895z"/>
		<path fill="#707277" d="M71.646,148.518c0.353-0.091,0.832-0.14,1.261-0.14c0.574,0,1.068,0.157,1.379,0.479
			c0.265,0.248,0.432,0.627,0.432,1.08c0,0.951-0.641,1.66-1.372,1.896l-0.014,0.018c0.418,0.153,0.603,0.642,0.644,1.316
			c0.063,0.912,0.102,1.546,0.185,1.811H73.42c-0.027-0.14-0.094-0.832-0.132-1.588c-0.042-0.908-0.338-1.273-0.912-1.273h-0.641
			l-0.467,2.861h-0.714L71.646,148.518z M71.852,151.49h0.634c0.905,0,1.486-0.672,1.486-1.448c0-0.71-0.467-1.022-1.121-1.022
			c-0.282,0-0.456,0.027-0.596,0.072L71.852,151.49z"/>
		<path fill="#707277" d="M75.653,153.963c0.307,0.243,0.748,0.421,1.229,0.421c0.651,0,1.25-0.442,1.25-1.226
			c0-0.498-0.24-0.86-0.85-1.227c-0.738-0.459-1.146-0.984-1.146-1.685c0-1.177,0.892-1.926,1.95-1.926
			c0.567,0,0.988,0.185,1.187,0.341l-0.257,0.658c-0.178-0.129-0.536-0.316-0.996-0.311c-0.724,0-1.148,0.532-1.148,1.068
			c0,0.533,0.296,0.836,0.897,1.216c0.714,0.44,1.104,0.954,1.104,1.754c0,1.136-0.786,2.03-2.089,2.03
			c-0.584-0.007-1.152-0.209-1.389-0.456L75.653,153.963z"/>
		<path fill="#707277" d="M83.831,149.12H82.14l0.121-0.704h4.104l-0.121,0.704h-1.699l-0.981,5.858h-0.707L83.831,149.12z"/>
		<path fill="#707277" d="M89.76,151.895h-2.103l-0.394,2.389h2.371l-0.122,0.697h-3.077l1.097-6.563h2.952l-0.118,0.688h-2.235
			l-0.352,2.104h2.103L89.76,151.895z"/>
		<path fill="#707277" d="M94.979,154.773c-0.327,0.16-0.849,0.307-1.496,0.307c-1.459,0-2.347-1.048-2.347-2.723
			c0-1.236,0.438-2.414,1.229-3.166c0.599-0.569,1.341-0.869,2.19-0.869c0.633,0,1.1,0.185,1.249,0.31l-0.229,0.648
			c-0.212-0.146-0.623-0.27-1.142-0.27c-0.606,0-1.208,0.261-1.657,0.738c-0.543,0.578-0.885,1.497-0.885,2.5
			c0,1.169,0.474,2.142,1.762,2.142c0.438,0,0.923-0.099,1.232-0.283L94.979,154.773z"/>
		<path fill="#707277" d="M98.074,148.416l-0.463,2.766h2.659l0.464-2.766h0.713l-1.104,6.563h-0.706l0.504-3.084h-2.652
			l-0.519,3.084h-0.714l1.1-6.563H98.074z"/>
		<path fill="#707277" d="M102.158,154.979l1.1-6.563h0.783l1.316,3.723c0.258,0.744,0.39,1.256,0.505,1.824l0.014-0.011
			c0.038-0.589,0.104-1.136,0.261-2.052l0.575-3.484h0.675l-1.1,6.563h-0.703l-1.327-3.711c-0.268-0.805-0.4-1.265-0.525-1.888
			l-0.031,0.007c-0.06,0.616-0.149,1.271-0.296,2.162l-0.578,3.43H102.158z"/>
		<path fill="#707277" d="M110.44,155.08c-1.49,0-2.197-1.273-2.197-2.663c0-1.14,0.387-2.354,1.045-3.153
			c0.508-0.582,1.246-0.951,2.002-0.951c1.556,0,2.187,1.28,2.187,2.685c0,1.11-0.359,2.326-1,3.103
			c-0.519,0.623-1.211,0.981-2.033,0.981L110.44,155.08L110.44,155.08z M110.534,154.4c1.236,0,2.18-1.782,2.18-3.366
			c0-0.933-0.269-2.043-1.525-2.043c-1.306,0-2.196,1.849-2.196,3.354c0,1.072,0.414,2.055,1.535,2.055H110.534z"/>
		<path fill="#707277" d="M115.446,148.416h0.711l-0.985,5.859h2.329l-0.115,0.703h-3.043L115.446,148.416z"/>
		<path fill="#707277" d="M120.609,155.08c-1.493,0-2.193-1.273-2.193-2.663c0-1.14,0.384-2.354,1.049-3.153
			c0.504-0.582,1.242-0.951,1.994-0.951c1.557,0,2.193,1.28,2.193,2.685c0,1.11-0.361,2.326-1.01,3.103
			c-0.508,0.623-1.208,0.981-2.022,0.981L120.609,155.08L120.609,155.08z M120.707,154.4c1.236,0,2.176-1.782,2.176-3.366
			c0-0.933-0.261-2.043-1.531-2.043c-1.303,0-2.19,1.849-2.19,3.354c0,1.072,0.411,2.055,1.532,2.055H120.707z"/>
		<path fill="#707277" d="M128.777,154.693c-0.338,0.152-0.954,0.352-1.629,0.352c-0.818,0-1.453-0.265-1.892-0.818
			c-0.442-0.545-0.585-1.264-0.585-1.91c0-1.086,0.383-2.235,1.128-2.994c0.62-0.609,1.452-0.971,2.382-0.971
			c0.707,0,1.185,0.185,1.364,0.303l-0.239,0.679c-0.293-0.167-0.687-0.285-1.209-0.285c-0.688,0-1.313,0.285-1.797,0.802
			c-0.543,0.573-0.87,1.518-0.87,2.401c0,1.265,0.564,2.103,1.853,2.103c0.334,0,0.668-0.076,0.874-0.185l0.334-1.957h-1.178
			l0.115-0.661h1.869L128.777,154.693z"/>
		<path fill="#707277" d="M131.5,154.979l0.452-2.729l-1.117-3.834h0.767l0.558,2.124c0.146,0.581,0.194,0.846,0.243,1.097h0.015
			c0.146-0.271,0.337-0.641,0.616-1.123l1.253-2.098h0.832l-2.466,3.823l-0.455,2.739H131.5z"/>
		<path fill="#707277" d="M141.412,154.773c-0.327,0.16-0.85,0.307-1.504,0.307c-1.459,0-2.348-1.048-2.348-2.723
			c0-1.236,0.438-2.414,1.229-3.166c0.603-0.569,1.344-0.869,2.19-0.869c0.637,0,1.1,0.185,1.25,0.31L142,149.28
			c-0.212-0.146-0.623-0.27-1.135-0.27c-0.605,0-1.215,0.261-1.664,0.738c-0.543,0.578-0.877,1.497-0.877,2.5
			c0,1.169,0.466,2.142,1.754,2.142c0.438,0,0.923-0.099,1.236-0.283L141.412,154.773z"/>
		<path fill="#707277" d="M144.8,155.08c-1.493,0-2.196-1.273-2.196-2.663c0-1.14,0.387-2.354,1.047-3.153
			c0.51-0.582,1.246-0.951,1.998-0.951c1.558,0,2.19,1.28,2.19,2.685c0,1.11-0.362,2.326-1.007,3.103
			c-0.512,0.623-1.204,0.981-2.021,0.981L144.8,155.08L144.8,155.08z M144.896,154.4c1.231,0,2.176-1.782,2.176-3.366
			c0-0.933-0.264-2.043-1.521-2.043c-1.306,0-2.197,1.849-2.197,3.354c0,1.072,0.412,2.055,1.532,2.055H144.896z"/>
		<path fill="#707277" d="M148.702,154.979l1.101-6.563h0.783l1.322,3.723c0.255,0.744,0.38,1.256,0.509,1.824l0.015-0.011
			c0.034-0.589,0.094-1.136,0.25-2.052l0.578-3.484h0.676l-1.104,6.563h-0.703l-1.315-3.711c-0.278-0.805-0.407-1.265-0.532-1.888
			l-0.028,0.007c-0.059,0.616-0.156,1.271-0.299,2.162l-0.574,3.43H148.702z"/>
		<path fill="#707277" d="M156.63,149.12h-1.696l0.123-0.704h4.102l-0.118,0.704h-1.699l-0.979,5.858h-0.709L156.63,149.12z"/>
		<path fill="#707277" d="M160.316,148.518c0.357-0.091,0.836-0.14,1.264-0.14c0.578,0,1.076,0.157,1.382,0.479
			c0.265,0.248,0.425,0.627,0.425,1.08c0,0.951-0.641,1.66-1.363,1.896l-0.012,0.018c0.411,0.153,0.6,0.642,0.646,1.316
			c0.059,0.912,0.101,1.546,0.174,1.811h-0.733c-0.035-0.14-0.096-0.832-0.141-1.588c-0.038-0.908-0.331-1.273-0.904-1.273h-0.638
			l-0.47,2.861h-0.715L160.316,148.518z M160.527,151.49h0.635c0.898,0,1.482-0.672,1.482-1.448c0-0.71-0.463-1.022-1.117-1.022
			c-0.281,0-0.463,0.027-0.6,0.072L160.527,151.49z"/>
		<path fill="#707277" d="M165.462,152.904l-0.923,2.074h-0.741l2.979-6.563h0.847l0.797,6.563h-0.728l-0.236-2.074H165.462z
			 M167.408,152.26l-0.229-1.894c-0.029-0.343-0.074-0.829-0.096-1.208h-0.027c-0.156,0.386-0.303,0.797-0.474,1.197l-0.853,1.903
			L167.408,152.26L167.408,152.26z"/>
		<path fill="#707277" d="M173.471,154.773c-0.332,0.16-0.851,0.307-1.509,0.307c-1.459,0-2.336-1.048-2.336-2.723
			c0-1.236,0.437-2.414,1.226-3.166c0.604-0.569,1.338-0.869,2.188-0.869c0.637,0,1.1,0.185,1.257,0.31l-0.233,0.648
			c-0.215-0.146-0.629-0.27-1.142-0.27c-0.603,0-1.205,0.261-1.653,0.738c-0.543,0.578-0.893,1.497-0.893,2.5
			c0,1.169,0.479,2.142,1.766,2.142c0.438,0,0.924-0.099,1.232-0.283L173.471,154.773z"/>
		<path fill="#707277" d="M176.725,149.12h-1.688l0.122-0.704h4.104l-0.123,0.704h-1.697l-0.979,5.858h-0.707L176.725,149.12z"/>
		<path fill="#707277" d="M181.133,148.416l-1.097,6.563h-0.707l1.093-6.563H181.133z"/>
		<path fill="#707277" d="M181.846,154.979l1.098-6.563h0.783l1.315,3.723c0.265,0.744,0.396,1.256,0.513,1.824l0.014-0.011
			c0.041-0.589,0.102-1.136,0.25-2.052l0.586-3.484h0.668l-1.096,6.563h-0.705l-1.321-3.711c-0.275-0.805-0.407-1.265-0.533-1.888
			l-0.026,0.007c-0.061,0.616-0.154,1.271-0.301,2.162l-0.574,3.43H181.846z"/>
		<path fill="#707277" d="M192.04,154.693c-0.331,0.152-0.95,0.352-1.626,0.352c-0.818,0-1.452-0.265-1.887-0.818
			c-0.439-0.545-0.586-1.264-0.586-1.91c0-1.086,0.384-2.235,1.121-2.994c0.623-0.609,1.459-0.971,2.393-0.971
			c0.695,0,1.18,0.185,1.361,0.303l-0.244,0.679c-0.289-0.167-0.687-0.285-1.204-0.285c-0.688,0-1.319,0.285-1.804,0.802
			c-0.532,0.573-0.856,1.518-0.856,2.401c0,1.265,0.554,2.103,1.838,2.103c0.349,0,0.677-0.076,0.881-0.185l0.335-1.957h-1.174
			l0.104-0.661h1.877L192.04,154.693z"/>
		<path fill="#707277" d="M199.727,154.773c-0.326,0.16-0.849,0.307-1.506,0.307c-1.455,0-2.341-1.048-2.341-2.723
			c0-1.236,0.438-2.414,1.226-3.166c0.604-0.569,1.345-0.869,2.188-0.869c0.641,0,1.104,0.185,1.26,0.31l-0.236,0.648
			c-0.211-0.146-0.623-0.27-1.146-0.27c-0.596,0-1.204,0.261-1.653,0.738c-0.543,0.578-0.877,1.497-0.877,2.5
			c0,1.169,0.467,2.142,1.754,2.142c0.438,0,0.92-0.099,1.232-0.283L199.727,154.773z"/>
		<path fill="#707277" d="M203.113,155.08c-1.492,0-2.188-1.273-2.188-2.663c0-1.14,0.38-2.354,1.041-3.153
			c0.505-0.582,1.246-0.951,2.002-0.951c1.554,0,2.187,1.28,2.187,2.685c0,1.11-0.358,2.326-1.006,3.103
			c-0.512,0.623-1.211,0.981-2.022,0.981L203.113,155.08L203.113,155.08z M203.212,154.4c1.236,0,2.177-1.782,2.177-3.366
			c0-0.933-0.262-2.043-1.525-2.043c-1.305,0-2.199,1.849-2.199,3.354c0,1.072,0.41,2.055,1.538,2.055H203.212z"/>
		<path fill="#707277" d="M211.87,154.979l0.415-3.545c0.072-0.625,0.201-1.586,0.313-2.218h-0.031
			c-0.265,0.658-0.588,1.441-0.897,2.11l-1.728,3.605h-0.539l-0.432-3.529c-0.085-0.76-0.146-1.519-0.183-2.188h-0.027
			c-0.118,0.604-0.3,1.592-0.436,2.219l-0.79,3.545h-0.669l1.501-6.563h0.908l0.455,3.765c0.063,0.557,0.119,1.151,0.141,1.646
			h0.021c0.185-0.494,0.436-1.079,0.683-1.625l1.782-3.785h0.938l-0.738,6.563H211.87L211.87,154.979z"/>
		<path fill="#707277" d="M215.32,148.518c0.33-0.08,0.779-0.14,1.257-0.14c0.558,0,1.09,0.157,1.417,0.509
			c0.271,0.278,0.418,0.657,0.418,1.178c0,0.728-0.313,1.351-0.696,1.701c-0.448,0.426-1.097,0.631-1.751,0.631
			c-0.227,0-0.41-0.021-0.592-0.049l-0.438,2.633h-0.703L215.32,148.518z M215.48,151.668c0.213,0.049,0.375,0.061,0.582,0.061
			c0.975,0,1.629-0.684,1.629-1.605c0-0.783-0.487-1.09-1.146-1.09c-0.289,0-0.501,0.031-0.63,0.07L215.48,151.668z"/>
		<path fill="#707277" d="M219.718,152.904l-0.919,2.074h-0.749l2.987-6.563h0.843l0.802,6.563h-0.731l-0.229-2.074H219.718z
			 M221.664,152.26l-0.229-1.894c-0.028-0.343-0.066-0.829-0.099-1.208h-0.024c-0.156,0.386-0.303,0.797-0.474,1.197l-0.86,1.903
			L221.664,152.26L221.664,152.26z"/>
		<path fill="#707277" d="M223.934,154.979l1.098-6.563h0.779l1.319,3.723c0.259,0.744,0.388,1.256,0.509,1.824l0.014-0.011
			c0.039-0.589,0.104-1.136,0.248-2.052l0.588-3.484h0.669l-1.101,6.563h-0.699l-1.323-3.711c-0.275-0.805-0.4-1.265-0.532-1.888
			l-0.023,0.007c-0.061,0.616-0.158,1.271-0.304,2.162l-0.577,3.43H223.934z"/>
		<path fill="#707277" d="M230.986,154.979l0.461-2.729l-1.121-3.834h0.763l0.562,2.124c0.148,0.581,0.193,0.846,0.231,1.097h0.021
			c0.146-0.271,0.349-0.641,0.619-1.123l1.258-2.098h0.828l-2.461,3.823l-0.459,2.739H230.986z"/>
		<path fill="#707277" d="M237.999,148.416h0.714l-0.988,5.859h2.336l-0.117,0.703h-3.047L237.999,148.416z"/>
		<path fill="#707277" d="M242.311,148.416h0.709l-0.987,5.859h2.336l-0.122,0.703h-3.032L242.311,148.416z"/>
		<path fill="#707277" d="M249.13,154.773c-0.323,0.16-0.847,0.307-1.497,0.307c-1.463,0-2.344-1.048-2.344-2.723
			c0-1.236,0.436-2.414,1.227-3.166c0.603-0.569,1.336-0.869,2.187-0.869c0.641,0,1.101,0.185,1.257,0.31l-0.232,0.648
			c-0.22-0.146-0.627-0.27-1.143-0.27c-0.604,0-1.215,0.261-1.652,0.738c-0.541,0.578-0.889,1.497-0.889,2.5
			c0,1.169,0.473,2.142,1.762,2.142c0.436,0,0.92-0.099,1.235-0.283L249.13,154.773z"/>
	</g>
</g>
</svg>
