<?xml version="1.0" encoding="utf-8"?>
<!-- Generator: Adobe Illustrator 16.0.0, SVG Export Plug-In . SVG Version: 6.00 Build 0)  -->
<!DOCTYPE svg PUBLIC "-//W3C//DTD SVG 1.1//EN" "http://www.w3.org/Graphics/SVG/1.1/DTD/svg11.dtd">
<svg version="1.1" id="Layer_1" xmlns="http://www.w3.org/2000/svg" xmlns:xlink="http://www.w3.org/1999/xlink" x="0px" y="0px"
	 width="250px" height="250px" viewBox="0 0 250 250" enable-background="new 0 0 250 250" xml:space="preserve">
<g>
	<rect y="75.194" fill="#ED6F25" width="250" height="99.612"/>
	<g>
		<path fill="#FFFFFF" d="M34.229,136.346c1.921,0,3.654-0.324,5.205-0.974c1.548-0.653,2.941-1.533,4.183-2.649l6.969,6.69
			l-0.186,0.188c-2.044,1.984-4.46,3.547-7.248,4.691c-2.787,1.148-5.763,1.719-8.923,1.719c-3.159,0-6.149-0.603-8.969-1.81
			c-2.819-1.209-5.283-2.866-7.387-4.974c-2.109-2.104-3.782-4.568-5.02-7.387c-1.241-2.819-1.859-5.839-1.859-9.062
			s0.618-6.257,1.859-9.109c1.237-2.849,2.91-5.327,5.02-7.434c2.104-2.107,4.567-3.764,7.387-4.974
			c2.819-1.207,5.81-1.813,8.969-1.813c3.16,0,6.136,0.574,8.923,1.722c2.788,1.148,5.204,2.711,7.248,4.691l0.186,0.188
			l-6.969,6.689c-1.241-1.115-2.635-1.998-4.183-2.648c-1.551-0.65-3.284-0.974-5.205-0.974c-1.858,0-3.609,0.356-5.252,1.068
			c-1.642,0.712-3.081,1.689-4.32,2.928c-1.24,1.239-2.216,2.693-2.928,4.368c-0.713,1.671-1.068,3.438-1.068,5.297
			c0,1.857,0.355,3.608,1.068,5.25c0.712,1.643,1.688,3.084,2.928,4.321c1.239,1.242,2.679,2.216,4.32,2.928
			C30.62,135.99,32.371,136.346,34.229,136.346z"/>
	</g>
	<g>
		<path fill="#FFFFFF" d="M53.553,122.743c-0.062-3.167,0.513-6.163,1.725-8.988c1.21-2.829,2.871-5.295,4.983-7.408
			c2.109-2.11,4.594-3.788,7.451-5.03c2.858-1.242,5.901-1.863,9.13-1.863v9.689c-1.863,0-3.617,0.356-5.263,1.071
			c-1.646,0.712-3.09,1.675-4.332,2.887c-1.243,1.209-2.222,2.655-2.935,4.332c-0.715,1.675-1.071,3.447-1.071,5.31v23.289h-9.688
			V122.743z"/>
	</g>
	<g>
		<path fill="#FFFFFF" d="M115.841,136.363c1.922,0,3.657-0.327,5.207-0.977c1.548-0.65,2.942-1.533,4.185-2.649l6.973,6.693
			l-0.186,0.186c-2.046,1.986-4.465,3.549-7.252,4.697c-2.79,1.148-5.766,1.719-8.927,1.719s-6.151-0.604-8.971-1.813
			c-2.82-1.21-5.285-2.867-7.392-4.974c-2.108-2.107-3.78-4.571-5.021-7.39s-1.858-5.842-1.858-9.065s0.618-6.26,1.858-9.112
			c1.24-2.852,2.912-5.33,5.021-7.437c2.106-2.107,4.571-3.767,7.392-4.974c2.819-1.209,5.81-1.813,8.971-1.813
			s6.137,0.574,8.927,1.719c2.787,1.148,5.206,2.714,7.252,4.694l0.186,0.188l-6.973,6.693c-1.242-1.116-2.637-1.999-4.185-2.649
			c-1.55-0.65-3.285-0.977-5.207-0.977c-1.859,0-3.611,0.359-5.252,1.068c-1.644,0.715-3.084,1.689-4.323,2.928
			c-1.24,1.242-2.216,2.699-2.929,4.371c-0.714,1.674-1.069,3.44-1.069,5.3c0,1.857,0.355,3.611,1.069,5.25
			c0.713,1.646,1.688,3.084,2.929,4.324c1.239,1.242,2.68,2.219,4.323,2.928C112.229,136.007,113.981,136.363,115.841,136.363z"/>
	</g>
	<g>
		<path fill="#FFFFFF" d="M225.956,146.038h-9.686v-23.28c0-1.863-0.357-3.632-1.071-5.31c-0.714-1.674-1.692-3.12-2.933-4.329
			c-1.244-1.209-2.688-2.172-4.331-2.887c-1.646-0.712-3.399-1.071-5.261-1.071c-1.863,0-3.617,0.359-5.263,1.071
			c-1.645,0.715-3.089,1.678-4.33,2.887c-1.242,1.209-2.22,2.655-2.934,4.329c-0.715,1.678-1.071,3.447-1.071,5.31v23.28h-9.684
			v-23.28c-0.063-3.167,0.511-6.163,1.723-8.985c1.21-2.825,2.87-5.294,4.981-7.405c2.11-2.11,4.594-3.788,7.45-5.03
			c2.855-1.242,5.896-1.863,9.127-1.863c3.227,0,6.271,0.621,9.125,1.863c2.856,1.242,5.34,2.919,7.45,5.03s3.771,4.58,4.983,7.405
			c1.209,2.822,1.783,5.818,1.723,8.985V146.038z"/>
	</g>
	<path fill="#FFFFFF" d="M80.708,98"/>
	<g>
		<path fill="#FFFFFF" d="M183.628,155.267l1.013,0.132c-0.11,0.698-0.395,1.242-0.849,1.636c-0.456,0.395-1.016,0.592-1.678,0.592
			c-0.833,0-1.501-0.271-2.005-0.813c-0.506-0.544-0.759-1.321-0.759-2.337c0-0.656,0.108-1.23,0.326-1.722
			c0.218-0.491,0.548-0.859,0.992-1.106c0.444-0.244,0.927-0.368,1.451-0.368c0.659,0,1.197,0.167,1.617,0.5
			c0.419,0.333,0.688,0.807,0.807,1.422l-1.001,0.153c-0.096-0.406-0.264-0.715-0.506-0.921c-0.243-0.206-0.534-0.306-0.879-0.306
			c-0.518,0-0.938,0.185-1.263,0.556c-0.323,0.371-0.485,0.959-0.485,1.763c0,0.815,0.156,1.41,0.468,1.778
			c0.313,0.371,0.721,0.556,1.225,0.556c0.403,0,0.741-0.124,1.013-0.371C183.384,156.162,183.557,155.782,183.628,155.267z"/>
		<path fill="#FFFFFF" d="M185.511,157.492v-6.072h0.926v0.918c0.235-0.43,0.454-0.715,0.654-0.85c0.2-0.139,0.42-0.206,0.661-0.206
			c0.346,0,0.698,0.112,1.057,0.333l-0.355,0.954c-0.251-0.147-0.503-0.224-0.753-0.224c-0.226,0-0.429,0.067-0.606,0.203
			c-0.18,0.136-0.308,0.324-0.383,0.565c-0.114,0.365-0.172,0.765-0.172,1.201v3.179H185.511z"/>
		<path fill="#FFFFFF" d="M189.426,150.293v-1.183h1.029v1.183H189.426z M189.426,157.492v-6.072h1.029v6.072H189.426z"/>
		<path fill="#FFFFFF" d="M195.985,155.267l1.012,0.132c-0.111,0.698-0.394,1.242-0.849,1.636c-0.456,0.395-1.016,0.592-1.679,0.592
			c-0.832,0-1.5-0.271-2.005-0.813c-0.505-0.544-0.758-1.321-0.758-2.337c0-0.656,0.109-1.23,0.327-1.722
			c0.218-0.491,0.547-0.859,0.991-1.106c0.444-0.244,0.928-0.368,1.45-0.368c0.659,0,1.199,0.167,1.618,0.5
			c0.418,0.333,0.688,0.807,0.807,1.422l-1.001,0.153c-0.096-0.406-0.265-0.715-0.508-0.921c-0.241-0.206-0.534-0.306-0.877-0.306
			c-0.518,0-0.938,0.185-1.264,0.556c-0.324,0.371-0.485,0.959-0.485,1.763c0,0.815,0.155,1.41,0.469,1.778
			c0.313,0.371,0.72,0.556,1.224,0.556c0.404,0,0.741-0.124,1.012-0.371C195.741,156.162,195.911,155.782,195.985,155.267z"/>
		<path fill="#FFFFFF" d="M197.493,154.455c0-1.124,0.313-1.957,0.939-2.499c0.522-0.45,1.157-0.674,1.908-0.674
			c0.836,0,1.519,0.273,2.047,0.821c0.531,0.547,0.796,1.301,0.796,2.266c0,0.783-0.117,1.395-0.352,1.846
			c-0.235,0.447-0.575,0.794-1.024,1.042c-0.447,0.248-0.936,0.371-1.467,0.371c-0.849,0-1.536-0.271-2.061-0.815
			C197.757,156.265,197.493,155.482,197.493,154.455z M198.552,154.455c0,0.777,0.17,1.36,0.509,1.749
			c0.34,0.385,0.767,0.58,1.28,0.58c0.512,0,0.936-0.194,1.275-0.583c0.341-0.389,0.51-0.983,0.51-1.778
			c0-0.753-0.171-1.321-0.513-1.707c-0.341-0.389-0.765-0.583-1.272-0.583c-0.514,0-0.94,0.194-1.28,0.58
			C198.722,153.098,198.552,153.678,198.552,154.455z"/>
		<path fill="#FFFFFF" d="M204.391,157.492v-6.072h0.926v0.862c0.445-0.668,1.09-1,1.932-1c0.366,0,0.704,0.064,1.01,0.197
			c0.308,0.133,0.537,0.303,0.688,0.518c0.153,0.212,0.261,0.465,0.321,0.759c0.038,0.191,0.057,0.524,0.057,1.001v3.735h-1.028
			v-3.694c0-0.421-0.041-0.733-0.12-0.942c-0.08-0.206-0.223-0.374-0.427-0.497c-0.203-0.124-0.443-0.186-0.717-0.186
			c-0.438,0-0.817,0.138-1.135,0.418c-0.319,0.276-0.479,0.806-0.479,1.583v3.317H204.391z"/>
		<path fill="#FFFFFF" d="M211.195,157.492v-1.174h1.171v1.174H211.195z"/>
		<path fill="#FFFFFF" d="M218.119,156.742c-0.382,0.324-0.748,0.553-1.102,0.688c-0.353,0.132-0.731,0.197-1.134,0.197
			c-0.669,0-1.181-0.162-1.54-0.489c-0.357-0.324-0.537-0.742-0.537-1.248c0-0.297,0.068-0.568,0.203-0.815
			c0.136-0.244,0.313-0.444,0.531-0.591c0.22-0.15,0.467-0.262,0.742-0.339c0.201-0.053,0.506-0.103,0.914-0.153
			c0.831-0.1,1.443-0.218,1.836-0.356c0.003-0.139,0.006-0.23,0.006-0.268c0-0.418-0.097-0.715-0.291-0.886
			c-0.264-0.232-0.655-0.35-1.173-0.35c-0.484,0-0.842,0.085-1.073,0.256c-0.229,0.171-0.401,0.468-0.511,0.9l-1.006-0.138
			c0.091-0.43,0.241-0.777,0.45-1.042c0.21-0.265,0.514-0.471,0.911-0.612c0.396-0.145,0.854-0.215,1.377-0.215
			c0.518,0,0.938,0.062,1.264,0.182c0.324,0.124,0.563,0.277,0.714,0.459c0.153,0.185,0.259,0.421,0.321,0.703
			c0.033,0.174,0.052,0.492,0.052,0.948v1.372c0,0.957,0.021,1.563,0.064,1.816c0.044,0.253,0.131,0.497,0.261,0.73h-1.074
			C218.218,157.277,218.149,157.03,218.119,156.742z M218.033,154.443c-0.374,0.153-0.935,0.283-1.682,0.392
			c-0.423,0.059-0.723,0.126-0.897,0.203c-0.176,0.076-0.311,0.188-0.406,0.335c-0.096,0.147-0.143,0.309-0.143,0.488
			c0,0.274,0.104,0.503,0.312,0.686c0.207,0.182,0.512,0.276,0.912,0.276c0.396,0,0.749-0.088,1.059-0.262
			c0.309-0.174,0.534-0.409,0.68-0.712c0.11-0.232,0.166-0.574,0.166-1.027V154.443z"/>
		<path fill="#FFFFFF" d="M224.826,155.535l1.063,0.133c-0.167,0.621-0.479,1.104-0.933,1.448c-0.453,0.341-1.033,0.512-1.738,0.512
			c-0.889,0-1.592-0.271-2.112-0.818c-0.52-0.547-0.78-1.315-0.78-2.301c0-1.021,0.264-1.816,0.789-2.378
			c0.525-0.565,1.208-0.848,2.047-0.848c0.812,0,1.476,0.276,1.989,0.83c0.515,0.55,0.772,1.331,0.772,2.331
			c0,0.062-0.001,0.153-0.006,0.277h-4.528c0.039,0.665,0.227,1.177,0.565,1.53c0.34,0.356,0.763,0.533,1.27,0.533
			c0.377,0,0.699-0.1,0.966-0.297C224.458,156.288,224.67,155.97,224.826,155.535z M221.446,153.872h3.392
			c-0.046-0.512-0.177-0.895-0.39-1.148c-0.327-0.397-0.752-0.594-1.274-0.594c-0.473,0-0.87,0.156-1.192,0.474
			C221.659,152.918,221.481,153.342,221.446,153.872z"/>
	</g>
	<ellipse fill="#FFFFFF" cx="152.911" cy="122.74" rx="23.346" ry="23.292"/>
	<path fill="#FFFFFF" d="M89.535,93.409l-0.132-0.727c-1.098-0.712-1.937-0.085-1.937-0.085c-0.937-0.553-1.854,0.012-1.854,0.012
		c-1.043-0.58-1.849,0.036-1.849,0.036c-0.906-0.606-1.823,0.003-1.823,0.003c-0.299-0.239-0.701-0.256-0.701-0.256
		c-0.992-0.112-1.184,0.324-1.184,0.324l-0.134,0.753l-2.798,0.009v0.003h-0.07h-0.006h-0.085l0,0h-0.002l0.005,1.628l3.006,0.018
		l0.083,0.753c0.698,0.688,1.932,0.08,1.932,0.08c0.77,0.656,1.834,0.047,1.834,0.047c0.796,0.609,1.854,0.023,1.854,0.023
		c0.838,0.583,1.806,0.047,1.806,0.047c1.535,0.547,2.006-0.286,2.006-0.286l0.059-0.577l3.109,0.023v-1.86L89.535,93.409z"/>
	<g>
		<path fill="#FFFFFF" d="M231.819,144.136v-5.53h2.451c0.491,0,0.867,0.05,1.123,0.15c0.257,0.097,0.462,0.273,0.615,0.523
			c0.152,0.253,0.229,0.53,0.229,0.836c0,0.392-0.127,0.721-0.38,0.992c-0.255,0.268-0.646,0.438-1.178,0.512
			c0.193,0.094,0.341,0.186,0.442,0.277c0.213,0.194,0.416,0.438,0.605,0.733l0.963,1.507h-0.92l-0.732-1.151
			c-0.214-0.333-0.389-0.585-0.527-0.762c-0.138-0.177-0.264-0.3-0.372-0.371c-0.109-0.067-0.221-0.118-0.334-0.144
			c-0.083-0.021-0.218-0.029-0.406-0.029h-0.85v2.458H231.819z M232.55,141.046h1.573c0.334,0,0.597-0.035,0.784-0.103
			c0.188-0.071,0.332-0.18,0.431-0.333c0.098-0.153,0.146-0.318,0.146-0.495c0-0.262-0.096-0.477-0.285-0.647
			c-0.188-0.167-0.49-0.25-0.899-0.25h-1.75V141.046z"/>
	</g>
	
		<ellipse fill="none" stroke="#FFFFFF" stroke-width="1.5" stroke-miterlimit="10" cx="234.019" cy="141.161" rx="4.56" ry="4.594"/>
	<path fill="#FFFFFF" d="M79.876,99.139"/>
	<path fill="#FFFFFF" d="M79.876,98.053"/>
	<path fill="#FFFFFF" d="M79.87,95.478"/>
	<path fill="#FFFFFF" d="M79.87,93.879"/>
	<path fill="none" stroke="#ED6F25" stroke-width="1.6" stroke-miterlimit="10" d="M146.62,145.263c0,0,8.259-26.6,12.35-45.197"/>
	<path fill="#ED6F25" d="M167.001,104.704c0.011,0.053-0.023,0.106-0.076,0.118l-0.862,0.186c-0.053,0.012-0.106-0.021-0.118-0.074
		l-0.471-2.184c-0.012-0.053,0.022-0.103,0.075-0.115l0.863-0.188c0.054-0.012,0.104,0.024,0.115,0.077L167.001,104.704z"/>
	<path fill="#ED6F25" d="M166.406,107.121c0.013,0.053-0.021,0.106-0.073,0.118l-0.865,0.186c-0.053,0.012-0.104-0.021-0.116-0.077
		l-0.471-2.181c-0.011-0.053,0.021-0.106,0.075-0.115l0.863-0.188c0.052-0.012,0.104,0.023,0.116,0.077L166.406,107.121z"/>
	<path fill="#ED6F25" d="M165.839,109.569c0.012,0.053-0.021,0.106-0.074,0.118l-0.863,0.186c-0.053,0.012-0.104-0.021-0.116-0.074
		l-0.471-2.184c-0.012-0.053,0.021-0.103,0.073-0.115l0.864-0.188c0.053-0.012,0.104,0.023,0.116,0.076L165.839,109.569z"/>
	<path fill="#ED6F25" d="M165.271,112.027c0.012,0.053-0.021,0.106-0.075,0.118l-0.863,0.186c-0.053,0.012-0.104-0.024-0.116-0.077
		l-0.471-2.181c-0.013-0.053,0.021-0.106,0.074-0.115l0.862-0.188c0.054-0.012,0.106,0.023,0.118,0.076L165.271,112.027z"/>
	<path fill="#ED6F25" d="M164.693,114.461c0.013,0.053-0.021,0.103-0.073,0.115l-0.865,0.188c-0.052,0.012-0.103-0.023-0.114-0.076
		l-0.473-2.181c-0.011-0.053,0.021-0.106,0.075-0.118l0.863-0.186c0.053-0.012,0.104,0.021,0.116,0.074L164.693,114.461z"/>
	<path fill="#ED6F25" d="M164.123,116.909c0.01,0.053-0.023,0.106-0.077,0.115l-0.862,0.188c-0.053,0.012-0.105-0.023-0.117-0.076
		l-0.471-2.181c-0.012-0.053,0.021-0.106,0.074-0.118l0.864-0.186c0.053-0.012,0.104,0.021,0.116,0.074L164.123,116.909z"/>
	<path fill="#ED6F25" d="M163.537,119.308c0.012,0.053-0.023,0.106-0.075,0.118l-0.863,0.186c-0.054,0.012-0.106-0.021-0.116-0.074
		l-0.473-2.184c-0.011-0.053,0.023-0.103,0.076-0.115l0.862-0.188c0.054-0.012,0.106,0.023,0.118,0.076L163.537,119.308z"/>
	<path fill="#ED6F25" d="M162.963,121.754c0.012,0.053-0.021,0.103-0.073,0.115l-0.865,0.188c-0.053,0.009-0.103-0.023-0.115-0.076
		l-0.472-2.181c-0.012-0.053,0.021-0.106,0.075-0.118l0.862-0.185c0.054-0.012,0.105,0.021,0.117,0.073L162.963,121.754z"/>
	<path fill="#ED6F25" d="M162.375,124.158c0.012,0.053-0.021,0.106-0.074,0.115l-0.863,0.188c-0.053,0.012-0.104-0.023-0.116-0.077
		l-0.472-2.181c-0.012-0.053,0.021-0.106,0.074-0.118l0.865-0.186c0.052-0.012,0.103,0.021,0.114,0.074L162.375,124.158z"/>
	<path fill="#ED6F25" d="M161.792,126.581c0.012,0.056-0.022,0.106-0.076,0.118l-0.862,0.186c-0.054,0.012-0.106-0.021-0.118-0.074
		l-0.471-2.181c-0.012-0.053,0.023-0.106,0.076-0.118l0.862-0.185c0.053-0.012,0.106,0.021,0.116,0.073L161.792,126.581z"/>
	<path fill="#ED6F25" d="M161.218,128.958c0.012,0.053-0.023,0.106-0.076,0.118l-0.862,0.186c-0.053,0.012-0.106-0.021-0.118-0.074
		l-0.471-2.184c-0.012-0.05,0.023-0.103,0.076-0.115l0.862-0.188c0.054-0.009,0.106,0.023,0.118,0.077L161.218,128.958z"/>
	<path fill="#ED6F25" d="M160.588,131.178c0.012,0.053-0.021,0.106-0.073,0.118l-0.864,0.188c-0.053,0.012-0.105-0.024-0.116-0.077
		l-0.472-2.181c-0.011-0.056,0.021-0.106,0.074-0.118L160,128.92c0.054-0.012,0.105,0.023,0.117,0.076L160.588,131.178z"/>
	<path fill="#ED6F25" d="M159.981,133.47c0.013,0.053-0.023,0.103-0.076,0.115l-0.862,0.188c-0.053,0.009-0.105-0.023-0.117-0.077
		l-0.472-2.181c-0.012-0.053,0.023-0.106,0.077-0.118l0.862-0.186c0.053-0.012,0.105,0.021,0.117,0.074L159.981,133.47z"/>
	<path fill="#ED6F25" d="M159.37,135.748c0.012,0.053-0.022,0.103-0.075,0.115l-0.864,0.188c-0.053,0.009-0.104-0.023-0.116-0.076
		l-0.473-2.181c-0.009-0.053,0.024-0.106,0.077-0.118l0.863-0.186c0.052-0.012,0.104,0.021,0.116,0.074L159.37,135.748z"/>
	<path fill="#ED6F25" d="M158.752,137.95c0.01,0.053-0.023,0.106-0.077,0.118l-0.862,0.186c-0.053,0.012-0.105-0.021-0.117-0.077
		l-0.471-2.181c-0.012-0.053,0.021-0.106,0.074-0.118l0.864-0.186c0.053-0.012,0.104,0.023,0.116,0.077L158.752,137.95z"/>
	<path fill="#ED6F25" d="M158.11,140.154c0.012,0.053-0.021,0.106-0.074,0.118l-0.862,0.185c-0.054,0.012-0.105-0.023-0.117-0.076
		l-0.473-2.181c-0.01-0.053,0.022-0.106,0.075-0.118l0.863-0.185c0.054-0.012,0.104,0.021,0.116,0.073L158.11,140.154z"/>
	<path fill="#ED6F25" d="M157.476,142.347c0.012,0.053-0.021,0.106-0.075,0.118l-0.863,0.186c-0.053,0.012-0.104-0.021-0.116-0.077
		l-0.471-2.181c-0.012-0.053,0.021-0.106,0.074-0.118l0.864-0.186c0.053-0.012,0.104,0.023,0.116,0.077L157.476,142.347z"/>
	<path fill="#ED6F25" d="M156.804,144.431c0.012,0.05-0.021,0.103-0.074,0.115l-0.863,0.185c-0.054,0.012-0.104-0.021-0.116-0.073
		l-0.472-2.181c-0.012-0.053,0.022-0.106,0.074-0.118l0.865-0.188c0.053-0.009,0.104,0.024,0.114,0.077L156.804,144.431z"/>
	<path fill="#ED6F25" d="M156.171,146.655c0.012,0.053-0.022,0.103-0.075,0.115l-0.864,0.188c-0.053,0.012-0.103-0.023-0.116-0.077
		l-0.471-2.181c-0.012-0.053,0.022-0.106,0.075-0.118l0.862-0.186c0.053-0.012,0.105,0.021,0.117,0.074L156.171,146.655z"/>
	<path fill="#ED6F25" d="M155.335,147.903l-0.271-1.26c-0.012-0.053-0.064-0.085-0.117-0.076l-0.862,0.188
		c-0.053,0.009-0.089,0.062-0.076,0.115l0.169,0.78C154.413,147.706,154.938,147.827,155.335,147.903z"/>
	<path fill="#ED6F25" d="M163.593,103.056c0.009,0.053-0.023,0.106-0.076,0.118l-0.864,0.186c-0.053,0.012-0.104-0.021-0.116-0.074
		l-0.471-2.184c-0.012-0.053,0.022-0.103,0.075-0.115l0.864-0.188c0.051-0.012,0.103,0.023,0.114,0.077L163.593,103.056z"/>
	<path fill="#ED6F25" d="M162.999,105.473c0.012,0.053-0.022,0.106-0.074,0.118l-0.865,0.185c-0.053,0.012-0.104-0.021-0.116-0.073
		l-0.471-2.184c-0.011-0.053,0.022-0.103,0.075-0.115l0.862-0.188c0.053-0.012,0.105,0.024,0.117,0.077L162.999,105.473z"/>
	<path fill="#ED6F25" d="M162.431,107.921c0.012,0.053-0.021,0.106-0.073,0.118l-0.865,0.185c-0.052,0.012-0.104-0.021-0.115-0.073
		l-0.473-2.184c-0.01-0.053,0.022-0.103,0.075-0.115l0.862-0.188c0.055-0.012,0.106,0.024,0.118,0.077L162.431,107.921z"/>
	<path fill="#ED6F25" d="M161.862,110.378c0.012,0.053-0.021,0.106-0.075,0.118l-0.863,0.186c-0.053,0.012-0.104-0.021-0.116-0.073
		l-0.473-2.184c-0.012-0.053,0.023-0.106,0.076-0.115l0.862-0.188c0.054-0.012,0.106,0.023,0.118,0.077L161.862,110.378z"/>
	<path fill="#ED6F25" d="M161.286,112.813c0.012,0.053-0.021,0.103-0.075,0.115l-0.864,0.188c-0.052,0.012-0.103-0.023-0.114-0.077
		l-0.473-2.181c-0.012-0.053,0.021-0.106,0.075-0.118l0.862-0.186c0.055-0.012,0.105,0.021,0.117,0.074L161.286,112.813z"/>
	<path fill="#ED6F25" d="M160.715,115.261c0.01,0.053-0.023,0.106-0.076,0.115l-0.863,0.188c-0.053,0.012-0.105-0.023-0.117-0.077
		l-0.471-2.181c-0.012-0.053,0.021-0.106,0.073-0.118l0.865-0.186c0.053-0.012,0.104,0.021,0.115,0.074L160.715,115.261z"/>
	<path fill="#ED6F25" d="M160.129,117.66c0.012,0.053-0.023,0.106-0.075,0.118l-0.863,0.185c-0.054,0.012-0.106-0.021-0.116-0.073
		l-0.473-2.184c-0.012-0.053,0.023-0.103,0.076-0.115l0.862-0.188c0.054-0.012,0.106,0.024,0.118,0.077L160.129,117.66z"/>
	<path fill="#ED6F25" d="M159.555,120.105c0.012,0.053-0.021,0.103-0.074,0.115l-0.864,0.188c-0.053,0.009-0.104-0.023-0.114-0.077
		l-0.473-2.181c-0.012-0.053,0.021-0.106,0.075-0.118l0.862-0.186c0.053-0.012,0.105,0.021,0.117,0.074L159.555,120.105z"/>
	<path fill="#ED6F25" d="M158.967,122.51c0.012,0.053-0.021,0.106-0.074,0.115l-0.863,0.188c-0.053,0.012-0.104-0.024-0.118-0.077
		l-0.471-2.181c-0.01-0.053,0.022-0.105,0.075-0.118l0.863-0.185c0.054-0.012,0.104,0.021,0.117,0.073L158.967,122.51z"/>
	<path fill="#ED6F25" d="M158.384,124.932c0.011,0.056-0.023,0.106-0.076,0.118l-0.862,0.186c-0.054,0.012-0.106-0.021-0.118-0.073
		l-0.471-2.181c-0.012-0.053,0.021-0.106,0.075-0.118l0.863-0.186c0.053-0.012,0.104,0.021,0.116,0.074L158.384,124.932z"/>
	<path fill="#ED6F25" d="M157.81,127.311c0.011,0.053-0.023,0.106-0.076,0.118l-0.862,0.185c-0.053,0.012-0.106-0.021-0.118-0.073
		l-0.471-2.181c-0.012-0.053,0.023-0.106,0.077-0.118l0.862-0.185c0.053-0.012,0.105,0.021,0.116,0.073L157.81,127.311z"/>
	<path fill="#ED6F25" d="M157.18,129.529c0.012,0.053-0.021,0.106-0.074,0.118l-0.864,0.188c-0.053,0.012-0.104-0.023-0.116-0.077
		l-0.471-2.184c-0.011-0.053,0.021-0.103,0.075-0.115l0.862-0.188c0.054-0.009,0.105,0.023,0.117,0.077L157.18,129.529z"/>
	<path fill="#ED6F25" d="M156.574,131.822c0.01,0.053-0.024,0.106-0.077,0.115l-0.862,0.188c-0.053,0.012-0.105-0.024-0.117-0.077
		l-0.472-2.181c-0.012-0.053,0.022-0.106,0.075-0.118l0.864-0.185c0.053-0.012,0.105,0.021,0.116,0.073L156.574,131.822z"/>
	<path fill="#ED6F25" d="M155.962,134.1c0.012,0.053-0.022,0.103-0.075,0.115l-0.864,0.188c-0.053,0.012-0.104-0.023-0.116-0.077
		l-0.472-2.181c-0.011-0.053,0.023-0.106,0.076-0.118l0.862-0.186c0.053-0.012,0.105,0.021,0.117,0.074L155.962,134.1z"/>
	<path fill="#ED6F25" d="M155.342,136.302c0.012,0.053-0.021,0.106-0.075,0.118l-0.862,0.185c-0.053,0.012-0.105-0.021-0.117-0.073
		l-0.471-2.184c-0.012-0.053,0.021-0.103,0.073-0.115l0.865-0.188c0.053-0.012,0.104,0.023,0.115,0.076L155.342,136.302z"/>
	<path fill="#ED6F25" d="M154.702,138.506c0.012,0.053-0.022,0.106-0.075,0.118l-0.862,0.186c-0.055,0.012-0.104-0.023-0.116-0.077
		l-0.473-2.181c-0.012-0.053,0.022-0.106,0.075-0.118l0.864-0.186c0.053-0.012,0.104,0.023,0.116,0.077L154.702,138.506z"/>
	<path fill="#ED6F25" d="M154.067,140.699c0.011,0.053-0.021,0.106-0.075,0.118l-0.863,0.186c-0.053,0.012-0.104-0.021-0.116-0.074
		l-0.471-2.184c-0.012-0.053,0.021-0.106,0.073-0.115l0.865-0.188c0.053-0.012,0.104,0.023,0.115,0.076L154.067,140.699z"/>
	<path fill="#ED6F25" d="M153.396,142.782c0.012,0.053-0.021,0.103-0.074,0.115l-0.863,0.188c-0.053,0.012-0.104-0.023-0.116-0.077
		l-0.471-2.181c-0.013-0.053,0.021-0.106,0.073-0.118l0.865-0.186c0.053-0.012,0.103,0.021,0.114,0.074L153.396,142.782z"/>
	<path fill="#ED6F25" d="M152.763,145.007c0.012,0.053-0.022,0.103-0.075,0.115l-0.864,0.188c-0.053,0.012-0.104-0.023-0.116-0.077
		l-0.472-2.181c-0.011-0.053,0.023-0.106,0.076-0.118l0.862-0.186c0.053-0.012,0.105,0.021,0.118,0.074L152.763,145.007z"/>
	<path fill="#ED6F25" d="M151.927,146.255l-0.271-1.26c-0.013-0.053-0.065-0.085-0.118-0.077l-0.862,0.188
		c-0.053,0.012-0.088,0.062-0.076,0.115l0.169,0.78C151.006,146.058,151.529,146.179,151.927,146.255z"/>
	<path fill="#ED6F25" d="M151.42,101.043c0.011,0.053-0.023,0.106-0.076,0.115l-0.862,0.188c-0.053,0.012-0.105-0.023-0.116-0.077
		l-0.473-2.181c-0.012-0.053,0.023-0.106,0.077-0.118l0.862-0.186c0.053-0.012,0.105,0.023,0.116,0.077L151.42,101.043z"/>
	<path fill="#ED6F25" d="M150.826,103.459c0.012,0.053-0.021,0.106-0.074,0.115l-0.863,0.188c-0.053,0.012-0.104-0.024-0.116-0.077
		l-0.471-2.181c-0.013-0.053,0.021-0.106,0.073-0.118l0.863-0.185c0.052-0.012,0.104,0.021,0.116,0.073L150.826,103.459z"/>
	<path fill="#ED6F25" d="M150.26,105.908c0.01,0.053-0.022,0.106-0.075,0.115l-0.864,0.188c-0.053,0.012-0.104-0.023-0.116-0.076
		l-0.471-2.181c-0.012-0.053,0.021-0.106,0.075-0.118l0.862-0.185c0.053-0.012,0.104,0.021,0.116,0.073L150.26,105.908z"/>
	<path fill="#ED6F25" d="M149.689,108.366c0.012,0.053-0.021,0.103-0.073,0.115l-0.865,0.188c-0.053,0.012-0.104-0.023-0.115-0.076
		l-0.471-2.181c-0.012-0.053,0.021-0.106,0.074-0.118l0.863-0.186c0.053-0.012,0.104,0.021,0.116,0.074L149.689,108.366z"/>
	<path fill="#ED6F25" d="M149.114,110.796c0.011,0.053-0.021,0.106-0.075,0.118l-0.863,0.186c-0.052,0.012-0.104-0.021-0.116-0.074
		l-0.471-2.184c-0.013-0.053,0.021-0.103,0.073-0.115l0.865-0.188c0.053-0.012,0.103,0.023,0.114,0.077L149.114,110.796z"/>
	<path fill="#ED6F25" d="M148.542,113.248c0.011,0.053-0.023,0.103-0.076,0.115l-0.862,0.188c-0.054,0.012-0.106-0.023-0.118-0.077
		l-0.471-2.181c-0.012-0.053,0.023-0.106,0.076-0.118l0.862-0.186c0.053-0.012,0.106,0.021,0.118,0.074L148.542,113.248z"/>
	<path fill="#ED6F25" d="M147.958,115.647c0.01,0.053-0.023,0.106-0.075,0.118l-0.865,0.185c-0.052,0.012-0.104-0.023-0.115-0.076
		l-0.472-2.181c-0.012-0.053,0.021-0.106,0.074-0.118l0.862-0.185c0.055-0.012,0.106,0.023,0.118,0.076L147.958,115.647z"/>
	<path fill="#ED6F25" d="M147.383,118.089c0.012,0.053-0.021,0.106-0.074,0.118l-0.863,0.185c-0.055,0.012-0.104-0.021-0.116-0.073
		l-0.472-2.184c-0.012-0.053,0.021-0.103,0.074-0.115l0.862-0.188c0.056-0.009,0.105,0.024,0.117,0.077L147.383,118.089z"/>
	<path fill="#ED6F25" d="M146.797,120.497c0.01,0.05-0.023,0.103-0.077,0.115l-0.862,0.186c-0.053,0.015-0.105-0.021-0.117-0.074
		l-0.471-2.181c-0.012-0.056,0.021-0.106,0.075-0.118l0.863-0.186c0.052-0.012,0.104,0.021,0.115,0.074L146.797,120.497z"/>
	<path fill="#ED6F25" d="M146.211,122.919c0.012,0.053-0.021,0.106-0.075,0.118l-0.863,0.185c-0.054,0.012-0.106-0.021-0.116-0.073
		l-0.472-2.184c-0.012-0.053,0.022-0.103,0.075-0.115l0.862-0.188c0.054-0.012,0.106,0.024,0.116,0.077L146.211,122.919z"/>
	<path fill="#ED6F25" d="M145.637,125.297c0.012,0.053-0.021,0.106-0.074,0.118l-0.864,0.186c-0.053,0.012-0.104-0.021-0.116-0.074
		l-0.471-2.184c-0.012-0.053,0.021-0.106,0.075-0.115l0.862-0.188c0.053-0.012,0.105,0.023,0.117,0.076L145.637,125.297z"/>
	<path fill="#ED6F25" d="M145.007,127.517c0.013,0.053-0.021,0.105-0.073,0.118l-0.863,0.185c-0.054,0.012-0.104-0.021-0.116-0.073
		l-0.472-2.184c-0.012-0.053,0.021-0.106,0.075-0.115l0.862-0.188c0.053-0.012,0.104,0.024,0.116,0.077L145.007,127.517z"/>
	<path fill="#ED6F25" d="M144.401,129.806c0.012,0.053-0.022,0.106-0.075,0.118l-0.864,0.186c-0.053,0.012-0.104-0.021-0.116-0.074
		l-0.472-2.181c-0.011-0.056,0.023-0.106,0.076-0.118l0.862-0.186c0.053-0.015,0.105,0.021,0.117,0.074L144.401,129.806z"/>
	<path fill="#ED6F25" d="M143.789,132.084c0.012,0.056-0.022,0.106-0.074,0.118l-0.863,0.188c-0.053,0.009-0.104-0.023-0.116-0.077
		l-0.473-2.184c-0.01-0.05,0.022-0.103,0.075-0.115l0.864-0.188c0.053-0.009,0.104,0.023,0.116,0.077L143.789,132.084z"/>
	<path fill="#ED6F25" d="M143.171,134.289c0.012,0.053-0.023,0.106-0.076,0.115l-0.862,0.188c-0.054,0.012-0.104-0.024-0.118-0.077
		l-0.471-2.181c-0.012-0.053,0.021-0.106,0.075-0.118l0.863-0.185c0.053-0.012,0.104,0.023,0.116,0.076L143.171,134.289z"/>
	<path fill="#ED6F25" d="M142.53,136.493c0.012,0.053-0.021,0.106-0.074,0.115l-0.862,0.188c-0.054,0.012-0.106-0.023-0.118-0.076
		l-0.471-2.181c-0.012-0.053,0.021-0.106,0.073-0.118l0.865-0.186c0.053-0.012,0.104,0.021,0.115,0.074L142.53,136.493z"/>
	<path fill="#ED6F25" d="M141.896,138.686c0.01,0.053-0.023,0.103-0.076,0.115l-0.862,0.188c-0.054,0.012-0.106-0.024-0.118-0.077
		l-0.471-2.181c-0.012-0.053,0.021-0.106,0.075-0.118l0.863-0.186c0.053-0.012,0.104,0.023,0.116,0.073L141.896,138.686z"/>
	<path fill="#ED6F25" d="M141.224,140.766c0.012,0.053-0.021,0.106-0.075,0.118l-0.862,0.186c-0.053,0.012-0.105-0.021-0.117-0.074
		l-0.471-2.184c-0.012-0.053,0.021-0.103,0.075-0.115l0.863-0.188c0.053-0.012,0.104,0.023,0.116,0.077L141.224,140.766z"/>
	<path fill="#ED6F25" d="M140.549,142.729l-0.403-1.866c-0.012-0.053-0.065-0.088-0.118-0.076l-0.862,0.185
		c-0.053,0.012-0.087,0.065-0.076,0.118l0.174,0.798C139.627,142.129,140.181,142.494,140.549,142.729z"/>
	<path fill="#ED6F25" d="M154.496,101.332c0.012,0.056-0.021,0.106-0.075,0.118l-0.864,0.186c-0.053,0.012-0.104-0.021-0.114-0.074
		l-0.473-2.181c-0.01-0.053,0.022-0.106,0.075-0.118l0.864-0.186c0.051-0.012,0.104,0.021,0.116,0.073L154.496,101.332z"/>
	<path fill="#ED6F25" d="M153.904,103.75c0.011,0.05-0.023,0.103-0.076,0.115l-0.862,0.185c-0.054,0.012-0.106-0.021-0.118-0.073
		l-0.471-2.181c-0.012-0.056,0.023-0.106,0.076-0.118l0.862-0.186c0.054-0.012,0.106,0.021,0.115,0.074L153.904,103.75z"/>
	<path fill="#ED6F25" d="M153.336,106.199c0.012,0.053-0.023,0.103-0.076,0.115l-0.862,0.188c-0.053,0.012-0.104-0.023-0.116-0.077
		l-0.473-2.181c-0.012-0.056,0.023-0.106,0.077-0.118l0.862-0.186c0.053-0.012,0.104,0.021,0.116,0.074L153.336,106.199z"/>
	<path fill="#ED6F25" d="M152.769,108.654c0.012,0.053-0.023,0.106-0.077,0.118l-0.863,0.186c-0.052,0.012-0.104-0.021-0.116-0.074
		l-0.471-2.184c-0.012-0.053,0.021-0.103,0.074-0.115l0.864-0.188c0.053-0.009,0.104,0.023,0.116,0.077L152.769,108.654z"/>
	<path fill="#ED6F25" d="M152.191,111.088c0.012,0.053-0.023,0.106-0.076,0.118l-0.862,0.186c-0.054,0.012-0.106-0.023-0.116-0.077
		l-0.473-2.181c-0.011-0.053,0.023-0.106,0.076-0.118l0.862-0.186c0.054-0.012,0.106,0.023,0.116,0.077L152.191,111.088z"/>
	<path fill="#ED6F25" d="M151.617,113.537c0.012,0.053-0.021,0.106-0.073,0.118l-0.865,0.186c-0.053,0.012-0.103-0.021-0.115-0.074
		l-0.472-2.184c-0.012-0.053,0.021-0.106,0.075-0.115l0.863-0.188c0.052-0.012,0.104,0.023,0.116,0.077L151.617,113.537z"/>
	<path fill="#ED6F25" d="M149.872,120.786c0.012,0.053-0.021,0.106-0.075,0.118l-0.863,0.185c-0.053,0.012-0.104-0.021-0.116-0.073
		l-0.471-2.184c-0.012-0.053,0.021-0.103,0.074-0.115l0.862-0.188c0.054-0.012,0.106,0.023,0.118,0.076L149.872,120.786z"/>
	<path fill="#ED6F25" d="M149.288,123.21c0.011,0.053-0.022,0.106-0.075,0.115l-0.863,0.188c-0.054,0.012-0.104-0.023-0.116-0.077
		l-0.473-2.181c-0.011-0.053,0.021-0.106,0.075-0.118l0.865-0.186c0.051-0.012,0.104,0.023,0.114,0.077L149.288,123.21z"/>
	<path fill="#ED6F25" d="M148.714,125.589c0.012,0.053-0.021,0.103-0.075,0.115l-0.862,0.188c-0.054,0.012-0.105-0.023-0.117-0.076
		l-0.473-2.181c-0.01-0.053,0.022-0.106,0.075-0.118l0.865-0.186c0.052-0.012,0.104,0.021,0.115,0.074L148.714,125.589z"/>
	<path fill="#ED6F25" d="M148.086,127.808c0.01,0.053-0.023,0.106-0.075,0.115l-0.864,0.188c-0.053,0.012-0.105-0.023-0.116-0.077
		l-0.472-2.181c-0.012-0.053,0.021-0.106,0.075-0.118l0.863-0.186c0.053-0.012,0.106,0.021,0.116,0.074L148.086,127.808z"/>
	<path fill="#ED6F25" d="M147.479,130.098c0.01,0.053-0.022,0.106-0.075,0.118l-0.865,0.185c-0.052,0.012-0.104-0.021-0.115-0.076
		l-0.471-2.181c-0.012-0.053,0.022-0.106,0.073-0.118l0.864-0.185c0.053-0.012,0.105,0.023,0.116,0.076L147.479,130.098z"/>
	<path fill="#ED6F25" d="M146.867,132.375c0.011,0.053-0.023,0.106-0.076,0.118l-0.862,0.186c-0.053,0.012-0.106-0.021-0.118-0.074
		l-0.471-2.184c-0.012-0.053,0.022-0.106,0.076-0.115l0.862-0.188c0.054-0.012,0.104,0.023,0.118,0.077L146.867,132.375z"/>
	<path fill="#ED6F25" d="M146.248,134.577c0.01,0.053-0.023,0.105-0.077,0.118l-0.862,0.185c-0.054,0.012-0.105-0.021-0.116-0.073
		l-0.472-2.181c-0.011-0.056,0.021-0.106,0.074-0.118l0.864-0.186c0.053-0.012,0.104,0.021,0.116,0.074L146.248,134.577z"/>
	<path fill="#ED6F25" d="M145.607,136.781c0.012,0.053-0.023,0.106-0.075,0.118l-0.863,0.186c-0.053,0.012-0.106-0.021-0.116-0.074
		l-0.471-2.184c-0.012-0.053,0.021-0.103,0.074-0.115l0.863-0.188c0.053-0.009,0.105,0.023,0.117,0.077L145.607,136.781z"/>
	<path fill="#ED6F25" d="M144.972,138.974c0.012,0.053-0.021,0.106-0.075,0.118l-0.863,0.185c-0.053,0.012-0.104-0.021-0.116-0.073
		l-0.471-2.184c-0.011-0.053,0.021-0.103,0.075-0.115l0.862-0.188c0.054-0.009,0.105,0.023,0.117,0.076L144.972,138.974z"/>
	<path fill="#ED6F25" d="M144.301,141.058c0.012,0.053-0.021,0.106-0.073,0.118l-0.865,0.186c-0.053,0.012-0.104-0.021-0.116-0.074
		l-0.47-2.184c-0.012-0.053,0.021-0.106,0.073-0.118l0.862-0.186c0.055-0.012,0.106,0.021,0.118,0.077L144.301,141.058z"/>
	<path fill="#ED6F25" d="M143.667,143.283c0.012,0.053-0.022,0.106-0.075,0.118l-0.862,0.186c-0.055,0.012-0.106-0.021-0.118-0.077
		l-0.471-2.181c-0.012-0.053,0.022-0.106,0.075-0.118l0.863-0.185c0.054-0.012,0.104,0.023,0.117,0.076L143.667,143.283z"/>
	<path fill="#ED6F25" d="M142.832,144.53l-0.273-1.259c-0.011-0.053-0.062-0.085-0.115-0.077l-0.862,0.188
		c-0.054,0.012-0.088,0.064-0.076,0.118l0.168,0.777C141.908,144.333,142.435,144.457,142.832,144.53z"/>
	<path fill="#ED6F25" d="M151.033,115.938c0.012,0.053-0.021,0.103-0.075,0.115l-0.862,0.186c-0.053,0.012-0.105-0.021-0.117-0.074
		l-0.471-2.181c-0.013-0.053,0.021-0.106,0.074-0.118l0.864-0.186c0.053-0.012,0.104,0.021,0.114,0.074L151.033,115.938z"/>
	<path fill="#ED6F25" d="M150.461,118.381c0.012,0.053-0.023,0.106-0.076,0.115l-0.862,0.188c-0.054,0.012-0.106-0.023-0.118-0.077
		l-0.471-2.181c-0.011-0.053,0.021-0.106,0.076-0.118l0.862-0.186c0.053-0.012,0.106,0.021,0.118,0.077L150.461,118.381z"/>
	<path fill="#FFFFFF" d="M79.891,103.56c0,0-0.041-4.112,4.863-4.112c4.905,0,4.705,4.212,4.705,4.212l0.006,42.393h-9.574
		l-0.021-42.11"/>
</g>
</svg>
