<?xml version="1.0" encoding="utf-8"?>
<!-- Generator: Adobe Illustrator 16.0.0, SVG Export Plug-In . SVG Version: 6.00 Build 0)  -->
<!DOCTYPE svg PUBLIC "-//W3C//DTD SVG 1.1//EN" "http://www.w3.org/Graphics/SVG/1.1/DTD/svg11.dtd">
<svg version="1.1" id="Layer_1" xmlns="http://www.w3.org/2000/svg" xmlns:xlink="http://www.w3.org/1999/xlink" x="0px" y="0px"
	 width="250px" height="250px" viewBox="0 0 250 250" enable-background="new 0 0 250 250" xml:space="preserve">
<g>
	<g>
		<g>
			<path fill="#274FA1" stroke="#274FA1" stroke-width="0.25" stroke-miterlimit="10" d="M75.51,203.318v-2.165
				c3.437-0.495,3.808-0.99,3.034-3.401c-0.683-1.855-1.579-4.515-2.54-7.112H64.488c-0.712,1.855-1.454,3.927-2.105,6.277
				c-0.958,3.123-0.68,3.741,3.499,4.236v2.165H52.881v-2.165c3.808-0.495,4.55-0.928,6.47-5.875l11.671-30.087l2.723-0.68
				c3.53,9.864,7.276,20.811,10.96,30.644c1.765,5.009,2.538,5.566,6.346,5.999v2.165H75.51z M70.432,174.003h-0.186
				c-1.639,4.546-3.218,9.122-4.828,13.544h9.597L70.432,174.003z"/>
			<path fill="#274FA1" stroke="#274FA1" stroke-width="0.25" stroke-miterlimit="10" d="M123.447,193.639
				c-0.402,2.257-1.61,8.04-2.104,9.679H94.069v-2.165c4.828-0.371,5.418-0.742,5.418-5.566v-22.48c0-4.886-0.59-5.257-5.078-5.566
				v-2.165h16.656v2.165c-4.553,0.309-5.078,0.68-5.078,5.566v22.542c0,2.845,0.278,3.989,1.486,4.515
				c0.989,0.495,2.724,0.619,4.735,0.619c2.6,0,4.643-0.309,5.975-1.825c0.992-1.206,2.074-3.061,3.035-5.844L123.447,193.639z"/>
			<path fill="#274FA1" stroke="#274FA1" stroke-width="0.25" stroke-miterlimit="10" d="M156.525,193.763
				c-0.341,2.257-1.516,7.854-2.044,9.555h-28.85v-2.165c4.952-0.433,5.511-0.742,5.511-5.566v-22.48c0-4.948-0.559-5.257-4.8-5.566
				v-2.165h26.748c0.062,1.082,0.309,5.257,0.587,8.627l-2.29,0.31c-0.526-2.227-1.208-3.742-2.043-4.886
				c-0.745-1.051-2.353-1.577-5.882-1.577h-3.561c-2.013,0-2.229,0.124-2.229,2.041v12.399h4.519c4.893,0,5.449-0.371,6.223-4.36
				h2.197v11.72h-2.197c-0.773-4.268-1.33-4.515-6.223-4.515h-4.519v10.328c0,2.721,0.401,4.051,1.486,4.639
				c0.989,0.556,3.032,0.68,5.509,0.68c3.405,0,5.325-0.371,6.595-1.825c1.082-1.206,2.074-3.061,3.033-5.597L156.525,193.763z"/>
			<path fill="#274FA1" stroke="#274FA1" stroke-width="0.25" stroke-miterlimit="10" d="M179.577,203.318v-2.165
				c3.529-0.495,3.592-1.206,2.538-3.03c-0.896-1.577-2.724-4.546-6.531-11.008c-2.6,3.989-5.014,7.978-6.407,10.699
				c-1.271,2.35-0.961,2.783,2.723,3.34v2.165h-14.022v-2.165c3.189-0.371,5.201-1.206,6.873-3.092
				c1.516-2.041,5.323-7.143,9.255-13.358c-2.878-4.7-5.262-8.813-7.802-12.802c-1.98-3.154-3.249-3.989-7.304-4.36v-2.165h16.097
				v2.165c-3.282,0.495-3.22,1.021-2.476,2.474c1.268,2.412,3.249,5.628,5.602,9.37c1.826-2.783,3.808-5.906,5.201-8.565
				c1.115-2.196,0.992-2.783-2.538-3.278v-2.165h13.56v2.165c-3.869,0.433-5.325,1.021-7.678,4.051
				c-1.579,1.948-3.746,4.947-7.028,9.926c3.221,5.195,6.13,9.957,9.195,14.719c2.414,3.803,3.808,4.483,7.801,4.917v2.165H179.577z
				"/>
		</g>
	</g>
	<g>
		<g>
			<path fill="#274FA1" stroke="#274FA1" stroke-width="0.25" stroke-miterlimit="10" d="M15.724,229.65
				c-1.31,0.234-1.439,0.314-1.439,1.864v2.01c0,0.848,0.026,1.657,0.156,2.346c-1.504,0.354-3.505,0.861-5.467,0.861
				c-5.493,0-8.974-3.313-8.974-8.176c0-5.69,4.475-8.548,9.404-8.548c1.951,0,3.781,0.473,4.632,0.693
				c0.077,0.848,0.221,2.165,0.378,3.98l-0.941,0.181c-0.64-2.911-2.381-3.821-4.499-3.821c-3.165,0-5.756,2.646-5.756,7.107
				c0,3.693,1.897,7.541,6.057,7.541c0.614,0,1.204-0.128,1.597-0.353c0.404-0.234,0.628-0.588,0.628-1.432v-2.195
				c0-1.683-0.144-1.851-2.604-2.059v-0.914h6.829V229.65z"/>
			<path fill="#274FA1" stroke="#274FA1" stroke-width="0.25" stroke-miterlimit="10" d="M31.911,232.349
				c-0.144,0.954-0.641,3.313-0.863,4.033H18.858v-0.915c2.091-0.181,2.327-0.313,2.327-2.35v-9.484
				c0-2.085-0.236-2.217-2.027-2.346v-0.914h11.3c0.026,0.459,0.133,2.217,0.25,3.64l-0.968,0.133
				c-0.223-0.941-0.51-1.582-0.863-2.063c-0.313-0.442-0.994-0.667-2.485-0.667h-1.504c-0.851,0-0.943,0.053-0.943,0.861v5.235
				h1.911c2.067,0,2.301-0.159,2.628-1.842h0.93v4.943h-0.93c-0.327-1.798-0.561-1.904-2.628-1.904h-1.911v4.36
				c0,1.145,0.17,1.706,0.63,1.957c0.417,0.234,1.281,0.283,2.328,0.283c1.438,0,2.248-0.154,2.785-0.769
				c0.457-0.508,0.877-1.29,1.281-2.359L31.911,232.349z"/>
			<path fill="#274FA1" stroke="#274FA1" stroke-width="0.25" stroke-miterlimit="10" d="M51.675,221.261
				c-1.334,0.08-1.87,0.429-2.001,1.409c-0.104,0.755-0.184,1.904-0.184,4.068v9.851h-1.164l-9.875-12.369h-0.053v5.716
				c0,2.085,0.106,3.26,0.184,3.989c0.105,1.1,0.641,1.462,2.328,1.542v0.915h-6.03v-0.915c1.374-0.08,1.964-0.442,2.067-1.489
				c0.104-0.782,0.21-1.957,0.21-4.042v-5.257c0-1.656-0.026-1.957-0.471-2.544c-0.459-0.587-1.047-0.769-2.094-0.875v-0.888h4.173
				l9.378,11.388h0.079v-5.023c0-2.165-0.105-3.313-0.184-4.042c-0.13-0.98-0.693-1.33-2.381-1.436v-0.888h6.017V221.261z"/>
			<path fill="#274FA1" stroke="#274FA1" stroke-width="0.25" stroke-miterlimit="10" d="M67.706,232.349
				c-0.144,0.954-0.641,3.313-0.863,4.033h-12.19v-0.915c2.092-0.181,2.328-0.313,2.328-2.35v-9.484
				c0-2.085-0.236-2.217-2.027-2.346v-0.914h11.3c0.026,0.459,0.132,2.217,0.249,3.64l-0.967,0.133
				c-0.224-0.941-0.511-1.582-0.864-2.063c-0.313-0.442-0.994-0.667-2.484-0.667h-1.504c-0.851,0-0.943,0.053-0.943,0.861v5.235
				h1.91c2.067,0,2.302-0.159,2.629-1.842h0.93v4.943h-0.93c-0.327-1.798-0.562-1.904-2.629-1.904h-1.91v4.36
				c0,1.145,0.17,1.706,0.629,1.957c0.418,0.234,1.281,0.283,2.328,0.283c1.438,0,2.249-0.154,2.785-0.769
				c0.457-0.508,0.877-1.29,1.281-2.359L67.706,232.349z"/>
			<path fill="#274FA1" stroke="#274FA1" stroke-width="0.25" stroke-miterlimit="10" d="M85.649,236.59
				c-0.236,0-0.536-0.026-0.824-0.026c-2.524-0.106-3.491-0.742-4.499-2.324c-0.733-1.069-1.504-2.531-2.197-3.768
				c-0.406-0.693-0.811-0.98-1.767-0.98h-0.681v3.626c0,2.037,0.223,2.191,2.094,2.35v0.915h-6.957v-0.915
				c1.895-0.159,2.171-0.313,2.171-2.35v-9.533c0-2.01-0.25-2.169-2.067-2.297v-0.914h6.566c1.948,0,3.152,0.221,4.119,0.861
				c0.994,0.641,1.688,1.736,1.688,3.26c0,2.169-1.334,3.393-3.088,4.135c0.406,0.72,1.348,2.377,2.094,3.499
				c0.864,1.343,1.321,2.01,1.857,2.544c0.588,0.636,1.099,0.91,1.622,1.095L85.649,236.59z M76.625,228.475
				c1.071,0,1.844-0.194,2.405-0.667c0.916-0.703,1.296-1.683,1.296-2.947c0-2.558-1.66-3.494-3.244-3.494
				c-0.641,0-0.994,0.102-1.15,0.274c-0.197,0.128-0.25,0.389-0.25,1.003v5.831H76.625z"/>
			<path fill="#274FA1" stroke="#274FA1" stroke-width="0.25" stroke-miterlimit="10" d="M97.576,236.382v-0.915
				c1.451-0.208,1.608-0.419,1.281-1.436c-0.287-0.782-0.667-1.904-1.071-3h-4.865c-0.303,0.782-0.616,1.656-0.891,2.646
				c-0.406,1.321-0.287,1.582,1.478,1.789v0.915h-5.493v-0.915c1.608-0.208,1.922-0.393,2.734-2.478l4.931-12.696l1.15-0.287
				c1.491,4.166,3.074,8.782,4.632,12.93c0.744,2.112,1.071,2.35,2.682,2.531v0.915H97.576z M95.432,224.013h-0.079
				c-0.693,1.917-1.36,3.848-2.041,5.716h4.056L95.432,224.013z"/>
			<path fill="#274FA1" stroke="#274FA1" stroke-width="0.25" stroke-miterlimit="10" d="M119.638,232.296
				c-0.171,0.954-0.681,3.393-0.891,4.086h-11.522v-0.915c2.04-0.159,2.29-0.313,2.29-2.35v-9.484c0-2.059-0.25-2.217-2.146-2.346
				v-0.914h7.036v0.914c-1.921,0.128-2.145,0.287-2.145,2.346v9.511c0,1.202,0.117,1.683,0.628,1.904
				c0.419,0.212,1.152,0.26,2.001,0.26c1.1,0,1.963-0.128,2.524-0.769c0.42-0.508,0.877-1.29,1.283-2.465L119.638,232.296z"/>
			<path fill="#274FA1" stroke="#274FA1" stroke-width="0.25" stroke-miterlimit="10" d="M142.694,224.446
				c-0.276-1.268-0.511-1.957-0.891-2.39c-0.433-0.482-0.877-0.641-2.407-0.641h-1.374v11.702c0,2.01,0.224,2.191,2.447,2.35v0.915
				h-7.587v-0.915c2.145-0.159,2.354-0.34,2.354-2.35v-11.702h-1.177c-1.818,0-2.275,0.251-2.615,0.693
				c-0.354,0.402-0.563,1.215-0.864,2.337h-0.967c0.104-1.683,0.247-3.406,0.3-4.713h0.641c0.38,0.561,0.667,0.641,1.334,0.641
				h9.535c0.654,0,0.917-0.155,1.295-0.641h0.667c0.026,1.073,0.156,3.105,0.236,4.621L142.694,224.446z"/>
			<path fill="#274FA1" stroke="#274FA1" stroke-width="0.25" stroke-miterlimit="10" d="M161.853,236.59
				c-0.236,0-0.537-0.026-0.824-0.026c-2.524-0.106-3.492-0.742-4.499-2.324c-0.733-1.069-1.504-2.531-2.197-3.768
				c-0.406-0.693-0.811-0.98-1.768-0.98h-0.68v3.626c0,2.037,0.223,2.191,2.094,2.35v0.915h-6.958v-0.915
				c1.896-0.159,2.172-0.313,2.172-2.35v-9.533c0-2.01-0.25-2.169-2.067-2.297v-0.914h6.566c1.948,0,3.151,0.221,4.119,0.861
				c0.994,0.641,1.688,1.736,1.688,3.26c0,2.169-1.334,3.393-3.088,4.135c0.406,0.72,1.348,2.377,2.094,3.499
				c0.863,1.343,1.321,2.01,1.857,2.544c0.588,0.636,1.098,0.91,1.621,1.095L161.853,236.59z M152.827,228.475
				c1.071,0,1.845-0.194,2.405-0.667c0.917-0.703,1.297-1.683,1.297-2.947c0-2.558-1.661-3.494-3.244-3.494
				c-0.641,0-0.994,0.102-1.151,0.274c-0.196,0.128-0.249,0.389-0.249,1.003v5.831H152.827z"/>
			<path fill="#274FA1" stroke="#274FA1" stroke-width="0.25" stroke-miterlimit="10" d="M173.779,236.382v-0.915
				c1.451-0.208,1.608-0.419,1.281-1.436c-0.287-0.782-0.667-1.904-1.071-3h-4.866c-0.302,0.782-0.616,1.656-0.89,2.646
				c-0.406,1.321-0.287,1.582,1.478,1.789v0.915h-5.493v-0.915c1.608-0.208,1.922-0.393,2.734-2.478l4.93-12.696l1.151-0.287
				c1.49,4.166,3.074,8.782,4.632,12.93c0.744,2.112,1.07,2.35,2.681,2.531v0.915H173.779z M171.635,224.013h-0.079
				c-0.694,1.917-1.361,3.848-2.041,5.716h4.055L171.635,224.013z"/>
			<path fill="#274FA1" stroke="#274FA1" stroke-width="0.25" stroke-miterlimit="10" d="M190.66,220.374
				c3.088,0,5.39,0.587,6.971,2.116c1.178,1.144,2.067,2.933,2.067,5.257c0,3-1.124,5.164-3.008,6.573
				c-1.765,1.422-4.226,2.063-7.26,2.063h-5.978v-0.915c1.988-0.159,2.225-0.287,2.225-2.35v-9.484c0-2.059-0.21-2.217-2.001-2.346
				v-0.914H190.66z M188.463,232.99c0,1.736,0.537,2.297,2.251,2.297c3.675,0,5.847-2.885,5.847-7.139
				c0-2.372-0.773-4.382-2.225-5.451c-1.021-0.901-2.354-1.308-3.936-1.308c-0.943,0-1.454,0.159-1.661,0.327
				c-0.21,0.212-0.276,0.561-0.276,1.334V232.99z"/>
			<path fill="#274FA1" stroke="#274FA1" stroke-width="0.25" stroke-miterlimit="10" d="M203.593,236.382v-0.915
				c1.871-0.159,2.12-0.313,2.12-2.35v-9.484c0-2.059-0.249-2.217-2.12-2.346v-0.914h6.96v0.914
				c-1.871,0.128-2.095,0.287-2.095,2.346v9.484c0,2.063,0.224,2.191,2.095,2.35v0.915H203.593z"/>
			<path fill="#274FA1" stroke="#274FA1" stroke-width="0.25" stroke-miterlimit="10" d="M230.921,221.261
				c-1.334,0.08-1.87,0.429-2.001,1.409c-0.104,0.755-0.184,1.904-0.184,4.068v9.851h-1.164l-9.875-12.369h-0.053v5.716
				c0,2.085,0.106,3.26,0.184,3.989c0.105,1.1,0.641,1.462,2.328,1.542v0.915h-6.03v-0.915c1.374-0.08,1.964-0.442,2.067-1.489
				c0.104-0.782,0.21-1.957,0.21-4.042v-5.257c0-1.656-0.026-1.957-0.471-2.544c-0.459-0.587-1.047-0.769-2.094-0.875v-0.888h4.172
				l9.379,11.388h0.079v-5.023c0-2.165-0.105-3.313-0.184-4.042c-0.13-0.98-0.693-1.33-2.381-1.436v-0.888h6.017V221.261z"/>
			<path fill="#274FA1" stroke="#274FA1" stroke-width="0.25" stroke-miterlimit="10" d="M250,229.65
				c-1.31,0.234-1.44,0.314-1.44,1.864v2.01c0,0.848,0.026,1.657,0.157,2.346c-1.504,0.354-3.505,0.861-5.467,0.861
				c-5.493,0-8.974-3.313-8.974-8.176c0-5.69,4.475-8.548,9.404-8.548c1.95,0,3.781,0.473,4.632,0.693
				c0.077,0.848,0.221,2.165,0.378,3.98l-0.941,0.181c-0.641-2.911-2.381-3.821-4.499-3.821c-3.165,0-5.756,2.646-5.756,7.107
				c0,3.693,1.897,7.541,6.057,7.541c0.613,0,1.203-0.128,1.597-0.353c0.404-0.234,0.627-0.588,0.627-1.432v-2.195
				c0-1.683-0.144-1.851-2.604-2.059v-0.914H250V229.65z"/>
		</g>
	</g>
	<path fill="#274FA1" d="M157.256,69.257h-0.501h-6.516h-12.091v7.201h12.424c-1.159,12.532-11.269,22.489-23.865,23.445V48.191
		c6.558,0.499,12.442,3.428,16.74,7.907l5.029-4.753c-5.988-6.259-14.419-10.169-23.746-10.169
		c-18.131,0-32.879,14.748-32.879,32.868c0,7.417,2.467,14.259,6.624,19.766l5.157-4.687c-2.61-3.638-4.307-7.967-4.749-12.66
		h20.614v23.01v1.281v5.74c1.703,0.272,3.45,0.417,5.232,0.417c18.132,0,32.881-14.745,32.881-32.868
		C157.611,72.416,157.488,70.817,157.256,69.257z M99.227,69.257c1.935-10.334,9.999-18.535,20.271-20.643v20.643H99.227z"/>
	<linearGradient id="SVGID_1_" gradientUnits="userSpaceOnUse" x1="105.5752" y1="128.8257" x2="164.2221" y2="29.9618">
		<stop  offset="0" style="stop-color:#25326F"/>
		<stop  offset="0.2661" style="stop-color:#467BB2"/>
		<stop  offset="1" style="stop-color:#25326F"/>
	</linearGradient>
	<path fill="url(#SVGID_1_)" d="M193.563,94.327l-17.506-29.235l-17.511,29.235h7.485c-7.603,13.795-23.107,23.267-40.967,23.267
		c-21.306,0-39.267-13.482-44.446-31.704H63.522c5.376,27.503,30.874,48.34,61.542,48.34c27.445,0,50.733-16.687,59.187-39.902
		H193.563z"/>
	<linearGradient id="SVGID_2_" gradientUnits="userSpaceOnUse" x1="85.5781" y1="116.9648" x2="144.2204" y2="18.1089">
		<stop  offset="0" style="stop-color:#25326F"/>
		<stop  offset="0.2661" style="stop-color:#467BB2"/>
		<stop  offset="1" style="stop-color:#25326F"/>
	</linearGradient>
	<path fill="url(#SVGID_2_)" d="M55.896,53.178l17.516,29.226l17.511-29.226h-7.494c7.606-13.798,23.107-23.269,40.967-23.269
		c21.304,0,39.267,13.48,44.45,31.7h17.092c-5.376-27.501-30.876-48.34-61.542-48.34c-27.443,0-50.729,16.689-59.187,39.909H55.896z
		"/>
</g>
</svg>
