<?xml version="1.0" encoding="utf-8"?>
<!-- Generator: Adobe Illustrator 16.0.0, SVG Export Plug-In . SVG Version: 6.00 Build 0)  -->
<!DOCTYPE svg PUBLIC "-//W3C//DTD SVG 1.1//EN" "http://www.w3.org/Graphics/SVG/1.1/DTD/svg11.dtd">
<svg version="1.1" id="Layer_1" xmlns="http://www.w3.org/2000/svg" xmlns:xlink="http://www.w3.org/1999/xlink" x="0px" y="0px"
	 width="250px" height="250px" viewBox="0 0 250 250" enable-background="new 0 0 250 250" xml:space="preserve">
<g>
	<g>
		<g>
			<g>
				<g>
					<path fill="#243F8B" stroke="#243F8B" stroke-width="0.1" stroke-miterlimit="10" d="M22.812,118.084v41.03H21.23
						c-0.618,0-1.593,0.082-2.92,0.233c-1.131,0.155-2.457,0.233-3.98,0.233v-0.696c1.572-0.185,2.875-0.999,3.906-2.453
						c1.041-1.458,1.549-4.259,1.549-8.416v-20.005c0-5.66-1.811-8.891-5.455-9.702v-0.695
						C15.902,117.797,18.724,117.953,22.812,118.084z M26.57,159.114h-1.064v-41.03c1.47,0,3.034-0.065,4.718-0.196
						c1.921-0.185,3.477-0.274,4.673-0.274c3.374,0,5.881,1.089,7.526,3.268c1.65,2.158,2.474,4.82,2.474,7.985
						c0,5.365-2.158,8.81-6.462,10.316c2.142,0.312,3.947,0.987,5.397,2.023c1.544,1.113,3.891,3.35,7.031,6.695
						c4.792,5.14,8.698,7.716,11.725,7.716c0.619,0,1.245-0.229,1.88-0.668l0.147,0.696c-0.982,1.352-2.351,2.031-4.087,2.031
						c-1.871,0-3.825-0.741-5.872-2.22c-1.913-1.4-4.771-4.152-8.588-8.256c-4.566-4.988-9.01-7.478-13.339-7.478
						c2.679,0.884,6.307,3.857,10.873,8.915c3.223,3.534,5.803,6.102,7.74,7.711c1.97,1.614,3.85,2.416,5.647,2.416v0.349
						c-0.84,0.312-1.667,0.467-2.474,0.467c-2.392,0-4.451-0.635-6.2-1.904c-0.93-0.704-2.117-1.773-3.551-3.215
						c-1.441-1.438-3.157-3.305-5.185-5.59c-2.944-3.321-5.136-5.578-6.564-6.77c-1.516-1.217-3.006-2.08-4.46-2.572v9.227
						c0,6.209,1.773,9.579,5.312,10.128v0.696C30.916,159.27,28.483,159.114,26.57,159.114z M28.557,128.789v8.444
						c1.454,0.393,3.026,0.586,4.726,0.586c5.521,0,8.293-3.039,8.293-9.108c0-5.688-2.739-8.526-8.219-8.526
						c-1.773,0-3.149,0.377-4.132,1.126C28.782,122.351,28.557,124.845,28.557,128.789z M45.27,137.192
						c1.589-2.666,2.388-5.614,2.388-8.834c0-2.932-0.913-5.881-2.761-8.837c4.223,1.892,6.34,4.877,6.34,8.952
						C51.236,132.602,49.25,135.509,45.27,137.192z"/>
					<path fill="#243F8B" stroke="#243F8B" stroke-width="0.1" stroke-miterlimit="10" d="M68.854,121.736
						c-2.699,4.419-4.051,10.059-4.051,16.938c0,6.233,1.286,11.631,3.866,16.196c-4.96-3.46-7.449-8.98-7.449-16.585
						C61.221,130.472,63.776,124.96,68.854,121.736z M99.908,138.404c0,4.775-0.696,8.813-2.08,12.102
						c-1.344,3.276-3.248,5.688-5.705,7.244c-2.403,1.585-5.226,2.376-8.448,2.376c-5.095,0-9.059-1.934-11.872-5.804
						c-2.801-3.865-4.193-9.181-4.193-15.959c0-7.031,1.417-12.433,4.267-16.192c2.854-3.715,6.762-5.569,11.725-5.569
						c5.046,0,9.026,1.854,11.954,5.569C98.446,125.856,99.908,131.267,99.908,138.404z M96.436,138.441
						c0-12.438-4.271-18.649-12.835-18.649c-8.383,0-12.572,6.372-12.572,19.116c0,11.995,4.247,17.986,12.729,17.986
						C92.205,156.895,96.436,150.743,96.436,138.441z M98.577,155.104c2.675-3.841,4.018-9.632,4.018-17.363
						c0-6.823-1.327-12.146-3.98-15.964c5.058,3.19,7.589,8.658,7.589,16.397C106.203,145.801,103.655,151.443,98.577,155.104z"/>
					<path fill="#243F8B" stroke="#243F8B" stroke-width="0.1" stroke-miterlimit="10" d="M110.781,117.613l7.772,0.471v41.03
						h-2.285c-1.392,0-3.23,0.155-5.487,0.467v-0.696c1.814-0.758,3.047-1.966,3.719-3.624c0.667-1.688,0.995-4.386,0.995-8.097
						v-18.612c0-3.973-0.487-6.594-1.475-7.863c-1.007-1.303-2.089-2.085-3.239-2.38V117.613z M138.289,159.114h-17.073v-41.03
						c1.667-0.05,3.538-0.156,5.599-0.315c1.92-0.106,2.801-0.155,2.662-0.155v0.695c-1.904,0.524-3.24,1.549-4.022,3.076
						c-0.794,1.589-1.179,3.936-1.179,7.052v16.934c0,2.548,0.123,4.813,0.36,6.819c0.233,2.097,0.487,3.305,0.778,3.616
						c0.27,0.314,0.986,0.471,2.142,0.471h7.731c2.74,0,4.996-0.459,6.794-1.368c1.79-0.909,3.362-2.694,4.714-5.373h0.741
						c-0.172,1.249-0.725,3.224-1.654,5.922c-0.618,1.708-1.016,3.088-1.188,4.124C142.708,159.27,140.566,159.114,138.289,159.114z
						"/>
					<path fill="#243F8B" stroke="#243F8B" stroke-width="0.1" stroke-miterlimit="10" d="M150.886,117.613l7.781,0.471v41.03
						h-2.285c-1.408,0-3.239,0.155-5.496,0.467v-0.696c1.823-0.758,3.06-1.966,3.728-3.624c0.667-1.688,0.995-4.386,0.995-8.097
						v-18.612c0-3.973-0.487-6.594-1.475-7.863c-1.008-1.303-2.085-2.085-3.248-2.38V117.613z M178.394,159.114h-17.072v-41.03
						c1.675-0.05,3.538-0.156,5.605-0.315c1.921-0.106,2.81-0.155,2.646-0.155v0.695c-1.888,0.524-3.223,1.549-4.005,3.076
						c-0.79,1.589-1.188,3.936-1.188,7.052v16.934c0,2.548,0.131,4.813,0.373,6.819c0.229,2.097,0.475,3.305,0.773,3.616
						c0.271,0.314,0.979,0.471,2.134,0.471h7.748c2.731,0,4.988-0.459,6.786-1.368c1.79-0.909,3.362-2.694,4.714-5.373h0.737
						c-0.177,1.249-0.721,3.224-1.659,5.922c-0.61,1.708-1.007,3.088-1.18,4.124C182.821,159.27,180.671,159.114,178.394,159.114z"
						/>
					<path fill="#243F8B" stroke="#243F8B" stroke-width="0.1" stroke-miterlimit="10" d="M218.806,149.695l-3.284-7.245h-13.896
						l-3.514,7.245l-0.18,0.504c-0.024,0.028-0.209,0.401-0.553,1.13c-0.513,1.089-0.767,2.203-0.767,3.35
						c0,1.97,1.028,3.371,3.093,4.206v0.696c-0.422,0-1.147-0.065-2.179-0.196c-1.45-0.177-2.744-0.271-3.907-0.271
						c-1.064,0-2.358,0.094-3.907,0.271c-1.064,0.131-1.757,0.196-2.101,0.196v-0.696c2.703-1.454,5.168-4.456,7.376-8.997
						l12.232-25.153c-0.93-1.994-2.216-3.538-3.85-4.632c-1.63-1.089-3.543-1.688-5.729-1.794v-0.695h1.286
						c1.154,0,2.739,0.073,4.75,0.233c2.117,0.155,3.493,0.237,4.137,0.237l18.617,41.03c-2.384,0.049-5.255,0.209-8.592,0.467
						v-0.696c1.871-0.34,2.813-1.404,2.813-3.194C220.653,154.363,220.034,152.365,218.806,149.695z M203.06,139.53h11.135
						l-5.348-11.835L203.06,139.53z M229.38,159.114l-18.613-41.03h3.612c0.491,1.343,1.18,3.043,2.06,5.095
						c0.987,2.207,1.532,3.521,1.667,3.936c0.123,0.237,0.229,0.508,0.328,0.818l8.665,18.961c3.022,6.59,6.237,10.587,9.661,11.991
						v0.696C233.422,159.27,230.957,159.114,229.38,159.114z"/>
				</g>
				<g>
					<path fill="#243F8B" stroke="#243F8B" stroke-width="0.1" stroke-miterlimit="10" d="M18.212,173.579v24.239h-0.93
						c-0.356,0-0.925,0.049-1.707,0.144c-0.66,0.09-1.442,0.139-2.335,0.139v-0.417c0.926-0.106,1.691-0.59,2.294-1.45
						c0.602-0.855,0.904-2.515,0.904-4.968v-11.814c0-3.35-1.068-5.254-3.198-5.733v-0.409
						C14.166,173.415,15.813,173.505,18.212,173.579z M20.42,197.818h-0.623v-24.239c0.856,0,1.785-0.037,2.761-0.115
						c1.13-0.106,2.035-0.155,2.743-0.155c1.979,0,3.448,0.643,4.419,1.929c0.967,1.27,1.45,2.842,1.45,4.714
						c0,3.174-1.262,5.205-3.784,6.098c1.253,0.185,2.302,0.581,3.149,1.191c0.909,0.664,2.285,1.979,4.14,3.96
						c2.81,3.039,5.103,4.555,6.868,4.555c0.36,0,0.732-0.132,1.102-0.394l0.094,0.418c-0.585,0.79-1.38,1.191-2.399,1.191
						c-1.105,0-2.244-0.438-3.44-1.311c-1.117-0.827-2.801-2.453-5.045-4.877c-2.67-2.94-5.291-4.419-7.83-4.419
						c1.576,0.528,3.71,2.285,6.38,5.271c1.889,2.084,3.407,3.607,4.542,4.558c1.163,0.946,2.261,1.426,3.309,1.426v0.2
						c-0.487,0.188-0.966,0.282-1.453,0.282c-1.385,0-2.597-0.376-3.625-1.13c-0.544-0.414-1.244-1.053-2.08-1.896
						c-0.848-0.852-1.863-1.949-3.051-3.301c-1.72-1.961-3.006-3.296-3.842-4.001c-0.889-0.725-1.769-1.225-2.621-1.519v5.45
						c0,3.665,1.041,5.66,3.117,5.979v0.417C22.971,197.917,21.542,197.818,20.42,197.818z M21.582,179.901v4.996
						c0.853,0.229,1.773,0.345,2.773,0.345c3.239,0,4.86-1.794,4.86-5.382c0-3.361-1.605-5.037-4.82-5.037
						c-1.04,0-1.847,0.226-2.416,0.668C21.718,176.102,21.582,177.571,21.582,179.901z M31.387,184.873
						c0.938-1.572,1.4-3.316,1.4-5.217c0-1.732-0.536-3.473-1.617-5.226c2.481,1.122,3.71,2.883,3.71,5.291
						C34.88,182.162,33.717,183.874,31.387,184.873z"/>
					<path fill="#243F8B" stroke="#243F8B" stroke-width="0.1" stroke-miterlimit="10" d="M47.932,173.579h0.7v24.239h-1.417
						c-0.512,0-1.577,0.099-3.207,0.282v-0.417c0.782-0.213,1.376-0.603,1.777-1.172c0.414-0.581,0.705-1.253,0.844-2.002
						c0.156-0.799,0.237-2.486,0.237-5.062v-9.637c0-2.216-0.278-3.751-0.848-4.574c-0.561-0.823-1.229-1.335-2.011-1.52v-0.409
						C44.896,173.365,46.199,173.456,47.932,173.579z M58.846,197.818h-8.649v-24.239h6.29c1.18,0,3.424-0.091,6.712-0.271
						c-0.041,0.458-0.057,0.798-0.057,1.027c0,0.312,0.04,1.024,0.122,2.143c0.033,0.749,0.058,1.158,0.058,1.224v0.569h-0.364
						c-0.517-1.318-1.11-2.17-1.777-2.547c-0.659-0.373-1.904-0.553-3.735-0.553h-3.448c-0.544,0-1.052,0.037-1.507,0.11
						c-0.254,0.521-0.413,1.761-0.463,3.723l-0.041,1.568v3.747h4.677c1.762,0,2.925-0.164,3.502-0.487
						c0.577-0.312,1.04-1.081,1.384-2.297h0.479c-0.115,1.38-0.172,2.58-0.172,3.591c0,0.64,0.041,1.487,0.131,2.531
						c0.024,0.307,0.058,0.909,0.099,1.814h-0.472c-0.131-1.352-0.508-2.273-1.143-2.781c-0.663-0.508-1.666-0.762-3.051-0.762
						h-5.435v5.021c0,1.929,0.106,3.62,0.315,5.077c0.594,0.095,1.253,0.14,1.938,0.14h3.288c1.79,0,3.142-0.217,4.038-0.647
						c0.958-0.441,1.888-1.429,2.821-2.965h0.427c-0.156,0.705-0.394,1.52-0.717,2.433c-0.386,1.204-0.66,2.236-0.832,3.112
						C61.613,197.917,60.14,197.818,58.846,197.818z"/>
					<path fill="#243F8B" stroke="#243F8B" stroke-width="0.1" stroke-miterlimit="10" d="M68.104,189.841h0.491
						c0.106,1.966,0.853,3.579,2.229,4.861c1.359,1.249,2.915,1.875,4.681,1.875c1.343,0,2.449-0.401,3.297-1.216
						c0.852-0.811,1.277-1.781,1.277-2.92c0-1.196-0.401-2.125-1.229-2.785c-0.79-0.643-2.363-1.371-4.697-2.183
						c-1.871-0.663-3.198-1.208-3.989-1.634c-0.925-0.504-1.65-1.188-2.17-2.048c-0.569-0.876-0.848-1.859-0.848-2.94
						c0-1.212,0.381-2.399,1.154-3.563c-0.172,0.594-0.266,1.114-0.266,1.561c0,1.199,0.274,2.248,0.803,3.148
						c0.545,0.938,1.22,1.639,2.035,2.118c0.807,0.487,2.15,1.052,4.046,1.675c2.457,0.798,4.247,1.683,5.336,2.646
						c1.053,0.938,1.581,2.199,1.581,3.775c0,1.552-0.553,2.948-1.638,4.21c-1.114,1.27-2.781,1.904-4.988,1.904
						c-0.893,0-2.13-0.172-3.719-0.528c-1.384-0.307-2.424-0.467-3.108-0.483l-0.155-0.184c0.017-0.259,0.024-0.599,0.024-1.008
						c0-0.491-0.041-1.249-0.123-2.281c-0.077-1.02-0.118-1.794-0.118-2.297C68.011,190.881,68.043,190.316,68.104,189.841z
						 M83.372,180.229h-0.455c-0.017-1.777-0.676-3.096-1.994-3.956c-1.277-0.848-2.838-1.266-4.669-1.266
						c-1.458,0-2.653,0.328-3.583,0.987c-0.958,0.659-1.43,1.449-1.43,2.371c0,0.979,0.365,1.757,1.122,2.317
						c0.782,0.619,2.318,1.348,4.6,2.191c2.138,0.778,3.628,1.413,4.488,1.908c0.896,0.536,1.662,1.303,2.265,2.298
						c0.61,1.031,0.896,2.17,0.896,3.432c0,1.912-0.65,3.419-1.978,4.509c0.495-0.725,0.737-1.74,0.737-3.043
						c0-1.229-0.267-2.313-0.812-3.264c-0.553-0.963-1.245-1.732-2.06-2.306c-0.848-0.577-2.207-1.196-4.096-1.855
						c-2.838-0.999-4.692-1.854-5.557-2.556c-0.868-0.721-1.294-1.838-1.294-3.354c0-1.757,0.659-3.129,1.986-4.12
						c1.326-0.966,3.206-1.453,5.646-1.453c1.646,0,3.687,0.311,6.065,0.929v0.156l0.058,0.876c0,0.459,0.008,1.004,0.032,1.654
						c0.054,0.782,0.078,1.467,0.078,2.068C83.421,179.156,83.404,179.647,83.372,180.229z"/>
					<path fill="#243F8B" stroke="#243F8B" stroke-width="0.1" stroke-miterlimit="10" d="M92.578,173.579v24.239
						c-1.032,0-2.613,0.099-4.73,0.282v-0.417c1.11-0.304,1.888-0.971,2.314-2.003c0.43-1.008,0.643-2.842,0.643-5.5v-10.279
						c0-1.986-0.222-3.452-0.668-4.39c-0.446-0.917-1.212-1.512-2.289-1.794v-0.409C89.601,173.456,91.186,173.55,92.578,173.579z
						 M94.212,197.818v-24.239c1.777,0,3.37-0.091,4.755-0.271v0.409c-0.848,0.168-1.564,0.663-2.126,1.471
						c-0.569,0.848-0.868,2.584-0.868,5.226v10.967c0,2.362,0.308,3.956,0.918,4.763c0.602,0.811,1.294,1.327,2.076,1.54v0.417
						C97.606,197.917,96.014,197.818,94.212,197.818z"/>
					<path fill="#243F8B" stroke="#243F8B" stroke-width="0.1" stroke-miterlimit="10" d="M107.161,173.579v24.239
						c-1.032,0-2.638,0.099-4.832,0.282v-0.417c1.113-0.319,1.896-1.008,2.358-2.068c0.446-1.012,0.676-3.112,0.676-6.299v-9.505
						c0-1.945-0.229-3.362-0.676-4.255c-0.446-0.872-1.229-1.482-2.358-1.839v-0.409
						C104.208,173.456,105.817,173.55,107.161,173.579z M110.003,197.818h-1.311v-24.239c1.99-0.046,3.383-0.099,4.174-0.16
						c1.195-0.078,2.019-0.11,2.465-0.11c2.158,0,4.005,0.528,5.533,1.58c1.515,1.082,2.653,2.482,3.419,4.21
						c0.741,1.708,1.122,3.87,1.122,6.487c0,3.984-0.9,7.072-2.707,9.247c-1.81,2.175-4.275,3.268-7.367,3.268
						c-1.441,0-3.067-0.086-4.882-0.258C110.367,197.831,110.229,197.818,110.003,197.818z M110.83,175.725
						c-0.233,0.684-0.348,3.1-0.348,7.244v5.606c0,3.358,0.217,5.812,0.627,7.359c1.113,0.373,2.375,0.553,3.809,0.553
						c2.67,0,4.767-0.896,6.298-2.69c1.532-1.802,2.31-4.472,2.31-7.981c0-3.432-0.766-6.103-2.301-7.998
						c-1.516-1.904-3.768-2.858-6.745-2.858C112.939,174.959,111.728,175.213,110.83,175.725z M123.419,196.028
						c2.388-1.944,3.584-5.319,3.584-10.123c0-4.693-0.979-7.998-2.933-9.927c1.638,1.146,2.883,2.547,3.715,4.202
						c0.835,1.658,1.253,3.542,1.253,5.659C129.038,190.259,127.166,193.653,123.419,196.028z"/>
					<path fill="#243F8B" stroke="#243F8B" stroke-width="0.1" stroke-miterlimit="10" d="M136.021,173.579h0.708v24.239h-1.417
						c-0.503,0-1.564,0.099-3.198,0.282v-0.417c0.782-0.213,1.368-0.603,1.773-1.172c0.422-0.581,0.692-1.253,0.848-2.002
						c0.151-0.799,0.233-2.486,0.233-5.062v-9.637c0-2.216-0.274-3.751-0.844-4.574s-1.229-1.335-2.011-1.52v-0.409
						C132.99,173.365,134.301,173.456,136.021,173.579z M146.946,197.818h-8.649v-24.239h6.291c1.179,0,3.419-0.091,6.708-0.271
						c-0.033,0.458-0.041,0.798-0.041,1.027c0,0.312,0.032,1.024,0.098,2.143c0.046,0.749,0.078,1.158,0.078,1.224v0.569h-0.381
						c-0.512-1.318-1.098-2.17-1.765-2.547c-0.668-0.373-1.913-0.553-3.752-0.553h-3.428c-0.544,0-1.057,0.037-1.515,0.11
						c-0.267,0.521-0.414,1.761-0.455,3.723l-0.032,1.568v3.747h4.647c1.766,0,2.937-0.164,3.522-0.487
						c0.569-0.312,1.036-1.081,1.376-2.297h0.479c-0.111,1.38-0.177,2.58-0.177,3.591c0,0.64,0.05,1.487,0.123,2.531
						c0.037,0.307,0.078,0.909,0.11,1.814h-0.471c-0.131-1.352-0.521-2.273-1.146-2.781c-0.644-0.508-1.667-0.762-3.051-0.762
						h-5.414v5.021c0,1.929,0.082,3.62,0.286,5.077c0.61,0.095,1.254,0.14,1.954,0.14h3.288c1.781,0,3.133-0.217,4.042-0.647
						c0.946-0.441,1.888-1.429,2.801-2.965h0.447c-0.164,0.705-0.406,1.52-0.717,2.433c-0.39,1.204-0.676,2.236-0.853,3.112
						C149.715,197.917,148.24,197.818,146.946,197.818z"/>
					<path fill="#243F8B" stroke="#243F8B" stroke-width="0.1" stroke-miterlimit="10" d="M158.88,173.579l24.916,22.634v1.888
						h-0.438l-19.588-17.736v10.697c0,2.33,0.278,3.951,0.848,4.849c0.553,0.909,1.446,1.499,2.658,1.773v0.417
						c-2.179-0.184-3.661-0.282-4.427-0.282c-0.893,0-2.212,0.099-3.985,0.282v-0.417c1.237-0.304,2.081-0.926,2.523-1.863
						c0.454-0.935,0.684-2.589,0.684-4.968l-0.024-12.003l-1.564-1.405c-2.162-1.961-3.98-3.206-5.476-3.727v-0.409L158.88,173.579z
						 M183.796,193.961l-22.475-20.382h2.547l18.195,16.467v-9.542c0-1.589-0.099-2.817-0.308-3.682
						c-0.188-0.812-0.61-1.495-1.22-2.048c-0.635-0.536-1.417-0.889-2.38-1.057v-0.409c0.009,0,0.254,0.017,0.758,0.065
						c1.888,0.139,3.166,0.205,3.842,0.205c0.618,0,2.101-0.091,4.435-0.271v0.409c-0.749,0.11-1.408,0.438-1.97,0.991
						c-0.545,0.521-0.926,1.163-1.122,1.929c-0.205,0.782-0.303,1.88-0.303,3.289V193.961z"/>
					<path fill="#243F8B" stroke="#243F8B" stroke-width="0.1" stroke-miterlimit="10" d="M194.066,176.822
						c-1.643,2.256-2.474,5.258-2.474,8.993c0,4.382,1.02,7.683,3.06,9.89c-1.544-0.684-2.772-1.937-3.678-3.751
						c-0.909-1.79-1.368-3.816-1.368-6.065c0-1.552,0.246-2.977,0.717-4.279c0.455-1.29,0.979-2.302,1.598-3.014
						C192.498,177.907,193.215,177.313,194.066,176.822z M212.053,192.83h0.438l-0.692,3.891c-1.339,0.553-2.633,0.954-3.866,1.225
						c-1.244,0.258-2.44,0.381-3.595,0.381c-3.489,0-6.226-1.077-8.195-3.239c-1.978-2.146-2.961-5.263-2.961-9.366
						c0-4.078,1.057-7.195,3.183-9.354c2.097-2.149,4.881-3.223,8.342-3.223c2.506,0,5.054,0.479,7.608,1.45
						c-0.106,1.929-0.18,3.075-0.18,3.423c0,0.324,0.017,0.64,0.024,0.946v0.549c0,0.799-0.032,1.561-0.106,2.277h-0.364
						c-0.889-4.632-3.387-6.946-7.474-6.946c-2.781,0-4.98,0.959-6.622,2.875c-1.646,1.904-2.474,4.648-2.474,8.235
						c0,3.142,0.77,5.697,2.285,7.658c1.49,1.966,3.751,2.944,6.786,2.944c1.671,0,3.198-0.348,4.582-1.056
						C210.141,194.825,211.246,193.937,212.053,192.83z"/>
					<path fill="#243F8B" stroke="#243F8B" stroke-width="0.1" stroke-miterlimit="10" d="M219.068,173.579h0.708v24.239h-1.425
						c-0.504,0-1.568,0.099-3.198,0.282v-0.417c0.773-0.213,1.359-0.603,1.772-1.172c0.418-0.581,0.692-1.253,0.84-2.002
						c0.155-0.799,0.237-2.486,0.237-5.062v-9.637c0-2.216-0.27-3.751-0.839-4.574c-0.562-0.823-1.237-1.335-2.011-1.52v-0.409
						C216.025,173.365,217.336,173.456,219.068,173.579z M229.99,197.818h-8.653v-24.239h6.299c1.175,0,3.411-0.091,6.691-0.271
						c-0.024,0.458-0.033,0.798-0.033,1.027c0,0.312,0.033,1.024,0.106,2.143c0.041,0.749,0.058,1.158,0.058,1.224v0.569h-0.36
						c-0.521-1.318-1.114-2.17-1.773-2.547c-0.667-0.373-1.912-0.553-3.743-0.553h-3.436c-0.553,0-1.057,0.037-1.52,0.11
						c-0.254,0.521-0.409,1.761-0.454,3.723l-0.041,1.568v3.747h4.668c1.766,0,2.924-0.164,3.51-0.487
						c0.569-0.312,1.04-1.081,1.376-2.297h0.479c-0.115,1.38-0.172,2.58-0.172,3.591c0,0.64,0.049,1.487,0.123,2.531
						c0.032,0.307,0.073,0.909,0.114,1.814h-0.467c-0.144-1.352-0.521-2.273-1.155-2.781c-0.643-0.508-1.658-0.762-3.051-0.762
						h-5.426v5.021c0,1.929,0.102,3.62,0.299,5.077c0.61,0.095,1.261,0.14,1.953,0.14h3.289c1.781,0,3.133-0.217,4.037-0.647
						c0.95-0.441,1.896-1.429,2.813-2.965h0.431c-0.16,0.705-0.397,1.52-0.713,2.433c-0.385,1.204-0.676,2.236-0.84,3.112
						C232.763,197.917,231.284,197.818,229.99,197.818z"/>
				</g>
			</g>
			<g>
				<rect x="119.41" y="23.487" fill="#243F8B" width="9.813" height="55.04"/>
				<polygon fill="#243F8B" points="119.808,76.938 116.015,81.219 116.015,83.271 132.617,83.271 132.617,80.42 129.148,76.938 
									"/>
				<polyline fill="#243F8B" points="119,23.487 117.637,23.487 117.637,19.859 119.586,19.859 131,19.859 131,23.463 
					128.809,23.463 119.05,23.463 				"/>
				<path fill="#243F8B" d="M118.333,12.672c0,0,3.444,0.782,6.65,4.378c0,0,1.725-3.436,6.34-4.378c0,0-0.237,4.148-2.277,6.021
					c0,0,1.016,0.081,1.016,1.961h-10.156c0,0-1.023-1.02,0-1.724c0,0,0.774-1.798-0.553-3.051
					C119.353,15.879,117.473,14.552,118.333,12.672z"/>
				<path fill="#243F8B" d="M173.103,85.621c-3.734-1.594-3.841,1.662-3.505,2.813c1.417,4.853-4.6,3.178-5.991,2.522
					c-6.037-2.871-9.456-16.41-10.091-22.549c-0.799-7.916-4.742-12.068-4.742-12.068c3.357-2.769,7.437-5.881,9.755-8.412
					c8.35-9.124,8.943-23.601,4.647-31.685C150.26-7.984,126.617,1.774,124.292,2.807c-2.318-1.032-25.96-10.791-38.86,13.437
					c-4.313,8.084-3.719,22.561,4.632,31.685c2.326,2.531,6.389,5.644,9.751,8.412c0,0-3.939,4.152-4.747,12.068
					c-0.626,6.139-4.037,19.678-10.09,22.549c-1.377,0.655-7.404,2.33-5.983-2.522c0.336-1.151,0.237-4.407-3.514-2.813
					c0,0-5.894,5.557,1.789,8.902c4.03,1.762,11.013,1.896,17.913-5.25c0,0,6.552-4.41,9.391-29.375c0,0,12.539,5.664,13.239-6.131
					c0,0-0.577-11.319-14.038-1.978c0,0-12.663-5.541-11.475-23.74c0,0,1.392-21.959,22.552-20.768c0,0-17.408,15.828-4.55,23.344
					c0,0,7.122,2.17,6.528-6.725c0,0-0.594-0.791-1.979-0.209c-1.384,0.602-6.135-4.943-0.396-10.087c0,0,4.435-4.23,9.505-6.241
					v0.074c0.144-0.05,0.25-0.082,0.332-0.115c0.09,0.033,0.204,0.065,0.344,0.115V7.364c5.054,2.011,9.497,6.241,9.497,6.241
					c5.737,5.144,0.99,10.688-0.394,10.087c-1.384-0.582-1.978,0.209-1.978,0.209c-0.595,8.895,6.527,6.725,6.527,6.725
					c12.867-7.516-4.55-23.344-4.55-23.344c21.168-1.191,22.553,20.768,22.553,20.768c1.18,18.199-11.475,23.74-11.475,23.74
					c-13.462-9.342-14.047,1.978-14.047,1.978c0.708,11.795,13.256,6.131,13.256,6.131c2.817,24.965,9.374,29.375,9.374,29.375
					c6.909,7.146,13.892,7.012,17.93,5.25C179.013,91.178,173.103,85.621,173.103,85.621z M111.474,52.339
					c1.813,0,3.305,0.844,3.305,1.888c0,1.048-1.491,1.9-3.305,1.9c-1.839,0-3.321-0.853-3.321-1.9
					C108.152,53.183,109.635,52.339,111.474,52.339z M137.449,56.127c-1.83,0-3.316-0.853-3.316-1.9
					c0-1.044,1.486-1.888,3.316-1.888c1.827,0,3.313,0.844,3.313,1.888C140.763,55.274,139.276,56.127,137.449,56.127z"/>
			</g>
		</g>
		<g>
			<g>
				<g>
					<g>
						<path fill="#243F8B" stroke="#243F8B" stroke-width="0.1" stroke-miterlimit="10" d="M17.147,219.998v-9.816
							c0-0.773-0.123-1.277-0.36-1.511c-0.242-0.237-0.75-0.368-1.536-0.381v-0.418h3.092h3.101v0.418
							c-0.864,0.013-1.434,0.144-1.691,0.381c-0.271,0.233-0.401,0.737-0.401,1.511v4.333h6.553v-4.333
							c0-0.773-0.123-1.277-0.386-1.511c-0.273-0.237-0.843-0.368-1.699-0.381v-0.418h3.092h3.101v0.418
							c-0.778,0.013-1.303,0.144-1.536,0.381c-0.237,0.233-0.368,0.737-0.368,1.511v9.816c0,0.778,0.131,1.282,0.368,1.52
							c0.233,0.237,0.758,0.36,1.536,0.377v0.413h-3.092h-3.101v-0.413c0.856-0.017,1.426-0.14,1.699-0.377
							c0.263-0.237,0.386-0.741,0.386-1.52v-4.599h-6.553v4.599c0,0.778,0.131,1.282,0.401,1.52c0.258,0.237,0.827,0.36,1.691,0.377
							v0.413h-3.101h-3.092v-0.413c0.786-0.017,1.294-0.14,1.536-0.381C17.024,221.276,17.147,220.776,17.147,219.998z"/>
						<path fill="#243F8B" stroke="#243F8B" stroke-width="0.1" stroke-miterlimit="10" d="M33.168,220.502
							c-1.331-1.404-1.982-3.202-1.982-5.39c0-2.203,0.651-4.001,1.982-5.413c1.327-1.405,3.014-2.105,5.07-2.105
							c2.084,0,3.771,0.7,5.103,2.105c1.318,1.412,1.978,3.21,1.978,5.413c0,2.188-0.659,3.985-1.978,5.39
							c-1.331,1.4-3.019,2.109-5.103,2.109C36.182,222.611,34.495,221.902,33.168,220.502z M41.633,220.031
							c0.807-1.188,1.221-2.834,1.221-4.919c0-2.112-0.414-3.759-1.221-4.955c-0.831-1.195-1.953-1.794-3.395-1.794
							c-1.43,0-2.539,0.599-3.366,1.794c-0.808,1.196-1.213,2.843-1.213,4.955c0,2.085,0.405,3.731,1.213,4.919
							c0.827,1.204,1.937,1.798,3.366,1.798C39.68,221.829,40.802,221.235,41.633,220.031z"/>
						<path fill="#243F8B" stroke="#243F8B" stroke-width="0.1" stroke-miterlimit="10" d="M51.556,219.998v-11.2h-1.184
							c-1.229,0-2.063,0.172-2.481,0.516c-0.446,0.365-0.75,1.122-0.958,2.285h-0.504l0.062-1.863l0.057-1.863h6.09h6.11
							l0.058,1.863l0.065,1.863h-0.504c-0.205-1.163-0.521-1.92-0.954-2.285c-0.431-0.344-1.27-0.516-2.498-0.516h-1.155v11.2
							c0,0.778,0.123,1.282,0.39,1.52c0.245,0.237,0.807,0.36,1.646,0.377v0.413H52.67h-3.149v-0.413
							c0.835-0.017,1.384-0.14,1.65-0.381C51.408,221.276,51.556,220.776,51.556,219.998z"/>
						<path fill="#243F8B" stroke="#243F8B" stroke-width="0.1" stroke-miterlimit="10" d="M59.521,222.308v-0.413
							c0.799-0.017,1.303-0.14,1.54-0.377c0.242-0.237,0.364-0.741,0.364-1.52v-9.816c0-0.773-0.122-1.277-0.364-1.511
							c-0.237-0.237-0.741-0.368-1.54-0.381v-0.418h4.112h7.363l0.032,1.594l0.033,1.58h-0.504
							c-0.131-0.962-0.394-1.597-0.831-1.896c-0.431-0.287-1.278-0.446-2.572-0.446h-2.752c-0.307,0-0.52,0.053-0.618,0.159
							c-0.099,0.099-0.151,0.308-0.151,0.618v4.813h3.108c0.966,0,1.609-0.136,1.92-0.397c0.324-0.262,0.545-0.823,0.651-1.679
							h0.496v2.522v2.53h-0.496c-0.106-0.863-0.327-1.425-0.651-1.691c-0.311-0.262-0.954-0.393-1.92-0.393h-3.108v5.291
							c0,0.405,0.062,0.659,0.2,0.799c0.131,0.139,0.394,0.2,0.791,0.2h2.035c1.52,0,2.597-0.18,3.206-0.536
							c0.627-0.364,1.196-1.139,1.7-2.314h0.594l-0.479,1.844l-0.479,1.838h-7.567H59.521z"/>
						<path fill="#243F8B" stroke="#243F8B" stroke-width="0.1" stroke-miterlimit="10" d="M72.729,222.308v-0.413
							c0.79-0.017,1.302-0.14,1.548-0.377c0.233-0.237,0.356-0.741,0.356-1.52v-9.816c0-0.773-0.123-1.277-0.356-1.511
							c-0.246-0.237-0.758-0.368-1.548-0.381v-0.418h3.1h3.092v0.418c-0.859,0.013-1.429,0.144-1.683,0.381
							c-0.274,0.233-0.405,0.737-0.405,1.511v10.296c0,0.405,0.073,0.659,0.2,0.799c0.147,0.139,0.394,0.2,0.79,0.2h1.508
							c1.748,0,2.969-0.185,3.669-0.561c0.684-0.373,1.311-1.172,1.831-2.396h0.561l-0.479,1.896l-0.487,1.892h-7.592H72.729z"/>
						<path fill="#243F8B" stroke="#243F8B" stroke-width="0.1" stroke-miterlimit="10" d="M93.352,219.998l5.242-12.38h0.209h0.213
							l5.328,12.38c0.36,0.778,0.659,1.282,0.905,1.523c0.262,0.242,0.618,0.365,1.081,0.373v0.413h-2.772h-2.761v-0.413
							c0.856-0.017,1.368-0.14,1.516-0.377c0.168-0.237,0.082-0.741-0.246-1.52l-1.007-2.392h-5.713l-0.651,1.639
							c-0.442,1.085-0.603,1.793-0.467,2.129c0.131,0.332,0.635,0.504,1.515,0.521v0.413h-2.158h-2.179v-0.413
							c0.455-0.008,0.799-0.131,1.049-0.373C92.709,221.28,93,220.776,93.352,219.998z M95.728,216.71h4.955l-2.49-5.95
							L95.728,216.71z"/>
						<path fill="#243F8B" stroke="#243F8B" stroke-width="0.1" stroke-miterlimit="10" d="M108.869,219.998v-9.816
							c0-0.773-0.119-1.277-0.349-1.519c-0.229-0.233-0.725-0.369-1.49-0.373v-0.418h2.932h2.74c1.761,0,3.165,0.34,4.169,1.024
							c1.016,0.684,1.527,1.617,1.527,2.809c0,1.396-0.487,2.466-1.462,3.199c-0.971,0.732-2.388,1.105-4.234,1.105
							c-0.594,0-1.139-0.017-1.634-0.058v4.046c0,0.778,0.139,1.282,0.405,1.52c0.262,0.237,0.823,0.36,1.687,0.377v0.413h-3.055
							h-3.075v-0.413c0.766-0.008,1.261-0.131,1.49-0.373C108.75,221.28,108.869,220.776,108.869,219.998z M111.068,215.092
							c0.314,0.046,0.626,0.066,0.941,0.066c1.368,0,2.388-0.279,3.055-0.832c0.66-0.549,1-1.404,1-2.547
							c0-1.012-0.356-1.786-1.049-2.313c-0.7-0.545-1.695-0.812-3.006-0.812l-0.176,0.009c-0.295,0.016-0.5,0.094-0.603,0.2
							c-0.106,0.114-0.163,0.328-0.163,0.651V215.092z"/>
						<path fill="#243F8B" stroke="#243F8B" stroke-width="0.1" stroke-miterlimit="10" d="M120.986,219.998l5.25-12.38h0.197h0.217
							l5.332,12.38c0.348,0.778,0.651,1.282,0.905,1.523c0.25,0.242,0.602,0.365,1.072,0.373v0.413h-2.768h-2.772v-0.413
							c0.868-0.017,1.38-0.14,1.544-0.377c0.139-0.237,0.057-0.741-0.274-1.52l-0.995-2.392h-5.713l-0.651,1.639
							c-0.455,1.085-0.594,1.793-0.471,2.129c0.131,0.332,0.635,0.504,1.515,0.521v0.413h-2.158h-2.183v-0.413
							c0.459-0.008,0.807-0.131,1.061-0.373C120.336,221.28,120.631,220.776,120.986,219.998z M123.366,216.71h4.938l-2.474-5.95
							L123.366,216.71z"/>
						<path fill="#243F8B" stroke="#243F8B" stroke-width="0.1" stroke-miterlimit="10" d="M136.516,219.998v-9.816
							c0-0.773-0.114-1.277-0.336-1.511c-0.241-0.237-0.736-0.368-1.486-0.381v-0.418h2.928h3.142c1.679,0,3.002,0.34,3.939,1.008
							c0.95,0.667,1.425,1.597,1.425,2.772c0,1.225-0.512,2.183-1.548,2.883c-0.61,0.385-1.359,0.692-2.235,0.864l3.604,4.599
							c0.602,0.786,1.081,1.294,1.4,1.528c0.34,0.237,0.733,0.36,1.188,0.368v0.413h-1.13h-2.363l-5.037-6.736
							c-0.446,0-0.868,0.017-1.27,0.041v4.386c0,0.778,0.123,1.282,0.394,1.52c0.266,0.237,0.818,0.36,1.691,0.377v0.413h-3.06
							h-3.067v-0.413c0.75-0.017,1.245-0.14,1.486-0.381C136.401,221.276,136.516,220.776,136.516,219.998z M138.735,214.858
							c0.147-0.012,0.312-0.012,0.442,0c1.561,0,2.715-0.262,3.481-0.794c0.749-0.521,1.13-1.344,1.13-2.433
							c0-0.967-0.323-1.708-0.958-2.212c-0.635-0.508-1.548-0.766-2.728-0.766c-0.226,0-0.431,0.009-0.635,0.045
							c-0.299,0.033-0.496,0.111-0.594,0.242c-0.099,0.118-0.14,0.34-0.14,0.667V214.858z"/>
						<path fill="#243F8B" stroke="#243F8B" stroke-width="0.1" stroke-miterlimit="10" d="M154.224,219.998v-11.2h-1.163
							c-1.236,0-2.068,0.172-2.498,0.516c-0.434,0.365-0.749,1.122-0.954,2.285h-0.512l0.058-1.863l0.057-1.863h6.11h6.114
							l0.049,1.863l0.07,1.863h-0.504c-0.226-1.163-0.528-1.92-0.975-2.285c-0.418-0.344-1.245-0.516-2.482-0.516h-1.171v11.2
							c0,0.778,0.144,1.282,0.397,1.52s0.814,0.36,1.658,0.377v0.413h-3.141h-3.142v-0.413c0.84-0.017,1.385-0.14,1.639-0.381
							C154.093,221.276,154.224,220.776,154.224,219.998z"/>
						<path fill="#243F8B" stroke="#243F8B" stroke-width="0.1" stroke-miterlimit="10" d="M165.228,219.146
							c0,1.126,0.151,1.855,0.397,2.203c0.271,0.349,0.848,0.528,1.708,0.545v0.413h-2.563h-2.564v-0.413
							c0.864-0.017,1.417-0.196,1.695-0.545c0.259-0.348,0.39-1.077,0.39-2.203v-8.108c0-1.122-0.131-1.859-0.39-2.199
							c-0.278-0.353-0.831-0.536-1.695-0.549v-0.418h2.143h2.142l5.013,10.914h-0.009l4.808-10.914h2.143h2.149v0.418
							c-0.766,0.004-1.277,0.14-1.515,0.373c-0.238,0.241-0.353,0.745-0.353,1.519v9.816c0,0.778,0.114,1.282,0.353,1.523
							c0.237,0.242,0.749,0.365,1.515,0.373v0.413h-3.071h-3.1v-0.413c0.872-0.017,1.441-0.14,1.695-0.377
							c0.266-0.237,0.389-0.741,0.389-1.52v-10.132l-5.467,12.441h-0.164h-0.164l-5.483-11.938l0,0V219.146z"/>
						<path fill="#243F8B" stroke="#243F8B" stroke-width="0.1" stroke-miterlimit="10" d="M181.429,222.308v-0.413
							c0.782-0.017,1.302-0.14,1.523-0.377c0.258-0.237,0.372-0.741,0.372-1.52v-9.816c0-0.773-0.114-1.277-0.372-1.511
							c-0.222-0.237-0.741-0.368-1.523-0.381v-0.418h4.104h7.363l0.032,1.594l0.041,1.58h-0.52
							c-0.115-0.962-0.394-1.597-0.832-1.896c-0.422-0.287-1.277-0.446-2.563-0.446h-2.756c-0.303,0-0.516,0.053-0.614,0.159
							c-0.103,0.099-0.151,0.308-0.151,0.618v4.813h3.1c0.959,0,1.609-0.136,1.929-0.397c0.324-0.262,0.545-0.823,0.644-1.679h0.504
							v2.522v2.53h-0.504c-0.099-0.863-0.319-1.425-0.644-1.691c-0.319-0.262-0.97-0.393-1.929-0.393h-3.1v5.291
							c0,0.405,0.057,0.659,0.192,0.799c0.131,0.139,0.401,0.2,0.799,0.2h2.035c1.515,0,2.588-0.18,3.206-0.536
							c0.627-0.364,1.188-1.139,1.7-2.314h0.594l-0.479,1.844l-0.479,1.838h-7.567H181.429z"/>
						<path fill="#243F8B" stroke="#243F8B" stroke-width="0.1" stroke-miterlimit="10" d="M197.69,219.146
							c0,1.126,0.127,1.855,0.381,2.203c0.279,0.349,0.832,0.528,1.716,0.545v0.413h-2.571h-2.572v-0.413
							c0.864-0.017,1.434-0.196,1.696-0.545c0.266-0.348,0.405-1.077,0.405-2.203v-9.768c-0.315-0.344-0.562-0.568-0.774-0.716
							c-0.364-0.233-0.811-0.369-1.343-0.373v-0.418h1.888h1.888l8.224,10.398v-7.232c0-1.114-0.123-1.847-0.401-2.199
							c-0.258-0.353-0.823-0.536-1.684-0.549v-0.418h2.556h2.563v0.418c-0.855,0.013-1.425,0.196-1.688,0.549
							c-0.266,0.34-0.396,1.077-0.396,2.199v11.508h-0.164h-0.176l-9.547-12.081V219.146z"/>
						<path fill="#243F8B" stroke="#243F8B" stroke-width="0.1" stroke-miterlimit="10" d="M215.456,219.998v-11.2h-1.159
							c-1.229,0-2.063,0.172-2.498,0.516c-0.438,0.365-0.745,1.122-0.941,2.285h-0.513l0.05-1.863l0.057-1.863h6.103h6.11
							l0.065,1.863l0.057,1.863h-0.495c-0.213-1.163-0.528-1.92-0.963-2.285c-0.438-0.344-1.253-0.516-2.489-0.516h-1.172v11.2
							c0,0.778,0.132,1.282,0.394,1.52c0.258,0.237,0.811,0.36,1.65,0.377v0.413h-3.125h-3.148v-0.413
							c0.839-0.017,1.384-0.14,1.65-0.381C215.333,221.276,215.456,220.776,215.456,219.998z"/>
						<path fill="#243F8B" stroke="#243F8B" stroke-width="0.1" stroke-miterlimit="10" d="M232.812,212.209
							c-0.258-1.098-0.753-1.99-1.494-2.694c-0.774-0.704-1.622-1.049-2.58-1.049c-0.627,0-1.155,0.188-1.564,0.569
							c-0.414,0.385-0.603,0.872-0.603,1.466c0,0.586,0.181,1.09,0.562,1.528c0.385,0.426,1.085,0.945,2.117,1.548
							c1.781,1.02,2.985,1.871,3.612,2.58c0.626,0.7,0.929,1.523,0.929,2.469c0,1.168-0.426,2.113-1.285,2.859
							c-0.848,0.749-1.938,1.126-3.272,1.126c-0.848,0-1.806-0.222-2.858-0.644c-0.315-0.131-0.586-0.139-0.811-0.049
							c-0.205,0.099-0.328,0.282-0.353,0.562l-0.008,0.131h-0.455l-0.659-4.632h0.495c0.442,1.253,1.045,2.211,1.807,2.866
							c0.758,0.647,1.646,0.983,2.653,0.983c0.741,0,1.359-0.229,1.839-0.684c0.483-0.455,0.725-1.036,0.725-1.749
							c0-0.7-0.233-1.307-0.691-1.831c-0.455-0.508-1.303-1.117-2.531-1.826c-1.445-0.835-2.399-1.552-2.92-2.162
							c-0.504-0.627-0.758-1.393-0.758-2.306c0-1.081,0.369-1.962,1.09-2.649c0.732-0.692,1.662-1.028,2.801-1.028
							c0.692,0,1.507,0.196,2.44,0.586c0.353,0.155,0.651,0.196,0.873,0.11c0.233-0.086,0.389-0.271,0.462-0.573l0.025-0.123h0.463
							l0.495,4.615H232.812z"/>
					</g>
					<g>
						<path fill="#243F8B" stroke="#243F8B" stroke-width="0.1" stroke-miterlimit="10" d="M99.057,247.707v-8.633
							c0-0.68-0.082-1.126-0.287-1.335c-0.184-0.205-0.602-0.319-1.229-0.328v-0.372h2.408h2.02c2.338,0,4.111,0.544,5.332,1.634
							c1.22,1.081,1.83,2.662,1.83,4.729c0,1.979-0.61,3.522-1.822,4.652c-1.212,1.122-2.883,1.68-5.021,1.68h-2.339h-2.408v-0.36
							c0.627-0.017,1.045-0.119,1.229-0.34C98.975,248.829,99.057,248.391,99.057,247.707z M100.83,247.965
							c0,0.385,0.049,0.639,0.155,0.782c0.099,0.135,0.315,0.221,0.627,0.237l0.561,0.05c1.618,0,2.862-0.488,3.743-1.475
							c0.881-0.983,1.318-2.367,1.318-4.157c0-1.806-0.462-3.189-1.4-4.181c-0.941-0.987-2.261-1.475-3.98-1.475l-0.422,0.017
							c-0.237,0-0.405,0.058-0.479,0.176c-0.082,0.106-0.123,0.328-0.123,0.647V247.965z"/>
						<path fill="#243F8B" stroke="#243F8B" stroke-width="0.1" stroke-miterlimit="10" d="M120.377,245.144
							c0.008,1.625-0.365,2.842-1.09,3.652c-0.733,0.807-1.83,1.204-3.297,1.204c-1.49,0-2.596-0.389-3.313-1.191
							c-0.709-0.795-1.081-2.015-1.09-3.665v-6.069c0-0.68-0.098-1.126-0.291-1.335c-0.196-0.205-0.626-0.319-1.277-0.328v-0.372
							h2.506h2.523v0.372c-0.7,0.009-1.159,0.123-1.368,0.328c-0.213,0.209-0.312,0.655-0.312,1.335v6.282
							c0,1.318,0.229,2.293,0.717,2.903c0.479,0.606,1.229,0.905,2.273,0.905c1.081,0,1.904-0.312,2.433-0.938
							c0.544-0.643,0.818-1.601,0.818-2.87v-5.537c0-0.982-0.11-1.63-0.315-1.933c-0.213-0.312-0.667-0.467-1.351-0.476v-0.372
							h2.019h2.035v0.372c-0.676,0.009-1.118,0.164-1.318,0.476c-0.205,0.303-0.303,0.95-0.303,1.933V245.144z"/>
						<path fill="#243F8B" stroke="#243F8B" stroke-width="0.1" stroke-miterlimit="10" d="M124.259,247.707v-8.633
							c0-0.68-0.099-1.126-0.315-1.335c-0.213-0.205-0.659-0.319-1.352-0.328v-0.372h2.548h2.293c1.507,0,2.638,0.266,3.403,0.782
							c0.766,0.528,1.146,1.311,1.146,2.358c0,0.999-0.312,1.749-0.938,2.253c-0.365,0.303-0.836,0.508-1.446,0.626
							c0.692,0.147,1.27,0.381,1.725,0.684c0.823,0.582,1.245,1.434,1.245,2.572c0,1.135-0.397,1.994-1.18,2.56
							c-0.799,0.581-1.97,0.86-3.518,0.86h-2.731h-2.548v-0.36c0.692-0.017,1.139-0.119,1.359-0.34
							C124.16,248.829,124.259,248.391,124.259,247.707z M126.023,238.574v4.169h1.573c0.884,0,1.544-0.196,1.961-0.59
							c0.438-0.393,0.651-0.99,0.651-1.81c0-0.881-0.262-1.527-0.79-1.958c-0.521-0.43-1.319-0.639-2.4-0.639l-0.376,0.017
							c-0.242,0.008-0.406,0.065-0.496,0.176C126.081,238.046,126.023,238.255,126.023,238.574z M126.023,248.034
							c0,0.397,0.065,0.659,0.164,0.795c0.106,0.135,0.312,0.196,0.635,0.217l0.303,0.013c1.155,0,2.031-0.229,2.597-0.688
							c0.577-0.45,0.868-1.15,0.868-2.097c0-0.95-0.315-1.638-0.934-2.101c-0.618-0.451-1.548-0.68-2.817-0.68h-0.815V248.034z"/>
						<path fill="#243F8B" stroke="#243F8B" stroke-width="0.1" stroke-miterlimit="10" d="M135.685,247.707l4.21-10.89h0.168h0.155
							l4.271,10.89c0.287,0.684,0.536,1.122,0.733,1.339c0.196,0.217,0.487,0.328,0.864,0.328v0.36h-2.216h-2.228v-0.36
							c0.691-0.017,1.105-0.119,1.22-0.328c0.14-0.217,0.058-0.655-0.196-1.339l-0.807-2.109h-4.587l-0.516,1.445
							c-0.356,0.95-0.487,1.569-0.381,1.868c0.106,0.295,0.512,0.446,1.229,0.463v0.36h-1.741h-1.748v-0.36
							c0.356,0,0.643-0.111,0.852-0.328C135.156,248.829,135.394,248.391,135.685,247.707z M137.597,244.812h3.956l-1.986-5.233
							L137.597,244.812z"/>
						<path fill="#243F8B" stroke="#243F8B" stroke-width="0.1" stroke-miterlimit="10" d="M148.355,247.707v-8.633
							c0-0.68-0.115-1.126-0.324-1.335c-0.213-0.205-0.659-0.319-1.351-0.328v-0.372h2.555h2.572v0.372
							c-0.7,0.009-1.155,0.123-1.368,0.328c-0.204,0.209-0.319,0.655-0.319,1.335v8.633c0,0.684,0.115,1.122,0.319,1.339
							c0.213,0.209,0.668,0.312,1.368,0.328v0.36h-2.563h-2.563v-0.36c0.691-0.017,1.138-0.119,1.351-0.34
							C148.24,248.829,148.355,248.391,148.355,247.707z"/>
					</g>
				</g>
			</g>
		</g>
	</g>
</g>
</svg>
