<?xml version="1.0" encoding="utf-8"?>
<!-- Generator: Adobe Illustrator 16.0.0, SVG Export Plug-In . SVG Version: 6.00 Build 0)  -->
<!DOCTYPE svg PUBLIC "-//W3C//DTD SVG 1.1//EN" "http://www.w3.org/Graphics/SVG/1.1/DTD/svg11.dtd">
<svg version="1.1" id="Layer_1" xmlns="http://www.w3.org/2000/svg" xmlns:xlink="http://www.w3.org/1999/xlink" x="0px" y="0px"
	 width="250px" height="250px" viewBox="0 0 250 250" enable-background="new 0 0 250 250" xml:space="preserve">
<g>
	<path fill="#27A8E0" d="M131.712,79.671l-0.775,0.187c-0.043,0-0.197-0.204-0.456-0.636c-0.256-0.437-0.557-0.657-0.909-0.657
		c-0.555,0-1.071,0.831-1.546,2.458c-0.475,1.644-0.992,3.788-1.558,6.419h-0.775c-0.352-1.547-0.808-2.784-1.362-3.695
		c-0.555-0.907-1.009-1.352-1.36-1.352c-0.822,0-1.491-0.135-2-0.39c-0.86-0.432-1.301-1.208-1.301-2.335
		c0-1.296,0.498-1.937,1.491-1.937c1.333,0,2.539,1.102,3.623,3.289c0.485,1.046,0.949,2.072,1.429,3.119
		c0.388-2.212,0.741-3.797,1.029-4.789c0.784-2.466,1.69-3.695,2.723-3.695c0.65,0,1.281,0.568,1.884,1.682L131.712,79.671z"/>
	<polygon fill="#27A8E0" points="126.953,66.239 130.089,61.696 135.33,65.307 131.957,69.722 	"/>
	<polygon fill="#27A8E0" points="123.109,71.468 126.254,66.93 131.48,70.531 128.097,74.947 	"/>
	<polygon fill="#27A8E0" points="133.021,70.531 136.159,65.989 141.392,69.591 138.017,74.015 	"/>
	<polygon fill="#27A8E0" points="98.854,108.558 101.995,104.028 107.232,107.63 103.855,112.062 	"/>
	<polygon fill="#27A8E0" points="99.635,116.261 102.758,111.714 107.995,115.321 104.626,119.736 	"/>
	<path fill="#27A8E0" d="M114.609,70.447c0.326,0.331,0.518,0.902,0.547,1.699c0.042,0.818-0.271,1.542-0.915,2.199
		c-0.693,0.695-1.479,1.017-2.348,0.953c-0.869-0.063-1.565-0.36-2.114-0.911c-0.793-0.792-1.487-2.081-2.085-3.877
		c-0.621-1.784-0.896-3.437-0.869-4.954c0.435,0.432,0.88,1.187,1.297,2.212c0.971,2.365,1.699,3.792,2.19,4.267
		c0.25,0.258,0.641,0.445,1.179,0.56c0.536,0.11,0.949,0.021,1.22-0.237c0.339-0.339,0.505-0.721,0.475-1.127
		c-0.025-0.415-0.19-1.072-0.475-1.991c0.393-0.064,0.877,0.186,1.458,0.763L114.609,70.447z"/>
	<path fill="#27A8E0" d="M97.656,90.201c0.334,0.784,0.326,1.39-0.034,1.877c-0.229,0.296-0.509,0.538-0.869,0.69
		c-0.25,0.115-0.538,0.131-0.826,0.072c-0.326-0.174-0.669-0.339-1.009-0.517c0.179,1.004-0.229,1.729-1.23,2.178
		c-0.511,0.225-0.958,0.199-1.32-0.093c-0.368-0.297-0.69-0.75-0.957-1.352c-0.197-0.542-0.331-0.92-0.405-1.072l-0.396,0.712
		l-0.25-0.61c0.102-0.318,0.167-0.581,0.203-0.75c0.134-0.381,0.33-0.754,0.598-1.106l0.517,1.161
		c0.312,0.687,0.602,1.191,0.877,1.508c0.268,0.322,0.602,0.407,0.989,0.221c0.31-0.136,0.549-0.36,0.717-0.683
		c0.18-0.317,0.214-0.576,0.131-0.771c-0.12-0.229-0.43-0.657-0.951-1.25l-0.368-0.445c-0.051-0.148-0.043-0.339,0.055-0.615
		l0.19-0.449c0.426,0.246,0.898,0.763,1.433,1.538c0.525,0.784,1.087,1.136,1.661,1.034l0.313-0.199l0.229-0.525
		c-0.136-0.309-0.47-0.661-0.982-1.084c-0.541-0.424-0.844-0.683-0.929-0.763l0.085-0.581l0.326-0.564
		c0.652,0.517,1.136,0.941,1.437,1.28C97.202,89.379,97.457,89.765,97.656,90.201"/>
	<path fill="#27A8E0" d="M95.347,83.655c-0.263,0.445-0.458,0.801-0.598,1.034c-0.42,0.733-0.748,1.166-0.953,1.288
		c-1.36,0.716-2.708,1.416-4.06,2.119c-1.445,0.814-2.467,1.539-3.074,2.199c0.239-0.453,0.43-0.788,0.587-1.004
		c0.468-0.691,0.826-1.093,1.116-1.229c1.765-0.826,3.045-1.483,3.85-1.97C93.563,85.312,94.597,84.502,95.347,83.655"/>
	<path fill="#27A8E0" d="M129.656,113.935c0,0,5.068,4.712,7.103,5.14c2.038,0.466,7.551,0.199,3.102-2.559h0.813
		c0.572,0.055,1.159,0.102,1.714,0.229c1.438,0.31,1.692,1.589,0.665,2.653c-0.748,0.784-1.902,1.102-2.938,1.267
		c-0.428,0.063-3.131,0.352-3.271-0.072c0,0,1.516,4.623-6.384,5.509c-1.347,0.093-2.902-0.377-3.892-1.297
		c-0.813-0.754-1.203-2.589-0.105-3.402c1.059-0.81,3.288-0.365,4.792,0.712l-0.906,0.025c-0.604,0.017-1.179,0.055-1.768,0.225
		c-0.781,0.203-1.243,0.924-0.877,1.665c0.644,1.31,2.678,0.979,3.817,0.746c3.101-0.632,3.731-3.738,2.047-5.594
		c-0.977-0.716-4.544-3.898-6.047-3.996L129.656,113.935z"/>
	<path fill="#27A8E0" d="M150.699,93.515c0,0-0.269,1.517,0.172,2.928c0,0,2.223,0.538,3.73,0c0,0-0.087,0.712-3.991,1.077
		c0,0-4.445,4.169-9.591,3.102c-0.439-0.089-1.952,0.538-2.661,0.178c0,0,1.158-0.36,1.959-1.063c0,0,0.521-0.983,0.168-1.962
		c0,0,1.517,0.538,1.146,1.962c0,0,4.365,1.063,7.738-2.847C149.638,96.185,149.545,93.871,150.699,93.515"/>
	<path fill="#27A8E0" d="M154.96,83.481c0,0-0.968-1.424,2.757-2.042c0,0-0.888-3.377,2.652-4.53c0,0,4.627,12.704-7.625,12.166
		c0,0,6.926-1.424,6.48-6.038C158.958,81.26,157.005,83.388,154.96,83.481"/>
	<path fill="#27A8E0" d="M155.477,100.553c-2.9,1.581-16.892,6.068-29.027,3.691c0,0-1.84-5.284,18.996-15.572
		c5.08-2.496,12.676-14.242-0.259-29.03c-3.447-3.941-13.458-12.929-18.996-16.09c-5.547-3.169-24.284-13.458-11.608-21.115
		c0,0,13.451,13.725,22.947,20.064C147.034,48.828,183.188,85.248,155.477,100.553 M118.798,101.875
		c-6.063-1.055-6.604-3.966-6.604-3.966c10.558-10.021,0.794-12.395,0.794-12.395c0.539,7.386-5.546,7.636-5.546,7.636
		c-13.974-10.818-2.371-28.225,0.799-32.708c7.133-8.716,7.133-19.535,7.133-19.535c10.291,5.542,18.193,14.526,22.961,17.95
		c17.681,15.572,4.216,22.962,4.216,22.962c-1.055-5.542-5.267-4.75-5.267-4.75c1.567,1.839,2.372,7.386-0.81,8.704
		C128.296,89.468,118.798,101.875,118.798,101.875 M149.678,47.514c-8.182-7.399-10.021-8.979-27.981-23.755
		C103.749,8.979,112.995,0,112.995,0c-15.047,9.504,3.958,20.064,0.263,21.124c-12.407,7.648-0.523,16.886-0.523,16.886
		c1.027,4.11,0,8.382-1.846,12.098c-2.19,4.437-6.091,8.182-8.466,12.619c-2.21,4.153-3.958,8.648-4.614,13.327
		c-0.867,6.148,0.61,12.03,3.906,17.242c0.606,0.949,1.233,1.983,2.034,2.771c-1.843,1.06-7.119,3.127-10.813,3.166
		c-21.376,0.267,0.475-31.45,2.379-33.776c9.49-11.61,8.967-21.903,8.967-25.34c0-3.428-2.108-5.809-2.108-2.364
		c0,13.975-5.017,20.848-10.03,27.174c-5.008,6.335-11.661,18.124-12.411,21.377c-6.848,30.082,28.776,12.929,28.776,12.929
		c1.313,3.432,8.712,7.39,8.712,7.39c0.259,11.352-4.225,18.242-8.183,19.009c-18.203,3.424-27.445-20.589-27.445-20.589
		c4.75,17.691,17.391,24.891,21.373,25.853c22.7,5.555,20.853-21.361,20.853-21.361c15.411,4.009,37.53,5.055,44.912-12.759
		c1.471-3.542,2.871-9.081,2.259-12.941c-1.556-10.021-7.145-19.632-13.289-27.53C155.273,53.201,152.606,50.158,149.678,47.514"/>
	<path fill="#27A8E0" d="M17.323,185.992c-2.23,0-4.33-0.432-6.279-1.275c-1.937-0.869-3.657-2.025-5.11-3.487
		c-1.451-1.449-2.6-3.153-3.433-5.102c-0.839-1.949-1.259-4.03-1.259-6.212c0-2.22,0.42-4.31,1.259-6.267
		c0.833-1.945,1.981-3.661,3.433-5.106c1.453-1.454,3.174-2.61,5.11-3.437c1.949-0.848,4.049-1.259,6.279-1.259
		c2.229,0,4.31,0.411,6.259,1.259c1.962,0.826,3.657,1.983,5.121,3.437c1.455,1.445,2.6,3.161,3.437,5.106
		c0.837,1.958,1.256,4.047,1.256,6.267v16.077h-6.694v-16.077c0-1.331-0.237-2.568-0.735-3.725c-0.494-1.157-1.163-2.174-2.02-3.013
		c-0.868-0.869-1.862-1.538-2.993-2.034c-1.138-0.496-2.348-0.746-3.63-0.746c-1.292,0-2.506,0.25-3.636,0.746
		c-1.136,0.496-2.14,1.166-2.993,2.034c-0.858,0.839-1.541,1.856-2.02,3.013c-0.498,1.157-0.746,2.394-0.746,3.725
		c0,1.288,0.248,2.509,0.746,3.64c0.479,1.135,1.161,2.127,2.02,2.983c0.854,0.86,1.857,1.538,2.993,2.025
		c1.13,0.496,2.344,0.742,3.636,0.742c0.428,0,0.82-0.017,1.183-0.06c0.373-0.042,0.745-0.106,1.127-0.199l1.545,6.492
		C19.251,185.852,17.961,185.992,17.323,185.992"/>
	<polygon fill="#27A8E0" points="37.065,145.486 43.739,138.796 43.739,185.992 37.065,185.992 	"/>
	<path fill="#27A8E0" d="M67.728,169.852c0,1.288,0.243,2.508,0.737,3.674c0.5,1.157,1.169,2.157,2.029,3.013
		c0.848,0.86,1.86,1.538,3.021,2.034c1.156,0.487,2.381,0.733,3.656,0.733v6.687c-2.176,0-4.237-0.411-6.167-1.25
		c-1.931-0.839-3.621-1.958-5.074-3.369c-1.467-1.419-2.636-3.102-3.5-5.021c-0.886-1.928-1.348-3.992-1.393-6.169v-24.823
		l6.689-6.759v15.246h9.317v6.683h-9.317v8.487V169.852z"/>
	<path fill="#27A8E0" d="M112.347,185.992h-6.687v-16.14c0-1.275-0.233-2.496-0.737-3.631c-0.493-1.127-1.161-2.127-2.017-2.996
		c-0.869-0.852-1.858-1.521-3.007-2.017c-1.125-0.5-2.341-0.746-3.629-0.746c-1.322,0-2.56,0.246-3.729,0.746
		c-1.152,0.496-2.142,1.166-2.979,2.017c-0.85,0.869-1.511,1.869-2.005,2.996c-0.495,1.135-0.727,2.356-0.727,3.631v16.14h-6.692
		v-40.319l6.692-6.737v17.86c1.286-0.936,2.731-1.673,4.329-2.208c1.625-0.538,3.313-0.813,5.11-0.813
		c2.188,0.051,4.275,0.496,6.245,1.364c1.954,0.852,3.683,1.987,5.136,3.424c1.456,1.441,2.615,3.14,3.483,5.085
		c0.848,1.958,1.254,4.017,1.212,6.204V185.992z"/>
	<path fill="#27A8E0" d="M147.065,169.915c0.054,2.182-0.352,4.263-1.187,6.212c-0.837,1.949-1.98,3.636-3.437,5.081
		c-1.455,1.433-3.161,2.577-5.107,3.437c-1.956,0.852-4.023,1.305-6.208,1.348H131c-2.187-0.042-4.253-0.496-6.217-1.348
		c-1.949-0.86-3.648-2.004-5.1-3.437c-1.462-1.445-2.605-3.131-3.447-5.081c-0.834-1.949-1.229-4.03-1.187-6.212v-16.068h6.755
		l-0.068,16.068c0,1.288,0.242,2.509,0.704,3.64c0.477,1.135,1.125,2.127,1.962,2.983c0.839,0.86,1.828,1.538,2.966,2.025
		c1.132,0.496,2.339,0.742,3.632,0.742c1.328,0,2.56-0.246,3.694-0.742c1.132-0.487,2.123-1.165,2.96-2.025
		c0.829-0.856,1.496-1.848,1.994-2.983c0.496-1.131,0.741-2.352,0.741-3.64v-16.068h6.676V169.915z"/>
	<path fill="#27A8E0" d="M150.538,169.915c-0.036-2.182,0.356-4.254,1.195-6.204c0.83-1.949,1.983-3.652,3.437-5.11
		c1.462-1.453,3.165-2.61,5.136-3.462c1.983-0.869,4.076-1.292,6.303-1.292v6.683c-1.286,0-2.495,0.25-3.629,0.746
		c-1.14,0.487-2.123,1.148-2.992,1.983c-0.855,0.847-1.529,1.834-2.021,3.004c-0.496,1.145-0.735,2.369-0.735,3.653v16.077h-6.693
		V169.915z"/>
	<path fill="#27A8E0" d="M175.361,147.101h-6.623v-1.428l6.623-6.674V147.101z M175.361,185.992h-6.623v-32.145h6.623V185.992z"/>
	<path fill="#27A8E0" d="M195.039,185.992c-2.23,0-4.317-0.432-6.279-1.275c-1.954-0.869-3.646-2.025-5.098-3.487
		c-1.469-1.449-2.61-3.153-3.447-5.102s-1.259-4.03-1.259-6.212c0-2.22,0.422-4.31,1.259-6.267c0.837-1.945,1.979-3.661,3.447-5.106
		c1.451-1.454,3.144-2.61,5.098-3.437c1.962-0.848,4.049-1.259,6.279-1.259c2.225,0,4.312,0.411,6.27,1.259
		c1.951,0.826,3.654,1.983,5.108,3.437c1.455,1.445,2.602,3.161,3.44,5.106c0.844,1.958,1.254,4.047,1.254,6.267v16.077h-6.687
		v-16.077c0-1.331-0.245-2.568-0.745-3.725c-0.492-1.157-1.166-2.174-2.016-3.013c-0.866-0.869-1.862-1.538-2.993-2.034
		c-1.136-0.496-2.348-0.746-3.632-0.746c-1.292,0-2.504,0.25-3.638,0.746c-1.134,0.496-2.138,1.166-2.98,2.034
		c-0.869,0.839-1.538,1.856-2.034,3.013c-0.494,1.157-0.746,2.394-0.746,3.725c0,1.288,0.252,2.509,0.746,3.64
		c0.496,1.135,1.165,2.127,2.034,2.983c0.843,0.86,1.847,1.538,2.98,2.025c1.134,0.496,2.346,0.742,3.638,0.742
		c0.426,0,0.822-0.017,1.183-0.06c0.373-0.042,0.743-0.106,1.123-0.199l1.551,6.492
		C196.965,185.852,195.675,185.992,195.039,185.992"/>
	<path fill="#27A8E0" d="M247.316,185.992h-6.697v-16.14c0-1.275-0.231-2.496-0.742-3.631c-0.485-1.127-1.165-2.127-2.013-2.996
		c-0.866-0.852-1.857-1.521-2.989-2.017c-1.138-0.5-2.358-0.746-3.636-0.746c-1.33,0-2.572,0.246-3.737,0.746
		c-1.157,0.496-2.145,1.166-2.979,2.017c-0.84,0.869-1.507,1.869-2.005,2.996c-0.485,1.135-0.732,2.356-0.732,3.631v16.14H215.1
		v-40.319l6.687-6.737v17.86c1.292-0.936,2.737-1.673,4.343-2.208c1.61-0.538,3.303-0.813,5.11-0.813
		c2.178,0.051,4.259,0.496,6.235,1.364c1.969,0.852,3.681,1.987,5.14,3.424c1.456,1.441,2.617,3.14,3.475,5.085
		c0.858,1.958,1.261,4.017,1.228,6.204V185.992z"/>
	<path fill="#27A8E0" d="M6.425,244.137c0.606,0.487,1.483,0.703,2.348,0.703c1.036,0,2.515-0.581,2.515-2.415
		c0-1.509-0.917-2.161-3.161-3.428c-2.324-1.28-3.79-2.415-3.79-4.682c0-2.695,2.187-4.191,4.924-4.191
		c1.835,0,2.877,0.339,3.945,0.462c-0.17,0.801-0.318,2.364-0.416,3.563c-0.071,0.166-0.817,0.166-0.953,0.021
		c-0.127-1.284-0.328-2.055-0.884-2.466c-0.582-0.415-1.352-0.538-2.033-0.538c-1.655,0-2.452,1.28-2.452,2.331
		c0,1.373,0.604,1.953,1.677,2.623c0.993,0.631,2.345,1.216,3.216,1.72c1.358,0.805,2.275,1.818,2.275,3.563
		c0,2.322-1.979,4.572-5.583,4.572c-1.553,0-3.06-0.525-3.687-0.775c-0.214-0.288-0.718-2.975-0.792-3.869
		c0.04-0.221,0.868-0.416,1.013-0.322C5.048,242.463,5.537,243.51,6.425,244.137"/>
	<path fill="#27A8E0" d="M26.078,240.361c0,1.979-0.78,3.56-2.273,4.551c-0.708,0.437-1.931,0.915-2.977,0.915
		c-3.657,0-5.009-2.733-5.009-5.292c0-1.958,0.868-3.284,2.148-4.169c0.9-0.546,2.102-0.987,3.317-0.987
		C24.256,235.378,26.078,237.603,26.078,240.361 M19.319,236.874c-0.632,0.394-1.231,1.208-1.231,3c0,2.911,1.479,4.75,3.342,4.75
		c0.538,0,1.023-0.144,1.424-0.517c0.563-0.458,0.93-1.402,0.93-2.954c0-2.847-1.409-4.589-3.348-4.589
		C20.053,236.565,19.642,236.658,19.319,236.874"/>
	<path fill="#27A8E0" d="M27.341,230.175c1.455-0.123,3.165-0.487,3.94-0.822c0.089,0.021,0.246,0.39,0.214,0.483
		c-0.227,0.462-0.263,0.682-0.281,2.373c-0.03,1.546-0.03,3.97-0.03,4.568c0,0.055,0.085,0.055,0.098,0.034
		c1.259-0.949,2.466-1.432,3.268-1.432c2.063,0,3.176,1.568,3.176,3.97c0,1.386,0.019,3.263,0.019,4.356
		c0,0.458,0.237,0.627,0.433,0.69c0.322,0.123,0.703,0.195,1.165,0.25c0.127,0.093,0.025,0.886-0.144,0.97
		c-0.462-0.021-1.403-0.084-2.518-0.084c-0.864,0-2.131,0.084-2.449,0.084c-0.14-0.127-0.14-0.826-0.019-0.97
		c0.337-0.021,0.65-0.106,0.917-0.148c0.468-0.102,0.529-0.334,0.555-1.203c0.023-1.119,0.079-3.471-0.08-4.585
		c-0.083-0.598-0.645-1.712-2.241-1.712c-0.556,0-1.306,0.216-1.867,0.606c-0.192,0.114-0.281,0.415-0.281,0.581
		c0,1.674,0.019,4.462,0.055,5.148c0.034,0.805,0.06,0.97,0.612,1.148c0.27,0.038,0.517,0.11,1,0.165
		c0.181,0.123,0.096,0.843-0.049,0.97c-0.343,0-1.212-0.084-2.612-0.084c-1.424,0-2.18,0.084-2.569,0.084
		c-0.166-0.144-0.148-0.877-0.023-0.97c0.455-0.076,0.707-0.148,0.917-0.216c0.466-0.148,0.538-0.322,0.56-0.941
		c0.034-0.589,0.055-3.369,0.055-3.924c0-5.449,0.021-6.678-0.055-7.593c-0.021-0.403-0.125-0.631-0.437-0.725
		c-0.315-0.081-0.864-0.153-1.344-0.191C27.146,230.95,27.196,230.226,27.341,230.175"/>
	<path fill="#27A8E0" d="M45.752,237.768c-0.381-0.597-1.136-0.881-1.784-0.881s-1.015,0.161-1.084,0.233
		c-0.306,0.237-0.683,1.063-1.026,1.737c-0.102,0.131-0.97-0.28-0.917-0.509c0.108-0.402,0.479-1.517,0.683-1.674
		c1.038-0.669,2.65-1.296,3.292-1.296c1.134,0,2.002,0.538,2.536,1.331c0.453,0.742,0.602,1.475,0.602,2.445
		c0,1.225-0.089,3.123-0.089,4.14c0,0.555,0.212,0.89,0.94,0.89c0.354,0,0.551-0.046,0.875-0.119
		c0.02,0.119-0.031,0.848-0.125,0.937c-0.58,0.593-1.508,0.826-2.118,0.826c-0.737,0-1.176-0.339-1.318-0.703
		c-0.109-0.144-0.147-0.356-0.199-0.534c0-0.021-0.093-0.051-0.109-0.021c-1.386,0.852-2.286,1.258-3.025,1.258
		c-0.465,0-0.971-0.296-1.386-0.682c-0.53-0.555-0.848-1.331-0.848-2.165c0-0.683,0.455-1.454,0.549-1.555
		c0.93-0.458,3.667-1.047,4.659-1.551c0.051-0.017,0.14-0.165,0.16-0.237c0.052-0.144,0.052-0.355,0.052-0.411
		C46.07,238.764,46.049,238.23,45.752,237.768 M45.877,240.823c-0.672,0.271-2.223,0.725-2.79,1.042
		c-0.11,0.055-0.284,0.509-0.284,0.801c0,0.886,0.64,1.564,1.688,1.564c0.299,0,0.854-0.144,1.168-0.381
		c0.218-0.144,0.267-0.318,0.317-0.598c0.042-0.318,0.042-1.869,0.042-2.313C46.019,240.917,45.947,240.798,45.877,240.823"/>
	<path fill="#27A8E0" d="M58.342,235.955c0.021,0.072,0.055,0.288,0.021,0.411c-0.047,0.292-0.523,1.402-0.784,1.746
		c-0.042,0.051-0.186,0.119-0.229,0.093c-0.504-0.381-1.072-0.826-1.741-0.826c-0.466,0-0.992,0.508-1.259,0.97
		c-0.076,0.102-0.187,0.394-0.187,0.657c0,1.89,0.021,4.14,0.043,4.623c0.027,0.386,0.114,0.631,0.533,0.746
		c0.403,0.123,1.094,0.195,1.714,0.271c0.049,0.144,0.018,0.826-0.125,0.97c-0.265,0-2.165-0.084-3.184-0.084
		c-0.831,0-2.07,0.063-2.545,0.084c-0.1-0.127-0.1-0.847,0-0.97c0.31-0.055,0.721-0.106,0.991-0.187
		c0.288-0.106,0.433-0.275,0.458-0.703c0.051-0.424,0.08-2.331,0.08-3.882c0-0.796,0-1.491-0.029-1.763
		c-0.051-0.466-0.313-0.661-1.402-1.135c-0.021-0.166,0.038-0.631,0.118-0.712c1.063-0.144,2.521-0.53,3.246-0.907
		c0.017,0,0.102,0.063,0.123,0.144c0,0.216-0.072,1.25-0.072,1.712c0,0.102,0.121,0.102,0.138,0.072
		c0.507-0.61,1.045-1.136,1.591-1.496c0.395-0.267,0.81-0.411,1.261-0.411C57.578,235.378,58.125,235.569,58.342,235.955"/>
	<path fill="#27A8E0" d="M57.443,249.557c1.241-1.093,2.281-2.568,2.254-4.025c0-0.619-0.292-1.322-0.82-2.072
		c0.066-0.292,1.405-1.424,1.744-1.538c0.093-0.055,0.496-0.085,0.58,0c0.313,0.208,0.755,1.144,0.771,2.242
		c0,2.313-1.906,4.813-3.534,5.826c-0.171,0.055-0.618-0.102-0.873-0.216C57.525,249.751,57.426,249.578,57.443,249.557"/>
	<path fill="#27A8E0" d="M72.646,244.137c0.598,0.487,1.475,0.703,2.35,0.703c1.034,0,2.513-0.581,2.513-2.415
		c0-1.509-0.908-2.161-3.171-3.428c-2.322-1.28-3.776-2.415-3.776-4.682c0-2.695,2.179-4.191,4.914-4.191
		c1.845,0,2.888,0.339,3.942,0.462c-0.165,0.801-0.31,2.364-0.406,3.563c-0.072,0.166-0.827,0.166-0.947,0.021
		c-0.145-1.284-0.346-2.055-0.896-2.466c-0.567-0.415-1.355-0.538-2.023-0.538c-1.65,0-2.447,1.28-2.447,2.331
		c0,1.373,0.596,1.953,1.661,2.623c1,0.631,2.352,1.216,3.225,1.72c1.356,0.805,2.278,1.818,2.278,3.563
		c0,2.322-1.981,4.572-5.585,4.572c-1.558,0-3.054-0.525-3.683-0.775c-0.235-0.288-0.737-2.975-0.808-3.869
		c0.051-0.221,0.882-0.416,1.025-0.322C71.273,242.463,71.77,243.51,72.646,244.137"/>
	<path fill="#27A8E0" d="M81.302,235.883c0.993,0,3.013-0.195,3.646-0.36c-0.123,0.801-0.174,2.619-0.174,4.839
		c0,1.504,0.033,2.085,0.102,2.424c0.182,0.767,0.797,1.322,1.983,1.322c0.551,0,1.301-0.187,1.979-0.775
		c0.14-0.144,0.221-0.267,0.241-0.487c0.025-0.199,0.025-0.759,0.025-5.042c0-0.352-0.127-0.631-0.462-0.733
		c-0.317-0.093-0.848-0.161-1.519-0.292c-0.062-0.212,0.021-0.771,0.146-0.894c1.333,0,3.478-0.148,4.016-0.28
		c-0.054,0.381-0.054,0.907-0.072,1.733l-0.053,5.996c0.021,0.318,0.125,0.61,0.364,0.627c0.388,0.055,0.843,0,1.261-0.038
		c0.015,0.187-0.023,0.848-0.168,0.97c-0.898,0.42-2.932,1.009-3.322,1.009c-0.042,0-0.114-0.174-0.147-0.263
		c-0.018-0.216-0.068-0.962-0.068-1.305c0-0.051-0.102-0.072-0.148-0.051c-1.394,1.169-2.47,1.546-3.237,1.546
		c-2.451,0-2.975-1.644-2.975-3.271c-0.031-1.208,0.076-3.767,0-4.754c0-0.364-0.127-0.682-0.455-0.775
		c-0.197-0.081-0.659-0.153-1.125-0.216C81.119,236.582,81.193,236.027,81.302,235.883"/>
	<path fill="#27A8E0" d="M93.677,244.646c0.491-0.076,0.775-0.127,1.063-0.25c0.301-0.114,0.398-0.381,0.411-0.64
		c0.106-0.61,0.123-2.229,0.123-6.305c0-1.763,0-4.521-0.038-5.314c-0.032-0.195-0.051-0.75-0.395-0.826
		c-0.245-0.063-0.792-0.144-1.475-0.246c-0.118-0.072-0.118-0.695,0.043-0.797c1.33-0.144,3.107-0.546,3.94-0.915
		c0.085,0.021,0.229,0.246,0.229,0.318c-0.173,0.453-0.229,0.72-0.229,1.589c-0.021,1.22-0.021,4.063-0.04,6.191
		c0,3.703,0.019,5.284,0.04,5.932c0.034,0.576,0.085,0.919,0.591,1.047c0.337,0.089,0.413,0.14,1.041,0.216
		c0.063,0.166,0.042,0.805-0.128,0.958c-0.559,0-1.198-0.072-2.709-0.072c-0.96,0-2.168,0.072-2.49,0.072
		C93.584,245.459,93.533,244.84,93.677,244.646"/>
	<path fill="#27A8E0" d="M103.522,237.141c-0.02,0-0.078,0.106-0.078,0.127c-0.032,0.916-0.032,2.589-0.032,3.865
		c0,1.144,0.04,1.623,0.172,2.013c0.187,0.725,0.886,1.017,1.542,1.017c0.679,0,1.021-0.076,1.617-0.407
		c0.082,0.093-0.041,0.89-0.143,1.034c-0.61,0.742-1.69,1.06-2.542,1.06c-1.076,0-1.907-0.483-2.322-1.259
		c-0.337-0.631-0.377-1.258-0.377-2.805c0-1.424,0.019-3.437,0.019-4.407c0-0.063-0.053-0.208-0.167-0.237l-1.415-0.093
		c-0.018-0.195,0.104-0.848,0.252-0.987c0.392-0.055,0.989-0.22,1.205-0.305c0.032,0,0.125-0.089,0.125-0.212v-2.186
		c0.358-0.212,1.297-0.737,1.668-1.047c0.118-0.081,0.457-0.081,0.538-0.051c-0.034,0.437-0.132,1.623-0.132,3.284
		c0,0.072,0.051,0.174,0.132,0.174c1.114,0,2.746-0.072,3.214-0.114c-0.096,0.402-0.239,1.127-0.269,1.568
		C106.073,237.171,104.544,237.141,103.522,237.141"/>
	<path fill="#27A8E0" d="M113.236,237.768c-0.392-0.597-1.136-0.881-1.788-0.881c-0.656,0-1.021,0.161-1.093,0.233
		c-0.288,0.237-0.67,1.063-1.021,1.737c-0.093,0.131-0.958-0.28-0.92-0.509c0.104-0.402,0.492-1.517,0.679-1.674
		c1.046-0.669,2.674-1.296,3.296-1.296c1.139,0,2.005,0.538,2.539,1.331c0.453,0.742,0.609,1.475,0.609,2.445
		c0,1.225-0.104,3.123-0.104,4.14c0,0.555,0.219,0.89,0.956,0.89c0.352,0,0.555-0.046,0.859-0.119
		c0.032,0.119-0.021,0.848-0.118,0.937c-0.574,0.593-1.5,0.826-2.11,0.826c-0.741,0-1.18-0.339-1.322-0.703
		c-0.1-0.144-0.14-0.356-0.192-0.534c0-0.021-0.104-0.051-0.127-0.021c-1.384,0.852-2.27,1.258-3.023,1.258
		c-0.454,0-0.969-0.296-1.382-0.682c-0.525-0.555-0.852-1.331-0.852-2.165c0-0.683,0.469-1.454,0.562-1.555
		c0.922-0.458,3.654-1.047,4.642-1.551c0.054-0.017,0.161-0.165,0.181-0.237c0.053-0.144,0.053-0.355,0.053-0.411
		C113.559,238.764,113.527,238.23,113.236,237.768 M113.359,240.823c-0.678,0.271-2.225,0.725-2.784,1.042
		c-0.116,0.055-0.288,0.509-0.288,0.801c0,0.886,0.623,1.564,1.688,1.564c0.293,0,0.854-0.144,1.159-0.381
		c0.225-0.144,0.268-0.318,0.32-0.598c0.051-0.318,0.051-1.869,0.051-2.313C113.506,240.917,113.434,240.798,113.359,240.823"/>
	<path fill="#27A8E0" d="M119.029,244.48c0.339-0.072,0.491-0.343,0.521-0.754c0.055-0.682,0.055-2.394,0.055-3.945v-1.75
		c-0.106-0.322-0.529-0.674-1.384-1.055c-0.053-0.199,0.054-0.653,0.163-0.733c1-0.093,2.574-0.576,3.163-0.885
		c0.043,0.021,0.138,0.123,0.138,0.186c0,0.123-0.017,0.966-0.017,1.365c0,0.038,0.11,0.038,0.136,0.021
		c1.042-0.902,2.299-1.551,3.237-1.551c1.072,0,1.898,0.483,2.471,1.296c0.479,0.737,0.678,1.746,0.678,2.911
		c0,1.424,0,3.602,0.051,4.369c0,0.059,0.105,0.275,0.165,0.326c0.464,0.216,0.86,0.288,1.386,0.364
		c0.094,0.166,0.051,0.805-0.093,0.97c-0.348,0-1.191-0.084-2.53-0.084c-1.055,0-1.788,0.084-2.417,0.084
		c-0.092-0.144-0.143-0.826,0-0.97c0.464-0.055,0.862-0.127,0.993-0.187c0.316-0.106,0.388-0.322,0.388-1.199
		c0-1.589,0.023-3.437-0.071-4.352c-0.056-0.416-0.219-0.962-0.681-1.352c-0.339-0.289-0.801-0.509-1.475-0.509
		c-0.707,0-1.496,0.288-1.979,0.72c-0.148,0.119-0.259,0.343-0.259,0.81c0,1.64,0,4.068,0.042,5.191
		c0.018,0.44,0.123,0.64,0.514,0.729c0.279,0.072,0.582,0.127,0.975,0.148c0.109,0.144,0.055,0.805-0.09,0.97
		c-0.357,0-1.093-0.084-2.484-0.084c-1.02,0-2.261,0.084-2.496,0.084c-0.127-0.144-0.127-0.847,0-0.97
		C118.495,244.59,118.724,244.548,119.029,244.48"/>
	<path fill="#27A8E0" d="M136.23,237.768c-0.392-0.597-1.138-0.881-1.794-0.881c-0.648,0-1.015,0.161-1.087,0.233
		c-0.286,0.237-0.676,1.063-1.007,1.737c-0.107,0.131-0.987-0.28-0.932-0.509c0.104-0.402,0.479-1.517,0.682-1.674
		c1.043-0.669,2.661-1.296,3.286-1.296c1.138,0,2.007,0.538,2.545,1.331c0.466,0.742,0.61,1.475,0.61,2.445
		c0,1.225-0.104,3.123-0.104,4.14c0,0.555,0.225,0.89,0.945,0.89c0.362,0,0.558-0.046,0.868-0.119
		c0.034,0.119-0.021,0.848-0.12,0.937c-0.581,0.593-1.496,0.826-2.106,0.826c-0.745,0-1.19-0.339-1.317-0.703
		c-0.102-0.144-0.148-0.356-0.199-0.534c0-0.021-0.106-0.051-0.138-0.021c-1.362,0.852-2.27,1.258-3.013,1.258
		c-0.451,0-0.969-0.296-1.373-0.682c-0.549-0.555-0.85-1.331-0.85-2.165c0-0.683,0.462-1.454,0.553-1.555
		c0.918-0.458,3.65-1.047,4.65-1.551c0.032-0.017,0.136-0.165,0.17-0.237c0.051-0.144,0.051-0.355,0.051-0.411
		C136.551,238.764,136.517,238.23,136.23,237.768 M136.352,240.823c-0.678,0.271-2.231,0.725-2.784,1.042
		c-0.114,0.055-0.292,0.509-0.292,0.801c0,0.886,0.631,1.564,1.694,1.564c0.289,0,0.848-0.144,1.168-0.381
		c0.214-0.144,0.256-0.318,0.307-0.598c0.056-0.318,0.056-1.869,0.056-2.313C136.5,240.917,136.424,240.798,136.352,240.823"/>
	<path fill="#27A8E0" d="M144.404,237.141c-0.01,0-0.082,0.106-0.082,0.127c-0.034,0.916-0.034,2.589-0.034,3.865
		c0,1.144,0.056,1.623,0.165,2.013c0.195,0.725,0.903,1.017,1.551,1.017c0.679,0,1.018-0.076,1.623-0.407
		c0.083,0.093-0.044,0.89-0.152,1.034c-0.593,0.742-1.687,1.06-2.529,1.06c-1.089,0-1.898-0.483-2.331-1.259
		c-0.337-0.631-0.392-1.258-0.392-2.805c0-1.424,0.034-3.437,0.034-4.407c0-0.063-0.054-0.208-0.164-0.237l-1.419-0.093
		c-0.023-0.195,0.108-0.848,0.252-0.987c0.392-0.055,0.994-0.22,1.205-0.305c0.032,0,0.126-0.089,0.126-0.212v-2.186
		c0.357-0.212,1.303-0.737,1.676-1.047c0.122-0.081,0.462-0.081,0.521-0.051c-0.017,0.437-0.109,1.623-0.109,3.284
		c0,0.072,0.051,0.174,0.109,0.174c1.128,0,2.763-0.072,3.223-0.114c-0.093,0.402-0.239,1.127-0.269,1.568
		C146.956,237.171,145.424,237.141,144.404,237.141"/>
	<path fill="#27A8E0" d="M157.604,243.188c0.055,0.195-0.125,0.754-0.17,0.877c-0.996,1.157-2.879,1.763-3.951,1.763
		c-1.299,0-2.284-0.377-3.07-1.131c-1.031-0.991-1.5-2.546-1.5-3.996c0-2.25,0.96-3.674,2.204-4.5
		c0.819-0.513,1.843-0.822,2.76-0.822c2.424,0,3.36,2.034,3.558,3.576c0.023,0.072,0.17,0.216,0.407,0.301
		c0,0.144-0.166,0.695-0.259,0.767c-1.062,0.267-4.315,0.462-6.466,0.534c-0.1,0.034-0.125,0.144-0.125,0.267
		c0.055,0.674,0.417,1.678,1.067,2.242c0.725,0.661,1.455,0.932,2.589,0.932c0.994,0,1.937-0.347,2.831-0.996
		C157.511,243.022,157.583,243.116,157.604,243.188 M150.992,239.171c0,0.055,0.055,0.199,0.173,0.199
		c0.875,0.03,3.581-0.068,4.047-0.166c0.072-0.051,0.117-0.127,0.117-0.216c-0.146-1.221-0.969-2.445-2.228-2.445
		C151.937,236.543,151.117,237.646,150.992,239.171"/>
	<path fill="#27A8E0" d="M175.295,240.361c0,1.979-0.777,3.56-2.273,4.551c-0.701,0.437-1.942,0.915-2.982,0.915
		c-3.655,0-5.003-2.733-5.003-5.292c0-1.958,0.871-3.284,2.155-4.169c0.898-0.546,2.102-0.987,3.313-0.987
		C173.486,235.378,175.295,237.603,175.295,240.361 M168.543,236.874c-0.627,0.394-1.237,1.208-1.237,3
		c0,2.911,1.475,4.75,3.344,4.75c0.538,0,1.021-0.144,1.423-0.517c0.56-0.458,0.929-1.402,0.929-2.954
		c0-2.847-1.416-4.589-3.342-4.589C169.271,236.565,168.853,236.658,168.543,236.874"/>
	<path fill="#27A8E0" d="M178.048,244.459c0.423-0.157,0.484-0.424,0.484-0.788c0.062-1.373,0.062-4.178,0.083-6.313
		c0-0.042-0.104-0.187-0.176-0.216l-1.532-0.093c0-0.296,0.181-0.754,0.31-0.898c0.395-0.067,1.029-0.233,1.275-0.415
		c0.072-0.017,0.123-0.165,0.123-0.191c0.051-2.123,0.583-3.924,2.469-5.296c0.775-0.56,1.722-0.894,2.442-0.894
		c0.69,0,1.424,0.169,1.767,0.699c0.021,0.072,0.021,0.301,0,0.339c-0.076,0.288-0.682,1.364-0.9,1.53
		c-0.053,0.051-0.234,0.051-0.312,0.021c-0.627-0.602-1.381-0.97-1.888-0.97c-0.334,0-0.658,0.093-0.968,0.462
		c-0.551,0.682-0.587,1.987-0.587,3.674v0.415c0,0.081,0.104,0.195,0.172,0.195c1.995,0,2.417-0.051,2.83-0.072
		c-0.067,0.339-0.216,1.084-0.267,1.546c-0.92-0.021-1.788-0.021-2.563-0.021c-0.068,0-0.172,0.114-0.172,0.22
		c0,2.267,0.036,4.784,0.104,6.161c0.021,0.513,0.165,0.729,0.699,0.877c0.362,0.097,0.687,0.14,1.513,0.246
		c0.11,0.114,0.043,0.856-0.105,0.94c-0.562,0-1.551-0.084-3.221-0.084c-1.458,0-2.136,0.084-2.645,0.084
		c-0.116-0.144-0.144-0.847,0-0.97C177.57,244.54,177.813,244.527,178.048,244.459"/>
	<path fill="#27A8E0" d="M192.264,243.815c-1.5-1.619-2.131-3.598-2.131-5.898c0-1.834,0.555-3.415,1.652-4.788
		c1.333-1.763,3.966-3.004,6.521-3.004c5.017,0,7.555,3.631,7.555,7.551c0,2.254-0.508,3.78-1.533,5.148
		c-1.585,2.089-4.064,3.153-6.478,3.153C195.383,245.976,193.569,245.201,192.264,243.815 M201.258,243.87
		c1.485-1.136,1.996-3.072,1.996-5.284c0-2.703-0.9-5.119-2.766-6.377c-0.839-0.56-1.826-0.869-3.072-0.869
		c-0.771,0-1.451,0.19-2.033,0.508c-1.725,0.941-2.568,3.063-2.568,5.509c0,2.644,0.992,5.288,3.076,6.563
		c0.848,0.509,1.717,0.725,2.884,0.725C199.736,244.646,200.662,244.375,201.258,243.87"/>
	<path fill="#27A8E0" d="M208.696,244.459c0.382-0.106,0.538-0.296,0.56-0.831c0.072-1.352,0.072-3.847,0.055-5.466
		c0-0.195,0.018-0.445-0.199-0.605c-0.288-0.199-0.682-0.386-1.258-0.56c-0.092-0.144,0-0.733,0.105-0.78
		c1.275-0.19,2.61-0.53,3.277-0.86l0.074,0.144c0.02,0.144,0.02,0.958,0.02,1.331c0,0.042,0.108,0.114,0.176,0.042
		c1.398-1.119,2.64-1.496,3.279-1.496c1.199,0,1.998,0.648,2.552,1.568c0.04,0.081,0.122,0.051,0.144,0
		c1.263-0.962,2.543-1.568,3.42-1.568c1.93,0,3.237,1.432,3.237,4.093c0,1.352-0.03,3.373-0.03,4.419c0,0.106,0.157,0.39,0.34,0.441
		c0.301,0.148,0.734,0.208,1.288,0.313c0.091,0.123-0.034,0.886-0.141,0.97c-0.372,0-1.165-0.084-2.209-0.084
		c-1.278,0-1.979,0.03-2.699,0.084c-0.077-0.106-0.128-0.877,0-0.97c0.375-0.076,0.571-0.119,0.812-0.187
		c0.372-0.127,0.484-0.275,0.513-0.831c0.022-1.038,0.076-3.992-0.049-4.742c-0.092-0.682-0.596-1.817-2.106-1.817
		c-0.582,0-1.417,0.267-2.138,0.817c-0.021,0.03-0.042,0.11-0.042,0.145c0.097,0.461,0.097,0.996,0.097,1.792
		c0,1.365-0.021,2.962,0,3.992c0,0.416,0.215,0.517,0.462,0.615c0.342,0.067,0.556,0.14,1.009,0.216
		c0.123,0.144,0.056,0.886-0.118,0.97c-0.693-0.021-1.479-0.055-2.585-0.055c-0.606,0-1.886,0.055-2.318,0.055
		c-0.156-0.106-0.178-0.847,0-0.97c0.38-0.076,0.687-0.119,0.989-0.187c0.312-0.106,0.435-0.275,0.462-0.703
		c0.066-1.11,0.117-4.191-0.027-4.945c-0.165-0.813-0.61-1.813-2.017-1.813c-0.598,0-1.42,0.288-2.123,0.826
		c-0.1,0.063-0.176,0.259-0.176,0.428c0,1.606-0.02,4.534,0.031,5.619c0.021,0.267,0.123,0.517,0.534,0.61
		c0.165,0.046,0.527,0.089,0.92,0.165c0.089,0.123,0.042,0.826-0.081,0.97c-0.525,0-1.373-0.084-2.466-0.084
		c-1.284,0-1.879,0.084-2.507,0.084c-0.158-0.127-0.18-0.847,0-0.97C208.213,244.569,208.43,244.527,208.696,244.459"/>
	<path fill="#27A8E0" d="M232.146,237.768c-0.391-0.597-1.136-0.881-1.788-0.881c-0.661,0-1.009,0.161-1.092,0.233
		c-0.286,0.237-0.672,1.063-1.006,1.737c-0.106,0.131-0.973-0.28-0.92-0.509c0.091-0.402,0.481-1.517,0.678-1.674
		c1.03-0.669,2.65-1.296,3.282-1.296c1.134,0,2.011,0.538,2.54,1.331c0.462,0.742,0.602,1.475,0.602,2.445
		c0,1.225-0.089,3.123-0.089,4.14c0,0.555,0.217,0.89,0.941,0.89c0.368,0,0.559-0.046,0.877-0.119
		c0.021,0.119-0.032,0.848-0.123,0.937c-0.576,0.593-1.509,0.826-2.11,0.826c-0.752,0-1.183-0.339-1.328-0.703
		c-0.094-0.144-0.148-0.356-0.193-0.534c0-0.021-0.093-0.051-0.122-0.021c-1.373,0.852-2.273,1.258-3.028,1.258
		c-0.451,0-0.96-0.296-1.37-0.682c-0.536-0.555-0.848-1.331-0.848-2.165c0-0.683,0.453-1.454,0.555-1.555
		c0.92-0.458,3.657-1.047,4.648-1.551c0.043-0.017,0.145-0.165,0.165-0.237c0.045-0.144,0.045-0.355,0.045-0.411
		C232.462,238.764,232.435,238.23,232.146,237.768 M232.273,240.823c-0.687,0.271-2.231,0.725-2.788,1.042
		c-0.114,0.055-0.28,0.509-0.28,0.801c0,0.886,0.619,1.564,1.695,1.564c0.286,0,0.843-0.144,1.152-0.381
		c0.221-0.144,0.271-0.318,0.313-0.598c0.051-0.318,0.051-1.869,0.051-2.313C232.417,240.917,232.341,240.798,232.273,240.823"/>
	<path fill="#27A8E0" d="M237.935,244.48c0.348-0.072,0.509-0.343,0.529-0.754c0.062-0.682,0.062-2.394,0.062-3.945v-1.75
		c-0.104-0.322-0.536-0.674-1.384-1.055c-0.055-0.199,0.054-0.653,0.163-0.733c0.998-0.093,2.572-0.576,3.146-0.885
		c0.043,0.021,0.146,0.123,0.146,0.186c0,0.123-0.02,0.966-0.02,1.365c0,0.038,0.115,0.038,0.148,0.021
		c1.025-0.902,2.288-1.551,3.237-1.551c1.068,0,1.891,0.483,2.478,1.296c0.477,0.737,0.667,1.746,0.667,2.911
		c0,1.424,0,3.602,0.042,4.369c0,0.059,0.104,0.275,0.174,0.326c0.469,0.216,0.848,0.288,1.388,0.364
		c0.092,0.166,0.043,0.805-0.104,0.97c-0.339,0-1.187-0.084-2.52-0.084c-1.057,0-1.786,0.084-2.419,0.084
		c-0.087-0.144-0.138-0.826,0-0.97c0.457-0.055,0.85-0.127,0.995-0.187c0.314-0.106,0.388-0.322,0.388-1.199
		c0-1.589,0.018-3.437-0.073-4.352c-0.045-0.416-0.221-0.962-0.677-1.352c-0.339-0.289-0.796-0.509-1.475-0.509
		c-0.699,0-1.495,0.288-1.991,0.72c-0.144,0.119-0.259,0.343-0.259,0.81c0,1.64,0,4.068,0.041,5.191
		c0.019,0.44,0.12,0.64,0.519,0.729c0.284,0.072,0.576,0.127,0.991,0.148c0.094,0.144,0.056,0.805-0.105,0.97
		c-0.36,0-1.085-0.084-2.487-0.084c-1.011,0-2.248,0.084-2.489,0.084c-0.125-0.144-0.125-0.847,0-0.97
		C237.409,244.59,237.65,244.548,237.935,244.48"/>
	<path fill="#27A8E0" d="M2.87,196.077c0.722,0,2.415,0.11,4.86,0.11c2.777,0,4.035-0.11,5.008-0.11
		c0.183,0.216,0.148,1.271-0.027,1.403c-0.841,0.144-1.519,0.301-1.947,0.402c-0.725,0.216-0.938,0.581-0.979,1.623
		c-0.07,1.229-0.029,2.483-0.029,6.127c0,0.131,0.102,0.352,0.245,0.437c0.32,0.021,1.155,0.021,5.831,0.021
		c4.585-0.021,5.373-0.021,5.703-0.064c0.148,0,0.252-0.152,0.252-0.292c0-1.877,0-5.292-0.044-6.662
		c-0.027-0.538-0.208-0.945-0.721-1.119c-0.466-0.216-1.216-0.331-2.377-0.474c-0.254-0.174-0.17-1.216,0.042-1.403
		c0.903,0,2.924,0.11,4.86,0.11c1.916,0,4.324-0.11,4.865-0.11c0.214,0.216,0.214,1.229,0,1.403
		c-0.858,0.114-1.547,0.224-2.056,0.402c-0.822,0.288-0.894,0.796-0.975,1.94c-0.065,1.267-0.065,2.882-0.065,7.03
		c0,3.208,0,7.017,0.104,8.284c0.072,0.971,0.358,1.365,1.083,1.589c0.549,0.135,1.368,0.318,2.557,0.428
		c0.148,0.216,0.077,1.326-0.216,1.441c-0.866,0-3.462-0.115-5.437-0.115c-1.979,0-3.852,0.085-4.86,0.115
		c-0.187-0.144-0.187-1.195,0-1.441c1.185-0.11,1.795-0.25,2.306-0.398c0.602-0.203,0.83-0.606,0.89-1.517
		c0.078-1.11,0.044-4.539,0.044-6.797c0-0.072-0.104-0.254-0.29-0.254c-0.792-0.038-3.64-0.038-5.685-0.038
		c-2.819,0-5.595,0-5.915,0.076c-0.072,0-0.142,0.144-0.142,0.174c0,2.021,0,5.729,0.029,6.454c0.072,1.229,0.315,1.585,1.299,1.839
		c0.54,0.14,1.299,0.326,2.379,0.462c0.183,0.216-0.036,1.326-0.22,1.441c-0.398,0-2.297-0.115-5.191-0.115
		c-2.625,0-4.487,0.115-5.182,0.115c-0.174-0.187-0.174-1.225-0.043-1.441c0.945-0.136,1.563-0.212,2.094-0.364
		c1.002-0.288,1.22-0.826,1.305-2.475c0.032-1.229,0.032-3.937,0.032-7.072c0-3.492,0-7.021-0.032-7.67
		c-0.085-1.008-0.22-1.402-1.04-1.648c-0.591-0.187-1.346-0.301-2.386-0.445C2.613,197.263,2.696,196.263,2.87,196.077"/>
	<path fill="#27A8E0" d="M45.955,210.785c0,2.949-1.152,5.297-3.386,6.771c-1.042,0.648-2.881,1.356-4.437,1.356
		c-5.438,0-7.449-4.06-7.449-7.89c0-2.911,1.291-4.89,3.197-6.183c1.346-0.839,3.14-1.487,4.943-1.487
		C43.265,203.352,45.955,206.662,45.955,210.785 M35.908,205.594c-0.94,0.576-1.834,1.805-1.834,4.466
		c0,4.326,2.188,7.06,4.959,7.06c0.804,0,1.518-0.216,2.139-0.754c0.824-0.69,1.357-2.093,1.357-4.394
		c0-4.254-2.078-6.843-4.968-6.843C36.987,205.128,36.37,205.263,35.908,205.594"/>
	<path fill="#27A8E0" d="M53.841,205.984c-0.029,0-0.144,0.148-0.144,0.186c-0.034,1.36-0.034,3.848-0.034,5.759
		c0,1.691,0.074,2.416,0.259,2.992c0.284,1.084,1.322,1.517,2.305,1.517c1,0,1.503-0.115,2.416-0.606
		c0.102,0.131-0.072,1.322-0.217,1.538c-0.911,1.11-2.529,1.584-3.788,1.584c-1.623,0-2.852-0.725-3.458-1.877
		c-0.504-0.928-0.58-1.864-0.58-4.178c0-2.114,0.042-5.106,0.042-6.542c0-0.114-0.069-0.331-0.258-0.373l-2.083-0.144
		c-0.04-0.289,0.142-1.259,0.354-1.479c0.587-0.06,1.479-0.318,1.806-0.428c0.04,0,0.182-0.148,0.182-0.322v-3.284
		c0.538-0.284,1.945-1.084,2.475-1.546c0.191-0.102,0.695-0.102,0.806-0.077c-0.04,0.653-0.185,2.42-0.185,4.907
		c0,0.114,0.074,0.246,0.185,0.246c1.656,0,4.11-0.106,4.788-0.182c-0.14,0.627-0.355,1.699-0.402,2.352
		C57.634,206.026,55.36,205.984,53.841,205.984"/>
	<path fill="#27A8E0" d="M73.473,214.988c0.083,0.292-0.18,1.119-0.25,1.305c-1.475,1.725-4.279,2.619-5.868,2.619
		c-1.937,0-3.416-0.564-4.579-1.687c-1.549-1.479-2.234-3.78-2.234-5.937c0-3.352,1.444-5.479,3.279-6.708
		c1.216-0.754,2.733-1.229,4.11-1.229c3.602,0,5.004,3.039,5.292,5.335c0.034,0.106,0.25,0.322,0.608,0.437
		c0,0.216-0.243,1.038-0.392,1.157c-1.587,0.403-6.409,0.678-9.619,0.784c-0.152,0.038-0.174,0.225-0.174,0.411
		c0.06,1,0.61,2.479,1.581,3.343c1.082,0.971,2.169,1.36,3.859,1.36c1.475,0,2.88-0.504,4.206-1.47
		C73.335,214.747,73.439,214.878,73.473,214.988 M63.646,209.009c0,0.081,0.06,0.288,0.25,0.288
		c1.299,0.042,5.335-0.106,6.013-0.246c0.106-0.072,0.178-0.183,0.178-0.331c-0.209-1.792-1.449-3.636-3.313-3.636
		C65.036,205.085,63.82,206.738,63.646,209.009"/>
	<path fill="#27A8E0" d="M75.46,217.153c0.717-0.11,1.153-0.178,1.585-0.364c0.433-0.174,0.578-0.581,0.617-0.958
		c0.142-0.911,0.171-3.322,0.171-9.369c0-2.636,0-6.746-0.071-7.928c-0.043-0.292-0.072-1.127-0.577-1.229
		c-0.359-0.119-1.188-0.221-2.199-0.365c-0.176-0.097-0.176-1.042,0.077-1.195c1.982-0.208,4.609-0.813,5.87-1.364
		c0.108,0.034,0.331,0.36,0.331,0.47c-0.257,0.687-0.331,1.076-0.331,2.381c-0.04,1.805-0.04,6.047-0.074,9.229
		c0,5.509,0.034,7.852,0.074,8.818c0.034,0.869,0.108,1.365,0.867,1.551c0.504,0.144,0.612,0.212,1.546,0.322
		c0.121,0.246,0.081,1.195-0.186,1.441c-0.824,0-1.797-0.115-4.023-0.115c-1.447,0-3.251,0.115-3.717,0.115
		C75.316,218.374,75.244,217.438,75.46,217.153"/>
	<path fill="#27A8E0" d="M95.702,213.662c1.585-3.788,5.072-12.831,5.88-15.169c0.281-0.827,0.6-1.767,0.714-2.344
		c0.192,0.039,0.64,0.039,1.341,0.039c0.858,0,1.261,0,1.435-0.039c0.178,0.721,0.396,1.411,0.652,2.127
		c0.721,2.021,4.712,12.534,6.119,15.733c1.152,2.572,1.444,2.78,4.18,3.144c0.214,0.153,0.072,1.254-0.062,1.441
		c-0.953-0.03-2.674-0.115-4.727-0.115c-2.159,0-4.509,0.115-5.233,0.115c-0.133-0.187-0.176-1.259,0-1.441
		c0.797-0.11,1.558-0.212,2.096-0.398c0.437-0.173,0.504-0.648,0.437-0.898c-0.466-1.513-1.42-3.958-1.975-5.373
		c-0.085-0.166-0.297-0.246-0.371-0.246c-0.65-0.034-2.303-0.034-3.642-0.034c-2.306,0-2.521,0-2.911,0.034
		c-0.187,0-0.435,0.246-0.435,0.327c-0.752,2.055-1.692,4.398-1.692,5.11c0,0.69,0.148,0.94,1.187,1.186
		c0.47,0.115,1.258,0.216,1.911,0.292c0.144,0.182,0.073,1.254-0.103,1.441c-0.725,0-2.6-0.115-5.019-0.115
		c-2.337,0-3.532,0.115-4.21,0.115c-0.145-0.187-0.145-1.259,0-1.441C93.936,216.789,94.439,216.582,95.702,213.662
		 M102.694,200.475c-0.619,1.907-1.92,5.229-2.594,7.377c0,0.11,0.038,0.225,0.14,0.258c0.395,0.038,1.797,0.038,2.842,0.038
		c0.908,0,1.919,0,2.386-0.038c0.109,0,0.214-0.174,0.18-0.36c-0.683-1.877-2.125-5.873-2.731-7.309
		C102.876,200.441,102.771,200.403,102.694,200.475"/>
	<path fill="#27A8E0" d="M116.633,204.551c1.259-0.157,3.786-0.826,5.295-1.593c0.11-0.067,0.328,0.229,0.328,0.322
		c-0.074,0.504-0.114,1.559-0.114,2.136c0,0.072,0.146,0.135,0.214,0.106c2.602-1.771,4.051-2.17,5.157-2.17
		c1.479,0,2.848,0.725,3.712,1.704c1.296,1.508,1.775,3.343,1.775,4.932c0,3.301-1.339,5.225-3.174,6.738
		c-1.852,1.479-4.358,2.161-6.132,2.161c-0.352,0-0.928-0.042-1.406-0.183c-0.072,0-0.221,0.106-0.221,0.14
		c0,1.331-0.029,3.364,0.074,4.538c0.04,0.576,0.214,1.127,1.04,1.301c0.471,0.115,1.775,0.259,2.494,0.322
		c0.15,0.288,0.027,1.258-0.176,1.445h-1.191c-4.038-0.042-6.493,0.258-8.14,0.39c-0.187-0.246-0.218-1.182-0.042-1.402l1.688-0.352
		c0.756-0.288,0.908-0.615,1.049-1.907c0.04-0.839,0.067-2.386,0.109-8.907c0.072-4.034,0-5.331-0.042-6.666
		c-0.027-0.826-0.208-1.119-0.64-1.292c-0.477-0.258-1.051-0.364-1.735-0.504C116.39,205.594,116.453,204.755,116.633,204.551
		 M122.436,207.026c-0.18,0.153-0.328,0.551-0.328,0.767c-0.069,1.038-0.04,5.216-0.04,6.695c0,0.538,0.288,1.114,0.576,1.369
		c0.801,0.686,1.813,1.004,2.996,1.004c0.538,0,1.444-0.106,2.406-0.928c1.056-0.881,1.661-2.602,1.661-4.466
		c0-1.449-0.355-3.025-1.184-4.152c-0.862-1.042-1.842-1.441-3.056-1.441C124.627,205.874,123.301,206.314,122.436,207.026"/>
	<path fill="#27A8E0" d="M143.39,206.924c-0.567-0.898-1.685-1.343-2.661-1.343c-0.97,0-1.519,0.259-1.61,0.369
		c-0.444,0.364-1.019,1.581-1.517,2.593c-0.145,0.178-1.442-0.432-1.371-0.75c0.132-0.614,0.721-2.271,1-2.492
		c1.554-1,3.973-1.949,4.909-1.949c1.687,0,2.985,0.805,3.78,1.983c0.682,1.127,0.902,2.195,0.902,3.644
		c0,1.831-0.148,4.64-0.148,6.157c0,0.827,0.326,1.331,1.411,1.331c0.538,0,0.828-0.072,1.297-0.174
		c0.042,0.174-0.03,1.263-0.183,1.403c-0.86,0.869-2.229,1.216-3.136,1.216c-1.118,0-1.763-0.504-1.983-1.038
		c-0.142-0.208-0.214-0.539-0.285-0.797c0-0.034-0.148-0.06-0.188-0.034c-2.054,1.263-3.369,1.869-4.488,1.869
		c-0.688,0-1.44-0.433-2.063-1.013c-0.786-0.822-1.258-1.966-1.258-3.225c0-1.013,0.678-2.165,0.83-2.309
		c1.379-0.687,5.433-1.555,6.92-2.305c0.06-0.042,0.207-0.246,0.248-0.36c0.071-0.22,0.071-0.551,0.071-0.61
		C143.866,208.399,143.826,207.606,143.39,206.924 M143.576,211.467c-1,0.39-3.313,1.081-4.14,1.542
		c-0.187,0.076-0.431,0.754-0.431,1.187c0,1.347,0.927,2.347,2.516,2.347c0.438,0,1.258-0.22,1.737-0.58
		c0.317-0.216,0.388-0.462,0.466-0.911c0.07-0.462,0.07-2.763,0.07-3.411C143.795,211.606,143.68,211.433,143.576,211.467"/>
	<path fill="#27A8E0" d="M162.134,204.221c0.032,0.11,0.072,0.433,0.032,0.619c-0.072,0.424-0.788,2.089-1.187,2.589
		c-0.032,0.072-0.25,0.178-0.322,0.148c-0.75-0.577-1.591-1.221-2.589-1.221c-0.695,0-1.483,0.742-1.873,1.437
		c-0.119,0.144-0.295,0.576-0.295,0.966c0,2.809,0.032,6.161,0.074,6.873c0.03,0.576,0.185,0.949,0.793,1.123
		c0.605,0.187,1.618,0.289,2.559,0.398c0.064,0.216,0.043,1.221-0.186,1.441c-0.393,0-3.24-0.115-4.759-0.115
		c-1.214,0-3.051,0.085-3.771,0.115c-0.152-0.187-0.152-1.259,0-1.441c0.462-0.076,1.067-0.136,1.471-0.292
		c0.437-0.135,0.648-0.394,0.68-1.029c0.074-0.619,0.108-3.466,0.108-5.771c0-1.191,0-2.242-0.034-2.631
		c-0.074-0.691-0.462-0.966-2.093-1.695c-0.036-0.259,0.08-0.937,0.182-1.039c1.594-0.225,3.75-0.801,4.835-1.373
		c0.025,0,0.142,0.11,0.174,0.216c0,0.318-0.106,1.877-0.106,2.551c0,0.152,0.179,0.152,0.221,0.11
		c0.746-0.898,1.547-1.695,2.371-2.229c0.578-0.402,1.188-0.619,1.875-0.619S161.814,203.641,162.134,204.221"/>
	<path fill="#27A8E0" d="M169.193,205.984c-0.04,0-0.144,0.148-0.144,0.186c-0.036,1.36-0.036,3.848-0.036,5.759
		c0,1.691,0.069,2.416,0.25,2.992c0.288,1.084,1.334,1.517,2.301,1.517c1.015,0,1.517-0.115,2.415-0.606
		c0.114,0.131-0.07,1.322-0.212,1.538c-0.902,1.11-2.521,1.584-3.779,1.584c-1.623,0-2.862-0.725-3.462-1.877
		c-0.505-0.928-0.577-1.864-0.577-4.178c0-2.114,0.034-5.106,0.034-6.542c0-0.114-0.076-0.331-0.258-0.373l-2.094-0.144
		c-0.021-0.289,0.148-1.259,0.373-1.479c0.572-0.06,1.471-0.318,1.792-0.428c0.043,0,0.187-0.148,0.187-0.322v-3.284
		c0.543-0.284,1.94-1.084,2.487-1.546c0.174-0.102,0.683-0.102,0.793-0.077c-0.043,0.653-0.181,2.42-0.181,4.907
		c0,0.114,0.07,0.246,0.181,0.246c1.654,0,4.107-0.106,4.797-0.182c-0.151,0.627-0.365,1.699-0.409,2.352
		C172.965,206.026,170.695,205.984,169.193,205.984"/>
	<path fill="#27A8E0" d="M176.867,216.861c0.576-0.135,0.786-0.423,0.82-1.229c0.11-2.013,0.11-5.716,0.085-8.132
		c0-0.288,0.025-0.648-0.289-0.898c-0.451-0.289-1.013-0.577-1.877-0.839c-0.146-0.212,0-1.068,0.14-1.144
		c1.907-0.288,3.891-0.792,4.898-1.296l0.108,0.216c0.04,0.212,0.04,1.432,0.04,1.983c0,0.072,0.145,0.182,0.25,0.072
		c2.096-1.661,3.92-2.242,4.9-2.242c1.773,0,2.952,0.979,3.786,2.352c0.068,0.106,0.177,0.059,0.217,0
		c1.868-1.445,3.779-2.352,5.078-2.352c2.875,0,4.829,2.136,4.829,6.102c0,2.013-0.041,5.034-0.041,6.585
		c0,0.14,0.221,0.576,0.507,0.648c0.432,0.216,1.082,0.33,1.919,0.466c0.136,0.182-0.04,1.326-0.227,1.441
		c-0.536,0-1.735-0.115-3.273-0.115c-1.921,0-2.955,0.034-4.042,0.115c-0.106-0.144-0.178-1.288,0-1.441
		c0.576-0.11,0.862-0.178,1.229-0.292c0.538-0.173,0.721-0.394,0.75-1.229c0.043-1.538,0.119-5.933-0.072-7.047
		c-0.14-1.008-0.892-2.712-3.127-2.712c-0.868,0-2.089,0.398-3.178,1.225c-0.03,0.042-0.072,0.144-0.072,0.216
		c0.157,0.69,0.157,1.479,0.157,2.673c0,2.026-0.043,4.398,0,5.945c0,0.61,0.317,0.754,0.674,0.898
		c0.495,0.11,0.834,0.212,1.51,0.322c0.185,0.216,0.083,1.326-0.176,1.441c-1.038-0.03-2.194-0.081-3.857-0.081
		c-0.896,0-2.81,0.081-3.46,0.081c-0.201-0.144-0.242-1.259,0-1.441c0.578-0.11,1.055-0.178,1.48-0.292
		c0.462-0.135,0.646-0.394,0.681-1.029c0.114-1.674,0.187-6.242-0.034-7.36c-0.25-1.229-0.898-2.708-2.983-2.708
		c-0.906,0-2.131,0.437-3.174,1.237c-0.146,0.098-0.25,0.398-0.25,0.631c0,2.386-0.04,6.754,0.032,8.373
		c0.04,0.39,0.187,0.75,0.792,0.898c0.263,0.072,0.797,0.14,1.38,0.25c0.142,0.182,0.067,1.221-0.121,1.441
		c-0.79,0-2.051-0.115-3.668-0.115c-1.913,0-2.813,0.115-3.747,0.115c-0.221-0.187-0.248-1.259,0-1.441
		C176.149,217.043,176.471,216.976,176.867,216.861"/>
	<path fill="#27A8E0" d="M217.504,214.988c0.07,0.292-0.18,1.119-0.254,1.305c-1.469,1.725-4.291,2.619-5.876,2.619
		c-1.94,0-3.415-0.564-4.571-1.687c-1.552-1.479-2.229-3.78-2.229-5.937c0-3.352,1.435-5.479,3.271-6.708
		c1.221-0.754,2.741-1.229,4.102-1.229c3.602,0,5.021,3.039,5.304,5.335c0.035,0.106,0.254,0.322,0.612,0.437
		c0,0.216-0.246,1.038-0.403,1.157c-1.582,0.403-6.411,0.678-9.614,0.784c-0.148,0.038-0.178,0.225-0.178,0.411
		c0.072,1,0.616,2.479,1.576,3.343c1.087,0.971,2.178,1.36,3.848,1.36c1.487,0,2.894-0.504,4.233-1.47
		C217.355,214.747,217.459,214.878,217.504,214.988 M207.667,209.009c0,0.081,0.072,0.288,0.25,0.288
		c1.297,0.042,5.322-0.106,6.017-0.246c0.11-0.072,0.183-0.183,0.183-0.331c-0.216-1.792-1.44-3.636-3.32-3.636
		C209.065,205.085,207.845,206.738,207.667,209.009"/>
	<path fill="#27A8E0" d="M221.133,216.903c0.509-0.114,0.771-0.508,0.795-1.114c0.074-1.013,0.074-3.572,0.074-5.873v-2.602
		c-0.14-0.496-0.799-1-2.053-1.581c-0.074-0.284,0.074-0.979,0.258-1.081c1.475-0.148,3.806-0.869,4.674-1.331
		c0.074,0.029,0.223,0.173,0.223,0.288c0,0.174-0.036,1.445-0.036,2.021c0,0.072,0.172,0.072,0.214,0.03
		c1.551-1.331,3.416-2.31,4.822-2.31c1.594,0,2.818,0.725,3.687,1.949c0.71,1.089,1.002,2.602,1.002,4.327
		c0,2.127,0,5.36,0.083,6.479c0,0.102,0.127,0.436,0.246,0.508c0.687,0.326,1.258,0.428,2.051,0.538
		c0.148,0.246,0.063,1.195-0.152,1.441c-0.492,0-1.75-0.115-3.75-0.115c-1.572,0-2.661,0.115-3.59,0.115
		c-0.154-0.22-0.214-1.225,0-1.441c0.679-0.076,1.263-0.178,1.479-0.292c0.457-0.135,0.58-0.466,0.58-1.763
		c0-2.377,0.025-5.11-0.123-6.483c-0.072-0.61-0.315-1.437-1.008-2.013c-0.505-0.433-1.183-0.763-2.195-0.763
		c-1.043,0-2.233,0.432-2.953,1.089c-0.221,0.169-0.393,0.5-0.393,1.182c0,2.454,0,6.047,0.072,7.746
		c0.027,0.644,0.176,0.932,0.756,1.084c0.431,0.102,0.86,0.178,1.475,0.212c0.141,0.216,0.072,1.195-0.144,1.441
		c-0.542,0-1.619-0.115-3.716-0.115c-1.509,0-3.344,0.115-3.708,0.115c-0.172-0.22-0.172-1.259,0-1.441
		C220.352,217.077,220.709,217.018,221.133,216.903"/>
	<path fill="#27A8E0" d="M243.875,205.984c-0.04,0-0.15,0.148-0.15,0.186c-0.04,1.36-0.04,3.848-0.04,5.759
		c0,1.691,0.072,2.416,0.261,2.992c0.281,1.084,1.328,1.517,2.299,1.517c1.011,0,1.517-0.115,2.417-0.606
		c0.11,0.131-0.074,1.322-0.218,1.538c-0.895,1.11-2.518,1.584-3.778,1.584c-1.62,0-2.85-0.725-3.468-1.877
		c-0.504-0.928-0.578-1.864-0.578-4.178c0-2.114,0.04-5.106,0.04-6.542c0-0.114-0.062-0.331-0.244-0.373l-2.095-0.144
		c-0.032-0.289,0.144-1.259,0.357-1.479c0.583-0.06,1.479-0.318,1.808-0.428c0.029,0,0.174-0.148,0.174-0.322v-3.284
		c0.538-0.284,1.955-1.084,2.493-1.546c0.183-0.102,0.683-0.102,0.793-0.077c-0.027,0.653-0.188,2.42-0.188,4.907
		c0,0.114,0.078,0.246,0.188,0.246c1.654,0,4.105-0.106,4.788-0.182c-0.146,0.627-0.362,1.699-0.396,2.352
		C247.659,206.026,245.386,205.984,243.875,205.984"/>
</g>
</svg>
