<?xml version="1.0" encoding="utf-8"?>
<!-- Generator: Adobe Illustrator 16.0.0, SVG Export Plug-In . SVG Version: 6.00 Build 0)  -->
<!DOCTYPE svg PUBLIC "-//W3C//DTD SVG 1.1//EN" "http://www.w3.org/Graphics/SVG/1.1/DTD/svg11.dtd">
<svg version="1.1" id="Layer_1" xmlns="http://www.w3.org/2000/svg" xmlns:xlink="http://www.w3.org/1999/xlink" x="0px" y="0px"
	 width="250px" height="250px" viewBox="0 0 250 250" enable-background="new 0 0 250 250" xml:space="preserve">
<g>
	<path fill="#AC162C" d="M91.71,56.474v-0.005V56.474z"/>
	<path fill="#AC162C" d="M78.265,19.686v124.4l6.025-6.032l5.779,6.032l5.908-6.032l5.778,6.032l6.032-6.032l5.783,6.032
		l5.772-5.783l5.654,5.783l5.907-6.032l5.786,6.032l5.654-5.783l6.027,5.783l5.398-6.032l6.165,6.032l5.652-6.032l5.901,6.032h0.131
		v-124.4H78.265z M104.023,121.843c-1.511,0.25-2.387-0.626-2.387-1.508v-0.502c0-0.76,0.498-1.511,1.622-2.008
		c25.641-11.686,12.444-31.163,12.7-32.921c0.124-1.136,2.255-2.26,3.386-0.131c13.203,26.642-15.32,36.82-14.189,36.82
		L104.023,121.843z M133.421,122.217c-1.634-0.758-12.183-3.771-22.875,2.895c-1.381,0.872-4.641,0-2.635-3.143l0.249-0.125
		c-0.746,0.884,11.941-9.168,26.392-2.771C136.69,119.957,135.056,123.1,133.421,122.217 M144.853,119.957
		c-0.124,0.875-0.875,1.635-2.379,1.385l-1.144-0.254c-7.909-2.264-20.602-18.597-8.916-45.113c1.255-2.635,4.4-0.875,3.773,0.751
		c-1.131,3.143-12.191,30.791,7.038,40.713c0.994,0.51,1.628,1.261,1.628,2.008V119.957z M166.09,93.19
		c-0.373,5.158-3.269,10.054-9.177,12.315c-18.466,7.286-25.504-10.929-23.243-17.845c1.255-2.385,4.652-1.378,4.151,0.759v0.249
		c-0.877,4.777,3.267,18.594,17.209,13.194c10.809-4.272,7.791-19.98-1.628-22.993h0.128c10.538-4.651,4.519-15.326-2.018-14.575
		l-0.125-0.13c1.007-7.91-4.02-15.693-12.557-16.084c-0.004,0.042-0.004,0.085-0.004,0.13v-0.13h0.004
		c0.759-7.941-9.33-10.769-13.071-4.276h-0.129c-17.59-6.021-20.354,10.315-18.844,15.837l-0.131,0.124
		c-13.824-3.013-10.933,9.548-11.052,8.92l0.119,0.125c-13.942,5.158-6.779,23.126,4.528,21.237v0.13
		c-2.889,12.569,15.333,13.564,11.686-0.876c-0.378-1.261,2.891-3.019,4.021-0.261h0.124c4.647,17.098-19.602,21.241-20.229,4.784
		c-7.034-0.882-11.308-6.666-11.929-12.947v-3.64c0.497-4.4,3.006-8.543,7.785-10.806c-0.055-0.439-0.36-11.164,10.425-10.809h0.242
		c-0.49-5.275,4.027-21.361,22.125-16.588c5.531-6.157,17.59-2.262,18.099,5.784l0.125,0.124c2.756,0,12.183,3.269,13.065,15.961
		h0.117c7.044,1.13,10.816,11.688,5.033,17.967c3.013,3.138,4.778,7.413,5.151,11.686V93.19z"/>
	<path fill="#AC162C" d="M91.71,56.469v0.007V56.469z"/>
	<rect x="174.764" y="19.688" fill="#AC162C" width="6.025" height="125.649"/>
	<rect x="69.086" y="19.686" fill="#AC162C" width="6.027" height="125.283"/>
	<path fill="#AC162C" d="M11.084,197.996h3.18l-1.616-4.317L11.084,197.996z M34.57,195.542c0.403-0.044,0.719-0.186,0.947-0.416
		c0.224-0.23,0.342-0.542,0.342-0.914c0-0.359-0.098-0.652-0.298-0.881c-0.192-0.224-0.49-0.367-0.881-0.411
		c-0.229-0.031-0.902-0.043-2.008-0.043h-1.348v2.709h1.542C33.779,195.586,34.345,195.565,34.57,195.542 M149.278,194.853
		l0.602-0.458c0.44-0.356,0.664-0.699,0.664-1.033c0-0.286-0.106-0.535-0.323-0.74c-0.211-0.205-0.503-0.305-0.869-0.305
		c-0.348,0-0.628,0.088-0.826,0.274c-0.207,0.174-0.305,0.378-0.305,0.622c0,0.267,0.173,0.609,0.51,1L149.278,194.853z
		 M134.782,195.716c-0.485,0-0.888,0.181-1.21,0.534c-0.319,0.354-0.479,0.838-0.472,1.442h3.354
		c-0.013-0.641-0.18-1.138-0.503-1.472C135.634,195.885,135.241,195.716,134.782,195.716 M35.321,197.692
		c-0.324-0.113-1.021-0.168-2.088-0.168h-1.909v3.138h2.182c0.856,0,1.391-0.023,1.621-0.076c0.348-0.061,0.634-0.222,0.856-0.472
		c0.218-0.24,0.33-0.576,0.33-0.992c0-0.355-0.087-0.646-0.254-0.896C35.886,197.977,35.643,197.803,35.321,197.692
		 M179.839,175.475c-0.275,0-0.573,0.205-0.878,0.615c-0.309,0.373-0.471,0.733-0.471,1.056c0,0.149,0,0.49,1.018,0.49h1.517
		c-0.073-0.478-0.185-0.9-0.335-1.249C180.44,175.773,180.161,175.475,179.839,175.475 M67.286,199.351
		c-0.291,0.204-0.436,0.464-0.436,0.782c0,0.317,0.113,0.579,0.348,0.809c0.231,0.229,0.53,0.34,0.89,0.34
		c0.406,0,0.79-0.13,1.156-0.398c0.267-0.196,0.44-0.446,0.529-0.732c0.055-0.193,0.086-0.554,0.086-1.092v-0.442
		c-0.285,0.1-0.739,0.21-1.354,0.342C67.882,199.095,67.478,199.22,67.286,199.351 M103.947,195.716
		c-0.489,0-0.894,0.181-1.217,0.534c-0.316,0.354-0.472,0.838-0.467,1.442h3.356c-0.019-0.641-0.181-1.138-0.502-1.472
		C104.792,195.885,104.407,195.716,103.947,195.716 M238.165,174.368c-0.025,0-0.497,0.069-2.225,2.535
		c0.298,0.131,3.567,1.548,3.884,1.684c0.099-0.407,0.154-0.771,0.154-1.062c0-0.597-0.179-1.243-0.559-1.983
		C239.021,174.765,238.599,174.368,238.165,174.368 M209.175,195.716c-0.49,0-0.888,0.181-1.218,0.534
		c-0.311,0.354-0.478,0.838-0.472,1.442h3.36c-0.011-0.641-0.179-1.138-0.501-1.472
		C210.026,195.885,209.635,195.716,209.175,195.716 M168.475,194.374c0-0.391-0.099-0.714-0.311-0.95
		c-0.206-0.243-0.496-0.405-0.875-0.467c-0.193-0.023-0.764-0.037-1.715-0.037h-1.827v2.965h1.733c1.12,0,1.82-0.044,2.106-0.137
		c0.28-0.101,0.499-0.263,0.653-0.497C168.395,195.015,168.475,194.728,168.475,194.374 M199.508,195.716
		c-0.534,0-0.976,0.211-1.342,0.634c-0.36,0.422-0.54,1.055-0.54,1.901c0,0.899,0.128,1.558,0.372,1.956
		c0.367,0.584,0.875,0.882,1.523,0.882c0.521,0,0.962-0.217,1.324-0.659c0.366-0.439,0.545-1.099,0.545-1.968
		c0-0.976-0.18-1.679-0.527-2.107C200.515,195.933,200.061,195.716,199.508,195.716 M176.515,195.716
		c-0.492,0-0.903,0.181-1.22,0.534c-0.316,0.354-0.477,0.838-0.471,1.442h3.361c-0.02-0.641-0.187-1.138-0.511-1.472
		C177.359,195.885,176.968,195.716,176.515,195.716 M237.3,195.716c-0.49,0-0.888,0.181-1.216,0.534
		c-0.311,0.354-0.473,0.838-0.467,1.442h3.355c-0.019-0.641-0.181-1.138-0.504-1.472C238.154,195.885,237.76,195.716,237.3,195.716
		 M147.252,198.231c-0.255,0.374-0.387,0.74-0.387,1.132c0,0.485,0.156,0.869,0.479,1.18c0.311,0.305,0.733,0.459,1.261,0.459
		c0.35,0,0.685-0.066,1.008-0.211c0.323-0.137,0.677-0.361,1.055-0.684l-2.268-2.822
		C147.886,197.549,147.506,197.866,147.252,198.231 M171.24,161.675l-0.372-0.372l-5.902-6.046l-5.785,6.046l-6.033-6.046
		l-5.53,6.046l-5.908-5.785l-5.778,5.785l-5.648-6.046l-5.908,6.046l-5.784-5.785l-5.648,5.785l-5.915-6.046l-5.896,6.046
		l-5.915-6.046l-5.902,6.046l-5.654-6.046l-6.15,6.046l-0.342,0.372H0v47.368h250v-47.368H171.24z M191.468,172.094l1.144-1.019
		l0.124-0.105l1.329,1.422l-0.023,0.387l-1.255,1.023l-1.331-1.322L191.468,172.094z M176.284,182.513l0.125,0.051
		c0.639,0.235,1.168,0.355,1.559,0.355c0.769,0,1.478-0.381,2.111-1.138c0.443-0.51,0.778-1.162,1.033-1.914
		c-0.156,0.007-0.318,0.019-0.325,0.019l-1.049,0.038c-2.001,0-3.014-0.659-3.014-1.976c0-0.783,0.293-1.728,0.877-2.802
		c0.696-1.292,1.416-1.919,2.197-1.919c0.927,0,1.704,0.677,2.313,2.006c0.466,1.032,0.708,2.032,0.708,2.976
		c0,1.074-0.373,2.424-1.099,3.995c-0.882,1.913-1.821,2.839-2.864,2.839c-0.641,0-1.504-0.602-2.802-1.944l-0.087-0.094
		L176.284,182.513z M163.735,172.094l1.024-0.914l0.242-0.21l1.335,1.422l-0.025,0.387l-1.261,1.023l-1.33-1.322L163.735,172.094z
		 M135.15,170.523l1.023-0.89l0.242-0.21l1.33,1.423l-0.025,0.378l-1.261,1.038l-1.323-1.354L135.15,170.523z M92.815,165.266
		l0.067-0.079l0.499,0.125l0.472,2.571c0,0-0.367,0.435-0.436,0.517c0.206,1.813,0.312,3.665,0.312,5.496
		c0,1.392-0.106,2.542-0.307,3.425c-0.224,1.007-0.652,2.08-1.279,3.212l-0.063,0.116l-0.565-0.178l0.013-0.137
		c0.174-1.511,0.262-3.088,0.262-4.69c0-3.723-0.188-6.488-0.552-8.196l-0.039-0.156L92.815,165.266z M43.875,171.815l1.161-0.934
		l0.119-0.092c0,0,0.615,0.634,0.77,0.797c0.182-0.144,1.002-0.79,1.002-0.79l1.317,1.329l-0.014,0.385l-1.229,1.069
		c0,0-0.655-0.665-0.815-0.826c-0.182,0.151-1.008,0.82-1.008,0.82l-1.329-1.367L43.875,171.815z M11.19,173.119l1.142-1.011
		L12.451,172l1.335,1.412l-0.025,0.385L12.5,174.84l-1.324-1.335L11.19,173.119z M9.585,176.058l0.063-0.135l0.591,0.21
		l-0.039,0.144c-0.41,1.634-0.616,2.871-0.616,3.671c0,0.802,0.188,1.449,0.548,1.932c0.396,0.518,0.976,0.783,1.714,0.783
		c0.676,0,1.424-0.163,2.207-0.485c0.727-0.302,1.348-0.694,1.857-1.156c0.013-0.185,0.055-0.974,0.055-0.974
		c0-1.311-0.44-2.747-1.298-4.25l-0.119-0.206l1.014-1.209l0.055-0.069l0.422,0.019l0.05,0.068c1.037,1.509,1.567,3.1,1.567,4.735
		c0,1.037-0.381,2.348-1.127,3.889l-0.018,0.044l-0.057,0.061l-0.036,0.026c-1.646,1.098-3.193,1.651-4.585,1.651
		c-1.057,0-1.944-0.342-2.653-1.021c-0.708-0.676-1.07-1.551-1.07-2.602C8.113,179.855,8.612,178.126,9.585,176.058 M16.048,202.638
		l-1.014-2.667h-4.672L9.4,202.638H6.896l4.518-11.693h2.491l4.69,11.693H16.048z M22.081,202.638h-2.229v-11.693h2.229V202.638z
		 M38.371,200.792c-0.249,0.511-0.584,0.913-1.012,1.211c-0.422,0.305-0.95,0.485-1.579,0.555c-0.392,0.043-1.342,0.075-2.845,0.08
		h-3.969v-11.693h4.657c0.926,0,1.617,0.036,2.063,0.112c0.461,0.079,0.863,0.236,1.224,0.485c0.356,0.242,0.655,0.572,0.895,0.969
		c0.237,0.409,0.356,0.87,0.356,1.366c0,0.554-0.144,1.051-0.436,1.504c-0.293,0.46-0.691,0.803-1.192,1.032
		c0.708,0.211,1.254,0.565,1.634,1.062c0.385,0.503,0.577,1.094,0.577,1.772C38.744,199.772,38.619,200.287,38.371,200.792
		 M48.38,202.638h-2.083v-1.268c-0.309,0.447-0.712,0.806-1.216,1.08c-0.496,0.275-1.032,0.398-1.584,0.398
		c-0.566,0-1.082-0.123-1.529-0.373c-0.455-0.249-0.777-0.597-0.982-1.055c-0.199-0.454-0.304-1.074-0.304-1.876v-5.375h2.237v3.897
		c0,1.191,0.043,1.926,0.125,2.191c0.087,0.268,0.235,0.485,0.453,0.641c0.218,0.155,0.492,0.236,0.831,0.236
		c0.378,0,0.721-0.106,1.025-0.316c0.305-0.212,0.511-0.472,0.622-0.784c0.113-0.311,0.168-1.069,0.168-2.286v-3.58h2.237V202.638z
		 M56.822,202.016c-0.645,0.558-1.602,0.832-2.869,0.832c-1.15,0-2.063-0.224-2.734-0.688c-0.671-0.467-1.104-1.094-1.317-1.883
		l2.262-0.348c0.092,0.428,0.286,0.751,0.577,0.982c0.286,0.224,0.69,0.33,1.212,0.33c0.57,0,1-0.106,1.293-0.325
		c0.192-0.142,0.29-0.347,0.29-0.597c0-0.167-0.055-0.309-0.16-0.422c-0.112-0.105-0.362-0.203-0.746-0.298
		c-1.809-0.391-2.958-0.758-3.441-1.094c-0.672-0.458-1.002-1.085-1.002-1.906c0-0.727,0.287-1.348,0.873-1.854
		c0.576-0.501,1.478-0.744,2.694-0.744c1.163,0,2.032,0.187,2.591,0.559c0.566,0.38,0.957,0.938,1.17,1.671l-2.107,0.392
		c-0.087-0.329-0.261-0.577-0.517-0.751c-0.254-0.174-0.615-0.262-1.087-0.262c-0.595,0-1.018,0.08-1.272,0.242
		c-0.174,0.125-0.262,0.275-0.262,0.46c0,0.163,0.075,0.299,0.224,0.404c0.205,0.148,0.9,0.361,2.094,0.634
		c1.199,0.273,2.033,0.603,2.505,0.994c0.465,0.403,0.702,0.956,0.702,1.671C57.793,200.792,57.47,201.458,56.822,202.016
		 M62.074,202.848c-0.397,0-0.765-0.068-1.083-0.205c-0.315-0.124-0.552-0.304-0.702-0.522c-0.149-0.218-0.254-0.509-0.309-0.881
		c-0.051-0.257-0.069-0.79-0.069-1.579v-3.709h-1.038v-1.784h1.038v-1.678l2.229-1.309v2.987h1.53v1.784h-1.53v3.435
		c0,0.696,0.014,1.101,0.044,1.218c0.032,0.112,0.094,0.212,0.199,0.286c0.1,0.075,0.224,0.112,0.367,0.112
		c0.205,0,0.503-0.074,0.888-0.211l0.181,1.728C63.309,202.736,62.726,202.848,62.074,202.848 M70.33,202.638
		c-0.061-0.144-0.13-0.362-0.217-0.646c-0.032-0.131-0.055-0.211-0.076-0.255c-0.378,0.366-0.787,0.646-1.222,0.838
		c-0.44,0.182-0.902,0.273-1.392,0.273c-0.877,0-1.559-0.229-2.056-0.707c-0.502-0.467-0.751-1.063-0.751-1.784
		c0-0.471,0.111-0.9,0.343-1.279c0.228-0.366,0.544-0.653,0.956-0.852c0.409-0.198,1-0.373,1.776-0.522
		c1.044-0.191,1.765-0.378,2.168-0.547v-0.224c0-0.44-0.105-0.75-0.316-0.936c-0.211-0.188-0.615-0.28-1.206-0.28
		c-0.398,0-0.702,0.082-0.925,0.236c-0.224,0.16-0.405,0.439-0.54,0.838l-2.021-0.366c0.229-0.826,0.622-1.437,1.174-1.833
		c0.554-0.394,1.381-0.591,2.48-0.591c0.994,0,1.733,0.112,2.223,0.355c0.486,0.229,0.826,0.527,1.025,0.895
		c0.2,0.364,0.3,1.03,0.3,2l-0.026,2.609c0,0.74,0.044,1.292,0.113,1.64c0.075,0.355,0.204,0.735,0.403,1.138H70.33z
		 M72.256,182.761l0.032-0.384l1.137-0.939l0.117-0.092l1.323,1.335l-0.013,0.373l-1.259,1.131L72.256,182.761z M81.967,202.638
		H79.73v-4.307c0-0.906-0.043-1.503-0.143-1.771c-0.094-0.265-0.249-0.472-0.466-0.62c-0.217-0.142-0.478-0.224-0.782-0.224
		c-0.385,0-0.733,0.106-1.044,0.316c-0.313,0.211-0.522,0.499-0.641,0.845c-0.11,0.348-0.167,0.995-0.167,1.934v3.827H74.25v-8.47
		h2.087v1.244c0.74-0.944,1.667-1.411,2.784-1.411c0.497,0,0.944,0.087,1.353,0.261c0.412,0.174,0.722,0.404,0.934,0.682
		c0.205,0.268,0.354,0.585,0.435,0.94c0.087,0.347,0.125,0.849,0.125,1.504V202.638z M73.536,179.842c0,0-0.062-0.217-0.094-0.31
		c-0.125,0.13-0.304,0.31-0.304,0.31h-6.717c0,0-0.135-0.235-0.221-0.385c-0.077,0.15-0.194,0.385-0.194,0.385h-3.274
		c0,0-0.105-0.243-0.162-0.385c-0.126,0.156-0.311,0.385-0.311,0.385h-4.665c0,0-0.105-0.243-0.163-0.385
		c-0.13,0.156-0.316,0.385-0.316,0.385H46.46c0,0-0.063-0.217-0.094-0.31c-0.125,0.13-0.298,0.31-0.298,0.31H21.136
		c-0.684,0-1.1-0.142-1.304-0.442c-0.094-0.141-0.199-0.416-0.199-1.292v-11.444l1.41-1.422l0.082-0.081l0.483,0.205l-0.043,2.962
		l-0.037,4.748c0,3.268,0.087,4.235,0.135,4.517c0.174,0.031,0.641,0.113,0.641,0.113s0.715-0.014,0.907-0.021
		c0.006-0.023,0.013-0.05,0.013-0.05s22.143,0.013,22.584,0.013c-0.107-0.348-0.61-1.989-0.61-1.989l1.225-1.155l0.454,0.118
		c0,0,0.837,2.808,0.906,3.026h8.841c-0.187-0.403-1.41-3.102-1.41-3.102l0.988-1.334l0.472,0.05c0,0,1.969,4.2,2.055,4.386h3.027
		c-0.181-0.403-1.404-3.102-1.404-3.102l0.994-1.334l0.465,0.05c0,0,1.969,4.2,2.058,4.386h1.727
		c0.019-0.174,0.049-0.435,0.049-0.435c0-0.745-0.286-1.591-0.856-2.516l-0.113-0.187l0.994-1.36l0.398-0.032l0.055,0.05
		c0.815,0.795,1.225,1.759,1.225,2.858c0,0.464-0.112,1.012-0.298,1.622h5.834c-0.106-0.348-0.61-1.994-0.61-1.994l1.224-1.156
		l0.454,0.119c0,0,0.838,2.807,0.908,3.031c0.397-0.006,1.715-0.013,1.715-0.013l8.163,0.013h2.541
		c-0.023-0.34-0.758-9.233-0.771-9.418c-0.528-0.199-0.625-0.533-0.625-0.728c0-0.124,0-0.242,1.061-2.186l0.063-0.112l0.551,0.137
		v0.125c0.014,0.317,0.211,0.591,0.598,0.814l1.41,0.583l0.142,0.348l-0.838,1.875c0,0-0.243-0.08-0.335-0.112
		c0.063,0.803,0.273,3.411,0.273,3.411c0.117,1.547,0.18,2.866,0.18,3.921c0,0.497-0.086,1.058-0.273,1.728l-0.57,1.808H73.536z
		 M96.828,201.892c-0.814,0.627-1.852,0.943-3.107,0.943c-1.552,0-2.831-0.533-3.825-1.595c-1-1.057-1.504-2.511-1.504-4.343
		c0-1.944,0.504-3.461,1.509-4.535c1.007-1.069,2.33-1.61,3.97-1.61c1.429,0,2.596,0.417,3.493,1.267
		c0.533,0.493,0.931,1.214,1.199,2.15l-2.344,0.56c-0.142-0.602-0.429-1.08-0.87-1.434c-0.44-0.348-0.973-0.522-1.602-0.522
		c-0.87,0-1.573,0.309-2.113,0.931c-0.541,0.62-0.814,1.628-0.814,3.013c0,1.479,0.268,2.53,0.802,3.157
		c0.534,0.627,1.224,0.939,2.081,0.939c0.628,0,1.168-0.2,1.623-0.605c0.453-0.397,0.776-1.031,0.98-1.888l2.275,0.707
		C98.226,200.313,97.648,201.271,96.828,201.892 M102.762,200.624c0.348,0.368,0.771,0.553,1.286,0.553
		c0.348,0,0.646-0.1,0.882-0.286c0.236-0.192,0.416-0.496,0.54-0.919l2.237,0.369c-0.293,0.812-0.74,1.44-1.36,1.868
		c-0.623,0.43-1.399,0.64-2.319,0.64c-1.478,0-2.566-0.477-3.268-1.442c-0.561-0.762-0.838-1.744-0.838-2.913
		c0-1.411,0.366-2.505,1.106-3.306c0.732-0.793,1.657-1.187,2.776-1.187c1.261,0,2.256,0.41,2.983,1.242
		c0.728,0.833,1.076,2.107,1.044,3.828h-5.611C102.24,199.735,102.419,200.251,102.762,200.624 M117.342,202.638h-2.237v-4.307
		c0-0.906-0.048-1.503-0.147-1.771c-0.094-0.265-0.249-0.472-0.465-0.62c-0.213-0.142-0.474-0.224-0.778-0.224
		c-0.392,0-0.74,0.106-1.051,0.316c-0.304,0.211-0.521,0.499-0.632,0.845c-0.119,0.348-0.174,0.995-0.174,1.934v3.827h-2.237v-8.47
		h2.088v1.244c0.739-0.944,1.664-1.411,2.79-1.411c0.49,0,0.945,0.087,1.355,0.261c0.41,0.174,0.719,0.404,0.925,0.682
		c0.209,0.268,0.354,0.585,0.44,0.94c0.082,0.347,0.124,0.849,0.124,1.504V202.638z M117.113,179.488
		c-0.055,0.131-0.155,0.354-0.155,0.354h-3.349c0,0-0.106-0.243-0.169-0.385c-0.124,0.156-0.311,0.385-0.311,0.385h-3.622
		c-0.125,0.925-0.464,1.989-1.05,3.182l-0.02,0.044l-0.062,0.061l-0.03,0.026c-1.652,1.098-3.193,1.651-4.585,1.651
		c-1.049,0-1.944-0.342-2.647-1.021c-0.707-0.676-1.067-1.551-1.067-2.602c0-1.337,0.49-3.063,1.465-5.126l0.063-0.135l0.59,0.21
		l-0.038,0.144c-0.41,1.641-0.616,2.871-0.616,3.671c0,0.802,0.181,1.456,0.547,1.932c0.41,0.529,0.969,0.783,1.708,0.783
		c0.703,0,1.423-0.153,2.22-0.478c0.721-0.305,1.341-0.696,1.85-1.155c0.013-0.193,0.05-0.994,0.05-1.002l0.005-0.235
		c0-1.141-0.434-2.483-1.303-3.995l-0.112-0.206l1.069-1.278l0.421,0.019l0.051,0.068c0.671,0.976,1.124,2.07,1.366,3.25h3.25
		c-0.181-0.403-1.396-3.102-1.396-3.102l0.98-1.334l0.465,0.043c0,0,1.976,4.207,2.056,4.393h1.747
		c0.012-0.174,0.036-0.423,0.036-0.423c0-0.751-0.284-1.603-0.851-2.528l-0.117-0.192l1.011-1.354l0.319-0.023l0.075-0.008
		l0.055,0.05c0.807,0.795,1.211,1.752,1.211,2.858c0,0.464-0.112,1.012-0.298,1.616c0.527,0,1.901-0.007,1.901-0.007l15.053,0.013
		h2.014c0.012-0.174,0.039-0.423,0.039-0.423c0-0.764-0.286-1.614-0.84-2.528l-0.117-0.187l0.993-1.355l0.403-0.029l0.05,0.055
		c0.815,0.82,1.22,1.776,1.22,2.839c0,0.894-0.325,2.081-0.983,3.615l-0.093,0.205h-20.223
		C117.342,179.842,117.207,179.625,117.113,179.488 M121.927,202.848c-0.391,0-0.751-0.068-1.074-0.205
		c-0.316-0.124-0.558-0.304-0.708-0.522c-0.149-0.218-0.247-0.509-0.304-0.881c-0.05-0.257-0.076-0.79-0.076-1.579v-3.709h-1.03
		v-1.784h1.03v-1.678l2.237-1.309v2.987h1.529v1.784h-1.529v3.435c0,0.696,0.014,1.101,0.044,1.218
		c0.031,0.112,0.094,0.212,0.193,0.286c0.104,0.075,0.229,0.112,0.373,0.112c0.197,0,0.501-0.074,0.888-0.211l0.181,1.728
		C123.163,202.736,122.579,202.848,121.927,202.848 M129.75,196.361c-0.38-0.242-0.728-0.365-1.051-0.365
		c-0.311,0-0.577,0.085-0.8,0.26c-0.219,0.168-0.387,0.478-0.511,0.932c-0.125,0.446-0.187,1.399-0.187,2.839v2.61h-2.237v-8.47
		h2.088v1.206c0.354-0.57,0.671-0.943,0.957-1.117c0.286-0.168,0.609-0.255,0.962-0.255c0.517,0,1.001,0.137,1.472,0.417
		L129.75,196.361z M133.601,200.624c0.343,0.368,0.771,0.553,1.28,0.553c0.355,0,0.648-0.1,0.884-0.286
		c0.242-0.192,0.423-0.496,0.539-0.919l2.237,0.369c-0.286,0.812-0.739,1.44-1.359,1.868c-0.616,0.43-1.394,0.64-2.319,0.64
		c-1.472,0-2.56-0.477-3.267-1.442c-0.554-0.762-0.833-1.744-0.833-2.913c0-1.411,0.366-2.505,1.1-3.306
		c0.732-0.793,1.658-1.187,2.783-1.187c1.255,0,2.255,0.41,2.976,1.242c0.733,0.833,1.082,2.107,1.051,3.828h-5.61
		C133.079,199.735,133.253,200.251,133.601,200.624 M154.024,202.941c-0.666-0.323-1.305-0.771-1.921-1.335
		c-0.472,0.428-0.974,0.739-1.504,0.938c-0.534,0.204-1.161,0.304-1.893,0.304c-1.46,0-2.549-0.403-3.287-1.224
		c-0.568-0.632-0.854-1.367-0.854-2.188c0-0.75,0.225-1.421,0.672-2.031c0.446-0.597,1.113-1.11,2.008-1.554
		c-0.404-0.471-0.709-0.924-0.909-1.347c-0.209-0.435-0.311-0.831-0.311-1.226c0-0.702,0.286-1.304,0.852-1.789
		c0.57-0.49,1.373-0.739,2.424-0.739c1.011,0,1.794,0.261,2.367,0.765c0.572,0.514,0.858,1.142,0.858,1.889
		c0,0.471-0.145,0.917-0.431,1.339c-0.271,0.431-0.838,0.909-1.689,1.442l1.609,2.163c0.188-0.334,0.355-0.776,0.492-1.323
		l2.033,0.454c-0.2,0.721-0.381,1.249-0.53,1.579c-0.142,0.335-0.311,0.613-0.478,0.832c0.254,0.242,0.577,0.497,0.969,0.771
		c0.403,0.286,0.689,0.472,0.882,0.559L154.024,202.941z M156.249,182.862l-1.232,1.068c0,0-0.65-0.659-0.813-0.82
		c-0.179,0.149-1.001,0.814-1.001,0.814l-1.335-1.367l0.026-0.391l1.168-0.927l0.112-0.094c0,0,0.613,0.635,0.771,0.795
		c0.186-0.141,1-0.795,1-0.795l1.316,1.337L156.249,182.862z M158.931,179.637l-0.085,0.205h-10.861c0,0-0.125-0.235-0.192-0.385
		c-0.13,0.156-0.322,0.385-0.322,0.385h-5.213c-1.417,0-1.627-0.728-1.627-1.155c0-0.431,0.153-0.928,0.471-1.536l0.05-0.091
		l0.515,0.036l0.038,0.105c0.069,0.206,0.187,0.318,0.385,0.38c0.061,0.018,0.255,0.068,0.765,0.068h3.894
		c-0.254-0.441-2.422-4.231-2.422-4.231l0.105-0.166l0.746-1.201l0.05-0.08l0.468,0.007c0,0,3.166,5.506,3.261,5.672
		c0.384-0.006,1.844-0.013,1.844-0.013l5.362,0.013h2.001c0.025-0.174,0.044-0.423,0.044-0.423c0-0.771-0.286-1.614-0.845-2.528
		l-0.113-0.187l0.994-1.36l0.405-0.032l0.055,0.058c0.808,0.826,1.218,1.781,1.218,2.845
		C159.919,176.91,159.595,178.096,158.931,179.637 M161.243,182.475c0.037,0.021,0.069,0.023,0.105,0.044
		c0.492,0.23,0.989,0.355,1.479,0.355c0.752,0,1.486-0.405,2.169-1.193c0.522-0.613,0.982-1.397,1.359-2.312
		c-0.327-1.138-0.819-2.113-1.453-2.884l-0.181-0.217l1.182-1.374l0.323-0.005h0.073l0.05,0.055c0.41,0.443,0.746,1.021,1.007,1.754
		c0.249,0.696,0.374,1.354,0.374,1.976c0,0.974-0.405,2.236-1.206,3.738c-0.934,1.759-1.859,2.61-2.828,2.61
		c-0.641,0-1.527-0.627-2.79-1.97L161.243,182.475z M169.034,202.638l-1.685-2.541c-0.601-0.907-1.019-1.486-1.234-1.721
		c-0.225-0.237-0.46-0.399-0.704-0.485c-0.253-0.088-0.645-0.132-1.18-0.132h-0.484v4.879h-2.36v-11.693h4.944
		c1.244,0,2.15,0.105,2.716,0.311c0.558,0.217,1.012,0.583,1.354,1.125c0.337,0.539,0.504,1.148,0.504,1.842
		c0,0.878-0.255,1.599-0.771,2.177c-0.504,0.57-1.272,0.925-2.292,1.081c0.51,0.292,0.925,0.62,1.262,0.974
		c0.322,0.362,0.775,0.989,1.327,1.902l1.425,2.281H169.034z M170.673,185.023c-0.632,0-1.521-0.627-2.783-1.97l0.335-0.579
		c0.031,0.021,0.068,0.023,0.1,0.044c0.496,0.23,0.996,0.355,1.479,0.355c0.758,0,1.49-0.405,2.168-1.193
		c0.529-0.613,0.981-1.397,1.367-2.312c-0.337-1.138-0.82-2.113-1.461-2.884l-0.174-0.217l1.181-1.374l0.323-0.005h0.069
		l0.047,0.055c0.42,0.443,0.747,1.021,1.017,1.754c0.249,0.696,0.372,1.354,0.372,1.976c0,0.974-0.41,2.236-1.211,3.738
		C172.569,184.172,171.643,185.023,170.673,185.023 M175.32,200.624c0.348,0.368,0.777,0.553,1.292,0.553
		c0.348,0,0.641-0.1,0.877-0.286c0.24-0.192,0.416-0.496,0.547-0.919l2.229,0.369c-0.29,0.812-0.737,1.44-1.354,1.868
		c-0.621,0.43-1.397,0.64-2.324,0.64c-1.478,0-2.559-0.477-3.268-1.442c-0.56-0.762-0.84-1.744-0.84-2.913
		c0-1.411,0.368-2.505,1.107-3.306c0.732-0.793,1.659-1.187,2.777-1.187c1.26,0,2.254,0.41,2.981,1.242
		c0.732,0.833,1.08,2.107,1.051,3.828h-5.612C174.801,199.735,174.979,200.251,175.32,200.624 M188.355,202.016
		c-0.652,0.558-1.609,0.832-2.875,0.832c-1.15,0-2.063-0.224-2.729-0.688c-0.67-0.467-1.105-1.094-1.324-1.883l2.262-0.348
		c0.096,0.428,0.286,0.751,0.572,0.982c0.293,0.224,0.698,0.33,1.22,0.33c0.577,0,1.006-0.106,1.296-0.325
		c0.195-0.142,0.288-0.347,0.288-0.597c0-0.167-0.055-0.309-0.163-0.422c-0.105-0.105-0.359-0.203-0.746-0.298
		c-1.813-0.391-2.957-0.758-3.436-1.094c-0.677-0.458-1.005-1.085-1.005-1.906c0-0.727,0.286-1.348,0.87-1.854
		c0.577-0.501,1.486-0.744,2.703-0.744c1.161,0,2.026,0.187,2.589,0.559c0.566,0.38,0.951,0.938,1.168,1.671l-2.111,0.392
		c-0.087-0.329-0.261-0.577-0.508-0.751c-0.262-0.174-0.623-0.262-1.095-0.262c-0.589,0-1.019,0.08-1.271,0.242
		c-0.176,0.125-0.257,0.275-0.257,0.46c0,0.163,0.069,0.299,0.219,0.404c0.203,0.148,0.899,0.361,2.099,0.634
		c1.193,0.273,2.024,0.603,2.497,0.994c0.472,0.403,0.708,0.956,0.708,1.671C189.325,200.792,188.996,201.458,188.355,202.016
		 M193.524,202.638h-2.236v-8.47h2.236V202.638z M193.524,193.007h-2.236v-2.062h2.236V193.007z M193.574,182.786
		c-0.9,1.504-1.752,2.237-2.609,2.237c-0.646,0-1.546-0.646-2.845-2.026l-0.094-0.104l0.359-0.48l0.119,0.062
		c0.534,0.261,1.069,0.399,1.591,0.399c0.751,0,1.49-0.405,2.175-1.193c0.515-0.613,0.975-1.392,1.36-2.306
		c-0.323-1.13-0.815-2.111-1.454-2.889l-0.181-0.217l1.188-1.366l0.391-0.014l0.05,0.063c0.597,0.632,1.007,1.552,1.23,2.696
		c0.429-0.006,1.889-0.013,1.889-0.013l15.68,0.013h8.04c-0.428-0.478-4.454-4.944-4.667-5.176
		c-0.104,0.113-0.333,0.373-0.333,0.373l-1.063-0.938c-0.348-0.328-0.579-0.665-0.697-0.995l-0.011-0.05v-0.098l0.011-0.044
		c0.07-0.28,0.378-0.989,1.058-2.454l0.063-0.137l0.141-0.042l8.892-2.736l0.1-0.029l0.341,0.377l-0.783,1.785
		c0,0-7.002,2.231-7.474,2.379c0.702,0.733,3.269,3.398,3.269,3.404c2.937,3.176,3.328,4.015,3.328,4.425
		c0,0.162-0.062,0.472-0.873,1.975l-0.095,0.174h-26.833C194.631,180.737,194.221,181.717,193.574,182.786 M203.603,202.638h-2.088
		v-1.243c-0.343,0.483-0.753,0.845-1.218,1.092c-0.472,0.243-0.944,0.36-1.424,0.36c-0.98,0-1.813-0.39-2.502-1.174
		c-0.696-0.783-1.044-1.877-1.044-3.28c0-1.437,0.335-2.53,1.014-3.28c0.677-0.746,1.527-1.113,2.571-1.113
		c0.945,0,1.764,0.394,2.453,1.175v-4.231h2.239V202.638z M207.989,200.624c0.343,0.368,0.77,0.553,1.287,0.553
		c0.354,0,0.64-0.1,0.881-0.286c0.236-0.192,0.417-0.496,0.54-0.919l2.231,0.369c-0.286,0.812-0.74,1.44-1.36,1.868
		c-0.616,0.43-1.386,0.64-2.318,0.64c-1.468,0-2.561-0.477-3.262-1.442c-0.559-0.762-0.837-1.744-0.837-2.913
		c0-1.411,0.365-2.505,1.098-3.306c0.733-0.793,1.659-1.187,2.783-1.187c1.262,0,2.251,0.41,2.988,1.242
		c0.724,0.833,1.07,2.107,1.039,3.828h-5.609C207.46,199.735,207.646,200.251,207.989,200.624 M222.564,202.638h-2.23v-4.307
		c0-0.906-0.057-1.503-0.142-1.771c-0.101-0.265-0.254-0.472-0.467-0.62c-0.224-0.142-0.485-0.224-0.789-0.224
		c-0.387,0-0.735,0.106-1.037,0.316c-0.316,0.211-0.523,0.499-0.647,0.845c-0.105,0.348-0.167,0.995-0.167,1.934v3.827h-2.237v-8.47
		h2.089v1.244c0.737-0.944,1.669-1.411,2.788-1.411c0.497,0,0.945,0.087,1.355,0.261c0.403,0.174,0.721,0.404,0.925,0.682
		c0.21,0.268,0.355,0.585,0.435,0.94c0.087,0.347,0.125,0.849,0.125,1.504V202.638z M231.027,202.066
		c-0.64,0.522-1.505,0.782-2.598,0.782c-1.236,0-2.218-0.39-2.951-1.167c-0.74-0.783-1.105-1.866-1.105-3.25
		c0-1.399,0.365-2.484,1.105-3.269c0.739-0.776,1.733-1.162,2.994-1.162c1.033,0,1.845,0.22,2.454,0.646
		c0.609,0.446,1.045,1.119,1.311,2.013l-2.209,0.41c-0.075-0.436-0.243-0.765-0.505-0.983c-0.265-0.216-0.602-0.329-1.023-0.329
		c-0.561,0-0.994,0.193-1.337,0.578c-0.322,0.385-0.49,1.033-0.49,1.939c0,1.008,0.168,1.716,0.501,2.125
		c0.344,0.417,0.797,0.627,1.362,0.627c0.429,0,0.777-0.13,1.044-0.373c0.274-0.243,0.467-0.663,0.579-1.26l2.186,0.365
		C232.113,200.779,231.678,201.549,231.027,202.066 M236.114,200.624c0.348,0.368,0.771,0.553,1.286,0.553
		c0.355,0,0.642-0.1,0.888-0.286c0.23-0.192,0.417-0.496,0.536-0.919l2.236,0.369c-0.286,0.812-0.74,1.44-1.367,1.868
		c-0.616,0.43-1.385,0.64-2.316,0.64c-1.467,0-2.555-0.477-3.263-1.442c-0.558-0.762-0.838-1.744-0.838-2.913
		c0-1.411,0.366-2.505,1.106-3.306c0.727-0.793,1.659-1.187,2.783-1.187c1.255,0,2.25,0.41,2.983,1.242
		c0.728,0.833,1.069,2.107,1.037,3.828h-5.609C235.592,199.735,235.773,200.251,236.114,200.624 M240.314,180.886l-0.148,0.243
		c0,0-5.25-2.274-5.487-2.381c-0.124,0.18-0.757,1.094-0.757,1.094h-5.872c-0.211,0.895-0.622,1.884-1.268,2.944
		c-0.902,1.504-1.752,2.237-2.602,2.237c-0.641,0-1.549-0.646-2.848-2.032l-0.093-0.098l0.361-0.48l0.124,0.062
		c0.528,0.261,1.062,0.399,1.579,0.399c0.758,0,1.49-0.405,2.181-1.193c0.522-0.613,0.974-1.397,1.36-2.312
		c-0.323-1.13-0.808-2.099-1.455-2.884l-0.179-0.217l1.185-1.374l0.393-0.005l0.051,0.055c0.602,0.654,1.007,1.573,1.236,2.704
		h5.263c0.093-0.13,1.894-2.591,1.894-2.591c1.932-2.478,2.66-2.795,3.075-2.795c0.903,0,1.759,0.659,2.548,1.957
		c0.702,1.137,1.055,2.168,1.055,3.056C241.91,177.972,241.402,179.121,240.314,180.886"/>
	<polyline fill-rule="evenodd" clip-rule="evenodd" fill="#AC162C" points="12.831,220.124 12.306,220.124 12.176,219.991 
		12.045,219.861 11.784,219.73 11.393,219.73 3.421,219.73 3.421,222.607 8.518,222.607 9.17,222.607 9.301,222.474 9.301,222.214 
		9.826,222.214 9.826,225.088 9.301,225.088 9.301,224.957 9.17,224.827 8.91,224.696 8.518,224.696 3.421,224.696 3.421,229.009 
		3.421,229.139 3.683,229.27 4.075,229.4 4.075,229.922 0.026,229.922 0.026,229.4 0.418,229.27 0.548,229.139 0.548,229.009 
		0.548,218.556 0.548,218.425 0.418,218.292 0.026,218.166 0.026,217.641 11.393,217.641 11.784,217.641 12.045,217.509 
		12.176,217.38 12.306,217.119 12.831,217.119 	"/>
	<polyline fill-rule="evenodd" clip-rule="evenodd" fill="#AC162C" points="36.479,220.253 35.956,220.253 35.956,219.991 
		35.694,219.861 35.435,219.729 35.042,219.729 27.856,219.729 27.856,222.476 32.43,222.476 33.082,222.346 33.344,222.214 
		33.344,222.082 33.866,222.082 33.866,224.957 33.344,224.957 33.344,224.696 33.082,224.565 32.166,224.565 27.856,224.565 
		27.856,227.833 35.435,227.833 35.694,227.833 35.956,227.703 36.086,227.44 36.216,227.309 36.741,227.309 36.741,230.314 
		36.216,230.314 36.086,230.053 35.956,229.923 35.435,229.923 24.588,229.923 24.588,229.398 24.979,229.269 25.11,229.14 
		25.11,229.008 25.11,218.558 25.11,218.425 24.979,218.294 24.588,218.164 24.588,217.641 35.042,217.641 35.435,217.641 
		35.694,217.509 35.956,217.381 35.956,217.119 36.479,217.119 	"/>
	<polyline fill-rule="evenodd" clip-rule="evenodd" fill="#AC162C" points="60.259,220.253 59.736,220.253 59.605,219.991 
		59.475,219.861 59.212,219.729 58.82,219.729 51.634,219.729 51.634,222.476 56.208,222.476 56.861,222.346 57.122,222.214 
		57.122,222.082 57.646,222.082 57.646,224.957 57.122,224.957 57.122,224.696 56.861,224.565 55.945,224.565 51.634,224.565 
		51.634,227.833 59.212,227.833 59.475,227.833 59.736,227.703 59.866,227.44 59.997,227.309 60.521,227.309 60.521,230.314 
		59.997,230.314 59.866,230.053 59.736,229.923 59.212,229.923 48.368,229.923 48.368,229.398 48.761,229.269 48.761,229.14 
		48.89,229.008 48.89,218.558 48.761,218.425 48.761,218.294 48.368,218.164 48.368,217.641 58.82,217.641 59.212,217.641 
		59.475,217.509 59.605,217.381 59.736,217.119 60.259,217.119 	"/>
	<polyline fill-rule="evenodd" clip-rule="evenodd" fill="#AC162C" points="71.233,217.641 75.414,217.641 75.414,218.166 
		74.892,218.294 74.763,218.425 74.763,218.556 74.763,227.833 82.732,227.833 82.993,227.833 83.254,227.703 83.384,227.439 
		83.515,227.178 84.04,227.178 84.04,230.183 83.515,230.183 83.384,230.053 83.254,229.922 82.732,229.922 71.233,229.922 
		71.233,229.398 71.756,229.27 71.887,229.14 72.017,229.009 72.017,218.556 71.887,218.425 71.756,218.294 71.233,218.166 	"/>
	<path fill-rule="evenodd" clip-rule="evenodd" fill="#AC162C" d="M109.91,229.922V229.4l-0.394-0.13h-0.13l-0.134-0.261
		l0.134-0.262l0.13-0.392l0.913-1.566h6.274l0.783,1.566l0.133,0.392v0.392v0.131l-0.133,0.13l-0.261,0.13v0.392h4.182V229.4
		l-0.392-0.13l-0.394-0.394l-4.703-9.539l-0.262-0.521l-0.13-0.392l0.13-0.26h0.131v-0.525h-4.443v0.525h0.131l0.13,0.26
		l-0.13,0.522l-0.261,0.524l-4.312,9.143l-0.391,0.524l-0.262,0.131l-0.263,0.13v0.522 M113.304,220.124l2.483,4.573h-4.573
		L113.304,220.124z"/>
	<polyline fill-rule="evenodd" clip-rule="evenodd" fill="#AC162C" points="131.597,229.398 131.597,229.398 131.859,229.269 
		131.989,229.14 131.989,229.008 131.989,219.729 128.198,219.729 127.808,219.863 127.679,219.991 127.546,220.123 
		127.024,220.123 127.024,216.986 127.546,216.986 127.679,217.251 127.808,217.509 128.071,217.641 128.198,217.641 
		138.655,217.641 138.915,217.641 139.046,217.509 139.306,217.251 139.306,216.986 139.828,216.986 139.828,220.123 
		139.306,220.123 139.306,219.991 139.046,219.863 138.655,219.729 134.866,219.729 134.866,229.008 134.866,229.14 
		134.994,229.269 135.388,229.398 135.388,229.923 131.597,229.923 	"/>
	<polyline fill-rule="evenodd" clip-rule="evenodd" fill="#AC162C" points="164.261,224.696 164.261,229.008 164.393,229.14 
		164.393,229.269 164.784,229.398 164.784,229.923 161.126,229.923 161.126,229.398 161.39,229.269 161.518,229.14 161.518,229.008 
		161.518,218.558 161.518,218.425 161.39,218.294 161.126,218.164 161.126,217.641 164.784,217.641 164.784,218.164 
		164.393,218.294 164.393,218.425 164.261,218.558 164.261,222.476 172.232,222.476 172.232,218.558 172.1,218.425 171.969,218.294 
		171.71,218.164 171.71,217.641 175.369,217.641 175.369,218.164 175.104,218.294 174.977,218.425 174.977,218.558 174.977,229.008 
		174.977,229.14 175.104,229.269 175.369,229.398 175.369,229.923 171.71,229.923 171.71,229.398 171.969,229.269 172.1,229.14 
		172.232,229.008 172.232,224.696 	"/>
	<path fill-rule="evenodd" clip-rule="evenodd" fill="#AC162C" d="M193.922,217.509L193.922,217.509h-1.567l-1.437,0.394
		l-1.309,0.391l-1.177,0.653l-0.916,0.914l-0.389,0.525l-0.391,0.652l-0.264,0.522l-0.131,0.654l-0.131,0.783l-0.127,0.784
		l0.127,0.783l0.131,0.655l0.131,0.652l0.264,0.654l0.391,0.522l0.389,0.522l0.916,0.916l1.177,0.654l1.309,0.521l1.437,0.263
		l1.567,0.13l1.567-0.13l1.435-0.263l1.31-0.521l1.176-0.654l0.915-0.916l0.391-0.522l0.391-0.522l0.265-0.654l0.127-0.652
		l0.131-0.655l0.131-0.783l-0.131-0.784l-0.131-0.783l-0.127-0.654l-0.265-0.522l-0.391-0.652l-0.391-0.525l-0.915-0.914
		l-1.176-0.653l-1.31-0.391l-1.435-0.394H193.922z M193.922,219.471L193.922,219.471l0.913,0.129l0.913,0.261l0.789,0.261
		l0.78,0.523l0.654,0.653l0.522,0.653l0.263,0.914l0.128,0.916l-0.128,0.913l-0.263,0.784l-0.522,0.787l-0.654,0.652l-0.78,0.391
		l-0.789,0.394l-0.913,0.26h-0.913h-0.917l-0.91-0.26l-0.917-0.394l-0.656-0.391l-0.65-0.652l-0.521-0.787l-0.264-0.784
		l-0.132-0.913l0.132-0.916l0.264-0.914l0.521-0.653l0.65-0.653l0.656-0.523l0.917-0.261l0.91-0.261L193.922,219.471z"/>
	<polyline fill-rule="evenodd" clip-rule="evenodd" fill="#AC162C" points="211.953,229.923 211.953,229.398 212.212,229.27 
		212.345,228.876 212.345,218.685 212.212,218.164 211.953,218.164 211.953,217.641 216.133,217.641 216.133,218.164 
		215.872,218.164 215.743,218.425 215.872,218.685 216.133,219.207 219.792,225.479 223.319,219.207 223.841,218.425 
		223.71,218.164 223.583,218.164 223.583,217.641 227.763,217.641 227.763,218.164 227.371,218.164 227.371,218.294 
		227.241,218.425 227.241,229.009 227.371,229.14 227.371,229.27 227.763,229.398 227.763,229.923 224.363,229.923 224.363,229.398 
		224.758,229.27 224.887,229.14 224.887,229.009 224.887,221.169 224.758,221.169 219.792,229.923 219.53,229.923 214.825,221.169 
		214.825,229.009 214.825,229.14 214.958,229.27 215.348,229.398 215.348,229.923 	"/>
	<polyline fill-rule="evenodd" clip-rule="evenodd" fill="#AC162C" points="249.711,220.253 249.188,220.253 249.188,219.991 
		248.93,219.861 248.667,219.729 248.275,219.729 241.09,219.729 241.09,222.476 245.662,222.476 246.317,222.346 246.577,222.214 
		246.577,222.082 247.099,222.082 247.099,224.957 246.577,224.957 246.577,224.696 246.317,224.565 245.404,224.565 
		241.09,224.565 241.09,227.833 248.667,227.833 248.93,227.833 249.188,227.703 249.452,227.44 249.452,227.309 249.975,227.309 
		249.975,230.314 249.452,230.314 249.452,230.053 249.188,229.923 248.667,229.923 237.825,229.923 237.825,229.398 
		238.215,229.269 238.346,229.14 238.346,229.008 238.346,218.558 238.346,218.425 238.215,218.294 237.825,218.164 
		237.825,217.641 248.275,217.641 248.667,217.641 248.93,217.509 249.188,217.381 249.188,217.119 249.711,217.119 	"/>
</g>
</svg>
