<?xml version="1.0" encoding="utf-8"?>
<!-- Generator: Adobe Illustrator 16.0.0, SVG Export Plug-In . SVG Version: 6.00 Build 0)  -->
<!DOCTYPE svg PUBLIC "-//W3C//DTD SVG 1.1//EN" "http://www.w3.org/Graphics/SVG/1.1/DTD/svg11.dtd">
<svg version="1.1" id="Layer_1" xmlns="http://www.w3.org/2000/svg" xmlns:xlink="http://www.w3.org/1999/xlink" x="0px" y="0px"
	 width="250px" height="250px" viewBox="0 0 250 250" enable-background="new 0 0 250 250" xml:space="preserve">
<g>
	<g>
		<path fill="#EA2227" d="M80.143,186.534h2.53c1.068,0,1.868,0.04,2.487,0.499c0.617,0.444,0.983,1.207,0.983,2.094
			c0,1.055-0.505,1.79-1.448,2.067c1.167,0.182,1.884,1.111,1.884,2.443c0,0.817-0.309,1.568-0.815,2.067
			c-0.718,0.708-1.672,0.749-3.077,0.749h-2.544V186.534z M82.362,190.724c1.477,0,2.137-0.333,2.137-1.375
			c0-1.234-0.688-1.469-2.137-1.469h-0.617v2.844H82.362z M82.307,195.107c0.913,0,1.56-0.041,1.953-0.305s0.632-0.721,0.632-1.263
			c0-0.625-0.266-1.109-0.772-1.373c-0.378-0.195-0.829-0.222-1.321-0.222h-1.053v3.162H82.307z"/>
		<path fill="#EA2227" d="M90.139,191.916l-3.388-5.381h1.714l2.109,3.37c0.041,0.07,0.197,0.334,0.421,0.791
			c0.127-0.318,0.268-0.596,0.422-0.833l2.164-3.328h1.631l-3.457,5.381v4.538h-1.616V191.916z"/>
		<path fill="#EA2227" d="M101.288,193.873c0.239,0.887,0.914,1.359,1.939,1.359c0.983,0,1.587-0.583,1.587-1.471
			c0-0.97-0.744-1.207-1.783-1.707c-1.785-0.86-2.769-1.525-2.769-3.023c0-1.597,1.193-2.721,3.021-2.721
			c1.49,0,2.516,0.598,2.894,1.639l-1.278,0.652c-0.393-0.611-0.855-0.902-1.488-0.902c-0.887,0-1.435,0.5-1.435,1.25
			c0,0.956,0.787,1.248,1.911,1.76c1.771,0.806,2.601,1.514,2.601,2.943c0,1.845-1.251,3.066-3.332,3.066
			c-1.714,0-2.838-0.804-3.176-2.249L101.288,193.873z"/>
		<path fill="#EA2227" d="M109.85,186.534v6.02c0,1.791,0.845,2.692,2.503,2.692s2.501-0.901,2.501-2.692v-6.02h1.631v6.174
			c0,2.677-1.363,4.009-4.132,4.009s-4.119-1.333-4.119-4.009v-6.174H109.85z"/>
		<path fill="#EA2227" d="M118.737,186.145l6.38,6.063c0.409,0.389,0.76,0.792,1.098,1.207v-6.88h1.504v10.308l-6.508-6.174
			c-0.366-0.347-0.688-0.721-0.97-1.11v6.896h-1.504V186.145z"/>
		<path fill="#EA2227" d="M139.769,195.51c-0.941,0.804-1.911,1.18-3.106,1.18c-1.882,0-3.12-1.207-3.12-2.831
			c0-1.18,0.746-2.083,2.235-2.997l-0.407-0.432c-0.449-0.484-0.688-1.068-0.688-1.651c0-1.276,1.039-2.233,2.586-2.233
			s2.459,0.847,2.459,2.094c0,1.014-0.646,1.762-1.954,2.513l2.095,2.398c0.451-0.443,0.871-0.97,1.294-1.552l0.956,1.012
			c-0.38,0.596-0.829,1.109-1.336,1.554l1.687,1.886h-1.884L139.769,195.51z M136.648,191.958l-0.252,0.166
			c-0.829,0.528-1.294,0.985-1.294,1.693c0,0.86,0.69,1.568,1.631,1.568c0.675,0,1.377-0.305,2.107-0.93L136.648,191.958z
			 M137.408,189.918c0.519-0.305,0.773-0.694,0.773-1.178c0-0.569-0.394-0.958-0.943-0.958c-0.616,0-1.025,0.403-1.025,0.972
			c0,0.278,0.113,0.54,0.324,0.777l0.505,0.596L137.408,189.918z"/>
		<path fill="#EA2227" d="M148.685,193.873c0.239,0.887,0.914,1.359,1.94,1.359c0.983,0,1.587-0.583,1.587-1.471
			c0-0.97-0.744-1.207-1.784-1.707c-1.785-0.86-2.769-1.525-2.769-3.023c0-1.597,1.193-2.721,3.021-2.721
			c1.49,0,2.517,0.598,2.895,1.639l-1.278,0.652c-0.394-0.611-0.856-0.902-1.489-0.902c-0.887,0-1.435,0.5-1.435,1.25
			c0,0.956,0.787,1.248,1.911,1.76c1.772,0.806,2.602,1.514,2.602,2.943c0,1.845-1.252,3.066-3.332,3.066
			c-1.715,0-2.839-0.804-3.176-2.249L148.685,193.873z"/>
		<path fill="#EA2227" d="M155.673,186.534h1.632v4.105l3.611-4.105h1.996l-3.979,4.412l4.456,5.507h-2.109l-3.976-5.064v5.064
			h-1.632V186.534z"/>
		<path fill="#EA2227" d="M166.035,191.916l-3.388-5.381h1.714l2.11,3.37c0.042,0.07,0.196,0.334,0.42,0.791
			c0.127-0.318,0.269-0.596,0.422-0.833l2.166-3.328h1.629l-3.457,5.381v4.538h-1.616V191.916z"/>
	</g>
	<g>
		<path fill="#EA2227" d="M112.774,108.46L95.56,84.43c0,0,3.572-14.292,25.333-24.36s60.085-6.17,60.085-6.17
			s-36.011,0.222-54.728,15.428C108.053,84.106,112.774,108.46,112.774,108.46z"/>
		<path fill="#EA2227" d="M137.327,67.573l17.214,24.032c0,0-3.571,14.29-25.332,24.358c-21.76,10.065-60.084,6.168-60.084,6.168
			s36.01-0.224,54.728-15.426C142.048,91.927,137.327,67.573,137.327,67.573z"/>
	</g>
	<g>
		<path fill="#231F20" d="M27.989,140.718c0.254,0.48,0.418,0.943,0.582,1.454c0.117,0.297,0.181,0.856,0.746,0.856
			c0.164,0,0.399-0.067,0.609-0.212c0.237-0.154,0.418-0.386,0.509-0.741l0.228-0.945l0.546-0.335l0.037,0.048
			c-0.073,0.354-0.091,0.692-0.091,0.962c0,0.789,0.546,1.088,0.983,1.088c0.254,0,0.481-0.154,0.481-0.444
			c0-0.374-0.127-1.01-0.291-1.577c0.255-0.318,0.51-0.636,0.801-0.896l0.044,0.029c0.129,0.675,0.2,1.338,0.2,1.782
			c0,0.434-0.154,0.914-0.281,1.232c-0.264,0.615-0.727,1.107-1.292,1.107c-0.428,0-0.9-0.27-1.229-0.76h-0.019
			c-0.309,0.471-0.781,0.904-1.547,0.904h-0.235c-0.036,0.625-0.146,1.068-0.311,1.464c-0.455,1.106-1.801,1.886-3.065,1.886
			c-1.765,0-2.647-1.271-2.647-2.954c0-1.042,0.271-2.013,0.69-2.696l0.347,0.173c-0.264,0.625-0.438,1.223-0.438,1.799
			c0,1.579,1.027,2.329,2.221,2.329c1.102,0,2.465-0.875,2.712-1.886c-0.091-1.107-0.429-1.627-0.938-2.638
			c0.154-0.337,0.354-0.673,0.6-1.03H27.989z"/>
		<path fill="#231F20" d="M43.847,134.644c-0.01,0.068-0.018,0.135-0.018,0.203c0,0.567,0.318,1.232,0.737,1.953
			c-0.137,0.135-0.328,0.318-0.556,0.473c0.046,1.174,0.073,2.281,0.073,3.456c0,0.644-0.137,1.348-0.301,1.876
			c-0.245,0.752-0.528,1.251-1.011,1.627c-0.626,0.492-1.546,0.818-2.282,0.818c-0.847,0-1.62-0.231-2.249-0.442v-0.106
			c1.757-0.25,3.14-0.656,4.076-1.251c-0.044-0.386-0.499-1.116-1.027-1.965c-0.582-0.943-1.238-1.924-1.982-3.08
			c-0.592-0.914-0.902-1.473-0.902-1.791c0-0.212,0.301-0.741,0.419-0.924l0.046-0.01c0.345,0.492,0.891,1.068,1.482,1.686
			l-0.291,0.547c0.829,1.387,1.63,2.638,2.166,3.639c0.236,0.453,0.382,1.001,0.391,1.676l0.055,0.01
			c0.42-0.318,0.729-0.866,0.729-1.753c0-0.981-0.083-2.204-0.237-3.887c-0.018-0.434-0.107-1.07-0.107-1.502
			c0-0.299,0.063-0.511,0.19-0.685c0.145-0.222,0.336-0.413,0.536-0.615L43.847,134.644z"/>
		<path fill="#231F20" d="M46.909,144.501h-0.099c-0.719,0-1.184-0.154-1.556-0.549c-0.556-0.596-0.565-1.28-0.565-2.696
			c0-1.828-0.101-3.745-0.237-5.785c0.311-0.357,0.592-0.673,0.856-0.895l0.063,0.039c0.145,2.107,0.145,4.601,0.145,6.969v0.55
			c0,0.615,0.328,0.895,0.683,1.029c0.228,0.087,0.465,0.106,0.582,0.106h0.128V144.501z"/>
		<path fill="#231F20" d="M50.548,143.27v1.232h-3.641c-0.5,0-0.637-0.386-0.637-0.646c0-0.231,0.146-0.586,0.637-0.586H50.548z"/>
		<path fill="#231F20" d="M54.185,143.27v1.232h-3.639c-0.502,0-0.639-0.386-0.639-0.646c0-0.231,0.146-0.586,0.639-0.586H54.185z"
			/>
		<path fill="#231F20" d="M57.823,143.27v1.232h-3.641c-0.5,0-0.637-0.386-0.637-0.646c0-0.231,0.145-0.586,0.637-0.586H57.823z"/>
		<path fill="#231F20" d="M61.46,143.27v1.232h-3.641c-0.5,0-0.637-0.386-0.637-0.646c0-0.231,0.146-0.586,0.637-0.586H61.46z"/>
		<path fill="#231F20" d="M65.097,143.27v1.232h-3.639c-0.502,0-0.639-0.386-0.639-0.646c0-0.231,0.146-0.586,0.639-0.586H65.097z"
			/>
		<path fill="#231F20" d="M68.733,143.27v1.232h-3.639c-0.502,0-0.637-0.386-0.637-0.646c0-0.231,0.145-0.586,0.637-0.586H68.733z"
			/>
		<path fill="#231F20" d="M72.372,143.27v1.232h-3.641c-0.5,0-0.637-0.386-0.637-0.646c0-0.231,0.146-0.586,0.637-0.586H72.372z"/>
		<path fill="#231F20" d="M76.009,143.27v1.232H72.37c-0.502,0-0.639-0.386-0.639-0.646c0-0.231,0.146-0.586,0.639-0.586H76.009z"/>
		<path fill="#231F20" d="M79.646,143.27v1.232h-3.639c-0.502,0-0.637-0.386-0.637-0.646c0-0.231,0.145-0.586,0.637-0.586H79.646z"
			/>
		<path fill="#231F20" d="M79.798,143.27c0.772,0,1.392-0.029,1.793-0.184c0.318-0.125,0.519-0.26,0.519-0.424
			c0-0.451-0.438-1.396-0.91-2.378c0.218-0.413,0.445-0.779,0.683-1.087h0.047c0.418,0.779,0.908,1.982,0.908,2.937
			c0,0.721-0.272,1.28-0.637,1.789c-0.409,0.434-1.055,0.579-2.447,0.579h-0.109c-0.5,0-0.637-0.386-0.637-0.646
			c0-0.231,0.145-0.586,0.637-0.586H79.798z M81.518,146.32c0.374,0.29,0.736,0.636,1.092,1.03
			c-0.199,0.347-0.446,0.665-0.754,0.945c-0.355-0.357-0.71-0.665-1.074-0.993C81.025,146.956,81.272,146.619,81.518,146.32z"/>
		<path fill="#231F20" d="M92.313,141.353c-1.057-0.413-1.692-0.538-2.529-0.538c-0.519,0-0.9,0.174-1.155,0.48l0.182,0.81
			l-0.255,0.76l-0.101,0.029l-0.528-1.521c0.073-1.068,0.884-1.731,1.975-1.731c0.611,0,1.549,0.222,2.985,0.836
			c0.438,0.174,0.883,0.299,1.556,0.309l0.801-0.009l0.01,0.019l-0.546,0.972c-0.619,0.068-2.012,0.482-2.43,0.635
			c-2.012,0.81-3.367,1.926-3.367,3.207c0,2.001,2.002,3.157,4.541,3.157c0.818,0,1.591-0.087,2.338-0.212l0.028,0.097
			c-0.465,0.405-0.983,0.848-1.484,1.145c-0.473,0.097-1.072,0.174-1.719,0.174c-2.393,0-4.387-1.232-4.387-3.909
			c0-2.291,1.83-4.109,4.096-4.678L92.313,141.353z M91.913,144.781c0.374,0.287,0.736,0.634,1.091,1.03
			c-0.198,0.345-0.445,0.663-0.754,0.943c-0.354-0.357-0.709-0.666-1.074-0.991C91.421,145.416,91.668,145.078,91.913,144.781z
			 M93.66,142.143l0.026,0.01c0.037,0.818,0.675,1.117,1.612,1.117h0.463v1.232h-0.499c-1.175,0-1.958-0.434-1.958-1.589
			c0-0.183,0.01-0.357,0.027-0.54L93.66,142.143z"/>
		<path fill="#231F20" d="M99.396,143.27v1.232h-3.639c-0.501,0-0.639-0.386-0.639-0.646c0-0.231,0.146-0.586,0.639-0.586H99.396z"
			/>
		<path fill="#231F20" d="M103.033,143.27v1.232h-3.639c-0.501,0-0.637-0.386-0.637-0.646c0-0.231,0.145-0.586,0.637-0.586H103.033z
			"/>
		<path fill="#231F20" d="M106.672,143.27v1.232h-3.641c-0.499,0-0.637-0.386-0.637-0.646c0-0.231,0.145-0.586,0.637-0.586H106.672z
			"/>
		<path fill="#231F20" d="M110.309,143.27v1.232h-3.639c-0.501,0-0.639-0.386-0.639-0.646c0-0.231,0.146-0.586,0.639-0.586H110.309z
			"/>
		<path fill="#231F20" d="M113.945,143.27v1.232h-3.639c-0.501,0-0.637-0.386-0.637-0.646c0-0.231,0.145-0.586,0.637-0.586H113.945z
			"/>
		<path fill="#231F20" d="M114.144,143.27c0.7,0,1.429-0.299,1.566-0.849l0.262-1.039l0.629-0.48l0.054,0.067
			c-0.127,0.49-0.2,0.905-0.2,1.117c0,0.335,0.083,0.615,0.301,0.798c0.291,0.25,0.646,0.386,1.128,0.386h0.164v1.232h-0.208
			c-0.894,0-1.566-0.26-1.875-0.981h-0.036c-0.311,0.644-1.028,0.981-1.811,0.981h-0.174c-0.499,0-0.637-0.386-0.637-0.646
			c0-0.231,0.145-0.586,0.637-0.586H114.144z M115.172,148.343c-0.372-0.376-0.7-0.685-1.064-1.003
			c0.237-0.345,0.491-0.663,0.719-0.914c0.372,0.309,0.683,0.627,1.038,1.03C115.609,147.841,115.426,148.092,115.172,148.343z
			 M116.929,148.217c-0.375-0.376-0.7-0.685-1.064-1c0.234-0.347,0.491-0.666,0.719-0.916c0.372,0.309,0.681,0.626,1.035,1.029
			C117.364,147.716,117.183,147.967,116.929,148.217z"/>
		<path fill="#231F20" d="M121.684,143.27v1.232h-3.639c-0.502,0-0.637-0.386-0.637-0.646c0-0.231,0.145-0.586,0.637-0.586H121.684z
			"/>
		<path fill="#231F20" d="M125.322,143.27v1.232h-3.641c-0.5,0-0.637-0.386-0.637-0.646c0-0.231,0.146-0.586,0.637-0.586H125.322z"
			/>
		<path fill="#231F20" d="M128.959,143.27v1.232h-3.639c-0.502,0-0.639-0.386-0.639-0.646c0-0.231,0.146-0.586,0.639-0.586H128.959z
			"/>
		<path fill="#231F20" d="M132.596,143.27v1.232h-3.639c-0.502,0-0.637-0.386-0.637-0.646c0-0.231,0.145-0.586,0.637-0.586H132.596z
			"/>
		<path fill="#231F20" d="M132.774,143.27c0.374,0,0.775-0.135,1.057-0.299c0.272-0.164,0.437-0.473,0.437-1.155
			c0-1.936-0.101-3.667-0.235-5.881l-0.027-0.482l0.808-0.866l0.047,0.019c0.174,2.262,0.181,4.62,0.181,7.567
			c0,0.441,0.292,1.097,1.349,1.097h0.117v1.232h-0.19c-0.847,0-1.483-0.309-1.774-1.02h-0.036c-0.282,0.548-0.874,1.02-1.757,1.02
			h-0.154c-0.5,0-0.637-0.386-0.637-0.646c0-0.231,0.145-0.586,0.637-0.586H132.774z"/>
		<path fill="#231F20" d="M140.143,143.27v1.232h-3.639c-0.501,0-0.636-0.386-0.636-0.646c0-0.231,0.145-0.586,0.636-0.586H140.143z
			"/>
		<path fill="#231F20" d="M143.781,143.27v1.232h-3.641c-0.499,0-0.636-0.386-0.636-0.646c0-0.231,0.146-0.586,0.636-0.586H143.781z
			"/>
		<path fill="#231F20" d="M147.418,143.27v1.232h-3.639c-0.501,0-0.638-0.386-0.638-0.646c0-0.231,0.146-0.586,0.638-0.586H147.418z
			"/>
		<path fill="#231F20" d="M151.055,143.27v1.232h-3.639c-0.501,0-0.636-0.386-0.636-0.646c0-0.231,0.145-0.586,0.636-0.586H151.055z
			"/>
		<path fill="#231F20" d="M156.476,141.488c-1.056-0.413-2.02-0.673-2.856-0.673c-0.519,0-0.9,0.174-1.155,0.48l0.108,0.482
			l-0.271,0.866h-0.093l-0.445-1.271c0.073-1.068,0.883-1.731,1.975-1.731c0.609,0,1.546,0.222,2.984,0.827
			c0.437,0.183,0.983,0.318,1.557,0.318h0.79l0.02,0.02l-0.564,0.991c-0.728,0-1.238,0.164-1.537,0.366l-1.52,1.049
			c-1.265,0.856-2.521,1.29-3.995,1.29h-0.419c-0.499,0-0.637-0.386-0.637-0.646c0-0.231,0.146-0.586,0.637-0.586h0.556
			c1.473,0,2.984-0.55,4.859-1.743L156.476,141.488z M154.202,136.308c0.372,0.29,0.736,0.637,1.091,1.032
			c-0.2,0.345-0.445,0.664-0.756,0.943c-0.354-0.356-0.71-0.665-1.072-0.991C153.71,136.945,153.955,136.607,154.202,136.308z
			 M157.495,142.143l0.027,0.01c0.036,0.818,0.673,1.117,1.609,1.117h0.247v1.232h-0.283c-1.173,0-1.955-0.434-1.955-1.589
			c0-0.183,0.01-0.357,0.026-0.54L157.495,142.143z"/>
		<path fill="#231F20" d="M163.014,143.27v1.232h-3.641c-0.499,0-0.636-0.386-0.636-0.646c0-0.231,0.145-0.586,0.636-0.586H163.014z
			"/>
		<path fill="#231F20" d="M166.65,143.27v1.232h-3.641c-0.499,0-0.636-0.386-0.636-0.646c0-0.231,0.146-0.586,0.636-0.586H166.65z"
			/>
		<path fill="#231F20" d="M166.85,143.27c0.291,0,0.626-0.039,1.018-0.26c0.318-0.193,0.482-0.54,0.482-1.04
			c-0.018-1.541-0.118-3.226-0.265-4.996c-0.034-0.443-0.091-0.847-0.091-1.203c0-0.212,0.091-0.434,0.274-0.646
			c0.127-0.164,0.301-0.345,0.499-0.528l0.063,0.048c-0.017,0.625,0.265,1.377,0.739,2.204c-0.164,0.164-0.355,0.328-0.575,0.492
			c0.037,1.107,0.12,2.271,0.12,3.34c0,1.04-0.101,1.838-0.365,2.416c-0.19,0.49-0.408,0.895-0.829,1.117
			c-0.354,0.193-0.78,0.289-1.136,0.289h-0.137c-0.501,0-0.636-0.386-0.636-0.646c0-0.231,0.145-0.586,0.636-0.586H166.85z"/>
		<path fill="#231F20" d="M171.142,144.666c0.091-0.607,0.101-1.29,0.101-1.926v-0.943c0-1.763-0.184-4.323-0.328-5.987
			c0.255-0.347,0.609-0.752,0.891-1.02l0.083,0.029c0.191,2.098,0.235,4.533,0.235,6.776c0,0.588-0.018,1.165-0.063,1.589
			c-0.027,0.528-0.272,0.933-0.801,1.55L171.142,144.666z"/>
		<path fill="#231F20" d="M183.866,142.884c-0.673,0-1.255-0.125-1.656-0.415c-0.509-0.374-0.637-0.875-0.637-1.587
			c0-0.347,0.146-0.771,0.328-1.117c0.318-0.617,0.891-1.165,1.492-1.165c0.736,0,1.329,0.605,1.801,1.847
			c0.174,0.55,0.409,1.531,0.409,2.339c0,0.501-0.035,0.962-0.145,1.377c-0.046,0.318-0.374,0.75-0.673,1.04
			c-0.893,0.837-2.258,1.618-3.813,1.618c-1.793,0-3.439-1.29-3.439-3.639c0-0.981,0.208-1.975,0.545-2.715l0.382,0.106
			c-0.181,0.567-0.309,1.107-0.309,1.599c0,2.021,1.183,3.262,2.849,3.262c0.847,0,1.911-0.222,2.919-0.923
			c0.556-0.396,1.12-0.896,1.12-1.165c0-0.184-0.054-0.376-0.127-0.56C184.612,142.845,184.258,142.884,183.866,142.884z
			 M182.119,137.215c-0.372-0.376-0.7-0.685-1.064-1.003c0.237-0.345,0.492-0.663,0.72-0.914c0.372,0.309,0.683,0.627,1.037,1.03
			C182.557,136.713,182.374,136.964,182.119,137.215z M183.239,139.853c-0.519,0-1.11,0.432-1.11,0.904
			c0,0.403,0.509,0.885,1.791,0.885c0.328,0,0.592-0.01,0.819-0.058C184.432,140.487,183.912,139.853,183.239,139.853z
			 M183.876,137.089c-0.374-0.376-0.7-0.685-1.064-1.001c0.235-0.347,0.491-0.665,0.719-0.916c0.372,0.309,0.681,0.627,1.036,1.03
			C184.312,136.588,184.13,136.838,183.876,137.089z"/>
		<path fill="#231F20" d="M193.396,144.501h-0.172c-0.819,0-1.502-0.366-1.856-1.569h-0.046c-0.071,0.366-0.263,0.673-0.654,0.923
			c-0.602,0.386-1.221,0.646-1.83,0.646c-1.018,0-1.583-0.656-1.583-1.782c0-0.241,0.01-0.47,0.027-0.711l0.354-0.029
			c0.037,0.798,0.411,1.29,1.284,1.29c0.482,0,1.055-0.222,1.483-0.482c0.335-0.202,0.592-0.49,0.592-0.721
			c0-0.655-0.328-1.936-0.756-3.581c0.208-0.337,0.408-0.685,0.646-0.993l0.055,0.039c0.337,1.387,0.618,2.869,0.865,4.285
			c0.162,0.953,0.754,1.454,1.437,1.454h0.154V144.501z"/>
		<path fill="#231F20" d="M197.03,143.27v1.232h-3.639c-0.501,0-0.636-0.386-0.636-0.646c0-0.231,0.145-0.586,0.636-0.586H197.03z"
			/>
		<path fill="#231F20" d="M200.669,143.27v1.232h-3.641c-0.499,0-0.636-0.386-0.636-0.646c0-0.231,0.145-0.586,0.636-0.586H200.669z
			"/>
		<path fill="#231F20" d="M204.306,143.27v1.232h-3.639c-0.501,0-0.638-0.386-0.638-0.646c0-0.231,0.146-0.586,0.638-0.586H204.306z
			"/>
		<path fill="#231F20" d="M204.505,143.27c0.699,0,1.429-0.299,1.563-0.849l0.264-1.039l0.629-0.48l0.054,0.067
			c-0.127,0.49-0.2,0.905-0.2,1.117c0,0.335,0.083,0.615,0.301,0.798c0.291,0.25,0.646,0.386,1.128,0.386h0.164v1.232h-0.21
			c-0.891,0-1.564-0.26-1.874-0.981h-0.035c-0.311,0.644-1.029,0.981-1.811,0.981h-0.174c-0.501,0-0.636-0.386-0.636-0.646
			c0-0.231,0.145-0.586,0.636-0.586H204.505z M206.088,137.454c0.372,0.29,0.736,0.636,1.091,1.032
			c-0.2,0.345-0.445,0.663-0.756,0.943c-0.354-0.357-0.709-0.665-1.072-0.991C205.596,138.09,205.841,137.752,206.088,137.454z"/>
		<path fill="#231F20" d="M212.044,143.27v1.232h-3.639c-0.501,0-0.639-0.386-0.639-0.646c0-0.231,0.147-0.586,0.639-0.586H212.044z
			"/>
		<path fill="#231F20" d="M215.681,143.27v1.232h-3.639c-0.501,0-0.637-0.386-0.637-0.646c0-0.231,0.146-0.586,0.637-0.586H215.681z
			"/>
		<path fill="#231F20" d="M219.319,143.27v1.232h-3.641c-0.499,0-0.637-0.386-0.637-0.646c0-0.231,0.147-0.586,0.637-0.586H219.319z
			"/>
		<path fill="#231F20" d="M222.956,143.27v1.232h-3.639c-0.501,0-0.639-0.386-0.639-0.646c0-0.231,0.147-0.586,0.639-0.586H222.956z
			"/>
		<path fill="#231F20" d="M223.718,143.27c0.783,0,1.466-0.029,1.984-0.193c0.582-0.183,1.074-0.55,1.074-0.798
			c0-0.067,0-0.145-0.02-0.212c-0.328,0.039-0.7,0.039-1.028,0.039c-1.055,0-1.864-0.299-2.183-1.039
			c-0.083-0.203-0.137-0.434-0.137-0.694c0-0.711,0.245-1.415,0.683-1.896c0.362-0.395,0.764-0.646,1.173-0.646
			c0.738,0,1.328,0.743,1.739,1.907c0.228,0.634,0.382,1.367,0.382,2.291c0,0.615-0.138,1.136-0.446,1.521
			c-0.574,0.692-1.629,0.953-3.249,0.953h-0.736c-0.501,0-0.637-0.386-0.637-0.646c0-0.231,0.146-0.586,0.637-0.586H223.718z
			 M225.065,139.091c-0.602,0-1.093,0.492-1.093,0.856c0,0.781,1.201,1.022,2.64,1.013
			C226.429,140.043,225.802,139.091,225.065,139.091z M224.875,134.77c0.372,0.287,0.736,0.634,1.091,1.03
			c-0.2,0.347-0.445,0.663-0.756,0.943c-0.354-0.357-0.709-0.663-1.074-0.991C224.383,135.404,224.628,135.066,224.875,134.77z"/>
	</g>
	<g>
		<path fill="#231F20" d="M8.5,170.286H3.775l-0.7,1.512c-0.096,0.21-0.145,0.376-0.145,0.495c0,0.231,0.17,0.392,0.51,0.482v0.25H0
			v-0.25c0.204-0.042,0.358-0.116,0.465-0.222c0.107-0.104,0.229-0.309,0.366-0.613l3.824-8.263c0.121-0.262,0.183-0.473,0.183-0.63
			c0-0.241-0.148-0.415-0.441-0.521v-0.25h3.687v0.25c-0.301,0.091-0.449,0.245-0.449,0.465c0,0.152,0.049,0.326,0.145,0.521
			l3.961,8.286c0.168,0.353,0.314,0.592,0.441,0.721c0.128,0.129,0.297,0.214,0.511,0.256v0.25H8.862v-0.25
			c0.338-0.058,0.505-0.222,0.505-0.49c0-0.11-0.05-0.272-0.152-0.488L8.5,170.286z M7.848,168.813l-1.687-3.83l-1.713,3.83H7.848z"
			/>
		<path fill="#231F20" d="M16.332,171.254h6.391c0.158,0,0.277-0.037,0.358-0.11s0.146-0.205,0.197-0.394h0.244v2.781h-0.244
			c-0.051-0.189-0.116-0.32-0.197-0.396c-0.081-0.073-0.2-0.11-0.358-0.11h-9.147v-0.25c0.183-0.054,0.309-0.122,0.38-0.207
			c0.071-0.083,0.107-0.206,0.107-0.37v-9.096c0-0.164-0.036-0.287-0.107-0.37c-0.071-0.085-0.197-0.152-0.38-0.207v-0.25h3.245
			v0.25c-0.184,0.048-0.311,0.116-0.382,0.203s-0.106,0.21-0.106,0.374V171.254z"/>
		<path fill="#231F20" d="M32.837,168.009l-1.568,1.307v2.883c0,0.164,0.037,0.287,0.112,0.374c0.073,0.087,0.198,0.154,0.376,0.203
			v0.25h-3.245v-0.25c0.183-0.054,0.311-0.122,0.382-0.207c0.071-0.083,0.105-0.206,0.105-0.37v-9.104
			c0-0.158-0.034-0.279-0.105-0.362c-0.071-0.085-0.199-0.152-0.382-0.207v-0.25h3.245v0.25c-0.184,0.048-0.311,0.116-0.38,0.203
			c-0.071,0.087-0.108,0.208-0.108,0.364v3.764l4.283-3.614c0.196-0.167,0.297-0.301,0.297-0.401c0-0.152-0.148-0.258-0.443-0.316
			v-0.25h4.252v0.25c-0.18,0.039-0.305,0.079-0.382,0.127c-0.075,0.046-0.298,0.226-0.664,0.536l-0.586,0.503l-3.534,2.937
			l4.007,4.986c0.37,0.463,0.638,0.76,0.804,0.895c0.164,0.133,0.372,0.222,0.621,0.264v0.25h-4.064v-0.25
			c0.27-0.058,0.404-0.158,0.404-0.301c0-0.073-0.121-0.268-0.366-0.583L32.837,168.009z"/>
		<path fill="#231F20" d="M49.772,168.333h-5.995v3.874c0,0.158,0.037,0.279,0.11,0.366s0.198,0.154,0.378,0.203v0.25h-3.245v-0.25
			c0.183-0.054,0.308-0.122,0.38-0.207c0.071-0.083,0.107-0.204,0.107-0.362v-9.111c0-0.158-0.036-0.279-0.107-0.362
			c-0.072-0.085-0.197-0.152-0.38-0.207v-0.25h3.245v0.25c-0.184,0.048-0.311,0.116-0.382,0.203s-0.106,0.208-0.106,0.366v3.465
			h5.995v-3.465c0-0.158-0.037-0.279-0.108-0.366s-0.196-0.154-0.38-0.203v-0.25h3.246v0.25c-0.184,0.054-0.311,0.122-0.382,0.207
			c-0.071,0.083-0.106,0.204-0.106,0.362v9.111c0,0.158,0.035,0.279,0.106,0.362c0.071,0.085,0.198,0.152,0.382,0.207v0.25h-3.246
			v-0.25c0.178-0.048,0.303-0.116,0.376-0.203c0.075-0.087,0.112-0.208,0.112-0.366V168.333z"/>
		<path fill="#231F20" d="M62.019,170.286h-4.724l-0.7,1.512c-0.097,0.21-0.145,0.376-0.145,0.495c0,0.231,0.17,0.392,0.509,0.482
			v0.25H53.52v-0.25c0.204-0.042,0.358-0.116,0.464-0.222c0.108-0.104,0.229-0.309,0.367-0.613l3.823-8.263
			c0.121-0.262,0.184-0.473,0.184-0.63c0-0.241-0.148-0.415-0.441-0.521v-0.25h3.687v0.25c-0.301,0.091-0.449,0.245-0.449,0.465
			c0,0.152,0.048,0.326,0.145,0.521l3.961,8.286c0.167,0.353,0.313,0.592,0.441,0.721c0.127,0.129,0.297,0.214,0.511,0.256v0.25
			h-3.829v-0.25c0.337-0.058,0.505-0.222,0.505-0.49c0-0.11-0.05-0.272-0.152-0.488L62.019,170.286z M61.367,168.813l-1.688-3.83
			l-1.712,3.83H61.367z"/>
		<path fill="#231F20" d="M69.852,171.254h6.391c0.158,0,0.277-0.037,0.358-0.11s0.146-0.205,0.196-0.394h0.245v2.781h-0.245
			c-0.05-0.189-0.115-0.32-0.196-0.396c-0.081-0.073-0.2-0.11-0.358-0.11h-9.148v-0.25c0.184-0.054,0.309-0.122,0.38-0.207
			c0.071-0.083,0.108-0.206,0.108-0.37v-9.096c0-0.164-0.037-0.287-0.108-0.37c-0.071-0.085-0.196-0.152-0.38-0.207v-0.25h3.246
			v0.25c-0.184,0.048-0.311,0.116-0.382,0.203s-0.106,0.21-0.106,0.374V171.254z"/>
		<path fill="#231F20" d="M80.889,168.31v2.944h6.688c0.152,0,0.27-0.037,0.351-0.11s0.146-0.205,0.199-0.394h0.243v2.781h-0.243
			c-0.053-0.189-0.118-0.32-0.199-0.396c-0.081-0.073-0.198-0.11-0.351-0.11h-9.444v-0.25c0.183-0.054,0.309-0.122,0.38-0.207
			c0.071-0.083,0.107-0.206,0.107-0.37v-9.096c0-0.164-0.036-0.287-0.107-0.37c-0.071-0.085-0.197-0.152-0.38-0.207v-0.25h9.261
			c0.152,0,0.271-0.039,0.352-0.114c0.081-0.073,0.146-0.205,0.198-0.392h0.243v2.781h-0.243c-0.052-0.187-0.117-0.316-0.198-0.392
			s-0.199-0.112-0.352-0.112h-6.504v2.551h4.22c0.152,0,0.27-0.037,0.351-0.11s0.146-0.205,0.198-0.394H85.9v2.717h-0.243
			c-0.052-0.183-0.117-0.314-0.198-0.389c-0.081-0.077-0.198-0.114-0.351-0.114H80.889z"/>
		<path fill="#231F20" d="M92.742,168.31v2.944h6.688c0.152,0,0.268-0.037,0.351-0.11c0.081-0.073,0.146-0.205,0.196-0.394h0.245
			v2.781h-0.245c-0.05-0.189-0.115-0.32-0.196-0.396c-0.083-0.073-0.198-0.11-0.351-0.11h-9.445v-0.25
			c0.182-0.054,0.309-0.122,0.38-0.207c0.071-0.083,0.106-0.206,0.106-0.37v-9.096c0-0.164-0.035-0.287-0.106-0.37
			c-0.071-0.085-0.198-0.152-0.38-0.207v-0.25h9.262c0.152,0,0.27-0.039,0.351-0.114c0.081-0.073,0.146-0.205,0.199-0.392h0.242
			v2.781h-0.242c-0.053-0.187-0.118-0.316-0.199-0.392s-0.198-0.112-0.351-0.112h-6.504v2.551h4.219c0.152,0,0.271-0.037,0.351-0.11
			c0.081-0.073,0.147-0.205,0.197-0.394h0.245v2.717h-0.245c-0.05-0.183-0.116-0.314-0.197-0.389
			c-0.08-0.077-0.198-0.114-0.351-0.114H92.742z"/>
		<path fill="#231F20" d="M100.945,172.618l0.976-2.725l0.228,0.085c-0.004,0.063-0.008,0.116-0.008,0.158
			c0,0.216,0.129,0.415,0.39,0.6c0.273,0.183,0.64,0.337,1.101,0.464c0.459,0.125,0.898,0.189,1.321,0.189
			c0.681,0,1.176-0.16,1.484-0.482c0.158-0.162,0.265-0.355,0.32-0.579c0.056-0.222,0.085-0.559,0.085-1.012v-6.213
			c0-0.164-0.037-0.287-0.108-0.37c-0.071-0.085-0.196-0.152-0.38-0.207v-0.25h3.245v0.25c-0.183,0.054-0.311,0.122-0.382,0.207
			c-0.071,0.083-0.105,0.206-0.105,0.37v6.333c0,1.039-0.141,1.79-0.419,2.252c-0.295,0.488-0.732,0.866-1.311,1.13
			c-0.579,0.264-1.254,0.397-2.027,0.397c-0.441,0-0.825-0.029-1.149-0.09c-0.325-0.06-0.855-0.203-1.592-0.428
			c-0.457-0.137-0.781-0.207-0.975-0.207c-0.167,0-0.323,0.075-0.465,0.222L100.945,172.618z"/>
		<path fill="#231F20" d="M117.923,168.663v3.544c0,0.158,0.037,0.279,0.112,0.366c0.073,0.087,0.198,0.154,0.376,0.203v0.25h-3.245
			v-0.25c0.183-0.054,0.311-0.122,0.382-0.207c0.071-0.083,0.105-0.204,0.105-0.362v-9.104c0-0.164-0.034-0.287-0.105-0.37
			c-0.071-0.085-0.199-0.152-0.382-0.207v-0.25h6.49c0.756,0,1.357,0.052,1.801,0.156c0.445,0.106,0.837,0.287,1.179,0.543
			c0.349,0.268,0.623,0.621,0.821,1.057c0.198,0.451,0.297,0.929,0.297,1.433c0,0.725-0.187,1.359-0.563,1.905
			c-0.325,0.469-0.756,0.8-1.291,0.997c-0.536,0.197-1.283,0.295-2.243,0.295H117.923z M117.923,166.891h3.468
			c0.69,0,1.174-0.075,1.453-0.228c0.178-0.1,0.322-0.258,0.431-0.476c0.109-0.218,0.164-0.459,0.164-0.721
			c0-0.257-0.055-0.496-0.164-0.713c-0.108-0.218-0.253-0.376-0.431-0.477c-0.273-0.152-0.76-0.228-1.453-0.228h-3.468V166.891z"/>
		<path fill="#231F20" d="M133.621,170.286h-4.724l-0.7,1.512c-0.097,0.21-0.145,0.376-0.145,0.495c0,0.231,0.169,0.392,0.509,0.482
			v0.25h-3.44v-0.25c0.205-0.042,0.359-0.116,0.465-0.222c0.108-0.104,0.229-0.309,0.366-0.613l3.824-8.263
			c0.121-0.262,0.184-0.473,0.184-0.63c0-0.241-0.149-0.415-0.442-0.521v-0.25h3.688v0.25c-0.301,0.091-0.449,0.245-0.449,0.465
			c0,0.152,0.048,0.326,0.145,0.521l3.96,8.286c0.168,0.353,0.314,0.592,0.442,0.721c0.127,0.129,0.297,0.214,0.511,0.256v0.25
			h-3.83v-0.25c0.338-0.058,0.506-0.222,0.506-0.49c0-0.11-0.051-0.272-0.152-0.488L133.621,170.286z M132.97,168.813l-1.688-3.83
			l-1.712,3.83H132.97z"/>
		<path fill="#231F20" d="M141.454,171.254h6.39c0.158,0,0.278-0.037,0.359-0.11s0.146-0.205,0.196-0.394h0.245v2.781h-0.245
			c-0.05-0.189-0.115-0.32-0.196-0.396c-0.081-0.073-0.201-0.11-0.359-0.11h-9.147v-0.25c0.184-0.054,0.309-0.122,0.38-0.207
			c0.071-0.083,0.108-0.206,0.108-0.37v-9.096c0-0.164-0.037-0.287-0.108-0.37c-0.071-0.085-0.196-0.152-0.38-0.207v-0.25h3.245
			v0.25c-0.183,0.048-0.311,0.116-0.382,0.203s-0.105,0.21-0.105,0.374V171.254z"/>
		<path fill="#231F20" d="M157.921,170.286h-4.726l-0.7,1.512c-0.097,0.21-0.145,0.376-0.145,0.495c0,0.231,0.17,0.392,0.509,0.482
			v0.25h-3.438v-0.25c0.202-0.042,0.356-0.116,0.465-0.222c0.105-0.104,0.227-0.309,0.364-0.613l3.823-8.263
			c0.124-0.262,0.184-0.473,0.184-0.63c0-0.241-0.146-0.415-0.441-0.521v-0.25h3.687v0.25c-0.299,0.091-0.449,0.245-0.449,0.465
			c0,0.152,0.048,0.326,0.145,0.521l3.961,8.286c0.167,0.353,0.314,0.592,0.441,0.721c0.127,0.129,0.297,0.214,0.511,0.256v0.25
			h-3.827v-0.25c0.335-0.058,0.505-0.222,0.505-0.49c0-0.11-0.052-0.272-0.152-0.488L157.921,170.286z M157.268,168.813l-1.686-3.83
			l-1.714,3.83H157.268z"/>
		<path fill="#231F20" d="M172.289,169.334l1.446,2.24l-0.197,0.141c-0.143-0.137-0.26-0.205-0.351-0.205s-0.347,0.125-0.77,0.378
			c-0.873,0.522-1.608,0.874-2.206,1.055c-0.596,0.182-1.306,0.272-2.129,0.272c-1.639,0-2.984-0.401-4.035-1.205
			c-0.621-0.467-1.109-1.047-1.464-1.739c-0.411-0.794-0.617-1.668-0.617-2.625c0-1.302,0.368-2.434,1.104-3.394
			c1.107-1.444,2.781-2.166,5.02-2.166c0.823,0,1.529,0.089,2.117,0.268c0.59,0.177,1.327,0.53,2.21,1.055
			c0.423,0.247,0.679,0.37,0.77,0.37s0.208-0.067,0.351-0.204l0.197,0.141l-1.446,2.245l-0.206-0.141
			c0.009-0.083,0.015-0.154,0.015-0.212c0-0.15-0.063-0.293-0.19-0.426c-0.127-0.135-0.354-0.295-0.677-0.484
			c-0.898-0.522-1.852-0.785-2.858-0.785c-1.188,0-2.134,0.309-2.84,0.921c-0.833,0.717-1.25,1.657-1.25,2.815
			c0,1.161,0.417,2.1,1.25,2.817c0.706,0.615,1.652,0.921,2.84,0.921c1.007,0,1.96-0.262,2.858-0.789
			c0.323-0.189,0.55-0.351,0.677-0.484c0.127-0.133,0.19-0.278,0.19-0.43c0-0.058-0.006-0.125-0.015-0.204L172.289,169.334z"/>
		<path fill="#231F20" d="M178.055,168.31v2.944h6.687c0.152,0,0.271-0.037,0.352-0.11s0.146-0.205,0.198-0.394h0.243v2.781h-0.243
			c-0.052-0.189-0.117-0.32-0.198-0.396c-0.081-0.073-0.199-0.11-0.352-0.11h-9.444v-0.25c0.184-0.054,0.311-0.122,0.382-0.207
			c0.069-0.083,0.106-0.206,0.106-0.37v-9.096c0-0.164-0.037-0.287-0.106-0.37c-0.071-0.085-0.198-0.152-0.382-0.207v-0.25h9.264
			c0.152,0,0.268-0.039,0.349-0.114c0.081-0.073,0.148-0.205,0.199-0.392h0.242v2.781h-0.242c-0.051-0.187-0.118-0.316-0.199-0.392
			s-0.196-0.112-0.349-0.112h-6.506v2.551h4.221c0.152,0,0.268-0.037,0.349-0.11s0.148-0.205,0.199-0.394h0.243v2.717h-0.243
			c-0.051-0.183-0.118-0.314-0.199-0.389c-0.081-0.077-0.196-0.114-0.349-0.114H178.055z"/>
		<path fill="#231F20" d="M199.802,168.333h-5.993v3.874c0,0.158,0.036,0.279,0.109,0.366s0.199,0.154,0.376,0.203v0.25h-3.243
			v-0.25c0.182-0.054,0.309-0.122,0.38-0.207c0.071-0.083,0.106-0.204,0.106-0.362v-9.111c0-0.158-0.035-0.279-0.106-0.362
			c-0.071-0.085-0.198-0.152-0.38-0.207v-0.25h3.243v0.25c-0.181,0.048-0.309,0.116-0.38,0.203s-0.105,0.208-0.105,0.366v3.465
			h5.993v-3.465c0-0.158-0.035-0.279-0.106-0.366s-0.198-0.154-0.38-0.203v-0.25h3.243v0.25c-0.181,0.054-0.309,0.122-0.38,0.207
			c-0.071,0.083-0.105,0.204-0.105,0.362v9.111c0,0.158,0.034,0.279,0.105,0.362c0.071,0.085,0.199,0.152,0.38,0.207v0.25h-3.243
			v-0.25c0.178-0.048,0.303-0.116,0.376-0.203s0.11-0.208,0.11-0.366V168.333z"/>
		<path fill="#231F20" d="M210.15,162.087c1.813,0,3.251,0.507,4.313,1.52c1.122,1.061,1.686,2.432,1.686,4.111
			c0,1.03-0.271,1.99-0.808,2.883c-1.054,1.743-2.779,2.615-5.176,2.615c-1.799,0-3.23-0.505-4.293-1.52
			c-0.568-0.54-1-1.189-1.295-1.945c-0.259-0.667-0.388-1.367-0.388-2.104c0-1.076,0.266-2.06,0.8-2.952
			C206.011,162.988,207.73,162.118,210.15,162.087z M210.158,163.914c-0.991,0-1.818,0.305-2.479,0.914
			c-0.783,0.717-1.173,1.66-1.173,2.823c0,1.165,0.39,2.107,1.173,2.825c0.661,0.609,1.492,0.914,2.495,0.914
			c1,0,1.83-0.305,2.485-0.914c0.392-0.36,0.69-0.804,0.898-1.329c0.184-0.466,0.275-0.95,0.275-1.448
			c0-1.217-0.391-2.175-1.174-2.871C211.992,164.229,211.159,163.925,210.158,163.914z"/>
		<path fill="#231F20" d="M223.142,164.048v8.151c0,0.164,0.036,0.287,0.105,0.37c0.071,0.085,0.199,0.152,0.382,0.207v0.25h-3.245
			v-0.25c0.184-0.054,0.311-0.122,0.382-0.207c0.069-0.083,0.105-0.206,0.105-0.37v-8.151h-3.229c-0.152,0-0.27,0.035-0.351,0.108
			c-0.081,0.071-0.146,0.205-0.197,0.396h-0.244v-2.781h0.244c0.057,0.193,0.122,0.324,0.201,0.396
			c0.079,0.073,0.194,0.11,0.347,0.11h8.722c0.158,0,0.277-0.037,0.358-0.11c0.081-0.071,0.146-0.203,0.199-0.396h0.242v2.781
			h-0.242c-0.053-0.191-0.118-0.324-0.199-0.396c-0.081-0.073-0.2-0.108-0.358-0.108H223.142z"/>
		<path fill="#231F20" d="M230.956,168.31v2.944h6.689c0.152,0,0.269-0.037,0.349-0.11c0.081-0.073,0.149-0.205,0.199-0.394h0.245
			v2.781h-0.245c-0.05-0.189-0.118-0.32-0.199-0.396c-0.08-0.073-0.196-0.11-0.349-0.11h-9.446v-0.25
			c0.183-0.054,0.311-0.122,0.382-0.207c0.071-0.083,0.105-0.206,0.105-0.37v-9.096c0-0.164-0.034-0.287-0.105-0.37
			c-0.071-0.085-0.199-0.152-0.382-0.207v-0.25h9.264c0.151,0,0.268-0.039,0.351-0.114c0.081-0.073,0.146-0.205,0.196-0.392h0.245
			v2.781h-0.245c-0.05-0.187-0.115-0.316-0.196-0.392c-0.083-0.075-0.199-0.112-0.351-0.112h-6.507v2.551h4.222
			c0.152,0,0.268-0.037,0.349-0.11c0.083-0.073,0.148-0.205,0.198-0.394h0.245v2.717h-0.245c-0.05-0.183-0.115-0.314-0.198-0.389
			c-0.081-0.077-0.196-0.114-0.349-0.114H230.956z"/>
		<path fill="#231F20" d="M242.81,171.254h6.391c0.157,0,0.277-0.037,0.358-0.11s0.146-0.205,0.196-0.394H250v2.781h-0.245
			c-0.05-0.189-0.115-0.32-0.196-0.396c-0.081-0.073-0.201-0.11-0.358-0.11h-9.148v-0.25c0.184-0.054,0.309-0.122,0.38-0.207
			c0.071-0.083,0.108-0.206,0.108-0.37v-9.096c0-0.164-0.037-0.287-0.108-0.37c-0.071-0.085-0.196-0.152-0.38-0.207v-0.25h3.245
			v0.25c-0.183,0.048-0.31,0.116-0.381,0.203c-0.072,0.087-0.106,0.21-0.106,0.374V171.254z"/>
	</g>
</g>
</svg>
